<?xml version="1.0" encoding="UTF-8" standalone="no"?>
<!-- Created with Inkscape (http://www.inkscape.org/) -->

<svg
   xmlns:dc="http://purl.org/dc/elements/1.1/"
   xmlns:cc="http://creativecommons.org/ns#"
   xmlns:rdf="http://www.w3.org/1999/02/22-rdf-syntax-ns#"
   xmlns:svg="http://www.w3.org/2000/svg"
   xmlns="http://www.w3.org/2000/svg"
   xmlns:sodipodi="http://sodipodi.sourceforge.net/DTD/sodipodi-0.dtd"
   xmlns:inkscape="http://www.inkscape.org/namespaces/inkscape"
   sodipodi:docname="sfd_keyring_image.svg"
   height="165"
   width="500"
   inkscape:version="0.48.4 r9939"
   version="1.1"
   id="svg2">
  <sodipodi:namedview
     pagecolor="#ffffff"
     bordercolor="#666666"
     borderopacity="1"
     objecttolerance="10"
     gridtolerance="10"
     guidetolerance="10"
     inkscape:pageopacity="0"
     inkscape:pageshadow="2"
     inkscape:window-width="1528"
     inkscape:window-height="808"
     id="namedview4"
     showgrid="false"
     inkscape:zoom="2.336"
     inkscape:cx="213.66607"
     inkscape:cy="133.67183"
     inkscape:window-x="0"
     inkscape:window-y="24"
     inkscape:window-maximized="0"
     inkscape:current-layer="svg2"
     inkscape:document-units="mm"
     inkscape:snap-page="true"
     inkscape:snap-grids="true"
     inkscape:snap-to-guides="true"
     inkscape:snap-bbox="true" />
  <metadata
     id="metadata8">
    <rdf:RDF>
      <cc:Work
         rdf:about="">
        <dc:format>image/svg+xml</dc:format>
        <dc:type
           rdf:resource="http://purl.org/dc/dcmitype/StillImage" />
        <dc:title />
      </cc:Work>
    </rdf:RDF>
  </metadata>
  <defs
     id="defs6" />
  <path
     style="fill:#000000"
     d="M90.903814 163.83621L75.546834 160.81781625L60.985034 156.79272L50.5989968086 152.495584063L40.9874662188 147.3625525L32.207169957 141.447008438L24.31483575 134.802335L17.3671913242 127.481915312L11.4209644063 119.5391325L6.53288272266 111.027369687L2.759674 102.00001L1.30958817187 97.3981818438L0.474159875 93.312733L0.0 82.0L0.474159875 70.68727125L1.30958817187 66.6018226563L2.759674 62.0L6.53288272266 52.9726403125L11.4209644062 44.4608775L17.3671913242 36.5180946875L24.31483575 29.197675L32.207169957 22.5530015625L40.9874662188 16.6374575L50.5989968086 11.5044259375L60.985034 7.20729L69.0466615 4.7264925L78.485034 2.33238L88.903814 0.0L249.40382 0.0L409.90382 0.0L420.3226 2.33238L434.247998164 6.15219605078L447.005562188 11.0954394688L458.542105117 17.1202017773L468.80444 24.1845745L477.739379883 32.2466491602L485.293737813 41.2645172813L491.414326836 51.1962703867L496.04796 62.0L497.498047187 66.6018226562L498.3334775 70.68727125L498.80764 82.0L498.3334775 93.312733L497.498047187 97.3981818438L496.04796 102.00001L492.363619785 110.85363377L487.613040781 119.207268281L481.844806699 127.01437709L475.10750125 134.22842375L467.449708145 140.802871816L458.920011094 146.691184844L449.566993809 151.846826387L439.43924 156.22326L422.40382 161.3201L411.90382 163.94486L252.90382 164.08444L90.903814 163.83621L90.903814 163.83621M418.37526 156.20082L429.958983027 153.087679961L440.733157344 149.169879687L450.652067051 144.478397695L459.66999625 139.0442125L467.741229043 132.898302617L474.820049531 126.071646562L480.860741816 118.595222852L485.81759 110.50001L489.128512812 103.419529063L491.2826975 96.77246675L492.450373437 89.8641738125L492.80177 82.000001L492.450373437 74.1358295937L491.2826975 67.22753975L489.128512812 60.5804805312L485.81759 53.500001L480.763479434 45.2747064863L474.580551719 37.6734205156L467.338465332 30.7428756934L459.10687875 24.529804625L449.955450449 19.080939916L439.953838906 14.4430141719L429.171702598 10.662759998L417.6787 7.78691L408.906415625 6.80244421875L386.4200025 6.26655625L249.40382 6.0L112.3876345 6.26655625L89.9012193125 6.80244421875L81.128934 7.78691L67.6377500959 11.2846909141L55.1665292672 16.033269L43.8230590893 21.9470821484L33.7151271375 28.94056825L24.9505209873 36.9281651953L17.6370282141 45.824310875L11.8824363932 55.5434431797L9.62341195715 60.6848911572L7.7945331 66.0L6.43268167813 73.2836087969L5.977887475 81.995866625L6.43034108437 90.6971228906L7.7902331 97.947727L9.79846270007 103.685775917L12.3094907115 109.223336818L15.3030422699 114.545554494L18.7588425109 119.637573734L22.6566165701 124.484539328L26.976089583 129.071596064L31.6969866853 133.383888734L36.7990330125 137.406562125L42.2619537003 141.124761028L48.0654738842 144.523630232L60.6132132828 150.303958703L74.2800522932 154.628705854L88.903792 157.37903L139.58932225 157.95778375L253.4038 158.07987L387.19527625 157.6503L409.921836719 157.117857187L418.37524 156.20082L418.37526 156.20082M449.40382 132.46017L451.50802 127.29576L452.676953437 124.768577969L453.120575 122.44139375L452.00802 113.54194L450.40382 99.64599L450.40382 95.379268L454.15382 95.689638L457.90382 95.999998L458.40382 103.16999L458.9555975 108.43146125L459.58008 111.01292L460.445282813 110.727896562L461.6919225 108.76631L464.84871 100.75001L465.901534062 97.7441924375L466.865065 96.1823345L468.256388437 95.5918113125L470.59259 95.499998L472.848286406 95.5565090937L473.97339625 95.87986175L474.250700469 96.7007850312L473.96298 98.250008L471.952384531 103.447671187L468.11168125 111.5260135L459.4739 127.25001L455.62933875 132.4014275L454.144815781 133.283354062L452.42923 133.50001L450.29253625 133.19455625L449.40382 132.46017L449.40382 132.46017M118.40382 123.47864L97.306572 122.778865L86.604684 122.05704L84.717438375 121.545638281L83.769819 120.74930125L83.489632125 119.133208594L83.604684 116.16254L84.0906535312 112.652319063L84.7251057773 111.384594336L85.81393275 110.2946925L89.9349000937 108.207054688L97.613934 105.5068L104.32407 103.25704L104.61394 95.628518L104.90382 88.000001L111.90382 86.195111L118.262213125 85.01010475L124.0172275 85.033716L129.748485625 86.33268725L136.03561 88.973761L142.686283281 93.1010645938L148.87159375 98.6308155L154.428919844 105.392786406L159.19564 113.21675L162.1676675 119.39857L163.40382 122.90271L163.465289824 123.489286973L163.212787969 123.912064531L159.14440125 124.29977125L118.40382 123.47864L118.40382 123.47864M190.70567 122.84423L191.367657031 116.332793281L193.77798875 104.1139505L196.642091094 92.1284852188L198.66539 86.317181L202.381636563 85.715994125L208.9997625 85.5517835L215.626247187 85.805086625L219.36757 86.456441L220.31783125 87.7772935L219.84745 90.191121L219.147852656 91.7495635L218.05563875 92.6290685L212.42205 93.303211L208.008121563 93.7047222344L205.241975 94.515143875L203.811308438 95.8976630781L203.40382 98.015467L203.750720469 99.6769349844L204.91411875 100.750634625L207.078060156 101.327886203L210.42659 101.50001L213.1464325 101.694814844L214.628235 102.38342625L215.01614 103.722139531L214.45429 105.86725L213.753755313 107.237103437L212.63866 108.0408475L207.25708 108.70117L201.02369 109.00001L199.28724 115.89558L197.6720975 121.01206375L196.22731 123.63026L194.549034219 124.33464125L192.91175625 124.4159975L191.551845156 123.9079775L190.70567 122.84423L190.70567 122.84423M216.54407 123.60785L215.945046875 122.741581094L215.8682225 120.85612875L217.44695 111.87316L220.50908 98.810168L221.481375273 97.4850244121L223.213080938 96.3547424844L228.0153475 94.845181625L233.037127812 94.6143214531L235.043225664 95.0824153848L236.39967 95.994998L236.891269375 97.9432155L236.0712425 100.1102665L234.437776875 101.72769875L233.471688125 102.090166516L232.48906 102.02706L230.084651563 101.744555625L228.3217425 103.03464L226.852267188 106.398444375L225.32816 112.3371L223.480033906 119.12835875L221.53825625 123.093145L220.467429629 124.098778906L219.295407969 124.49759625L217.996263887 124.322864219L216.54407 123.60785L216.54407 123.60785M238.48165 121.73169L236.781825933 119.634931202L235.611682773 117.335616287L234.935541587 114.89050935L234.717723437 112.356374484L235.514340508 107.248077346L237.7161025 102.464837625L241.03757793 98.4607680762L245.193335312 95.6899814531L247.494872397 94.9089794744L249.897943164 94.6065905098L252.366868677 94.8395786536L254.86597 95.664708L257.0635475 97.5207095L258.57918 100.69099L259.73613 104.55254L262.65998 101.00542L265.544821816 98.1226416172L268.657901406 96.06472275L271.83575123 94.8314751953L274.91490375 94.42271075L277.731891426 94.8382412109L280.123246719 96.077878375L281.92550209 98.1414340391L282.97519 101.02872L283.577279531 103.431778281L284.29538375 104.31042125L285.282991094 103.687678594L286.69359 101.58658L288.968483281 99.102073375L292.39793875 96.81908725L296.228109844 95.14820275L299.70515 94.500001L301.141961719 94.349459125L302.10761875 93.726076L303.50052 90.030241L304.69958 86.538036L306.00193 84.418571L307.713531875 83.7987761563L309.8351475 83.93221475L311.640626875 84.6596964687L312.40382 85.822031L309.3094 100.55298L307.14195 111.6145675L306.68834 118.26581L306.72466875 121.46600875L306.14356 123.16086L296.8532 124.1447L292.061957969 124.295748125L289.31297625 124.0574225L287.618908906 123.182290625L285.99241 121.42292L284.698731562 119.652601094L283.907705 117.85954875L283.40382 112.7683L283.14380125 108.2456675L282.619111406 108.011006875L281.65382 108.71652L276.92726875 111.74486375L271.40382 113.45212L268.38558625 114.402652813L267.790583672 114.991322148L267.7782275 115.5967125L269.421165 116.681013438L273.15382 117.30227L277.53628375 117.92601125L278.242556406 118.645279531L278.40382 119.85227L278.009415781 122.049979375L276.70399875 123.48414L274.304262344 124.264300625L270.6269 124.50001L265.6880275 123.97819375L264.032737812 123.090850469L262.3269 121.57693L260.800441406 119.858361719L259.91449125 118.18499125L259.40382 113.047L259.40382 107.44014L256.47277 109.60715L252.9871475 111.49703375L248.72277 112.99775L245.088221562 114.303499688L243.9104275 115.61956L244.240472539 116.22031582L245.181897187 116.750280313L248.89514 117.50001L252.878875 118.28127125L253.816027812 118.919007656L254.22771 119.79805L254.127017187 121.899483906L252.8710975 123.36392125L250.412669062 124.220912969L246.70445 124.50001L241.738785 123.996245L240.106409375 123.154684375L238.48165 121.73169L238.48165 121.73169M297.16457 116.25001L299.12078 110.3436L300.40382 103.45079L300.188109922 102.829126602L299.602390625 102.490014688L297.68939 102.56987L295.401749375 103.511205313L293.4764 105.13487L292.189585313 107.831383906L291.4428925 111.37423625L291.361475938 114.722022969L292.07049 116.83334L293.175592813 117.391668438L294.6226 117.45426L296.067072188 117.060559063L297.16457 116.25001L297.16457 116.25001M249.87517 106.14462L250.957065469 104.76906875L251.10198875 103.2446875L250.398510156 102.00912L248.9352 101.50001L247.348760469 102.063663906L245.52758875 103.41975375L244.027377656 105.065971719L243.40382 106.50001L244.111533438 107.281995L245.830335 107.46122L247.953716563 107.0709925L249.87517 106.14462L249.87517 106.14462M273.87517 106.14462L274.957065469 104.76906875L275.10198875 103.2446875L274.398510156 102.00912L272.9352 101.50001L271.200282969 102.112409063L269.39252125 103.55278L268.103888906 105.225883438L267.92636 106.53648L268.912173438 107.28002625L270.41076 107.450805L272.154349062 107.06645625L273.87517 106.14462L273.87517 106.14462M315.29187 123.00037L312.935743281 121.050635156L311.36978375 118.23814625L310.625109844 114.649116719L310.73284 110.36976L311.417228184 106.790765193L312.551931719 103.591852609L314.093272832 100.816472502L315.99757375 98.508075125L318.221156699 96.7101107324L320.720343906 95.4660295781L323.451457598 94.819281916L326.37082 94.813318L330.487870938 95.853529125L333.2923375 98.011892L334.894295313 101.427650875L335.40382 106.24005L334.937228223 111.008270645L333.624505781 115.230362031L331.596232012 118.79750584L328.98298625 121.60088375L325.915347832 123.531677441L322.523896094 124.481068594L318.939210371 124.340238887L315.29187 123.00037L315.29187 123.00037M325.47099 114.50001L327.146721094 111.4866325L327.92314125 108.5323325L327.777843281 105.83765625L326.68842 103.60315L325.386760234 102.485663789L324.004379375 102.132575938L322.619650078 102.466813867L321.310945 103.411305L319.235098125 106.822756563L318.624701641 109.135571836L318.40382 111.75035L319.040747344 115.352120156L319.763695566 116.471891152L320.69122375 117.11226625L321.77452459 117.254255566L322.964790781 116.878869219L325.47099 114.50001L325.47099 114.50001M336.61184 123.25001L336.434465273 121.752576047L336.726837812 118.68537625L338.287695 109.9063065L340.428152188 101.0420555L342.28195 96.221878L343.489857813 95.6325028438L346.1245075 95.32550175L358.65382 95.411048L366.49217 95.240388L370.99976875 95.47553925L372.321513594 96.1584822188L373.49217 97.360788L374.860192344 100.068716188L375.35218375 103.8474085L374.970348281 108.873026063L373.71689 115.32173L372.326833906 120.101472969L370.74505625 122.99132375L368.787042969 124.205192656L366.26828 123.95699L364.7488325 122.89344875L364.78388 120.65159L367.140975 107.518575L367.020388438 104.479248125L366.10894 102.77656L364.315360938 101.798184688L363.525341289 102.104303945L362.7802525 102.9829425L361.346120313 106.584721563L359.85547 112.85741L358.207308281 119.418411406L356.40564125 123.21539375L355.382254863 124.160929238L354.242506094 124.515721719L352.96039959 124.313191777L351.50994 123.58676L350.859075781 122.793914219L350.69366125 121.19579625L351.89867 113.52652L353.1507425 105.54324625L352.903759063 103.875703281L352.09274 102.76036L350.277013906 101.80886375L349.451756621 102.129114063L348.65841125 103.01484L347.097980469 106.58714875L345.45677 112.73465L343.65148875 119.561795L342.25843 123.17519L340.981704219 124.121863594L339.42355875 124.45242625L337.871201406 124.163070781L336.61184 123.24999L336.61184 123.25001M389.15382 123.86911L387.870745 122.7914125L387.44933 120.67669L388.522140469 113.79938875L390.90185875 102.81215425L393.496465156 92.410487875L395.21394 87.289891L397.76616625 86.267741625L402.068165 85.739576L406.82500875 85.775725375L410.74177 86.446521L414.15342 88.29719725L417.35384 91.095851L418.98237125 93.1478486875L419.902805 95.06627475L420.31125125 97.4922561875L420.40382 101.06692L420.040932266 106.188022988L418.958740625 110.688457031L417.166952422 114.558284746L414.675275 117.78756875L411.493415703 120.36637166L407.631081875 122.284756094L403.097980859 123.532784668L397.90382 124.10052L389.15382 123.86911L389.15382 123.86911M407.61495 113.83883L409.994498457 111.047651313L411.530827656 107.843712188L412.25659084 104.468939281L412.20444125 101.16525925L411.407032129 98.17459875L409.897016719 95.7388844375L407.707048262 94.1000429688L404.86978 93.500001L402.662121875 93.6810639531L401.892101172 94.1881038574L401.226765 95.222337125L399.856583125 99.6209469844L397.84445 108.37402L396.79161 114.35102625L396.893605625 115.783147656L397.39702 116.49581L399.38644125 116.836992969L402.250025 116.37853625L405.24158875 115.314471406L407.61495 113.83883L407.61495 113.83883M424.91 122.09709L422.95157625 119.43439109L421.817348125 116.313619344L421.473521563 112.890414738L421.8863025 109.32041725L423.021896875 105.759266855L424.846510625 102.362603531L427.326349688 99.2860672539L430.42762 96.685298L432.421022813 95.4977014531L434.3327225 94.838039375L439.68411 94.727501L444.621699063 95.3675914844L446.119766367 95.9951977051L447.0513425 96.970883625L447.476922695 98.4019285293L447.457002188 100.395611703L446.32264 106.50001L445.11494125 113.61626625L444.97549 118.64738L445.08202875 121.53998375L444.33575 123.04208L441.154835 123.66993875L435.2051 124.13006L428.15550125 124.04415625L426.415678906 123.374050156L424.91 122.09709L424.91 122.09709M435.21653 116.63692L436.496810313 114.234989844L437.7440775 109.78286625L438.522440938 105.220382031L438.39601 102.48737L437.826397715 102.004850195L437.002047344 101.880032813L434.89236625 102.5438275L432.673434531 104.159398438L430.95172 106.40739L429.950925059 108.875823535L429.485097969 111.236302656L429.505882832 113.372841387L429.96492375 115.16945375L430.813864824 116.51015377L432.004350156 117.278955469L433.488023848 117.359872871L435.21653 116.63692L435.21653 116.63692M33.403814 113.07259L34.0856985313 110.991177344L35.77507775 108.84901375L37.9375400938 107.175493281L40.038674 106.50001L41.0542197812 106.642368594L41.23916775 107.29808625L38.770924 111.52145L36.6755094688 114.174957812L34.97021025 115.3504425L33.8234904063 114.999215937L33.403814 113.07259L33.403814 113.07259M51.624034 107.25001L50.2781663438 104.554928484L49.19015525 100.369162625L48.4752335312 95.2851879531L48.248634 89.89548L48.7806662427 83.7414900586L50.1879586602 78.0071503125L52.3868460366 72.7279077539L55.2936631562 67.939209375L58.8247448032 63.676502168L62.8964257617 59.975233125L67.4250408159 56.8708492383L72.32692475 54.3987975L77.5184123481 52.5945249023L82.9158383945 51.4934784375L88.4355376733 51.1311050977L93.9938449688 51.542851875L99.5070950649 52.7641657617L104.891622746 54.83049375L110.063762796 57.777282832L114.93985 61.63998L118.415087656 65.4077107813L121.79890125 69.95153125L124.366836719 74.2010985938L125.39444 77.08607L122.5400675 78.18029875L115.15382 79.28745L104.90382 80.40276L101.90382 77.50206L98.3039590547 74.6798310742L94.3999254375 72.7874698438L90.3233324766 71.8127783789L86.2057935 71.74355875L82.1789218359 72.5676130273L78.3743308125 74.2727432813L74.9236337578 76.846751582L71.958444 80.27744L69.552604 84.837445L68.910344 90.27744L68.6825791563 94.4927190156L68.11235775 97.039304375L67.1672394687 97.9921267969L65.814784 97.426117L64.7435594687 94.8083534063L64.41726775 90.2543285L64.8246616562 85.1091385938L65.954494 80.71788L68.0631691562 76.916335L71.03388025 73.40213L74.7022282187 70.3381575L78.903814 67.88731L82.34978775 66.01267625L82.3856735312 65.6357954688L81.403814 65.53173L78.0819511875 66.1287054687L74.285464 67.73025625L70.4766243125 70.0952939063L67.117704 72.98273L63.8470455625 77.22980625L61.717139 82.14028L60.6770199375 87.88545875L60.675724 94.63665L61.212034 102.46121L57.773124 105.48061L55.41160525 107.427992031L53.827244 108.30650875L52.67855025 108.214426094L51.624034 107.25001L51.624034 107.25001M23.700614 91.397621L22.9882325742 90.0651730938L23.3486200938 88.7656085625L24.5691767539 87.5839975625L26.43730275 86.60541025L31.2658635313 85.5975873125L33.801098707 85.738492L36.133504 86.422701L37.6858810313 87.4117247344L37.70701025 88.335850875L36.1339638438 89.2704468281L32.903814 90.29088L26.903814 91.97986L25.137874 92.065323L23.700614 91.397621L23.700614 91.397621M168.40382 77.167291L165.411512969 76.0070688125L163.78066875 74.4432585L163.521895156 72.4955794375L164.6458 70.183751L166.2405225 68.922332125L168.74864 69.441L171.57766 70.2207777656L174.3068475 70.454066625L176.62072625 70.1455721719L178.20382 69.3L179.285980156 67.5204814062L179.05066875 65.58968125L177.463652969 63.4307779688L174.4907 60.96695L170.620965 57.54104875L168.47944 54.2871L167.78334666 50.843189707L168.088500156 47.6395757813L169.291237012 44.7723399023L171.28789375 42.33756375L173.974806895 40.4313290039L177.248312969 39.1497173437L181.004748496 38.5888104492L185.14045 38.84469L188.3441775 39.6912351563L190.3334075 40.98847875L191.09931625 42.7266979687L190.63308 44.89617L189.879418281 46.23534625L188.86876625 46.9075025L184.17547 46.81588L181.202176309 46.7317296094L178.928092969 47.1174125L177.376567832 47.9036797656L176.57094875 49.0212825L176.534583574 50.4009717969L177.290820156 51.97349875L178.863006348 53.6696144531L181.27449 55.42007L185.574222969 59.007349375L186.986897051 61.01488625L187.89881875 63.1344675L188.30301998 65.3431778125L188.192532656 67.618101875L187.560388691 69.936324375L186.39962 72.27493L185.07889707 73.9884457754L183.407711563 75.4102499531L179.1841625 77.332449125L174.069392188 77.9489787344L168.40382 77.16729L168.40382 77.167291M197.40382 77.184691L194.142016641 75.2199209219L191.9756675 72.140125375L190.871413984 68.2873113906L190.7958975 64.003486L191.715759453 59.6306562344L193.59764125 55.510829125L196.408184297 51.9860117031L200.11403 49.398211L202.675059141 48.4200002188L205.151865625 47.975734125L207.493230547 48.0452845937L209.647935 48.6085235L211.564760078 49.6453227188L213.192486875 51.135554125L214.479896484 53.0590895938L215.37577 55.395801L215.851458418 58.5343933438L215.719213594 61.8763135L215.04926916 65.2578786562L213.91185875 68.515406L212.377215996 71.4852127188L210.515574531 74.003616L208.397167988 75.9069330313L206.09223 77.031481L201.33299375 78.02754475L197.40382 77.184691L197.40382 77.184691M205.92647 68.10574L207.31070375 65.1984315625L208.0739 61.973155L208.13447375 59.0398459375L207.41084 57.00844L205.732645039 55.775781875L203.942936562 55.733240625L202.18721293 56.6745259375L200.6109725 58.3933475L199.359713633 60.683415L198.578934688 63.338438125L198.414134023 66.1521265625L199.01081 68.91819L200.230613281 70.1967690625L202.14380375 70.4459675L204.219412344 69.7281646875L205.92647 68.10574L205.92647 68.10574M216.77337 77.469521L217.050109688 72.5176512031L218.8557375 62.192058875L221.310846563 50.9452473594L223.53603 43.22972L224.711126641 41.068733627L226.324461875 39.1588990156L230.485675 36.272596625L235.259323125 34.9306359219L237.638202109 34.9512284199L239.88506 35.49284L241.9801075 36.80605875L242.195683438 37.7229654687L241.98552 39.03049L241.709919219 40.43241875L241.99040875 41.1033975L245.38088 40.88765L249.40382 40.24436L249.40382 44.37216L249.40382 48.499971L255.77298 48.499971L262.14214 48.499971L262.76197 52.249971L263.39281 60.372421L263.66537875 63.702351875L264.093708906 63.9996894531L264.80362 63.583131L266.4571925 61.08513725L268.46712 56.710681L270.344261719 52.2730572969L271.83439875 49.783045125L273.353671406 48.7540331406L275.31822 48.69941L276.722892656 49.0028114063L277.53538125 49.74491875L278.16513 53.99997L278.947095 61.126975L279.5523675 62.906971875L280.30095 63.49997L281.5787925 61.6640325L283.44477 57.24997L286.68914 49.74997L288.198191719 48.8622654688L290.42782375 48.53407875L292.609363906 48.7797826562L293.97414 49.61375L292.788862813 53.7207760937L289.15654 61.71127875L284.799649687 70.0620720312L281.44067 75.24997L279.861096465 76.6324402539L278.371334844 77.3668970312L277.008617363 77.4794006055L275.81017625 76.99601125L274.81324373 75.9427892383L274.055052031 74.3457948437L273.40382 69.62473L273.14170375 66.63298375L272.51151 65.06653L270.894995 66.33391625L268.26151 70.15545L264.197554688 75.767879375L262.474836602 77.1545299219L260.9638925 77.594935L259.668923086 77.0891925781L258.594129062 75.637400625L257.743711133 73.2396571094L257.12187 69.89606L255.986427031 61.7736120312L254.98405375 57.65807375L254.344188066 56.6772897852L253.511293594 56.1875060937L250.96469 55.99997L248.692976875 56.0880934375L247.3754025 56.6516325L246.541251875 58.1393403125L245.71981 60.99997L244.742757812 65.4874340625L244.780855 68.270855L245.959432187 69.7938334375L248.40382 70.49997L250.263194531 70.8593482812L251.32048625 71.41664125L251.794444844 72.3905985937L251.90382 73.99997L251.800505625 75.7073725L251.181705 76.6369875L249.584131875 77.07460625L246.5445 77.30602L243.216446855 77.2984901953L240.645572969 76.7796659375L238.79150291 75.6425187109L237.61386125 73.78002L237.072272559 71.0851412891L237.126361406 67.4508540625L238.86007 56.93594L241.39868 43.74997L240.317616563 42.8942878125L237.772285 42.5230475L234.822973438 42.6779884375L232.52997 43.40085L230.45617375 48.6032375L227.39948 59.88907L224.38153 71.3588475L222.40089 77.00351L221.124751875 78.0162432812L219.60669 78.44430375L218.078848125 78.2684698437L216.77337 77.46952L216.77337 77.469521M298.49397 77.568621L296.624987539 76.7671377969L295.010739062 75.432602875L293.68085543 73.6458732656L292.6649675 71.487806L291.693702187 66.381086625L292.33399 60.759301L293.468024844 57.6464285195L295.066951875 54.8997192813L297.079339844 52.5532843398L299.4537575 50.64123475L302.138773594 49.1976815664L305.082956875 48.2567358438L308.234876094 47.8525086367L311.5431 48.019111L315.397002031 48.8075574063L316.576828652 49.4026330117L317.31592375 50.23710475L317.643973594 52.9407202188L316.72526 57.551371L315.56617875 64.015056L315.01762 70.499951L314.90382 76.999951L308.83099 77.081451L301.83099 77.673931L298.49397 77.568631L298.49397 77.568621M306.00187 69.341311L307.93791375 62.266051L308.609672031 58.1289563125L308.60582 56.035291L307.435112187 55.494990375L305.892785 55.660721L304.190152812 56.469051625L302.53853 57.856551L300.812230156 60.5184338125L299.79249125 63.71568425L299.610339219 66.7671028125L300.3968 68.99149L301.757093125 70.0307409375L303.377595 70.449995L304.908966875 70.2274515625L306.00187 69.34131L306.00187 69.341311M344.61573 77.368881L342.277027773 76.2785073262L340.367285938 74.5449566094L338.914321758 72.2792368066L337.9459525 69.592355875L337.48999543 66.5953217715L337.574267813 63.3991424531L338.226586914 60.114825877L339.47477 56.85338L340.912457871 54.4520338672L342.709696094 52.3590546875L347.05552125 49.2586925L349.440457012 48.3315571484L351.857640781 47.8732840625L354.225246973 47.9239970703L356.46145 48.52382L358.710633281 49.7749492188L360.24546875 51.41323125L361.123887344 53.5287776562L361.40382 56.2117L361.152100977 58.1203705469L360.440780312 59.972670625L357.9023525 63.2662L354.314573437 65.608369375L350.20348 66.51526L348.14117625 66.80293875L346.41218 67.47362L345.508858125 68.6176328125L346.2291325 69.66999L348.327498125 70.4694021875L351.55845 70.85458L355.19900625 71.39007375L355.913540156 72.1277945313L356.23848 73.36529L356.22966875 75.260045L355.73848 76.49399L353.850968906 77.3390478125L350.88929375 77.8042025L347.571524219 77.8329734375L344.61573 77.36888L344.61573 77.368881M352.90382 58.857101L354.02494375 57.23597675L353.03523 55.70279L352.151332813 54.9493082344L351.3503425 54.718780375L348.9638 55.8687L347.15581375 57.4871875L346.40382 59.02301L347.128117813 60.140081375L348.8769475 60.473963L351.014213437 60.040890875L352.90382 58.857101L352.90382 58.857101M318.20407 76.400711L318.68037 72.020718125L320.39225 63.190301L322.256979219 55.3618356875L324.12724625 51.042206L325.341119434 49.8193027578L326.888372656 49.0189263125L331.42568 48.079511L335.3527175 47.9403292813L337.9536725 48.74123975L339.10035125 50.3981683438L338.66456 52.827041L337.926024688 54.0673447344L336.9552575 54.901800875L333.74321 55.68659L329.98199 55.999951L327.4429 66.499951L325.930397031 72.5430024063L324.82602625 75.69775225L323.608302344 76.9550414687L321.75574 77.305711L319.38475 77.182071L318.20407 76.400711L318.20407 76.400711M33.638624 67.538111L28.6717293125 66.8644569844L25.680299 65.892904375L24.5151636875 64.5400350781L25.027154 62.722431L26.5747766562 61.4035249375L29.00784275 60.723773L32.0688594687 60.7154248125L35.500334 61.41073L39.82733025 63.3175328281L43.0788715 65.709002625L44.329514 67.6869788594L43.9152970469 68.2402317246L42.653814 68.353301L33.638624 67.538111L33.638624 67.538111M127.65382 66.90087L126.441492656 65.8294327656L126.79977125 64.519726625L128.648976719 63.0713096719L131.90943 61.58374L137.66380375 58.950415L143.76749 55.51189L148.24528 52.8787056406L151.206645 51.730975125L153.1144175 51.9836147969L154.43143 53.551541L155.207921562 55.974860418L154.936441875 58.2751669687L153.681341875 60.4081094727L151.5069725 62.32933675L148.477684687 63.9944976211L144.657829375 65.3592409063L140.1117575 66.3792154258L134.90382 67.01007L130.2991325 67.167075L127.65382 66.90087L127.65382 66.90087M231.78382 53.04784L231.544571094 51.5852359375L232.03033875 50.466565L233.187602031 49.7515590625L234.96284 49.49995L236.457646719 49.6498115625L237.21595625 50.1844325L237.306205156 51.2313671875L236.79683 52.91817L235.797386875 54.04858375L234.284715 54.4559L232.774848125 54.12676875L231.78382 53.04784L231.78382 53.04784M56.270484 48.301951L48.153814 41.670571L45.28028775 39.3702063125L43.7490815 37.3160835L43.5327415 35.4465619375L44.603814 33.700001L45.9872695859 32.849858459L47.6344755625 32.7195227344L49.4731420078 33.2566804238L51.430979 34.409018125L55.4150049375 38.3499799531L59.008234 44.123901L60.7216322813 48.4368244375L60.76177775 50.684801L60.1893942539 50.9809996328L59.2407138438 50.6968400625L56.270484 48.301951L56.270484 48.301951M108.40382 46.337551L111.41485 40.482811L114.2982875 35.290281L117.00255 29.395271L118.943732656 24.8104486563L120.38310625 22.40700225L121.831999219 21.6201302188L123.80174 21.885031L125.794218496 22.7221580898L127.110529219 24.0297370938L127.75806002 25.7587183633L127.74419875 27.86005225L127.076333262 30.2846891055L125.761851406 32.9835792813L121.22259 39.007921L116.553310156 43.5348581875L112.44311875 46.504051L109.517970469 47.5575863125L108.69539834 47.2541345547L108.40382 46.337551L108.40382 46.337551M82.979984 42.313381L81.90526525 33.814231L81.034194 22.500001L81.3786515 19.53750225L82.173279 18.9656686563L83.591194 18.689621L86.059954 19.0259585L87.982114 20.979161L88.826849957 23.0951181289L89.2137522812 25.9387511563L88.79142775 32.71748975L87.0698838438 39.1322664688L85.8327619492 41.5209471523L84.403864 42.999971L83.5672515 43.05684975L82.979984 42.313381L82.979984 42.313381"
     id="path3027"
     inkscape:connector-curvature="0" />
</svg>
