  0
SECTION
  2
HEADER
  9
$ACADVER
  1
AC1009
  9
$EXTMIN
 10
0.0
 20
0.0
 30
0.0
  9
$EXTMAX
 10
1000.0
 20
1000.0
 30
0.0
  9
$FILLMODE
 70
 0
  9
$SPLFRAME
 70
 1
  0
ENDSEC
  0
SECTION
  2
TABLES
  0
TABLE
  2
LAYER
 70
1
  0
LAYER
  2
0
 70
     0
 62
     7
  6
CONTINUOUS
  0
ENDTAB
  0
ENDSEC
  0
SECTION
  2
ENTITIES
  0
POLYLINE
  8
0
 62
     0
 66
     1
 10
0
 20
0
 30
0.0
 40
0
 41
0
  0
VERTEX
  8
0
 10
1.01004
 20
0.00271267
 30
0.0
 40
0
 41
0
  0
VERTEX
  8
0
 10
0.83941
 20
0.0362956
 30
0.0
 40
0
 41
0
  0
VERTEX
  8
0
 10
0.677626
 20
0.0810004
 30
0.0
 40
0
 41
0
  0
VERTEX
  8
0
 10
0.562229
 20
0.128743
 30
0.0
 40
0
 41
0
  0
VERTEX
  8
0
 10
0.455404
 20
0.185818
 30
0.0
 40
0
 41
0
  0
VERTEX
  8
0
 10
0.357856
 20
0.251519
 30
0.0
 40
0
 41
0
  0
VERTEX
  8
0
 10
0.270182
 20
0.325358
 30
0.0
 40
0
 41
0
  0
VERTEX
  8
0
 10
0.192979
 20
0.406683
 30
0.0
 40
0
 41
0
  0
VERTEX
  8
0
 10
0.126899
 20
0.494954
 30
0.0
 40
0
 41
0
  0
VERTEX
  8
0
 10
0.0725911
 20
0.589518
 30
0.0
 40
0
 41
0
  0
VERTEX
  8
0
 10
0.0306532
 20
0.689779
 30
0.0
 40
0
 41
0
  0
VERTEX
  8
0
 10
0.01454
 20
0.740994
 30
0.0
 40
0
 41
0
  0
VERTEX
  8
0
 10
0.00526258
 20
0.78635
 30
0.0
 40
0
 41
0
  0
VERTEX
  8
0
 10
0
 20
0.912001
 30
0.0
 40
0
 41
0
  0
VERTEX
  8
0
 10
0.00526258
 20
1.03776
 30
0.0
 40
0
 41
0
  0
VERTEX
  8
0
 10
0.01454
 20
1.08312
 30
0.0
 40
0
 41
0
  0
VERTEX
  8
0
 10
0.0306532
 20
1.13422
 30
0.0
 40
0
 41
0
  0
VERTEX
  8
0
 10
0.0725911
 20
1.23459
 30
0.0
 40
0
 41
0
  0
VERTEX
  8
0
 10
0.126899
 20
1.3291
 30
0.0
 40
0
 41
0
  0
VERTEX
  8
0
 10
0.192979
 20
1.41743
 30
0.0
 40
0
 41
0
  0
VERTEX
  8
0
 10
0.270182
 20
1.49869
 30
0.0
 40
0
 41
0
  0
VERTEX
  8
0
 10
0.357856
 20
1.5726
 30
0.0
 40
0
 41
0
  0
VERTEX
  8
0
 10
0.455404
 20
1.63829
 30
0.0
 40
0
 41
0
  0
VERTEX
  8
0
 10
0.562229
 20
1.69531
 30
0.0
 40
0
 41
0
  0
VERTEX
  8
0
 10
0.677626
 20
1.74311
 30
0.0
 40
0
 41
0
  0
VERTEX
  8
0
 10
0.767199
 20
1.77061
 30
0.0
 40
0
 41
0
  0
VERTEX
  8
0
 10
0.872071
 20
1.79719
 30
0.0
 40
0
 41
0
  0
VERTEX
  8
0
 10
0.987847
 20
1.82319
 30
0.0
 40
0
 41
0
  0
VERTEX
  8
0
 10
4.55447
 20
1.82319
 30
0.0
 40
0
 41
0
  0
VERTEX
  8
0
 10
4.67025
 20
1.79719
 30
0.0
 40
0
 41
0
  0
VERTEX
  8
0
 10
4.82497
 20
1.75483
 30
0.0
 40
0
 41
0
  0
VERTEX
  8
0
 10
4.96674
 20
1.69993
 30
0.0
 40
0
 41
0
  0
VERTEX
  8
0
 10
5.09489
 20
1.63292
 30
0.0
 40
0
 41
0
  0
VERTEX
  8
0
 10
5.20893
 20
1.55447
 30
0.0
 40
0
 41
0
  0
VERTEX
  8
0
 10
5.30821
 20
1.4649
 30
0.0
 40
0
 41
0
  0
VERTEX
  8
0
 10
5.39214
 20
1.36469
 30
0.0
 40
0
 41
0
  0
VERTEX
  8
0
 10
5.46018
 20
1.25434
 30
0.0
 40
0
 41
0
  0
VERTEX
  8
0
 10
5.51167
 20
1.13422
 30
0.0
 40
0
 41
0
  0
VERTEX
  8
0
 10
5.52778
 20
1.08312
 30
0.0
 40
0
 41
0
  0
VERTEX
  8
0
 10
5.53706
 20
1.03776
 30
0.0
 40
0
 41
0
  0
VERTEX
  8
0
 10
5.54232
 20
0.912001
 30
0.0
 40
0
 41
0
  0
VERTEX
  8
0
 10
5.53706
 20
0.78635
 30
0.0
 40
0
 41
0
  0
VERTEX
  8
0
 10
5.52778
 20
0.740994
 30
0.0
 40
0
 41
0
  0
VERTEX
  8
0
 10
5.51167
 20
0.689779
 30
0.0
 40
0
 41
0
  0
VERTEX
  8
0
 10
5.47071
 20
0.591417
 30
0.0
 40
0
 41
0
  0
VERTEX
  8
0
 10
5.41792
 20
0.498589
 30
0.0
 40
0
 41
0
  0
VERTEX
  8
0
 10
5.35385
 20
0.411838
 30
0.0
 40
0
 41
0
  0
VERTEX
  8
0
 10
5.27897
 20
0.33176
 30
0.0
 40
0
 41
0
  0
VERTEX
  8
0
 10
5.1939
 20
0.258735
 30
0.0
 40
0
 41
0
  0
VERTEX
  8
0
 10
5.09912
 20
0.193251
 30
0.0
 40
0
 41
0
  0
VERTEX
  8
0
 10
4.99517
 20
0.135959
 30
0.0
 40
0
 41
0
  0
VERTEX
  8
0
 10
4.88265
 20
0.0872939
 30
0.0
 40
0
 41
0
  0
VERTEX
  8
0
 10
4.69336
 20
0.0307617
 30
0.0
 40
0
 41
0
  0
VERTEX
  8
0
 10
4.57671
 20
0.0015191
 30
0.0
 40
0
 41
0
  0
VERTEX
  8
0
 10
2.81006
 20
5.42535e-05
 30
0.0
 40
0
 41
0
  0
VERTEX
  8
0
 10
1.01004
 20
0.00271267
 30
0.0
 40
0
 41
0
  0
SEQEND
 8
0
  0
POLYLINE
  8
0
 62
     0
 66
     1
 10
0
 20
0
 30
0.0
 40
0
 41
0
  0
VERTEX
  8
0
 10
4.6486
 20
0.0876193
 30
0.0
 40
0
 41
0
  0
VERTEX
  8
0
 10
4.77735
 20
0.122233
 30
0.0
 40
0
 41
0
  0
VERTEX
  8
0
 10
4.89703
 20
0.165744
 30
0.0
 40
0
 41
0
  0
VERTEX
  8
0
 10
5.00726
 20
0.217882
 30
0.0
 40
0
 41
0
  0
VERTEX
  8
0
 10
5.10742
 20
0.278211
 30
0.0
 40
0
 41
0
  0
VERTEX
  8
0
 10
5.1971
 20
0.346462
 30
0.0
 40
0
 41
0
  0
VERTEX
  8
0
 10
5.27576
 20
0.422364
 30
0.0
 40
0
 41
0
  0
VERTEX
  8
0
 10
5.34289
 20
0.505479
 30
0.0
 40
0
 41
0
  0
VERTEX
  8
0
 10
5.39794
 20
0.595378
 30
0.0
 40
0
 41
0
  0
VERTEX
  8
0
 10
5.43479
 20
0.674044
 30
0.0
 40
0
 41
0
  0
VERTEX
  8
0
 10
5.45871
 20
0.747939
 30
0.0
 40
0
 41
0
  0
VERTEX
  8
0
 10
5.47168
 20
0.824707
 30
0.0
 40
0
 41
0
  0
VERTEX
  8
0
 10
5.47558
 20
0.912001
 30
0.0
 40
0
 41
0
  0
VERTEX
  8
0
 10
5.47168
 20
0.999403
 30
0.0
 40
0
 41
0
  0
VERTEX
  8
0
 10
5.45871
 20
1.07617
 30
0.0
 40
0
 41
0
  0
VERTEX
  8
0
 10
5.43479
 20
1.15007
 30
0.0
 40
0
 41
0
  0
VERTEX
  8
0
 10
5.39794
 20
1.22873
 30
0.0
 40
0
 41
0
  0
VERTEX
  8
0
 10
5.34179
 20
1.32015
 30
0.0
 40
0
 41
0
  0
VERTEX
  8
0
 10
5.27311
 20
1.40457
 30
0.0
 40
0
 41
0
  0
VERTEX
  8
0
 10
5.19265
 20
1.48161
 30
0.0
 40
0
 41
0
  0
VERTEX
  8
0
 10
5.10118
 20
1.55062
 30
0.0
 40
0
 41
0
  0
VERTEX
  8
0
 10
4.99951
 20
1.61117
 30
0.0
 40
0
 41
0
  0
VERTEX
  8
0
 10
4.8884
 20
1.66271
 30
0.0
 40
0
 41
0
  0
VERTEX
  8
0
 10
4.76856
 20
1.70464
 30
0.0
 40
0
 41
0
  0
VERTEX
  8
0
 10
4.6409
 20
1.7366
 30
0.0
 40
0
 41
0
  0
VERTEX
  8
0
 10
4.5434
 20
1.74756
 30
0.0
 40
0
 41
0
  0
VERTEX
  8
0
 10
4.29357
 20
1.75358
 30
0.0
 40
0
 41
0
  0
VERTEX
  8
0
 10
2.77115
 20
1.75651
 30
0.0
 40
0
 41
0
  0
VERTEX
  8
0
 10
1.24875
 20
1.75358
 30
0.0
 40
0
 41
0
  0
VERTEX
  8
0
 10
0.998915
 20
1.74756
 30
0.0
 40
0
 41
0
  0
VERTEX
  8
0
 10
0.901421
 20
1.7366
 30
0.0
 40
0
 41
0
  0
VERTEX
  8
0
 10
0.751519
 20
1.69775
 30
0.0
 40
0
 41
0
  0
VERTEX
  8
0
 10
0.612956
 20
1.64497
 30
0.0
 40
0
 41
0
  0
VERTEX
  8
0
 10
0.486925
 20
1.57926
 30
0.0
 40
0
 41
0
  0
VERTEX
  8
0
 10
0.374621
 20
1.50157
 30
0.0
 40
0
 41
0
  0
VERTEX
  8
0
 10
0.277235
 20
1.41287
 30
0.0
 40
0
 41
0
  0
VERTEX
  8
0
 10
0.195964
 20
1.31397
 30
0.0
 40
0
 41
0
  0
VERTEX
  8
0
 10
0.132053
 20
1.206
 30
0.0
 40
0
 41
0
  0
VERTEX
  8
0
 10
0.106934
 20
1.14893
 30
0.0
 40
0
 41
0
  0
VERTEX
  8
0
 10
0.0865886
 20
1.08984
 30
0.0
 40
0
 41
0
  0
VERTEX
  8
0
 10
0.0714518
 20
1.00895
 30
0.0
 40
0
 41
0
  0
VERTEX
  8
0
 10
0.0664063
 20
0.91211
 30
0.0
 40
0
 41
0
  0
VERTEX
  8
0
 10
0.0714518
 20
0.815375
 30
0.0
 40
0
 41
0
  0
VERTEX
  8
0
 10
0.0865343
 20
0.734808
 30
0.0
 40
0
 41
0
  0
VERTEX
  8
0
 10
0.108887
 20
0.671061
 30
0.0
 40
0
 41
0
  0
VERTEX
  8
0
 10
0.136773
 20
0.609592
 30
0.0
 40
0
 41
0
  0
VERTEX
  8
0
 10
0.170031
 20
0.550456
 30
0.0
 40
0
 41
0
  0
VERTEX
  8
0
 10
0.208442
 20
0.493869
 30
0.0
 40
0
 41
0
  0
VERTEX
  8
0
 10
0.251736
 20
0.44005
 30
0.0
 40
0
 41
0
  0
VERTEX
  8
0
 10
0.29975
 20
0.389051
 30
0.0
 40
0
 41
0
  0
VERTEX
  8
0
 10
0.352214
 20
0.341146
 30
0.0
 40
0
 41
0
  0
VERTEX
  8
0
 10
0.408854
 20
0.296442
 30
0.0
 40
0
 41
0
  0
VERTEX
  8
0
 10
0.469564
 20
0.2551
 30
0.0
 40
0
 41
0
  0
VERTEX
  8
0
 10
0.534071
 20
0.217339
 30
0.0
 40
0
 41
0
  0
VERTEX
  8
0
 10
0.673503
 20
0.153103
 30
0.0
 40
0
 41
0
  0
VERTEX
  8
0
 10
0.825358
 20
0.105035
 30
0.0
 40
0
 41
0
  0
VERTEX
  8
0
 10
0.987793
 20
0.07449
 30
0.0
 40
0
 41
0
  0
VERTEX
  8
0
 10
1.551
 20
0.0680339
 30
0.0
 40
0
 41
0
  0
VERTEX
  8
0
 10
2.8156
 20
0.0667318
 30
0.0
 40
0
 41
0
  0
VERTEX
  8
0
 10
4.30219
 20
0.0714518
 30
0.0
 40
0
 41
0
  0
VERTEX
  8
0
 10
4.55469
 20
0.0773654
 30
0.0
 40
0
 41
0
  0
VERTEX
  8
0
 10
4.6486
 20
0.0876193
 30
0.0
 40
0
 41
0
  0
SEQEND
 8
0
  0
POLYLINE
  8
0
 62
     0
 66
     1
 10
0
 20
0
 30
0.0
 40
0
 41
0
  0
VERTEX
  8
0
 10
4.99338
 20
0.3514
 30
0.0
 40
0
 41
0
  0
VERTEX
  8
0
 10
5.01676
 20
0.4088
 30
0.0
 40
0
 41
0
  0
VERTEX
  8
0
 10
5.02974
 20
0.436794
 30
0.0
 40
0
 41
0
  0
VERTEX
  8
0
 10
5.03467
 20
0.462674
 30
0.0
 40
0
 41
0
  0
VERTEX
  8
0
 10
5.02229
 20
0.561632
 30
0.0
 40
0
 41
0
  0
VERTEX
  8
0
 10
5.0045
 20
0.716037
 30
0.0
 40
0
 41
0
  0
VERTEX
  8
0
 10
5.0045
 20
0.7634
 30
0.0
 40
0
 41
0
  0
VERTEX
  8
0
 10
5.04617
 20
0.759983
 30
0.0
 40
0
 41
0
  0
VERTEX
  8
0
 10
5.08783
 20
0.756511
 30
0.0
 40
0
 41
0
  0
VERTEX
  8
0
 10
5.09337
 20
0.676812
 30
0.0
 40
0
 41
0
  0
VERTEX
  8
0
 10
5.0995
 20
0.618326
 30
0.0
 40
0
 41
0
  0
VERTEX
  8
0
 10
5.10644
 20
0.589681
 30
0.0
 40
0
 41
0
  0
VERTEX
  8
0
 10
5.11604
 20
0.592882
 30
0.0
 40
0
 41
0
  0
VERTEX
  8
0
 10
5.12993
 20
0.614692
 30
0.0
 40
0
 41
0
  0
VERTEX
  8
0
 10
5.16499
 20
0.703668
 30
0.0
 40
0
 41
0
  0
VERTEX
  8
0
 10
5.17671
 20
0.737088
 30
0.0
 40
0
 41
0
  0
VERTEX
  8
0
 10
5.18739
 20
0.754449
 30
0.0
 40
0
 41
0
  0
VERTEX
  8
0
 10
5.20285
 20
0.761068
 30
0.0
 40
0
 41
0
  0
VERTEX
  8
0
 10
5.22879
 20
0.762044
 30
0.0
 40
0
 41
0
  0
VERTEX
  8
0
 10
5.25385
 20
0.761393
 30
0.0
 40
0
 41
0
  0
VERTEX
  8
0
 10
5.26639
 20
0.757813
 30
0.0
 40
0
 41
0
  0
VERTEX
  8
0
 10
5.26947
 20
0.748697
 30
0.0
 40
0
 41
0
  0
VERTEX
  8
0
 10
5.26628
 20
0.731446
 30
0.0
 40
0
 41
0
  0
VERTEX
  8
0
 10
5.24392
 20
0.673774
 30
0.0
 40
0
 41
0
  0
VERTEX
  8
0
 10
5.20122
 20
0.583985
 30
0.0
 40
0
 41
0
  0
VERTEX
  8
0
 10
5.10525
 20
0.409289
 30
0.0
 40
0
 41
0
  0
VERTEX
  8
0
 10
5.06256
 20
0.352051
 30
0.0
 40
0
 41
0
  0
VERTEX
  8
0
 10
5.04606
 20
0.342285
 30
0.0
 40
0
 41
0
  0
VERTEX
  8
0
 10
5.02701
 20
0.339844
 30
0.0
 40
0
 41
0
  0
VERTEX
  8
0
 10
5.00325
 20
0.343261
 30
0.0
 40
0
 41
0
  0
VERTEX
  8
0
 10
4.99338
 20
0.3514
 30
0.0
 40
0
 41
0
  0
SEQEND
 8
0
  0
POLYLINE
  8
0
 62
     0
 66
     1
 10
0
 20
0
 30
0.0
 40
0
 41
0
  0
VERTEX
  8
0
 10
1.31559
 20
0.451172
 30
0.0
 40
0
 41
0
  0
VERTEX
  8
0
 10
1.08116
 20
0.458985
 30
0.0
 40
0
 41
0
  0
VERTEX
  8
0
 10
0.962294
 20
0.46696
 30
0.0
 40
0
 41
0
  0
VERTEX
  8
0
 10
0.941297
 20
0.472601
 30
0.0
 40
0
 41
0
  0
VERTEX
  8
0
 10
0.930772
 20
0.481554
 30
0.0
 40
0
 41
0
  0
VERTEX
  8
0
 10
0.927681
 20
0.499511
 30
0.0
 40
0
 41
0
  0
VERTEX
  8
0
 10
0.928928
 20
0.532497
 30
0.0
 40
0
 41
0
  0
VERTEX
  8
0
 10
0.934353
 20
0.571451
 30
0.0
 40
0
 41
0
  0
VERTEX
  8
0
 10
0.941406
 20
0.585503
 30
0.0
 40
0
 41
0
  0
VERTEX
  8
0
 10
0.953504
 20
0.597656
 30
0.0
 40
0
 41
0
  0
VERTEX
  8
0
 10
0.999295
 20
0.620822
 30
0.0
 40
0
 41
0
  0
VERTEX
  8
0
 10
1.08458
 20
0.650825
 30
0.0
 40
0
 41
0
  0
VERTEX
  8
0
 10
1.15918
 20
0.675836
 30
0.0
 40
0
 41
0
  0
VERTEX
  8
0
 10
1.16238
 20
0.760633
 30
0.0
 40
0
 41
0
  0
VERTEX
  8
0
 10
1.16558
 20
0.845378
 30
0.0
 40
0
 41
0
  0
VERTEX
  8
0
 10
1.24338
 20
0.865451
 30
0.0
 40
0
 41
0
  0
VERTEX
  8
0
 10
1.31402
 20
0.878635
 30
0.0
 40
0
 41
0
  0
VERTEX
  8
0
 10
1.37798
 20
0.87831
 30
0.0
 40
0
 41
0
  0
VERTEX
  8
0
 10
1.44162
 20
0.863878
 30
0.0
 40
0
 41
0
  0
VERTEX
  8
0
 10
1.5115
 20
0.834581
 30
0.0
 40
0
 41
0
  0
VERTEX
  8
0
 10
1.58539
 20
0.788683
 30
0.0
 40
0
 41
0
  0
VERTEX
  8
0
 10
1.65414
 20
0.727214
 30
0.0
 40
0
 41
0
  0
VERTEX
  8
0
 10
1.71588
 20
0.652126
 30
0.0
 40
0
 41
0
  0
VERTEX
  8
0
 10
1.76882
 20
0.565158
 30
0.0
 40
0
 41
0
  0
VERTEX
  8
0
 10
1.80186
 20
0.496474
 30
0.0
 40
0
 41
0
  0
VERTEX
  8
0
 10
1.8156
 20
0.457574
 30
0.0
 40
0
 41
0
  0
VERTEX
  8
0
 10
1.81629
 20
0.451064
 30
0.0
 40
0
 41
0
  0
VERTEX
  8
0
 10
1.81347
 20
0.446397
 30
0.0
 40
0
 41
0
  0
VERTEX
  8
0
 10
1.76828
 20
0.442003
 30
0.0
 40
0
 41
0
  0
VERTEX
  8
0
 10
1.31559
 20
0.451172
 30
0.0
 40
0
 41
0
  0
SEQEND
 8
0
  0
POLYLINE
  8
0
 62
     0
 66
     1
 10
0
 20
0
 30
0.0
 40
0
 41
0
  0
VERTEX
  8
0
 10
2.11897
 20
0.458225
 30
0.0
 40
0
 41
0
  0
VERTEX
  8
0
 10
2.12631
 20
0.530544
 30
0.0
 40
0
 41
0
  0
VERTEX
  8
0
 10
2.1531
 20
0.666342
 30
0.0
 40
0
 41
0
  0
VERTEX
  8
0
 10
2.18489
 20
0.799479
 30
0.0
 40
0
 41
0
  0
VERTEX
  8
0
 10
2.20742
 20
0.864094
 30
0.0
 40
0
 41
0
  0
VERTEX
  8
0
 10
2.24869
 20
0.870714
 30
0.0
 40
0
 41
0
  0
VERTEX
  8
0
 10
2.32221
 20
0.872558
 30
0.0
 40
0
 41
0
  0
VERTEX
  8
0
 10
2.39583
 20
0.869738
 30
0.0
 40
0
 41
0
  0
VERTEX
  8
0
 10
2.43739
 20
0.862522
 30
0.0
 40
0
 41
0
  0
VERTEX
  8
0
 10
2.44797
 20
0.847874
 30
0.0
 40
0
 41
0
  0
VERTEX
  8
0
 10
2.44276
 20
0.821018
 30
0.0
 40
0
 41
0
  0
VERTEX
  8
0
 10
2.43494
 20
0.803711
 30
0.0
 40
0
 41
0
  0
VERTEX
  8
0
 10
2.42285
 20
0.793946
 30
0.0
 40
0
 41
0
  0
VERTEX
  8
0
 10
2.36025
 20
0.786512
 30
0.0
 40
0
 41
0
  0
VERTEX
  8
0
 10
2.31119
 20
0.78201
 30
0.0
 40
0
 41
0
  0
VERTEX
  8
0
 10
2.28049
 20
0.772949
 30
0.0
 40
0
 41
0
  0
VERTEX
  8
0
 10
2.2646
 20
0.75765
 30
0.0
 40
0
 41
0
  0
VERTEX
  8
0
 10
2.26004
 20
0.73405
 30
0.0
 40
0
 41
0
  0
VERTEX
  8
0
 10
2.26389
 20
0.715603
 30
0.0
 40
0
 41
0
  0
VERTEX
  8
0
 10
2.27681
 20
0.703668
 30
0.0
 40
0
 41
0
  0
VERTEX
  8
0
 10
2.30089
 20
0.697265
 30
0.0
 40
0
 41
0
  0
VERTEX
  8
0
 10
2.33806
 20
0.695367
 30
0.0
 40
0
 41
0
  0
VERTEX
  8
0
 10
2.36828
 20
0.693197
 30
0.0
 40
0
 41
0
  0
VERTEX
  8
0
 10
2.38476
 20
0.685547
 30
0.0
 40
0
 41
0
  0
VERTEX
  8
0
 10
2.38906
 20
0.670682
 30
0.0
 40
0
 41
0
  0
VERTEX
  8
0
 10
2.38281
 20
0.64681
 30
0.0
 40
0
 41
0
  0
VERTEX
  8
0
 10
2.37506
 20
0.631619
 30
0.0
 40
0
 41
0
  0
VERTEX
  8
0
 10
2.36262
 20
0.622667
 30
0.0
 40
0
 41
0
  0
VERTEX
  8
0
 10
2.30285
 20
0.615397
 30
0.0
 40
0
 41
0
  0
VERTEX
  8
0
 10
2.23361
 20
0.612033
 30
0.0
 40
0
 41
0
  0
VERTEX
  8
0
 10
2.21431
 20
0.535482
 30
0.0
 40
0
 41
0
  0
VERTEX
  8
0
 10
2.19635
 20
0.478569
 30
0.0
 40
0
 41
0
  0
VERTEX
  8
0
 10
2.18028
 20
0.44949
 30
0.0
 40
0
 41
0
  0
VERTEX
  8
0
 10
2.16168
 20
0.441678
 30
0.0
 40
0
 41
0
  0
VERTEX
  8
0
 10
2.14344
 20
0.440756
 30
0.0
 40
0
 41
0
  0
VERTEX
  8
0
 10
2.12836
 20
0.446451
 30
0.0
 40
0
 41
0
  0
VERTEX
  8
0
 10
2.11897
 20
0.458225
 30
0.0
 40
0
 41
0
  0
SEQEND
 8
0
  0
POLYLINE
  8
0
 62
     0
 66
     1
 10
0
 20
0
 30
0.0
 40
0
 41
0
  0
VERTEX
  8
0
 10
2.40603
 20
0.449761
 30
0.0
 40
0
 41
0
  0
VERTEX
  8
0
 10
2.39942
 20
0.459364
 30
0.0
 40
0
 41
0
  0
VERTEX
  8
0
 10
2.39854
 20
0.480306
 30
0.0
 40
0
 41
0
  0
VERTEX
  8
0
 10
2.41607
 20
0.580132
 30
0.0
 40
0
 41
0
  0
VERTEX
  8
0
 10
2.45008
 20
0.725315
 30
0.0
 40
0
 41
0
  0
VERTEX
  8
0
 10
2.46089
 20
0.739963
 30
0.0
 40
0
 41
0
  0
VERTEX
  8
0
 10
2.48014
 20
0.752604
 30
0.0
 40
0
 41
0
  0
VERTEX
  8
0
 10
2.53353
 20
0.769368
 30
0.0
 40
0
 41
0
  0
VERTEX
  8
0
 10
2.58931
 20
0.771864
 30
0.0
 40
0
 41
0
  0
VERTEX
  8
0
 10
2.6116
 20
0.766656
 30
0.0
 40
0
 41
0
  0
VERTEX
  8
0
 10
2.62668
 20
0.756565
 30
0.0
 40
0
 41
0
  0
VERTEX
  8
0
 10
2.63211
 20
0.734864
 30
0.0
 40
0
 41
0
  0
VERTEX
  8
0
 10
2.62299
 20
0.710829
 30
0.0
 40
0
 41
0
  0
VERTEX
  8
0
 10
2.60487
 20
0.692871
 30
0.0
 40
0
 41
0
  0
VERTEX
  8
0
 10
2.59412
 20
0.688857
 30
0.0
 40
0
 41
0
  0
VERTEX
  8
0
 10
2.58322
 20
0.689507
 30
0.0
 40
0
 41
0
  0
VERTEX
  8
0
 10
2.55647
 20
0.692654
 30
0.0
 40
0
 41
0
  0
VERTEX
  8
0
 10
2.53689
 20
0.678386
 30
0.0
 40
0
 41
0
  0
VERTEX
  8
0
 10
2.52056
 20
0.64095
 30
0.0
 40
0
 41
0
  0
VERTEX
  8
0
 10
2.50364
 20
0.574924
 30
0.0
 40
0
 41
0
  0
VERTEX
  8
0
 10
2.48313
 20
0.499567
 30
0.0
 40
0
 41
0
  0
VERTEX
  8
0
 10
2.46153
 20
0.455513
 30
0.0
 40
0
 41
0
  0
VERTEX
  8
0
 10
2.44965
 20
0.444282
 30
0.0
 40
0
 41
0
  0
VERTEX
  8
0
 10
2.43664
 20
0.439888
 30
0.0
 40
0
 41
0
  0
VERTEX
  8
0
 10
2.42219
 20
0.44184
 30
0.0
 40
0
 41
0
  0
VERTEX
  8
0
 10
2.40603
 20
0.449761
 30
0.0
 40
0
 41
0
  0
SEQEND
 8
0
  0
POLYLINE
  8
0
 62
     0
 66
     1
 10
0
 20
0
 30
0.0
 40
0
 41
0
  0
VERTEX
  8
0
 10
2.64979
 20
0.470594
 30
0.0
 40
0
 41
0
  0
VERTEX
  8
0
 10
2.63092
 20
0.493924
 30
0.0
 40
0
 41
0
  0
VERTEX
  8
0
 10
2.61789
 20
0.519422
 30
0.0
 40
0
 41
0
  0
VERTEX
  8
0
 10
2.6104
 20
0.54655
 30
0.0
 40
0
 41
0
  0
VERTEX
  8
0
 10
2.60796
 20
0.574761
 30
0.0
 40
0
 41
0
  0
VERTEX
  8
0
 10
2.61681
 20
0.631565
 30
0.0
 40
0
 41
0
  0
VERTEX
  8
0
 10
2.64128
 20
0.684679
 30
0.0
 40
0
 41
0
  0
VERTEX
  8
0
 10
2.67817
 20
0.729113
 30
0.0
 40
0
 41
0
  0
VERTEX
  8
0
 10
2.72439
 20
0.759983
 30
0.0
 40
0
 41
0
  0
VERTEX
  8
0
 10
2.74994
 20
0.768664
 30
0.0
 40
0
 41
0
  0
VERTEX
  8
0
 10
2.77664
 20
0.771972
 30
0.0
 40
0
 41
0
  0
VERTEX
  8
0
 10
2.8041
 20
0.769368
 30
0.0
 40
0
 41
0
  0
VERTEX
  8
0
 10
2.83188
 20
0.7602
 30
0.0
 40
0
 41
0
  0
VERTEX
  8
0
 10
2.85628
 20
0.739637
 30
0.0
 40
0
 41
0
  0
VERTEX
  8
0
 10
2.8731
 20
0.704372
 30
0.0
 40
0
 41
0
  0
VERTEX
  8
0
 10
2.88596
 20
0.661512
 30
0.0
 40
0
 41
0
  0
VERTEX
  8
0
 10
2.91846
 20
0.7009
 30
0.0
 40
0
 41
0
  0
VERTEX
  8
0
 10
2.95053
 20
0.73291
 30
0.0
 40
0
 41
0
  0
VERTEX
  8
0
 10
2.98508
 20
0.755751
 30
0.0
 40
0
 41
0
  0
VERTEX
  8
0
 10
3.0204
 20
0.769476
 30
0.0
 40
0
 41
0
  0
VERTEX
  8
0
 10
3.05464
 20
0.773981
 30
0.0
 40
0
 41
0
  0
VERTEX
  8
0
 10
3.08589
 20
0.769368
 30
0.0
 40
0
 41
0
  0
VERTEX
  8
0
 10
3.11247
 20
0.755588
 30
0.0
 40
0
 41
0
  0
VERTEX
  8
0
 10
3.13249
 20
0.732747
 30
0.0
 40
0
 41
0
  0
VERTEX
  8
0
 10
3.14415
 20
0.700575
 30
0.0
 40
0
 41
0
  0
VERTEX
  8
0
 10
3.15088
 20
0.673882
 30
0.0
 40
0
 41
0
  0
VERTEX
  8
0
 10
3.15886
 20
0.664117
 30
0.0
 40
0
 41
0
  0
VERTEX
  8
0
 10
3.16982
 20
0.671061
 30
0.0
 40
0
 41
0
  0
VERTEX
  8
0
 10
3.18549
 20
0.69439
 30
0.0
 40
0
 41
0
  0
VERTEX
  8
0
 10
3.21078
 20
0.722006
 30
0.0
 40
0
 41
0
  0
VERTEX
  8
0
 10
3.24886
 20
0.747396
 30
0.0
 40
0
 41
0
  0
VERTEX
  8
0
 10
3.29144
 20
0.76595
 30
0.0
 40
0
 41
0
  0
VERTEX
  8
0
 10
3.33008
 20
0.773113
 30
0.0
 40
0
 41
0
  0
VERTEX
  8
0
 10
3.34603
 20
0.774794
 30
0.0
 40
0
 41
0
  0
VERTEX
  8
0
 10
3.35678
 20
0.781739
 30
0.0
 40
0
 41
0
  0
VERTEX
  8
0
 10
3.37224
 20
0.822808
 30
0.0
 40
0
 41
0
  0
VERTEX
  8
0
 10
3.38553
 20
0.8616
 30
0.0
 40
0
 41
0
  0
VERTEX
  8
0
 10
3.40001
 20
0.885146
 30
0.0
 40
0
 41
0
  0
VERTEX
  8
0
 10
3.41906
 20
0.892036
 30
0.0
 40
0
 41
0
  0
VERTEX
  8
0
 10
3.4426
 20
0.890571
 30
0.0
 40
0
 41
0
  0
VERTEX
  8
0
 10
3.46267
 20
0.882488
 30
0.0
 40
0
 41
0
  0
VERTEX
  8
0
 10
3.47114
 20
0.869575
 30
0.0
 40
0
 41
0
  0
VERTEX
  8
0
 10
3.43679
 20
0.705892
 30
0.0
 40
0
 41
0
  0
VERTEX
  8
0
 10
3.41271
 20
0.583008
 30
0.0
 40
0
 41
0
  0
VERTEX
  8
0
 10
3.40767
 20
0.50906
 30
0.0
 40
0
 41
0
  0
VERTEX
  8
0
 10
3.40804
 20
0.473579
 30
0.0
 40
0
 41
0
  0
VERTEX
  8
0
 10
3.40158
 20
0.454699
 30
0.0
 40
0
 41
0
  0
VERTEX
  8
0
 10
3.29839
 20
0.443739
 30
0.0
 40
0
 41
0
  0
VERTEX
  8
0
 10
3.24511
 20
0.442057
 30
0.0
 40
0
 41
0
  0
VERTEX
  8
0
 10
3.21457
 20
0.444715
 30
0.0
 40
0
 41
0
  0
VERTEX
  8
0
 10
3.19575
 20
0.454482
 30
0.0
 40
0
 41
0
  0
VERTEX
  8
0
 10
3.17768
 20
0.474067
 30
0.0
 40
0
 41
0
  0
VERTEX
  8
0
 10
3.16331
 20
0.493707
 30
0.0
 40
0
 41
0
  0
VERTEX
  8
0
 10
3.15451
 20
0.513564
 30
0.0
 40
0
 41
0
  0
VERTEX
  8
0
 10
3.14893
 20
0.570204
 30
0.0
 40
0
 41
0
  0
VERTEX
  8
0
 10
3.14606
 20
0.620443
 30
0.0
 40
0
 41
0
  0
VERTEX
  8
0
 10
3.14019
 20
0.622993
 30
0.0
 40
0
 41
0
  0
VERTEX
  8
0
 10
3.1295
 20
0.615235
 30
0.0
 40
0
 41
0
  0
VERTEX
  8
0
 10
3.07699
 20
0.581543
 30
0.0
 40
0
 41
0
  0
VERTEX
  8
0
 10
3.01563
 20
0.562608
 30
0.0
 40
0
 41
0
  0
VERTEX
  8
0
 10
2.98204
 20
0.551975
 30
0.0
 40
0
 41
0
  0
VERTEX
  8
0
 10
2.97547
 20
0.545464
 30
0.0
 40
0
 41
0
  0
VERTEX
  8
0
 10
2.97532
 20
0.538738
 30
0.0
 40
0
 41
0
  0
VERTEX
  8
0
 10
2.99354
 20
0.526747
 30
0.0
 40
0
 41
0
  0
VERTEX
  8
0
 10
3.03504
 20
0.519803
 30
0.0
 40
0
 41
0
  0
VERTEX
  8
0
 10
3.08371
 20
0.512912
 30
0.0
 40
0
 41
0
  0
VERTEX
  8
0
 10
3.09158
 20
0.504883
 30
0.0
 40
0
 41
0
  0
VERTEX
  8
0
 10
3.09338
 20
0.491482
 30
0.0
 40
0
 41
0
  0
VERTEX
  8
0
 10
3.08897
 20
0.467068
 30
0.0
 40
0
 41
0
  0
VERTEX
  8
0
 10
3.07449
 20
0.451064
 30
0.0
 40
0
 41
0
  0
VERTEX
  8
0
 10
3.04785
 20
0.442437
 30
0.0
 40
0
 41
0
  0
VERTEX
  8
0
 10
3.00694
 20
0.439779
 30
0.0
 40
0
 41
0
  0
VERTEX
  8
0
 10
2.9521
 20
0.445583
 30
0.0
 40
0
 41
0
  0
VERTEX
  8
0
 10
2.93371
 20
0.455513
 30
0.0
 40
0
 41
0
  0
VERTEX
  8
0
 10
2.91476
 20
0.472331
 30
0.0
 40
0
 41
0
  0
VERTEX
  8
0
 10
2.89779
 20
0.491428
 30
0.0
 40
0
 41
0
  0
VERTEX
  8
0
 10
2.88792
 20
0.510037
 30
0.0
 40
0
 41
0
  0
VERTEX
  8
0
 10
2.88226
 20
0.567057
 30
0.0
 40
0
 41
0
  0
VERTEX
  8
0
 10
2.88226
 20
0.62934
 30
0.0
 40
0
 41
0
  0
VERTEX
  8
0
 10
2.84972
 20
0.605251
 30
0.0
 40
0
 41
0
  0
VERTEX
  8
0
 10
2.81099
 20
0.584256
 30
0.0
 40
0
 41
0
  0
VERTEX
  8
0
 10
2.76357
 20
0.5676
 30
0.0
 40
0
 41
0
  0
VERTEX
  8
0
 10
2.72319
 20
0.553114
 30
0.0
 40
0
 41
0
  0
VERTEX
  8
0
 10
2.71012
 20
0.538465
 30
0.0
 40
0
 41
0
  0
VERTEX
  8
0
 10
2.71376
 20
0.531793
 30
0.0
 40
0
 41
0
  0
VERTEX
  8
0
 10
2.72424
 20
0.525933
 30
0.0
 40
0
 41
0
  0
VERTEX
  8
0
 10
2.76551
 20
0.517632
 30
0.0
 40
0
 41
0
  0
VERTEX
  8
0
 10
2.80979
 20
0.508951
 30
0.0
 40
0
 41
0
  0
VERTEX
  8
0
 10
2.82021
 20
0.501844
 30
0.0
 40
0
 41
0
  0
VERTEX
  8
0
 10
2.82476
 20
0.492079
 30
0.0
 40
0
 41
0
  0
VERTEX
  8
0
 10
2.82362
 20
0.468696
 30
0.0
 40
0
 41
0
  0
VERTEX
  8
0
 10
2.80968
 20
0.452419
 30
0.0
 40
0
 41
0
  0
VERTEX
  8
0
 10
2.78239
 20
0.442979
 30
0.0
 40
0
 41
0
  0
VERTEX
  8
0
 10
2.74115
 20
0.439779
 30
0.0
 40
0
 41
0
  0
VERTEX
  8
0
 10
2.68599
 20
0.445421
 30
0.0
 40
0
 41
0
  0
VERTEX
  8
0
 10
2.66786
 20
0.454753
 30
0.0
 40
0
 41
0
  0
VERTEX
  8
0
 10
2.64979
 20
0.470594
 30
0.0
 40
0
 41
0
  0
SEQEND
 8
0
  0
POLYLINE
  8
0
 62
     0
 66
     1
 10
0
 20
0
 30
0.0
 40
0
 41
0
  0
VERTEX
  8
0
 10
3.30181
 20
0.531521
 30
0.0
 40
0
 41
0
  0
VERTEX
  8
0
 10
3.32357
 20
0.597114
 30
0.0
 40
0
 41
0
  0
VERTEX
  8
0
 10
3.33783
 20
0.673719
 30
0.0
 40
0
 41
0
  0
VERTEX
  8
0
 10
3.33544
 20
0.680664
 30
0.0
 40
0
 41
0
  0
VERTEX
  8
0
 10
3.32894
 20
0.684353
 30
0.0
 40
0
 41
0
  0
VERTEX
  8
0
 10
3.30767
 20
0.683539
 30
0.0
 40
0
 41
0
  0
VERTEX
  8
0
 10
3.28222
 20
0.673014
 30
0.0
 40
0
 41
0
  0
VERTEX
  8
0
 10
3.26085
 20
0.654947
 30
0.0
 40
0
 41
0
  0
VERTEX
  8
0
 10
3.24653
 20
0.625054
 30
0.0
 40
0
 41
0
  0
VERTEX
  8
0
 10
3.23828
 20
0.585721
 30
0.0
 40
0
 41
0
  0
VERTEX
  8
0
 10
3.23736
 20
0.548449
 30
0.0
 40
0
 41
0
  0
VERTEX
  8
0
 10
3.24522
 20
0.525065
 30
0.0
 40
0
 41
0
  0
VERTEX
  8
0
 10
3.25749
 20
0.518772
 30
0.0
 40
0
 41
0
  0
VERTEX
  8
0
 10
3.2736
 20
0.518121
 30
0.0
 40
0
 41
0
  0
VERTEX
  8
0
 10
3.28965
 20
0.522461
 30
0.0
 40
0
 41
0
  0
VERTEX
  8
0
 10
3.30181
 20
0.531521
 30
0.0
 40
0
 41
0
  0
SEQEND
 8
0
  0
POLYLINE
  8
0
 62
     0
 66
     1
 10
0
 20
0
 30
0.0
 40
0
 41
0
  0
VERTEX
  8
0
 10
2.77636
 20
0.643772
 30
0.0
 40
0
 41
0
  0
VERTEX
  8
0
 10
2.78842
 20
0.659017
 30
0.0
 40
0
 41
0
  0
VERTEX
  8
0
 10
2.79004
 20
0.675999
 30
0.0
 40
0
 41
0
  0
VERTEX
  8
0
 10
2.78222
 20
0.689725
 30
0.0
 40
0
 41
0
  0
VERTEX
  8
0
 10
2.76594
 20
0.695367
 30
0.0
 40
0
 41
0
  0
VERTEX
  8
0
 10
2.74832
 20
0.689074
 30
0.0
 40
0
 41
0
  0
VERTEX
  8
0
 10
2.72808
 20
0.674044
 30
0.0
 40
0
 41
0
  0
VERTEX
  8
0
 10
2.71143
 20
0.655761
 30
0.0
 40
0
 41
0
  0
VERTEX
  8
0
 10
2.70449
 20
0.639811
 30
0.0
 40
0
 41
0
  0
VERTEX
  8
0
 10
2.71235
 20
0.631131
 30
0.0
 40
0
 41
0
  0
VERTEX
  8
0
 10
2.73144
 20
0.629178
 30
0.0
 40
0
 41
0
  0
VERTEX
  8
0
 10
2.75504
 20
0.633464
 30
0.0
 40
0
 41
0
  0
VERTEX
  8
0
 10
2.77636
 20
0.643772
 30
0.0
 40
0
 41
0
  0
SEQEND
 8
0
  0
POLYLINE
  8
0
 62
     0
 66
     1
 10
0
 20
0
 30
0.0
 40
0
 41
0
  0
VERTEX
  8
0
 10
3.04308
 20
0.643772
 30
0.0
 40
0
 41
0
  0
VERTEX
  8
0
 10
3.05507
 20
0.659017
 30
0.0
 40
0
 41
0
  0
VERTEX
  8
0
 10
3.05669
 20
0.675999
 30
0.0
 40
0
 41
0
  0
VERTEX
  8
0
 10
3.04889
 20
0.689725
 30
0.0
 40
0
 41
0
  0
VERTEX
  8
0
 10
3.03261
 20
0.695367
 30
0.0
 40
0
 41
0
  0
VERTEX
  8
0
 10
3.01335
 20
0.688531
 30
0.0
 40
0
 41
0
  0
VERTEX
  8
0
 10
2.99328
 20
0.672581
 30
0.0
 40
0
 41
0
  0
VERTEX
  8
0
 10
2.97894
 20
0.654025
 30
0.0
 40
0
 41
0
  0
VERTEX
  8
0
 10
2.97694
 20
0.639378
 30
0.0
 40
0
 41
0
  0
VERTEX
  8
0
 10
2.9879
 20
0.631131
 30
0.0
 40
0
 41
0
  0
VERTEX
  8
0
 10
3.00456
 20
0.629286
 30
0.0
 40
0
 41
0
  0
VERTEX
  8
0
 10
3.02393
 20
0.633518
 30
0.0
 40
0
 41
0
  0
VERTEX
  8
0
 10
3.04308
 20
0.643772
 30
0.0
 40
0
 41
0
  0
SEQEND
 8
0
  0
POLYLINE
  8
0
 62
     0
 66
     1
 10
0
 20
0
 30
0.0
 40
0
 41
0
  0
VERTEX
  8
0
 10
3.50325
 20
0.456489
 30
0.0
 40
0
 41
0
  0
VERTEX
  8
0
 10
3.47706
 20
0.47819
 30
0.0
 40
0
 41
0
  0
VERTEX
  8
0
 10
3.45969
 20
0.50944
 30
0.0
 40
0
 41
0
  0
VERTEX
  8
0
 10
3.45139
 20
0.549317
 30
0.0
 40
0
 41
0
  0
VERTEX
  8
0
 10
3.45258
 20
0.596843
 30
0.0
 40
0
 41
0
  0
VERTEX
  8
0
 10
3.46018
 20
0.636556
 30
0.0
 40
0
 41
0
  0
VERTEX
  8
0
 10
3.47282
 20
0.672146
 30
0.0
 40
0
 41
0
  0
VERTEX
  8
0
 10
3.4899
 20
0.702963
 30
0.0
 40
0
 41
0
  0
VERTEX
  8
0
 10
3.51107
 20
0.728678
 30
0.0
 40
0
 41
0
  0
VERTEX
  8
0
 10
3.53581
 20
0.748589
 30
0.0
 40
0
 41
0
  0
VERTEX
  8
0
 10
3.56358
 20
0.762424
 30
0.0
 40
0
 41
0
  0
VERTEX
  8
0
 10
3.59392
 20
0.769586
 30
0.0
 40
0
 41
0
  0
VERTEX
  8
0
 10
3.62636
 20
0.76964
 30
0.0
 40
0
 41
0
  0
VERTEX
  8
0
 10
3.6721
 20
0.758083
 30
0.0
 40
0
 41
0
  0
VERTEX
  8
0
 10
3.70324
 20
0.734104
 30
0.0
 40
0
 41
0
  0
VERTEX
  8
0
 10
3.72103
 20
0.696235
 30
0.0
 40
0
 41
0
  0
VERTEX
  8
0
 10
3.72672
 20
0.642686
 30
0.0
 40
0
 41
0
  0
VERTEX
  8
0
 10
3.72151
 20
0.589789
 30
0.0
 40
0
 41
0
  0
VERTEX
  8
0
 10
3.70692
 20
0.542806
 30
0.0
 40
0
 41
0
  0
VERTEX
  8
0
 10
3.6844
 20
0.503147
 30
0.0
 40
0
 41
0
  0
VERTEX
  8
0
 10
3.65539
 20
0.472006
 30
0.0
 40
0
 41
0
  0
VERTEX
  8
0
 10
3.62125
 20
0.450575
 30
0.0
 40
0
 41
0
  0
VERTEX
  8
0
 10
3.58361
 20
0.44005
 30
0.0
 40
0
 41
0
  0
VERTEX
  8
0
 10
3.54378
 20
0.441624
 30
0.0
 40
0
 41
0
  0
VERTEX
  8
0
 10
3.50325
 20
0.456489
 30
0.0
 40
0
 41
0
  0
SEQEND
 8
0
  0
POLYLINE
  8
0
 62
     0
 66
     1
 10
0
 20
0
 30
0.0
 40
0
 41
0
  0
VERTEX
  8
0
 10
3.61632
 20
0.55089
 30
0.0
 40
0
 41
0
  0
VERTEX
  8
0
 10
3.63499
 20
0.584418
 30
0.0
 40
0
 41
0
  0
VERTEX
  8
0
 10
3.64361
 20
0.617242
 30
0.0
 40
0
 41
0
  0
VERTEX
  8
0
 10
3.64199
 20
0.64719
 30
0.0
 40
0
 41
0
  0
VERTEX
  8
0
 10
3.62989
 20
0.672038
 30
0.0
 40
0
 41
0
  0
VERTEX
  8
0
 10
3.6154
 20
0.684407
 30
0.0
 40
0
 41
0
  0
VERTEX
  8
0
 10
3.60004
 20
0.688368
 30
0.0
 40
0
 41
0
  0
VERTEX
  8
0
 10
3.58469
 20
0.684679
 30
0.0
 40
0
 41
0
  0
VERTEX
  8
0
 10
3.5701
 20
0.6741
 30
0.0
 40
0
 41
0
  0
VERTEX
  8
0
 10
3.54704
 20
0.636285
 30
0.0
 40
0
 41
0
  0
VERTEX
  8
0
 10
3.54025
 20
0.610514
 30
0.0
 40
0
 41
0
  0
VERTEX
  8
0
 10
3.53782
 20
0.581489
 30
0.0
 40
0
 41
0
  0
VERTEX
  8
0
 10
3.54492
 20
0.54145
 30
0.0
 40
0
 41
0
  0
VERTEX
  8
0
 10
3.55294
 20
0.529081
 30
0.0
 40
0
 41
0
  0
VERTEX
  8
0
 10
3.56326
 20
0.521864
 30
0.0
 40
0
 41
0
  0
VERTEX
  8
0
 10
3.57525
 20
0.520344
 30
0.0
 40
0
 41
0
  0
VERTEX
  8
0
 10
3.58849
 20
0.524522
 30
0.0
 40
0
 41
0
  0
VERTEX
  8
0
 10
3.61632
 20
0.55089
 30
0.0
 40
0
 41
0
  0
SEQEND
 8
0
  0
POLYLINE
  8
0
 62
     0
 66
     1
 10
0
 20
0
 30
0.0
 40
0
 41
0
  0
VERTEX
  8
0
 10
3.74013
 20
0.453668
 30
0.0
 40
0
 41
0
  0
VERTEX
  8
0
 10
3.73817
 20
0.470324
 30
0.0
 40
0
 41
0
  0
VERTEX
  8
0
 10
3.74143
 20
0.504394
 30
0.0
 40
0
 41
0
  0
VERTEX
  8
0
 10
3.75874
 20
0.601997
 30
0.0
 40
0
 41
0
  0
VERTEX
  8
0
 10
3.78256
 20
0.700521
 30
0.0
 40
0
 41
0
  0
VERTEX
  8
0
 10
3.80311
 20
0.754015
 30
0.0
 40
0
 41
0
  0
VERTEX
  8
0
 10
3.81657
 20
0.760579
 30
0.0
 40
0
 41
0
  0
VERTEX
  8
0
 10
3.84581
 20
0.763997
 30
0.0
 40
0
 41
0
  0
VERTEX
  8
0
 10
3.98503
 20
0.763021
 30
0.0
 40
0
 41
0
  0
VERTEX
  8
0
 10
4.07215
 20
0.764919
 30
0.0
 40
0
 41
0
  0
VERTEX
  8
0
 10
4.12224
 20
0.762369
 30
0.0
 40
0
 41
0
  0
VERTEX
  8
0
 10
4.13688
 20
0.754775
 30
0.0
 40
0
 41
0
  0
VERTEX
  8
0
 10
4.1499
 20
0.741428
 30
0.0
 40
0
 41
0
  0
VERTEX
  8
0
 10
4.1651
 20
0.711317
 30
0.0
 40
0
 41
0
  0
VERTEX
  8
0
 10
4.17057
 20
0.669271
 30
0.0
 40
0
 41
0
  0
VERTEX
  8
0
 10
4.16635
 20
0.613499
 30
0.0
 40
0
 41
0
  0
VERTEX
  8
0
 10
4.1524
 20
0.541829
 30
0.0
 40
0
 41
0
  0
VERTEX
  8
0
 10
4.13699
 20
0.488715
 30
0.0
 40
0
 41
0
  0
VERTEX
  8
0
 10
4.11942
 20
0.456543
 30
0.0
 40
0
 41
0
  0
VERTEX
  8
0
 10
4.09765
 20
0.443088
 30
0.0
 40
0
 41
0
  0
VERTEX
  8
0
 10
4.06967
 20
0.445856
 30
0.0
 40
0
 41
0
  0
VERTEX
  8
0
 10
4.05279
 20
0.457628
 30
0.0
 40
0
 41
0
  0
VERTEX
  8
0
 10
4.05317
 20
0.482585
 30
0.0
 40
0
 41
0
  0
VERTEX
  8
0
 10
4.07932
 20
0.628526
 30
0.0
 40
0
 41
0
  0
VERTEX
  8
0
 10
4.07801
 20
0.662326
 30
0.0
 40
0
 41
0
  0
VERTEX
  8
0
 10
4.06787
 20
0.681207
 30
0.0
 40
0
 41
0
  0
VERTEX
  8
0
 10
4.04796
 20
0.692057
 30
0.0
 40
0
 41
0
  0
VERTEX
  8
0
 10
4.03917
 20
0.688639
 30
0.0
 40
0
 41
0
  0
VERTEX
  8
0
 10
4.03087
 20
0.678928
 30
0.0
 40
0
 41
0
  0
VERTEX
  8
0
 10
4.01497
 20
0.638835
 30
0.0
 40
0
 41
0
  0
VERTEX
  8
0
 10
3.99837
 20
0.569174
 30
0.0
 40
0
 41
0
  0
VERTEX
  8
0
 10
3.98008
 20
0.496257
 30
0.0
 40
0
 41
0
  0
VERTEX
  8
0
 10
3.96007
 20
0.454047
 30
0.0
 40
0
 41
0
  0
VERTEX
  8
0
 10
3.94868
 20
0.443576
 30
0.0
 40
0
 41
0
  0
VERTEX
  8
0
 10
3.93604
 20
0.439615
 30
0.0
 40
0
 41
0
  0
VERTEX
  8
0
 10
3.92176
 20
0.441894
 30
0.0
 40
0
 41
0
  0
VERTEX
  8
0
 10
3.90565
 20
0.449924
 30
0.0
 40
0
 41
0
  0
VERTEX
  8
0
 10
3.89844
 20
0.458767
 30
0.0
 40
0
 41
0
  0
VERTEX
  8
0
 10
3.8966
 20
0.476563
 30
0.0
 40
0
 41
0
  0
VERTEX
  8
0
 10
3.91
 20
0.56174
 30
0.0
 40
0
 41
0
  0
VERTEX
  8
0
 10
3.92389
 20
0.650444
 30
0.0
 40
0
 41
0
  0
VERTEX
  8
0
 10
3.92117
 20
0.668946
 30
0.0
 40
0
 41
0
  0
VERTEX
  8
0
 10
3.91217
 20
0.681424
 30
0.0
 40
0
 41
0
  0
VERTEX
  8
0
 10
3.89199
 20
0.691949
 30
0.0
 40
0
 41
0
  0
VERTEX
  8
0
 10
3.88281
 20
0.688368
 30
0.0
 40
0
 41
0
  0
VERTEX
  8
0
 10
3.87397
 20
0.678549
 30
0.0
 40
0
 41
0
  0
VERTEX
  8
0
 10
3.85667
 20
0.638835
 30
0.0
 40
0
 41
0
  0
VERTEX
  8
0
 10
3.83843
 20
0.570529
 30
0.0
 40
0
 41
0
  0
VERTEX
  8
0
 10
3.81836
 20
0.494683
 30
0.0
 40
0
 41
0
  0
VERTEX
  8
0
 10
3.8029
 20
0.454536
 30
0.0
 40
0
 41
0
  0
VERTEX
  8
0
 10
3.78868
 20
0.444065
 30
0.0
 40
0
 41
0
  0
VERTEX
  8
0
 10
3.77138
 20
0.440321
 30
0.0
 40
0
 41
0
  0
VERTEX
  8
0
 10
3.75412
 20
0.443576
 30
0.0
 40
0
 41
0
  0
VERTEX
  8
0
 10
3.74013
 20
0.453668
 30
0.0
 40
0
 41
0
  0
SEQEND
 8
0
  0
POLYLINE
  8
0
 62
     0
 66
     1
 10
0
 20
0
 30
0.0
 40
0
 41
0
  0
VERTEX
  8
0
 10
4.32394
 20
0.446886
 30
0.0
 40
0
 41
0
  0
VERTEX
  8
0
 10
4.30968
 20
0.458767
 30
0.0
 40
0
 41
0
  0
VERTEX
  8
0
 10
4.30501
 20
0.482314
 30
0.0
 40
0
 41
0
  0
VERTEX
  8
0
 10
4.31689
 20
0.558703
 30
0.0
 40
0
 41
0
  0
VERTEX
  8
0
 10
4.34337
 20
0.680826
 30
0.0
 40
0
 41
0
  0
VERTEX
  8
0
 10
4.37218
 20
0.796386
 30
0.0
 40
0
 41
0
  0
VERTEX
  8
0
 10
4.39128
 20
0.853299
 30
0.0
 40
0
 41
0
  0
VERTEX
  8
0
 10
4.41965
 20
0.864637
 30
0.0
 40
0
 41
0
  0
VERTEX
  8
0
 10
4.46744
 20
0.870551
 30
0.0
 40
0
 41
0
  0
VERTEX
  8
0
 10
4.52029
 20
0.870063
 30
0.0
 40
0
 41
0
  0
VERTEX
  8
0
 10
4.56381
 20
0.862631
 30
0.0
 40
0
 41
0
  0
VERTEX
  8
0
 10
4.60172
 20
0.842122
 30
0.0
 40
0
 41
0
  0
VERTEX
  8
0
 10
4.63726
 20
0.811035
 30
0.0
 40
0
 41
0
  0
VERTEX
  8
0
 10
4.65539
 20
0.78814
 30
0.0
 40
0
 41
0
  0
VERTEX
  8
0
 10
4.66558
 20
0.766872
 30
0.0
 40
0
 41
0
  0
VERTEX
  8
0
 10
4.67014
 20
0.739908
 30
0.0
 40
0
 41
0
  0
VERTEX
  8
0
 10
4.67117
 20
0.700142
 30
0.0
 40
0
 41
0
  0
VERTEX
  8
0
 10
4.6671
 20
0.643283
 30
0.0
 40
0
 41
0
  0
VERTEX
  8
0
 10
4.65511
 20
0.593317
 30
0.0
 40
0
 41
0
  0
VERTEX
  8
0
 10
4.63519
 20
0.550239
 30
0.0
 40
0
 41
0
  0
VERTEX
  8
0
 10
4.60747
 20
0.514378
 30
0.0
 40
0
 41
0
  0
VERTEX
  8
0
 10
4.57215
 20
0.485786
 30
0.0
 40
0
 41
0
  0
VERTEX
  8
0
 10
4.52924
 20
0.46441
 30
0.0
 40
0
 41
0
  0
VERTEX
  8
0
 10
4.47885
 20
0.450521
 30
0.0
 40
0
 41
0
  0
VERTEX
  8
0
 10
4.42117
 20
0.444228
 30
0.0
 40
0
 41
0
  0
VERTEX
  8
0
 10
4.32394
 20
0.446886
 30
0.0
 40
0
 41
0
  0
SEQEND
 8
0
  0
POLYLINE
  8
0
 62
     0
 66
     1
 10
0
 20
0
 30
0.0
 40
0
 41
0
  0
VERTEX
  8
0
 10
4.52908
 20
0.558268
 30
0.0
 40
0
 41
0
  0
VERTEX
  8
0
 10
4.5555
 20
0.589301
 30
0.0
 40
0
 41
0
  0
VERTEX
  8
0
 10
4.5726
 20
0.624892
 30
0.0
 40
0
 41
0
  0
VERTEX
  8
0
 10
4.58062
 20
0.662381
 30
0.0
 40
0
 41
0
  0
VERTEX
  8
0
 10
4.58003
 20
0.699056
 30
0.0
 40
0
 41
0
  0
VERTEX
  8
0
 10
4.57118
 20
0.732314
 30
0.0
 40
0
 41
0
  0
VERTEX
  8
0
 10
4.55442
 20
0.75944
 30
0.0
 40
0
 41
0
  0
VERTEX
  8
0
 10
4.53006
 20
0.777561
 30
0.0
 40
0
 41
0
  0
VERTEX
  8
0
 10
4.49854
 20
0.784289
 30
0.0
 40
0
 41
0
  0
VERTEX
  8
0
 10
4.47401
 20
0.782226
 30
0.0
 40
0
 41
0
  0
VERTEX
  8
0
 10
4.4655
 20
0.776585
 30
0.0
 40
0
 41
0
  0
VERTEX
  8
0
 10
4.45806
 20
0.765136
 30
0.0
 40
0
 41
0
  0
VERTEX
  8
0
 10
4.44287
 20
0.716254
 30
0.0
 40
0
 41
0
  0
VERTEX
  8
0
 10
4.42051
 20
0.618978
 30
0.0
 40
0
 41
0
  0
VERTEX
  8
0
 10
4.40881
 20
0.552572
 30
0.0
 40
0
 41
0
  0
VERTEX
  8
0
 10
4.40994
 20
0.536729
 30
0.0
 40
0
 41
0
  0
VERTEX
  8
0
 10
4.41553
 20
0.528754
 30
0.0
 40
0
 41
0
  0
VERTEX
  8
0
 10
4.43761
 20
0.525011
 30
0.0
 40
0
 41
0
  0
VERTEX
  8
0
 10
4.46946
 20
0.530057
 30
0.0
 40
0
 41
0
  0
VERTEX
  8
0
 10
4.50265
 20
0.541938
 30
0.0
 40
0
 41
0
  0
VERTEX
  8
0
 10
4.52908
 20
0.558268
 30
0.0
 40
0
 41
0
  0
SEQEND
 8
0
  0
POLYLINE
  8
0
 62
     0
 66
     1
 10
0
 20
0
 30
0.0
 40
0
 41
0
  0
VERTEX
  8
0
 10
4.72125
 20
0.466581
 30
0.0
 40
0
 41
0
  0
VERTEX
  8
0
 10
4.69943
 20
0.496149
 30
0.0
 40
0
 41
0
  0
VERTEX
  8
0
 10
4.68685
 20
0.530817
 30
0.0
 40
0
 41
0
  0
VERTEX
  8
0
 10
4.68306
 20
0.568793
 30
0.0
 40
0
 41
0
  0
VERTEX
  8
0
 10
4.68761
 20
0.608507
 30
0.0
 40
0
 41
0
  0
VERTEX
  8
0
 10
4.70025
 20
0.648058
 30
0.0
 40
0
 41
0
  0
VERTEX
  8
0
 10
4.72054
 20
0.685818
 30
0.0
 40
0
 41
0
  0
VERTEX
  8
0
 10
4.74804
 20
0.719997
 30
0.0
 40
0
 41
0
  0
VERTEX
  8
0
 10
4.78256
 20
0.748915
 30
0.0
 40
0
 41
0
  0
VERTEX
  8
0
 10
4.80469
 20
0.762044
 30
0.0
 40
0
 41
0
  0
VERTEX
  8
0
 10
4.8259
 20
0.769368
 30
0.0
 40
0
 41
0
  0
VERTEX
  8
0
 10
4.88536
 20
0.770617
 30
0.0
 40
0
 41
0
  0
VERTEX
  8
0
 10
4.94026
 20
0.763564
 30
0.0
 40
0
 41
0
  0
VERTEX
  8
0
 10
4.95687
 20
0.756565
 30
0.0
 40
0
 41
0
  0
VERTEX
  8
0
 10
4.96724
 20
0.74566
 30
0.0
 40
0
 41
0
  0
VERTEX
  8
0
 10
4.97194
 20
0.729818
 30
0.0
 40
0
 41
0
  0
VERTEX
  8
0
 10
4.97174
 20
0.707628
 30
0.0
 40
0
 41
0
  0
VERTEX
  8
0
 10
4.95915
 20
0.639811
 30
0.0
 40
0
 41
0
  0
VERTEX
  8
0
 10
4.94575
 20
0.56071
 30
0.0
 40
0
 41
0
  0
VERTEX
  8
0
 10
4.94417
 20
0.504883
 30
0.0
 40
0
 41
0
  0
VERTEX
  8
0
 10
4.94536
 20
0.472711
 30
0.0
 40
0
 41
0
  0
VERTEX
  8
0
 10
4.93707
 20
0.456
 30
0.0
 40
0
 41
0
  0
VERTEX
  8
0
 10
4.90175
 20
0.449001
 30
0.0
 40
0
 41
0
  0
VERTEX
  8
0
 10
4.83561
 20
0.443956
 30
0.0
 40
0
 41
0
  0
VERTEX
  8
0
 10
4.75726
 20
0.444878
 30
0.0
 40
0
 41
0
  0
VERTEX
  8
0
 10
4.73796
 20
0.452311
 30
0.0
 40
0
 41
0
  0
VERTEX
  8
0
 10
4.72125
 20
0.466581
 30
0.0
 40
0
 41
0
  0
SEQEND
 8
0
  0
POLYLINE
  8
0
 62
     0
 66
     1
 10
0
 20
0
 30
0.0
 40
0
 41
0
  0
VERTEX
  8
0
 10
4.83572
 20
0.527181
 30
0.0
 40
0
 41
0
  0
VERTEX
  8
0
 10
4.84999
 20
0.553928
 30
0.0
 40
0
 41
0
  0
VERTEX
  8
0
 10
4.86382
 20
0.603299
 30
0.0
 40
0
 41
0
  0
VERTEX
  8
0
 10
4.87244
 20
0.654081
 30
0.0
 40
0
 41
0
  0
VERTEX
  8
0
 10
4.8711
 20
0.684407
 30
0.0
 40
0
 41
0
  0
VERTEX
  8
0
 10
4.86475
 20
0.689725
 30
0.0
 40
0
 41
0
  0
VERTEX
  8
0
 10
4.85558
 20
0.691189
 30
0.0
 40
0
 41
0
  0
VERTEX
  8
0
 10
4.83214
 20
0.683757
 30
0.0
 40
0
 41
0
  0
VERTEX
  8
0
 10
4.80751
 20
0.665799
 30
0.0
 40
0
 41
0
  0
VERTEX
  8
0
 10
4.78836
 20
0.640896
 30
0.0
 40
0
 41
0
  0
VERTEX
  8
0
 10
4.77724
 20
0.61339
 30
0.0
 40
0
 41
0
  0
VERTEX
  8
0
 10
4.77208
 20
0.587185
 30
0.0
 40
0
 41
0
  0
VERTEX
  8
0
 10
4.77229
 20
0.563422
 30
0.0
 40
0
 41
0
  0
VERTEX
  8
0
 10
4.7774
 20
0.543511
 30
0.0
 40
0
 41
0
  0
VERTEX
  8
0
 10
4.78683
 20
0.528646
 30
0.0
 40
0
 41
0
  0
VERTEX
  8
0
 10
4.80003
 20
0.520019
 30
0.0
 40
0
 41
0
  0
VERTEX
  8
0
 10
4.81651
 20
0.519206
 30
0.0
 40
0
 41
0
  0
VERTEX
  8
0
 10
4.83572
 20
0.527181
 30
0.0
 40
0
 41
0
  0
SEQEND
 8
0
  0
POLYLINE
  8
0
 62
     0
 66
     1
 10
0
 20
0
 30
0.0
 40
0
 41
0
  0
VERTEX
  8
0
 10
0.371149
 20
0.56684
 30
0.0
 40
0
 41
0
  0
VERTEX
  8
0
 10
0.378743
 20
0.589953
 30
0.0
 40
0
 41
0
  0
VERTEX
  8
0
 10
0.397515
 20
0.613715
 30
0.0
 40
0
 41
0
  0
VERTEX
  8
0
 10
0.42155
 20
0.632269
 30
0.0
 40
0
 41
0
  0
VERTEX
  8
0
 10
0.444878
 20
0.639811
 30
0.0
 40
0
 41
0
  0
VERTEX
  8
0
 10
0.456164
 20
0.638237
 30
0.0
 40
0
 41
0
  0
VERTEX
  8
0
 10
0.458225
 20
0.630968
 30
0.0
 40
0
 41
0
  0
VERTEX
  8
0
 10
0.430772
 20
0.584039
 30
0.0
 40
0
 41
0
  0
VERTEX
  8
0
 10
0.407497
 20
0.554579
 30
0.0
 40
0
 41
0
  0
VERTEX
  8
0
 10
0.388564
 20
0.54145
 30
0.0
 40
0
 41
0
  0
VERTEX
  8
0
 10
0.375814
 20
0.54541
 30
0.0
 40
0
 41
0
  0
VERTEX
  8
0
 10
0.371149
 20
0.56684
 30
0.0
 40
0
 41
0
  0
SEQEND
 8
0
  0
POLYLINE
  8
0
 62
     0
 66
     1
 10
0
 20
0
 30
0.0
 40
0
 41
0
  0
VERTEX
  8
0
 10
0.573622
 20
0.631511
 30
0.0
 40
0
 41
0
  0
VERTEX
  8
0
 10
0.558649
 20
0.661404
 30
0.0
 40
0
 41
0
  0
VERTEX
  8
0
 10
0.54655
 20
0.707954
 30
0.0
 40
0
 41
0
  0
VERTEX
  8
0
 10
0.538628
 20
0.764432
 30
0.0
 40
0
 41
0
  0
VERTEX
  8
0
 10
0.536079
 20
0.824328
 30
0.0
 40
0
 41
0
  0
VERTEX
  8
0
 10
0.541992
 20
0.892686
 30
0.0
 40
0
 41
0
  0
VERTEX
  8
0
 10
0.557617
 20
0.956381
 30
0.0
 40
0
 41
0
  0
VERTEX
  8
0
 10
0.582086
 20
1.01503
 30
0.0
 40
0
 41
0
  0
VERTEX
  8
0
 10
0.614367
 20
1.06825
 30
0.0
 40
0
 41
0
  0
VERTEX
  8
0
 10
0.653592
 20
1.11561
 30
0.0
 40
0
 41
0
  0
VERTEX
  8
0
 10
0.698839
 20
1.15674
 30
0.0
 40
0
 41
0
  0
VERTEX
  8
0
 10
0.749186
 20
1.19124
 30
0.0
 40
0
 41
0
  0
VERTEX
  8
0
 10
0.803657
 20
1.2187
 30
0.0
 40
0
 41
0
  0
VERTEX
  8
0
 10
0.861328
 20
1.23877
 30
0.0
 40
0
 41
0
  0
VERTEX
  8
0
 10
0.921278
 20
1.25098
 30
0.0
 40
0
 41
0
  0
VERTEX
  8
0
 10
0.982639
 20
1.25499
 30
0.0
 40
0
 41
0
  0
VERTEX
  8
0
 10
1.04438
 20
1.25043
 30
0.0
 40
0
 41
0
  0
VERTEX
  8
0
 10
1.10563
 20
1.23693
 30
0.0
 40
0
 41
0
  0
VERTEX
  8
0
 10
1.16547
 20
1.21392
 30
0.0
 40
0
 41
0
  0
VERTEX
  8
0
 10
1.22293
 20
1.18121
 30
0.0
 40
0
 41
0
  0
VERTEX
  8
0
 10
1.27713
 20
1.13824
 30
0.0
 40
0
 41
0
  0
VERTEX
  8
0
 10
1.3157
 20
1.09641
 30
0.0
 40
0
 41
0
  0
VERTEX
  8
0
 10
1.3533
 20
1.04595
 30
0.0
 40
0
 41
0
  0
VERTEX
  8
0
 10
1.38184
 20
0.998697
 30
0.0
 40
0
 41
0
  0
VERTEX
  8
0
 10
1.39328
 20
0.966689
 30
0.0
 40
0
 41
0
  0
VERTEX
  8
0
 10
1.36154
 20
0.954536
 30
0.0
 40
0
 41
0
  0
VERTEX
  8
0
 10
1.27951
 20
0.942219
 30
0.0
 40
0
 41
0
  0
VERTEX
  8
0
 10
1.16558
 20
0.929796
 30
0.0
 40
0
 41
0
  0
VERTEX
  8
0
 10
1.13227
 20
0.962076
 30
0.0
 40
0
 41
0
  0
VERTEX
  8
0
 10
1.09228
 20
0.993381
 30
0.0
 40
0
 41
0
  0
VERTEX
  8
0
 10
1.04888
 20
1.01438
 30
0.0
 40
0
 41
0
  0
VERTEX
  8
0
 10
1.00358
 20
1.02523
 30
0.0
 40
0
 41
0
  0
VERTEX
  8
0
 10
0.957844
 20
1.02599
 30
0.0
 40
0
 41
0
  0
VERTEX
  8
0
 10
0.913086
 20
1.01687
 30
0.0
 40
0
 41
0
  0
VERTEX
  8
0
 10
0.870822
 20
0.997939
 30
0.0
 40
0
 41
0
  0
VERTEX
  8
0
 10
0.832465
 20
0.969293
 30
0.0
 40
0
 41
0
  0
VERTEX
  8
0
 10
0.799533
 20
0.931207
 30
0.0
 40
0
 41
0
  0
VERTEX
  8
0
 10
0.772786
 20
0.880479
 30
0.0
 40
0
 41
0
  0
VERTEX
  8
0
 10
0.765679
 20
0.820096
 30
0.0
 40
0
 41
0
  0
VERTEX
  8
0
 10
0.763129
 20
0.773275
 30
0.0
 40
0
 41
0
  0
VERTEX
  8
0
 10
0.756782
 20
0.744954
 30
0.0
 40
0
 41
0
  0
VERTEX
  8
0
 10
0.746311
 20
0.734321
 30
0.0
 40
0
 41
0
  0
VERTEX
  8
0
 10
0.731282
 20
0.740614
 30
0.0
 40
0
 41
0
  0
VERTEX
  8
0
 10
0.719347
 20
0.769749
 30
0.0
 40
0
 41
0
  0
VERTEX
  8
0
 10
0.715767
 20
0.820313
 30
0.0
 40
0
 41
0
  0
VERTEX
  8
0
 10
0.720269
 20
0.87755
 30
0.0
 40
0
 41
0
  0
VERTEX
  8
0
 10
0.732801
 20
0.926269
 30
0.0
 40
0
 41
0
  0
VERTEX
  8
0
 10
0.756239
 20
0.968533
 30
0.0
 40
0
 41
0
  0
VERTEX
  8
0
 10
0.789279
 20
1.0076
 30
0.0
 40
0
 41
0
  0
VERTEX
  8
0
 10
0.830024
 20
1.04161
 30
0.0
 40
0
 41
0
  0
VERTEX
  8
0
 10
0.876736
 20
1.06885
 30
0.0
 40
0
 41
0
  0
VERTEX
  8
0
 10
0.914985
 20
1.08968
 30
0.0
 40
0
 41
0
  0
VERTEX
  8
0
 10
0.915419
 20
1.09391
 30
0.0
 40
0
 41
0
  0
VERTEX
  8
0
 10
0.904514
 20
1.09505
 30
0.0
 40
0
 41
0
  0
VERTEX
  8
0
 10
0.867567
 20
1.08838
 30
0.0
 40
0
 41
0
  0
VERTEX
  8
0
 10
0.825412
 20
1.07058
 30
0.0
 40
0
 41
0
  0
VERTEX
  8
0
 10
0.783094
 20
1.04427
 30
0.0
 40
0
 41
0
  0
VERTEX
  8
0
 10
0.745768
 20
1.01226
 30
0.0
 40
0
 41
0
  0
VERTEX
  8
0
 10
0.709418
 20
0.965007
 30
0.0
 40
0
 41
0
  0
VERTEX
  8
0
 10
0.685764
 20
0.910536
 30
0.0
 40
0
 41
0
  0
VERTEX
  8
0
 10
0.674208
 20
0.846625
 30
0.0
 40
0
 41
0
  0
VERTEX
  8
0
 10
0.674154
 20
0.771647
 30
0.0
 40
0
 41
0
  0
VERTEX
  8
0
 10
0.680122
 20
0.684733
 30
0.0
 40
0
 41
0
  0
VERTEX
  8
0
 10
0.641928
 20
0.651204
 30
0.0
 40
0
 41
0
  0
VERTEX
  8
0
 10
0.615668
 20
0.629503
 30
0.0
 40
0
 41
0
  0
VERTEX
  8
0
 10
0.59809
 20
0.619738
 30
0.0
 40
0
 41
0
  0
VERTEX
  8
0
 10
0.58534
 20
0.620768
 30
0.0
 40
0
 41
0
  0
VERTEX
  8
0
 10
0.573622
 20
0.631511
 30
0.0
 40
0
 41
0
  0
SEQEND
 8
0
  0
POLYLINE
  8
0
 62
     0
 66
     1
 10
0
 20
0
 30
0.0
 40
0
 41
0
  0
VERTEX
  8
0
 10
0.263346
 20
0.807617
 30
0.0
 40
0
 41
0
  0
VERTEX
  8
0
 10
0.255425
 20
0.822483
 30
0.0
 40
0
 41
0
  0
VERTEX
  8
0
 10
0.25944
 20
0.836914
 30
0.0
 40
0
 41
0
  0
VERTEX
  8
0
 10
0.273003
 20
0.849989
 30
0.0
 40
0
 41
0
  0
VERTEX
  8
0
 10
0.293728
 20
0.86084
 30
0.0
 40
0
 41
0
  0
VERTEX
  8
0
 10
0.347385
 20
0.872071
 30
0.0
 40
0
 41
0
  0
VERTEX
  8
0
 10
0.375543
 20
0.870551
 30
0.0
 40
0
 41
0
  0
VERTEX
  8
0
 10
0.401475
 20
0.862956
 30
0.0
 40
0
 41
0
  0
VERTEX
  8
0
 10
0.418728
 20
0.851942
 30
0.0
 40
0
 41
0
  0
VERTEX
  8
0
 10
0.418946
 20
0.841689
 30
0.0
 40
0
 41
0
  0
VERTEX
  8
0
 10
0.401475
 20
0.831272
 30
0.0
 40
0
 41
0
  0
VERTEX
  8
0
 10
0.365614
 20
0.819878
 30
0.0
 40
0
 41
0
  0
VERTEX
  8
0
 10
0.298936
 20
0.801215
 30
0.0
 40
0
 41
0
  0
VERTEX
  8
0
 10
0.279297
 20
0.800185
 30
0.0
 40
0
 41
0
  0
VERTEX
  8
0
 10
0.263346
 20
0.807617
 30
0.0
 40
0
 41
0
  0
SEQEND
 8
0
  0
POLYLINE
  8
0
 62
     0
 66
     1
 10
0
 20
0
 30
0.0
 40
0
 41
0
  0
VERTEX
  8
0
 10
1.87115
 20
0.965711
 30
0.0
 40
0
 41
0
  0
VERTEX
  8
0
 10
1.83789
 20
0.978678
 30
0.0
 40
0
 41
0
  0
VERTEX
  8
0
 10
1.81976
 20
0.996039
 30
0.0
 40
0
 41
0
  0
VERTEX
  8
0
 10
1.81689
 20
1.01763
 30
0.0
 40
0
 41
0
  0
VERTEX
  8
0
 10
1.82937
 20
1.04329
 30
0.0
 40
0
 41
0
  0
VERTEX
  8
0
 10
1.84711
 20
1.0574
 30
0.0
 40
0
 41
0
  0
VERTEX
  8
0
 10
1.875
 20
1.05159
 30
0.0
 40
0
 41
0
  0
VERTEX
  8
0
 10
1.90642
 20
1.04297
 30
0.0
 40
0
 41
0
  0
VERTEX
  8
0
 10
1.93674
 20
1.04031
 30
0.0
 40
0
 41
0
  0
VERTEX
  8
0
 10
1.96246
 20
1.04373
 30
0.0
 40
0
 41
0
  0
VERTEX
  8
0
 10
1.98003
 20
1.05311
 30
0.0
 40
0
 41
0
  0
VERTEX
  8
0
 10
1.99208
 20
1.07297
 30
0.0
 40
0
 41
0
  0
VERTEX
  8
0
 10
1.98947
 20
1.0944
 30
0.0
 40
0
 41
0
  0
VERTEX
  8
0
 10
1.97185
 20
1.11833
 30
0.0
 40
0
 41
0
  0
VERTEX
  8
0
 10
1.93881
 20
1.14573
 30
0.0
 40
0
 41
0
  0
VERTEX
  8
0
 10
1.89578
 20
1.18381
 30
0.0
 40
0
 41
0
  0
VERTEX
  8
0
 10
1.87201
 20
1.22
 30
0.0
 40
0
 41
0
  0
VERTEX
  8
0
 10
1.86426
 20
1.25825
 30
0.0
 40
0
 41
0
  0
VERTEX
  8
0
 10
1.86768
 20
1.29378
 30
0.0
 40
0
 41
0
  0
VERTEX
  8
0
 10
1.88103
 20
1.32568
 30
0.0
 40
0
 41
0
  0
VERTEX
  8
0
 10
1.90321
 20
1.3527
 30
0.0
 40
0
 41
0
  0
VERTEX
  8
0
 10
1.93306
 20
1.37397
 30
0.0
 40
0
 41
0
  0
VERTEX
  8
0
 10
1.9694
 20
1.38813
 30
0.0
 40
0
 41
0
  0
VERTEX
  8
0
 10
2.01118
 20
1.39437
 30
0.0
 40
0
 41
0
  0
VERTEX
  8
0
 10
2.05713
 20
1.39154
 30
0.0
 40
0
 41
0
  0
VERTEX
  8
0
 10
2.09272
 20
1.38216
 30
0.0
 40
0
 41
0
  0
VERTEX
  8
0
 10
2.11481
 20
1.36773
 30
0.0
 40
0
 41
0
  0
VERTEX
  8
0
 10
2.12332
 20
1.34847
 30
0.0
 40
0
 41
0
  0
VERTEX
  8
0
 10
2.11817
 20
1.32433
 30
0.0
 40
0
 41
0
  0
VERTEX
  8
0
 10
2.10975
 20
1.30941
 30
0.0
 40
0
 41
0
  0
VERTEX
  8
0
 10
2.09853
 20
1.30192
 30
0.0
 40
0
 41
0
  0
VERTEX
  8
0
 10
2.04639
 20
1.30295
 30
0.0
 40
0
 41
0
  0
VERTEX
  8
0
 10
2.01335
 20
1.30393
 30
0.0
 40
0
 41
0
  0
VERTEX
  8
0
 10
1.98807
 20
1.29959
 30
0.0
 40
0
 41
0
  0
VERTEX
  8
0
 10
1.97086
 20
1.29085
 30
0.0
 40
0
 41
0
  0
VERTEX
  8
0
 10
1.96192
 20
1.27848
 30
0.0
 40
0
 41
0
  0
VERTEX
  8
0
 10
1.96149
 20
1.26313
 30
0.0
 40
0
 41
0
  0
VERTEX
  8
0
 10
1.96989
 20
1.24566
 30
0.0
 40
0
 41
0
  0
VERTEX
  8
0
 10
1.98736
 20
1.22678
 30
0.0
 40
0
 41
0
  0
VERTEX
  8
0
 10
2.01417
 20
1.20741
 30
0.0
 40
0
 41
0
  0
VERTEX
  8
0
 10
2.06196
 20
1.16753
 30
0.0
 40
0
 41
0
  0
VERTEX
  8
0
 10
2.07764
 20
1.14518
 30
0.0
 40
0
 41
0
  0
VERTEX
  8
0
 10
2.08778
 20
1.12169
 30
0.0
 40
0
 41
0
  0
VERTEX
  8
0
 10
2.09224
 20
1.09711
 30
0.0
 40
0
 41
0
  0
VERTEX
  8
0
 10
2.09104
 20
1.07189
 30
0.0
 40
0
 41
0
  0
VERTEX
  8
0
 10
2.08399
 20
1.04606
 30
0.0
 40
0
 41
0
  0
VERTEX
  8
0
 10
2.07113
 20
1.02007
 30
0.0
 40
0
 41
0
  0
VERTEX
  8
0
 10
2.05642
 20
1.00103
 30
0.0
 40
0
 41
0
  0
VERTEX
  8
0
 10
2.03788
 20
0.985243
 30
0.0
 40
0
 41
0
  0
VERTEX
  8
0
 10
1.99094
 20
0.963867
 30
0.0
 40
0
 41
0
  0
VERTEX
  8
0
 10
1.93408
 20
0.957031
 30
0.0
 40
0
 41
0
  0
VERTEX
  8
0
 10
1.87115
 20
0.965711
 30
0.0
 40
0
 41
0
  0
SEQEND
 8
0
  0
POLYLINE
  8
0
 62
     0
 66
     1
 10
0
 20
0
 30
0.0
 40
0
 41
0
  0
VERTEX
  8
0
 10
2.19336
 20
0.965549
 30
0.0
 40
0
 41
0
  0
VERTEX
  8
0
 10
2.15711
 20
0.987414
 30
0.0
 40
0
 41
0
  0
VERTEX
  8
0
 10
2.13308
 20
1.02165
 30
0.0
 40
0
 41
0
  0
VERTEX
  8
0
 10
2.12076
 20
1.06445
 30
0.0
 40
0
 41
0
  0
VERTEX
  8
0
 10
2.11996
 20
1.11198
 30
0.0
 40
0
 41
0
  0
VERTEX
  8
0
 10
2.13015
 20
1.16059
 30
0.0
 40
0
 41
0
  0
VERTEX
  8
0
 10
2.1511
 20
1.20633
 30
0.0
 40
0
 41
0
  0
VERTEX
  8
0
 10
2.18229
 20
1.24555
 30
0.0
 40
0
 41
0
  0
VERTEX
  8
0
 10
2.22347
 20
1.27425
 30
0.0
 40
0
 41
0
  0
VERTEX
  8
0
 10
2.25196
 20
1.28516
 30
0.0
 40
0
 41
0
  0
VERTEX
  8
0
 10
2.27946
 20
1.29015
 30
0.0
 40
0
 41
0
  0
VERTEX
  8
0
 10
2.3055
 20
1.28928
 30
0.0
 40
0
 41
0
  0
VERTEX
  8
0
 10
2.32943
 20
1.28309
 30
0.0
 40
0
 41
0
  0
VERTEX
  8
0
 10
2.35069
 20
1.27159
 30
0.0
 40
0
 41
0
  0
VERTEX
  8
0
 10
2.36882
 20
1.25494
 30
0.0
 40
0
 41
0
  0
VERTEX
  8
0
 10
2.38308
 20
1.23356
 30
0.0
 40
0
 41
0
  0
VERTEX
  8
0
 10
2.39307
 20
1.20763
 30
0.0
 40
0
 41
0
  0
VERTEX
  8
0
 10
2.39833
 20
1.17274
 30
0.0
 40
0
 41
0
  0
VERTEX
  8
0
 10
2.39686
 20
1.13569
 30
0.0
 40
0
 41
0
  0
VERTEX
  8
0
 10
2.38943
 20
1.09809
 30
0.0
 40
0
 41
0
  0
VERTEX
  8
0
 10
2.37679
 20
1.06185
 30
0.0
 40
0
 41
0
  0
VERTEX
  8
0
 10
2.35975
 20
1.02886
 30
0.0
 40
0
 41
0
  0
VERTEX
  8
0
 10
2.33908
 20
1.00087
 30
0.0
 40
0
 41
0
  0
VERTEX
  8
0
 10
2.31554
 20
0.97971
 30
0.0
 40
0
 41
0
  0
VERTEX
  8
0
 10
2.28993
 20
0.967285
 30
0.0
 40
0
 41
0
  0
VERTEX
  8
0
 10
2.23703
 20
0.956218
 30
0.0
 40
0
 41
0
  0
VERTEX
  8
0
 10
2.19336
 20
0.965549
 30
0.0
 40
0
 41
0
  0
SEQEND
 8
0
  0
POLYLINE
  8
0
 62
     0
 66
     1
 10
0
 20
0
 30
0.0
 40
0
 41
0
  0
VERTEX
  8
0
 10
2.28808
 20
1.06641
 30
0.0
 40
0
 41
0
  0
VERTEX
  8
0
 10
2.30344
 20
1.09869
 30
0.0
 40
0
 41
0
  0
VERTEX
  8
0
 10
2.31196
 20
1.13455
 30
0.0
 40
0
 41
0
  0
VERTEX
  8
0
 10
2.31261
 20
1.16716
 30
0.0
 40
0
 41
0
  0
VERTEX
  8
0
 10
2.30458
 20
1.18973
 30
0.0
 40
0
 41
0
  0
VERTEX
  8
0
 10
2.28592
 20
1.2034
 30
0.0
 40
0
 41
0
  0
VERTEX
  8
0
 10
2.26606
 20
1.20394
 30
0.0
 40
0
 41
0
  0
VERTEX
  8
0
 10
2.24653
 20
1.19347
 30
0.0
 40
0
 41
0
  0
VERTEX
  8
0
 10
2.229
 20
1.17437
 30
0.0
 40
0
 41
0
  0
VERTEX
  8
0
 10
2.21511
 20
1.14893
 30
0.0
 40
0
 41
0
  0
VERTEX
  8
0
 10
2.20643
 20
1.11941
 30
0.0
 40
0
 41
0
  0
VERTEX
  8
0
 10
2.20458
 20
1.08816
 30
0.0
 40
0
 41
0
  0
VERTEX
  8
0
 10
2.21121
 20
1.05745
 30
0.0
 40
0
 41
0
  0
VERTEX
  8
0
 10
2.22478
 20
1.04319
 30
0.0
 40
0
 41
0
  0
VERTEX
  8
0
 10
2.24604
 20
1.04042
 30
0.0
 40
0
 41
0
  0
VERTEX
  8
0
 10
2.2691
 20
1.04839
 30
0.0
 40
0
 41
0
  0
VERTEX
  8
0
 10
2.28808
 20
1.06641
 30
0.0
 40
0
 41
0
  0
SEQEND
 8
0
  0
POLYLINE
  8
0
 62
     0
 66
     1
 10
0
 20
0
 30
0.0
 40
0
 41
0
  0
VERTEX
  8
0
 10
2.40858
 20
0.962349
 30
0.0
 40
0
 41
0
  0
VERTEX
  8
0
 10
2.41168
 20
1.01742
 30
0.0
 40
0
 41
0
  0
VERTEX
  8
0
 10
2.43175
 20
1.13216
 30
0.0
 40
0
 41
0
  0
VERTEX
  8
0
 10
2.45899
 20
1.25711
 30
0.0
 40
0
 41
0
  0
VERTEX
  8
0
 10
2.48372
 20
1.34288
 30
0.0
 40
0
 41
0
  0
VERTEX
  8
0
 10
2.49681
 20
1.36681
 30
0.0
 40
0
 41
0
  0
VERTEX
  8
0
 10
2.51471
 20
1.38802
 30
0.0
 40
0
 41
0
  0
VERTEX
  8
0
 10
2.56093
 20
1.42008
 30
0.0
 40
0
 41
0
  0
VERTEX
  8
0
 10
2.61399
 20
1.435
 30
0.0
 40
0
 41
0
  0
VERTEX
  8
0
 10
2.6404
 20
1.43485
 30
0.0
 40
0
 41
0
  0
VERTEX
  8
0
 10
2.66536
 20
1.42876
 30
0.0
 40
0
 41
0
  0
VERTEX
  8
0
 10
2.68869
 20
1.41417
 30
0.0
 40
0
 41
0
  0
VERTEX
  8
0
 10
2.69108
 20
1.40403
 30
0.0
 40
0
 41
0
  0
VERTEX
  8
0
 10
2.68875
 20
1.38954
 30
0.0
 40
0
 41
0
  0
VERTEX
  8
0
 10
2.68565
 20
1.37392
 30
0.0
 40
0
 41
0
  0
VERTEX
  8
0
 10
2.68881
 20
1.36648
 30
0.0
 40
0
 41
0
  0
VERTEX
  8
0
 10
2.72646
 20
1.36887
 30
0.0
 40
0
 41
0
  0
VERTEX
  8
0
 10
2.77115
 20
1.37598
 30
0.0
 40
0
 41
0
  0
VERTEX
  8
0
 10
2.77115
 20
1.28429
 30
0.0
 40
0
 41
0
  0
VERTEX
  8
0
 10
2.91271
 20
1.28429
 30
0.0
 40
0
 41
0
  0
VERTEX
  8
0
 10
2.9196
 20
1.24262
 30
0.0
 40
0
 41
0
  0
VERTEX
  8
0
 10
2.9266
 20
1.1524
 30
0.0
 40
0
 41
0
  0
VERTEX
  8
0
 10
2.92964
 20
1.1154
 30
0.0
 40
0
 41
0
  0
VERTEX
  8
0
 10
2.93435
 20
1.11203
 30
0.0
 40
0
 41
0
  0
VERTEX
  8
0
 10
2.94228
 20
1.11664
 30
0.0
 40
0
 41
0
  0
VERTEX
  8
0
 10
2.96061
 20
1.14442
 30
0.0
 40
0
 41
0
  0
VERTEX
  8
0
 10
2.98296
 20
1.19303
 30
0.0
 40
0
 41
0
  0
VERTEX
  8
0
 10
3.00385
 20
1.2423
 30
0.0
 40
0
 41
0
  0
VERTEX
  8
0
 10
3.0204
 20
1.26997
 30
0.0
 40
0
 41
0
  0
VERTEX
  8
0
 10
3.03728
 20
1.28147
 30
0.0
 40
0
 41
0
  0
VERTEX
  8
0
 10
3.05908
 20
1.28206
 30
0.0
 40
0
 41
0
  0
VERTEX
  8
0
 10
3.07471
 20
1.27865
 30
0.0
 40
0
 41
0
  0
VERTEX
  8
0
 10
3.08371
 20
1.27045
 30
0.0
 40
0
 41
0
  0
VERTEX
  8
0
 10
3.09071
 20
1.22314
 30
0.0
 40
0
 41
0
  0
VERTEX
  8
0
 10
3.09939
 20
1.14393
 30
0.0
 40
0
 41
0
  0
VERTEX
  8
0
 10
3.10613
 20
1.12419
 30
0.0
 40
0
 41
0
  0
VERTEX
  8
0
 10
3.11447
 20
1.11762
 30
0.0
 40
0
 41
0
  0
VERTEX
  8
0
 10
3.12864
 20
1.13802
 30
0.0
 40
0
 41
0
  0
VERTEX
  8
0
 10
3.14936
 20
1.18707
 30
0.0
 40
0
 41
0
  0
VERTEX
  8
0
 10
3.18544
 20
1.2704
 30
0.0
 40
0
 41
0
  0
VERTEX
  8
0
 10
3.20221
 20
1.28027
 30
0.0
 40
0
 41
0
  0
VERTEX
  8
0
 10
3.227
 20
1.28385
 30
0.0
 40
0
 41
0
  0
VERTEX
  8
0
 10
3.25119
 20
1.28114
 30
0.0
 40
0
 41
0
  0
VERTEX
  8
0
 10
3.26639
 20
1.27186
 30
0.0
 40
0
 41
0
  0
VERTEX
  8
0
 10
3.25319
 20
1.22624
 30
0.0
 40
0
 41
0
  0
VERTEX
  8
0
 10
3.21283
 20
1.13748
 30
0.0
 40
0
 41
0
  0
VERTEX
  8
0
 10
3.16444
 20
1.04471
 30
0.0
 40
0
 41
0
  0
VERTEX
  8
0
 10
3.12711
 20
0.987033
 30
0.0
 40
0
 41
0
  0
VERTEX
  8
0
 10
3.1096
 20
0.971733
 30
0.0
 40
0
 41
0
  0
VERTEX
  8
0
 10
3.09299
 20
0.963488
 30
0.0
 40
0
 41
0
  0
VERTEX
  8
0
 10
3.07785
 20
0.962239
 30
0.0
 40
0
 41
0
  0
VERTEX
  8
0
 10
3.06456
 20
0.967665
 30
0.0
 40
0
 41
0
  0
VERTEX
  8
0
 10
3.0535
 20
0.979383
 30
0.0
 40
0
 41
0
  0
VERTEX
  8
0
 10
3.04503
 20
0.997071
 30
0.0
 40
0
 41
0
  0
VERTEX
  8
0
 10
3.03782
 20
1.04953
 30
0.0
 40
0
 41
0
  0
VERTEX
  8
0
 10
3.03489
 20
1.08284
 30
0.0
 40
0
 41
0
  0
VERTEX
  8
0
 10
3.02789
 20
1.10021
 30
0.0
 40
0
 41
0
  0
VERTEX
  8
0
 10
3.00993
 20
1.0861
 30
0.0
 40
0
 41
0
  0
VERTEX
  8
0
 10
2.98068
 20
1.04367
 30
0.0
 40
0
 41
0
  0
VERTEX
  8
0
 10
2.93554
 20
0.981282
 30
0.0
 40
0
 41
0
  0
VERTEX
  8
0
 10
2.91639
 20
0.965929
 30
0.0
 40
0
 41
0
  0
VERTEX
  8
0
 10
2.89958
 20
0.960992
 30
0.0
 40
0
 41
0
  0
VERTEX
  8
0
 10
2.88519
 20
0.966635
 30
0.0
 40
0
 41
0
  0
VERTEX
  8
0
 10
2.87326
 20
0.982747
 30
0.0
 40
0
 41
0
  0
VERTEX
  8
0
 10
2.86382
 20
1.00944
 30
0.0
 40
0
 41
0
  0
VERTEX
  8
0
 10
2.85693
 20
1.04655
 30
0.0
 40
0
 41
0
  0
VERTEX
  8
0
 10
2.84429
 20
1.13683
 30
0.0
 40
0
 41
0
  0
VERTEX
  8
0
 10
2.83317
 20
1.18256
 30
0.0
 40
0
 41
0
  0
VERTEX
  8
0
 10
2.82607
 20
1.19341
 30
0.0
 40
0
 41
0
  0
VERTEX
  8
0
 10
2.81679
 20
1.19884
 30
0.0
 40
0
 41
0
  0
VERTEX
  8
0
 10
2.78851
 20
1.20096
 30
0.0
 40
0
 41
0
  0
VERTEX
  8
0
 10
2.76324
 20
1.19992
 30
0.0
 40
0
 41
0
  0
VERTEX
  8
0
 10
2.74858
 20
1.19368
 30
0.0
 40
0
 41
0
  0
VERTEX
  8
0
 10
2.73936
 20
1.17719
 30
0.0
 40
0
 41
0
  0
VERTEX
  8
0
 10
2.73019
 20
1.1454
 30
0.0
 40
0
 41
0
  0
VERTEX
  8
0
 10
2.71935
 20
1.09554
 30
0.0
 40
0
 41
0
  0
VERTEX
  8
0
 10
2.71978
 20
1.06456
 30
0.0
 40
0
 41
0
  0
VERTEX
  8
0
 10
2.73286
 20
1.04769
 30
0.0
 40
0
 41
0
  0
VERTEX
  8
0
 10
2.76004
 20
1.03982
 30
0.0
 40
0
 41
0
  0
VERTEX
  8
0
 10
2.78071
 20
1.03581
 30
0.0
 40
0
 41
0
  0
VERTEX
  8
0
 10
2.79243
 20
1.02968
 30
0.0
 40
0
 41
0
  0
VERTEX
  8
0
 10
2.79775
 20
1.01877
 30
0.0
 40
0
 41
0
  0
VERTEX
  8
0
 10
2.79893
 20
1.00092
 30
0.0
 40
0
 41
0
  0
VERTEX
  8
0
 10
2.79779
 20
0.981933
 30
0.0
 40
0
 41
0
  0
VERTEX
  8
0
 10
2.7909
 20
0.971625
 30
0.0
 40
0
 41
0
  0
VERTEX
  8
0
 10
2.77317
 20
0.966743
 30
0.0
 40
0
 41
0
  0
VERTEX
  8
0
 10
2.73936
 20
0.964247
 30
0.0
 40
0
 41
0
  0
VERTEX
  8
0
 10
2.70242
 20
0.964301
 30
0.0
 40
0
 41
0
  0
VERTEX
  8
0
 10
2.67383
 20
0.970107
 30
0.0
 40
0
 41
0
  0
VERTEX
  8
0
 10
2.65321
 20
0.982693
 30
0.0
 40
0
 41
0
  0
VERTEX
  8
0
 10
2.64014
 20
1.00336
 30
0.0
 40
0
 41
0
  0
VERTEX
  8
0
 10
2.63411
 20
1.03331
 30
0.0
 40
0
 41
0
  0
VERTEX
  8
0
 10
2.63471
 20
1.07373
 30
0.0
 40
0
 41
0
  0
VERTEX
  8
0
 10
2.65403
 20
1.19059
 30
0.0
 40
0
 41
0
  0
VERTEX
  8
0
 10
2.68218
 20
1.33708
 30
0.0
 40
0
 41
0
  0
VERTEX
  8
0
 10
2.67019
 20
1.34652
 30
0.0
 40
0
 41
0
  0
VERTEX
  8
0
 10
2.64193
 20
1.35064
 30
0.0
 40
0
 41
0
  0
VERTEX
  8
0
 10
2.60915
 20
1.34901
 30
0.0
 40
0
 41
0
  0
VERTEX
  8
0
 10
2.58365
 20
1.34098
 30
0.0
 40
0
 41
0
  0
VERTEX
  8
0
 10
2.5606
 20
1.28315
 30
0.0
 40
0
 41
0
  0
VERTEX
  8
0
 10
2.52664
 20
1.15772
 30
0.0
 40
0
 41
0
  0
VERTEX
  8
0
 10
2.49311
 20
1.03033
 30
0.0
 40
0
 41
0
  0
VERTEX
  8
0
 10
2.47114
 20
0.967557
 30
0.0
 40
0
 41
0
  0
VERTEX
  8
0
 10
2.45692
 20
0.956272
 30
0.0
 40
0
 41
0
  0
VERTEX
  8
0
 10
2.44006
 20
0.951606
 30
0.0
 40
0
 41
0
  0
VERTEX
  8
0
 10
2.42312
 20
0.953504
 30
0.0
 40
0
 41
0
  0
VERTEX
  8
0
 10
2.40858
 20
0.962349
 30
0.0
 40
0
 41
0
  0
SEQEND
 8
0
  0
POLYLINE
  8
0
 62
     0
 66
     1
 10
0
 20
0
 30
0.0
 40
0
 41
0
  0
VERTEX
  8
0
 10
3.31662
 20
0.961317
 30
0.0
 40
0
 41
0
  0
VERTEX
  8
0
 10
3.29585
 20
0.970161
 30
0.0
 40
0
 41
0
  0
VERTEX
  8
0
 10
3.27789
 20
0.985026
 30
0.0
 40
0
 41
0
  0
VERTEX
  8
0
 10
3.26313
 20
1.00488
 30
0.0
 40
0
 41
0
  0
VERTEX
  8
0
 10
3.25185
 20
1.02881
 30
0.0
 40
0
 41
0
  0
VERTEX
  8
0
 10
3.24104
 20
1.08556
 30
0.0
 40
0
 41
0
  0
VERTEX
  8
0
 10
3.24815
 20
1.148
 30
0.0
 40
0
 41
0
  0
VERTEX
  8
0
 10
3.26074
 20
1.18262
 30
0.0
 40
0
 41
0
  0
VERTEX
  8
0
 10
3.27854
 20
1.21322
 30
0.0
 40
0
 41
0
  0
VERTEX
  8
0
 10
3.30089
 20
1.23926
 30
0.0
 40
0
 41
0
  0
VERTEX
  8
0
 10
3.32725
 20
1.26052
 30
0.0
 40
0
 41
0
  0
VERTEX
  8
0
 10
3.3571
 20
1.27647
 30
0.0
 40
0
 41
0
  0
VERTEX
  8
0
 10
3.38981
 20
1.28695
 30
0.0
 40
0
 41
0
  0
VERTEX
  8
0
 10
3.42486
 20
1.29145
 30
0.0
 40
0
 41
0
  0
VERTEX
  8
0
 10
3.46158
 20
1.28961
 30
0.0
 40
0
 41
0
  0
VERTEX
  8
0
 10
3.50439
 20
1.28087
 30
0.0
 40
0
 41
0
  0
VERTEX
  8
0
 10
3.51753
 20
1.2742
 30
0.0
 40
0
 41
0
  0
VERTEX
  8
0
 10
3.52572
 20
1.26492
 30
0.0
 40
0
 41
0
  0
VERTEX
  8
0
 10
3.52935
 20
1.23492
 30
0.0
 40
0
 41
0
  0
VERTEX
  8
0
 10
3.51915
 20
1.1837
 30
0.0
 40
0
 41
0
  0
VERTEX
  8
0
 10
3.50629
 20
1.11193
 30
0.0
 40
0
 41
0
  0
VERTEX
  8
0
 10
3.50022
 20
1.03982
 30
0.0
 40
0
 41
0
  0
VERTEX
  8
0
 10
3.49892
 20
0.967557
 30
0.0
 40
0
 41
0
  0
VERTEX
  8
0
 10
3.43147
 20
0.966689
 30
0.0
 40
0
 41
0
  0
VERTEX
  8
0
 10
3.35368
 20
0.960124
 30
0.0
 40
0
 41
0
  0
VERTEX
  8
0
 10
3.31662
 20
0.961317
 30
0.0
 40
0
 41
0
  0
SEQEND
 8
0
  0
POLYLINE
  8
0
 62
     0
 66
     1
 10
0
 20
0
 30
0.0
 40
0
 41
0
  0
VERTEX
  8
0
 10
3.40001
 20
1.05273
 30
0.0
 40
0
 41
0
  0
VERTEX
  8
0
 10
3.42156
 20
1.13129
 30
0.0
 40
0
 41
0
  0
VERTEX
  8
0
 10
3.42899
 20
1.1773
 30
0.0
 40
0
 41
0
  0
VERTEX
  8
0
 10
3.42893
 20
1.20052
 30
0.0
 40
0
 41
0
  0
VERTEX
  8
0
 10
3.41596
 20
1.20654
 30
0.0
 40
0
 41
0
  0
VERTEX
  8
0
 10
3.39882
 20
1.2047
 30
0.0
 40
0
 41
0
  0
VERTEX
  8
0
 10
3.37989
 20
1.19575
 30
0.0
 40
0
 41
0
  0
VERTEX
  8
0
 10
3.36154
 20
1.18028
 30
0.0
 40
0
 41
0
  0
VERTEX
  8
0
 10
3.34233
 20
1.15072
 30
0.0
 40
0
 41
0
  0
VERTEX
  8
0
 10
3.33106
 20
1.11523
 30
0.0
 40
0
 41
0
  0
VERTEX
  8
0
 10
3.329
 20
1.08127
 30
0.0
 40
0
 41
0
  0
VERTEX
  8
0
 10
3.33772
 20
1.05659
 30
0.0
 40
0
 41
0
  0
VERTEX
  8
0
 10
3.35286
 20
1.04503
 30
0.0
 40
0
 41
0
  0
VERTEX
  8
0
 10
3.37088
 20
1.04036
 30
0.0
 40
0
 41
0
  0
VERTEX
  8
0
 10
3.38786
 20
1.04281
 30
0.0
 40
0
 41
0
  0
VERTEX
  8
0
 10
3.40001
 20
1.05273
 30
0.0
 40
0
 41
0
  0
SEQEND
 8
0
  0
POLYLINE
  8
0
 62
     0
 66
     1
 10
0
 20
0
 30
0.0
 40
0
 41
0
  0
VERTEX
  8
0
 10
3.82904
 20
0.963488
 30
0.0
 40
0
 41
0
  0
VERTEX
  8
0
 10
3.80306
 20
0.975586
 30
0.0
 40
0
 41
0
  0
VERTEX
  8
0
 10
3.78185
 20
0.9949
 30
0.0
 40
0
 41
0
  0
VERTEX
  8
0
 10
3.76574
 20
1.02002
 30
0.0
 40
0
 41
0
  0
VERTEX
  8
0
 10
3.75493
 20
1.04991
 30
0.0
 40
0
 41
0
  0
VERTEX
  8
0
 10
3.74989
 20
1.08317
 30
0.0
 40
0
 41
0
  0
VERTEX
  8
0
 10
3.75082
 20
1.11876
 30
0.0
 40
0
 41
0
  0
VERTEX
  8
0
 10
3.75808
 20
1.15522
 30
0.0
 40
0
 41
0
  0
VERTEX
  8
0
 10
3.77192
 20
1.19141
 30
0.0
 40
0
 41
0
  0
VERTEX
  8
0
 10
3.78792
 20
1.2181
 30
0.0
 40
0
 41
0
  0
VERTEX
  8
0
 10
3.80789
 20
1.24143
 30
0.0
 40
0
 41
0
  0
VERTEX
  8
0
 10
3.85618
 20
1.27582
 30
0.0
 40
0
 41
0
  0
VERTEX
  8
0
 10
3.88265
 20
1.28613
 30
0.0
 40
0
 41
0
  0
VERTEX
  8
0
 10
3.9095
 20
1.29129
 30
0.0
 40
0
 41
0
  0
VERTEX
  8
0
 10
3.93582
 20
1.29069
 30
0.0
 40
0
 41
0
  0
VERTEX
  8
0
 10
3.96067
 20
1.28396
 30
0.0
 40
0
 41
0
  0
VERTEX
  8
0
 10
3.98568
 20
1.27007
 30
0.0
 40
0
 41
0
  0
VERTEX
  8
0
 10
4.00271
 20
1.25195
 30
0.0
 40
0
 41
0
  0
VERTEX
  8
0
 10
4.01247
 20
1.22835
 30
0.0
 40
0
 41
0
  0
VERTEX
  8
0
 10
4.01563
 20
1.19862
 30
0.0
 40
0
 41
0
  0
VERTEX
  8
0
 10
4.01281
 20
1.17735
 30
0.0
 40
0
 41
0
  0
VERTEX
  8
0
 10
4.00489
 20
1.15679
 30
0.0
 40
0
 41
0
  0
VERTEX
  8
0
 10
3.97667
 20
1.12017
 30
0.0
 40
0
 41
0
  0
VERTEX
  8
0
 10
3.93685
 20
1.09413
 30
0.0
 40
0
 41
0
  0
VERTEX
  8
0
 10
3.89117
 20
1.08415
 30
0.0
 40
0
 41
0
  0
VERTEX
  8
0
 10
3.86822
 20
1.08089
 30
0.0
 40
0
 41
0
  0
VERTEX
  8
0
 10
3.84901
 20
1.07341
 30
0.0
 40
0
 41
0
  0
VERTEX
  8
0
 10
3.83897
 20
1.06071
 30
0.0
 40
0
 41
0
  0
VERTEX
  8
0
 10
3.847
 20
1.04904
 30
0.0
 40
0
 41
0
  0
VERTEX
  8
0
 10
3.87028
 20
1.0402
 30
0.0
 40
0
 41
0
  0
VERTEX
  8
0
 10
3.90619
 20
1.03586
 30
0.0
 40
0
 41
0
  0
VERTEX
  8
0
 10
3.94667
 20
1.02989
 30
0.0
 40
0
 41
0
  0
VERTEX
  8
0
 10
3.95458
 20
1.0217
 30
0.0
 40
0
 41
0
  0
VERTEX
  8
0
 10
3.95822
 20
1.00798
 30
0.0
 40
0
 41
0
  0
VERTEX
  8
0
 10
3.95811
 20
0.986979
 30
0.0
 40
0
 41
0
  0
VERTEX
  8
0
 10
3.95264
 20
0.973199
 30
0.0
 40
0
 41
0
  0
VERTEX
  8
0
 10
3.93169
 20
0.963813
 30
0.0
 40
0
 41
0
  0
VERTEX
  8
0
 10
3.89876
 20
0.958658
 30
0.0
 40
0
 41
0
  0
VERTEX
  8
0
 10
3.86193
 20
0.958387
 30
0.0
 40
0
 41
0
  0
VERTEX
  8
0
 10
3.82904
 20
0.963488
 30
0.0
 40
0
 41
0
  0
SEQEND
 8
0
  0
POLYLINE
  8
0
 62
     0
 66
     1
 10
0
 20
0
 30
0.0
 40
0
 41
0
  0
VERTEX
  8
0
 10
3.92117
 20
1.16922
 30
0.0
 40
0
 41
0
  0
VERTEX
  8
0
 10
3.9336
 20
1.18718
 30
0.0
 40
0
 41
0
  0
VERTEX
  8
0
 10
3.92264
 20
1.20421
 30
0.0
 40
0
 41
0
  0
VERTEX
  8
0
 10
3.91282
 20
1.21262
 30
0.0
 40
0
 41
0
  0
VERTEX
  8
0
 10
3.90392
 20
1.21517
 30
0.0
 40
0
 41
0
  0
VERTEX
  8
0
 10
3.87739
 20
1.20237
 30
0.0
 40
0
 41
0
  0
VERTEX
  8
0
 10
3.85732
 20
1.18441
 30
0.0
 40
0
 41
0
  0
VERTEX
  8
0
 10
3.84896
 20
1.16737
 30
0.0
 40
0
 41
0
  0
VERTEX
  8
0
 10
3.85699
 20
1.15489
 30
0.0
 40
0
 41
0
  0
VERTEX
  8
0
 10
3.87642
 20
1.15126
 30
0.0
 40
0
 41
0
  0
VERTEX
  8
0
 10
3.90017
 20
1.15603
 30
0.0
 40
0
 41
0
  0
VERTEX
  8
0
 10
3.92117
 20
1.16922
 30
0.0
 40
0
 41
0
  0
SEQEND
 8
0
  0
POLYLINE
  8
0
 62
     0
 66
     1
 10
0
 20
0
 30
0.0
 40
0
 41
0
  0
VERTEX
  8
0
 10
3.53558
 20
0.974229
 30
0.0
 40
0
 41
0
  0
VERTEX
  8
0
 10
3.5409
 20
1.02289
 30
0.0
 40
0
 41
0
  0
VERTEX
  8
0
 10
3.55989
 20
1.12109
 30
0.0
 40
0
 41
0
  0
VERTEX
  8
0
 10
3.58062
 20
1.20801
 30
0.0
 40
0
 41
0
  0
VERTEX
  8
0
 10
3.6014
 20
1.25608
 30
0.0
 40
0
 41
0
  0
VERTEX
  8
0
 10
3.6149
 20
1.26959
 30
0.0
 40
0
 41
0
  0
VERTEX
  8
0
 10
3.63211
 20
1.27854
 30
0.0
 40
0
 41
0
  0
VERTEX
  8
0
 10
3.68251
 20
1.28895
 30
0.0
 40
0
 41
0
  0
VERTEX
  8
0
 10
3.72613
 20
1.29047
 30
0.0
 40
0
 41
0
  0
VERTEX
  8
0
 10
3.75504
 20
1.28158
 30
0.0
 40
0
 41
0
  0
VERTEX
  8
0
 10
3.76779
 20
1.26313
 30
0.0
 40
0
 41
0
  0
VERTEX
  8
0
 10
3.76297
 20
1.23622
 30
0.0
 40
0
 41
0
  0
VERTEX
  8
0
 10
3.75472
 20
1.22244
 30
0.0
 40
0
 41
0
  0
VERTEX
  8
0
 10
3.74392
 20
1.21316
 30
0.0
 40
0
 41
0
  0
VERTEX
  8
0
 10
3.70828
 20
1.20443
 30
0.0
 40
0
 41
0
  0
VERTEX
  8
0
 10
3.66644
 20
1.20096
 30
0.0
 40
0
 41
0
  0
VERTEX
  8
0
 10
3.63824
 20
1.08426
 30
0.0
 40
0
 41
0
  0
VERTEX
  8
0
 10
3.62147
 20
1.01709
 30
0.0
 40
0
 41
0
  0
VERTEX
  8
0
 10
3.60915
 20
0.982042
 30
0.0
 40
0
 41
0
  0
VERTEX
  8
0
 10
3.59565
 20
0.968099
 30
0.0
 40
0
 41
0
  0
VERTEX
  8
0
 10
3.57508
 20
0.964247
 30
0.0
 40
0
 41
0
  0
VERTEX
  8
0
 10
3.54872
 20
0.965549
 30
0.0
 40
0
 41
0
  0
VERTEX
  8
0
 10
3.53558
 20
0.974229
 30
0.0
 40
0
 41
0
  0
SEQEND
 8
0
  0
POLYLINE
  8
0
 62
     0
 66
     1
 10
0
 20
0
 30
0.0
 40
0
 41
0
  0
VERTEX
  8
0
 10
0.373753
 20
1.0727
 30
0.0
 40
0
 41
0
  0
VERTEX
  8
0
 10
0.318576
 20
1.08019
 30
0.0
 40
0
 41
0
  0
VERTEX
  8
0
 10
0.285319
 20
1.09104
 30
0.0
 40
0
 41
0
  0
VERTEX
  8
0
 10
0.272407
 20
1.10607
 30
0.0
 40
0
 41
0
  0
VERTEX
  8
0
 10
0.278103
 20
1.12625
 30
0.0
 40
0
 41
0
  0
VERTEX
  8
0
 10
0.295301
 20
1.1409
 30
0.0
 40
0
 41
0
  0
VERTEX
  8
0
 10
0.322319
 20
1.14844
 30
0.0
 40
0
 41
0
  0
VERTEX
  8
0
 10
0.356336
 20
1.14849
 30
0.0
 40
0
 41
0
  0
VERTEX
  8
0
 10
0.394422
 20
1.14084
 30
0.0
 40
0
 41
0
  0
VERTEX
  8
0
 10
0.442546
 20
1.11963
 30
0.0
 40
0
 41
0
  0
VERTEX
  8
0
 10
0.478678
 20
1.09304
 30
0.0
 40
0
 41
0
  0
VERTEX
  8
0
 10
0.492567
 20
1.07107
 30
0.0
 40
0
 41
0
  0
VERTEX
  8
0
 10
0.487956
 20
1.06494
 30
0.0
 40
0
 41
0
  0
VERTEX
  8
0
 10
0.473958
 20
1.06364
 30
0.0
 40
0
 41
0
  0
VERTEX
  8
0
 10
0.373753
 20
1.0727
 30
0.0
 40
0
 41
0
  0
SEQEND
 8
0
  0
POLYLINE
  8
0
 62
     0
 66
     1
 10
0
 20
0
 30
0.0
 40
0
 41
0
  0
VERTEX
  8
0
 10
1.4184
 20
1.07981
 30
0.0
 40
0
 41
0
  0
VERTEX
  8
0
 10
1.40489
 20
1.09169
 30
0.0
 40
0
 41
0
  0
VERTEX
  8
0
 10
1.4089
 20
1.10623
 30
0.0
 40
0
 41
0
  0
VERTEX
  8
0
 10
1.42942
 20
1.1224
 30
0.0
 40
0
 41
0
  0
VERTEX
  8
0
 10
1.46565
 20
1.13894
 30
0.0
 40
0
 41
0
  0
VERTEX
  8
0
 10
1.52963
 20
1.16813
 30
0.0
 40
0
 41
0
  0
VERTEX
  8
0
 10
1.59744
 20
1.20633
 30
0.0
 40
0
 41
0
  0
VERTEX
  8
0
 10
1.64719
 20
1.23562
 30
0.0
 40
0
 41
0
  0
VERTEX
  8
0
 10
1.68007
 20
1.24837
 30
0.0
 40
0
 41
0
  0
VERTEX
  8
0
 10
1.70128
 20
1.24561
 30
0.0
 40
0
 41
0
  0
VERTEX
  8
0
 10
1.71593
 20
1.22819
 30
0.0
 40
0
 41
0
  0
VERTEX
  8
0
 10
1.72456
 20
1.20117
 30
0.0
 40
0
 41
0
  0
VERTEX
  8
0
 10
1.72151
 20
1.17562
 30
0.0
 40
0
 41
0
  0
VERTEX
  8
0
 10
1.70757
 20
1.15191
 30
0.0
 40
0
 41
0
  0
VERTEX
  8
0
 10
1.68343
 20
1.13059
 30
0.0
 40
0
 41
0
  0
VERTEX
  8
0
 10
1.64974
 20
1.11209
 30
0.0
 40
0
 41
0
  0
VERTEX
  8
0
 10
1.60732
 20
1.0969
 30
0.0
 40
0
 41
0
  0
VERTEX
  8
0
 10
1.55681
 20
1.08561
 30
0.0
 40
0
 41
0
  0
VERTEX
  8
0
 10
1.49892
 20
1.07856
 30
0.0
 40
0
 41
0
  0
VERTEX
  8
0
 10
1.44775
 20
1.07682
 30
0.0
 40
0
 41
0
  0
VERTEX
  8
0
 10
1.4184
 20
1.07981
 30
0.0
 40
0
 41
0
  0
SEQEND
 8
0
  0
POLYLINE
  8
0
 62
     0
 66
     1
 10
0
 20
0
 30
0.0
 40
0
 41
0
  0
VERTEX
  8
0
 10
2.57536
 20
1.23372
 30
0.0
 40
0
 41
0
  0
VERTEX
  8
0
 10
2.57269
 20
1.24995
 30
0.0
 40
0
 41
0
  0
VERTEX
  8
0
 10
2.57813
 20
1.26242
 30
0.0
 40
0
 41
0
  0
VERTEX
  8
0
 10
2.59099
 20
1.2704
 30
0.0
 40
0
 41
0
  0
VERTEX
  8
0
 10
2.61068
 20
1.27311
 30
0.0
 40
0
 41
0
  0
VERTEX
  8
0
 10
2.62733
 20
1.27154
 30
0.0
 40
0
 41
0
  0
VERTEX
  8
0
 10
2.63574
 20
1.26552
 30
0.0
 40
0
 41
0
  0
VERTEX
  8
0
 10
2.63672
 20
1.25391
 30
0.0
 40
0
 41
0
  0
VERTEX
  8
0
 10
2.63108
 20
1.23519
 30
0.0
 40
0
 41
0
  0
VERTEX
  8
0
 10
2.61996
 20
1.2226
 30
0.0
 40
0
 41
0
  0
VERTEX
  8
0
 10
2.60319
 20
1.21804
 30
0.0
 40
0
 41
0
  0
VERTEX
  8
0
 10
2.58637
 20
1.22179
 30
0.0
 40
0
 41
0
  0
VERTEX
  8
0
 10
2.57536
 20
1.23372
 30
0.0
 40
0
 41
0
  0
SEQEND
 8
0
  0
POLYLINE
  8
0
 62
     0
 66
     1
 10
0
 20
0
 30
0.0
 40
0
 41
0
  0
VERTEX
  8
0
 10
0.625217
 20
1.28651
 30
0.0
 40
0
 41
0
  0
VERTEX
  8
0
 10
0.535047
 20
1.36019
 30
0.0
 40
0
 41
0
  0
VERTEX
  8
0
 10
0.503093
 20
1.38569
 30
0.0
 40
0
 41
0
  0
VERTEX
  8
0
 10
0.486111
 20
1.40853
 30
0.0
 40
0
 41
0
  0
VERTEX
  8
0
 10
0.483724
 20
1.42931
 30
0.0
 40
0
 41
0
  0
VERTEX
  8
0
 10
0.495606
 20
1.44874
 30
0.0
 40
0
 41
0
  0
VERTEX
  8
0
 10
0.51096
 20
1.45811
 30
0.0
 40
0
 41
0
  0
VERTEX
  8
0
 10
0.529297
 20
1.45964
 30
0.0
 40
0
 41
0
  0
VERTEX
  8
0
 10
0.549696
 20
1.45361
 30
0.0
 40
0
 41
0
  0
VERTEX
  8
0
 10
0.571451
 20
1.44081
 30
0.0
 40
0
 41
0
  0
VERTEX
  8
0
 10
0.615722
 20
1.39708
 30
0.0
 40
0
 41
0
  0
VERTEX
  8
0
 10
0.655653
 20
1.3329
 30
0.0
 40
0
 41
0
  0
VERTEX
  8
0
 10
0.674696
 20
1.28499
 30
0.0
 40
0
 41
0
  0
VERTEX
  8
0
 10
0.675131
 20
1.26004
 30
0.0
 40
0
 41
0
  0
VERTEX
  8
0
 10
0.668782
 20
1.25667
 30
0.0
 40
0
 41
0
  0
VERTEX
  8
0
 10
0.658203
 20
1.25982
 30
0.0
 40
0
 41
0
  0
VERTEX
  8
0
 10
0.625217
 20
1.28651
 30
0.0
 40
0
 41
0
  0
SEQEND
 8
0
  0
POLYLINE
  8
0
 62
     0
 66
     1
 10
0
 20
0
 30
0.0
 40
0
 41
0
  0
VERTEX
  8
0
 10
1.20448
 20
1.30827
 30
0.0
 40
0
 41
0
  0
VERTEX
  8
0
 10
1.23796
 20
1.37337
 30
0.0
 40
0
 41
0
  0
VERTEX
  8
0
 10
1.26997
 20
1.43104
 30
0.0
 40
0
 41
0
  0
VERTEX
  8
0
 10
1.30002
 20
1.49658
 30
0.0
 40
0
 41
0
  0
VERTEX
  8
0
 10
1.32161
 20
1.54753
 30
0.0
 40
0
 41
0
  0
VERTEX
  8
0
 10
1.33757
 20
1.57422
 30
0.0
 40
0
 41
0
  0
VERTEX
  8
0
 10
1.35368
 20
1.58296
 30
0.0
 40
0
 41
0
  0
VERTEX
  8
0
 10
1.3756
 20
1.58003
 30
0.0
 40
0
 41
0
  0
VERTEX
  8
0
 10
1.39774
 20
1.57075
 30
0.0
 40
0
 41
0
  0
VERTEX
  8
0
 10
1.41233
 20
1.55621
 30
0.0
 40
0
 41
0
  0
VERTEX
  8
0
 10
1.41954
 20
1.53694
 30
0.0
 40
0
 41
0
  0
VERTEX
  8
0
 10
1.41938
 20
1.51357
 30
0.0
 40
0
 41
0
  0
VERTEX
  8
0
 10
1.41194
 20
1.48665
 30
0.0
 40
0
 41
0
  0
VERTEX
  8
0
 10
1.39735
 20
1.45671
 30
0.0
 40
0
 41
0
  0
VERTEX
  8
0
 10
1.3469
 20
1.38975
 30
0.0
 40
0
 41
0
  0
VERTEX
  8
0
 10
1.29503
 20
1.33941
 30
0.0
 40
0
 41
0
  0
VERTEX
  8
0
 10
1.24935
 20
1.30642
 30
0.0
 40
0
 41
0
  0
VERTEX
  8
0
 10
1.21685
 20
1.29476
 30
0.0
 40
0
 41
0
  0
VERTEX
  8
0
 10
1.20774
 20
1.29812
 30
0.0
 40
0
 41
0
  0
VERTEX
  8
0
 10
1.20448
 20
1.30827
 30
0.0
 40
0
 41
0
  0
SEQEND
 8
0
  0
POLYLINE
  8
0
 62
     0
 66
     1
 10
0
 20
0
 30
0.0
 40
0
 41
0
  0
VERTEX
  8
0
 10
0.921983
 20
1.35297
 30
0.0
 40
0
 41
0
  0
VERTEX
  8
0
 10
0.910047
 20
1.44749
 30
0.0
 40
0
 41
0
  0
VERTEX
  8
0
 10
0.90039
 20
1.57319
 30
0.0
 40
0
 41
0
  0
VERTEX
  8
0
 10
0.904189
 20
1.60612
 30
0.0
 40
0
 41
0
  0
VERTEX
  8
0
 10
0.913032
 20
1.61247
 30
0.0
 40
0
 41
0
  0
VERTEX
  8
0
 10
0.928765
 20
1.61544
 30
0.0
 40
0
 41
0
  0
VERTEX
  8
0
 10
0.956218
 20
1.61176
 30
0.0
 40
0
 41
0
  0
VERTEX
  8
0
 10
0.977593
 20
1.59
 30
0.0
 40
0
 41
0
  0
VERTEX
  8
0
 10
0.986979
 20
1.56651
 30
0.0
 40
0
 41
0
  0
VERTEX
  8
0
 10
0.991265
 20
1.535
 30
0.0
 40
0
 41
0
  0
VERTEX
  8
0
 10
0.986544
 20
1.45964
 30
0.0
 40
0
 41
0
  0
VERTEX
  8
0
 10
0.967447
 20
1.3884
 30
0.0
 40
0
 41
0
  0
VERTEX
  8
0
 10
0.953722
 20
1.36187
 30
0.0
 40
0
 41
0
  0
VERTEX
  8
0
 10
0.937825
 20
1.34538
 30
0.0
 40
0
 41
0
  0
VERTEX
  8
0
 10
0.928549
 20
1.34473
 30
0.0
 40
0
 41
0
  0
VERTEX
  8
0
 10
0.921983
 20
1.35297
 30
0.0
 40
0
 41
0
  0
SEQEND
 8
0
  0
ENDSEC
  0
EOF
