<?xml version="1.0" encoding="UTF-8" standalone="no"?>
<!-- Created with Inkscape (http://www.inkscape.org/) -->

<svg
   xmlns:dc="http://purl.org/dc/elements/1.1/"
   xmlns:cc="http://creativecommons.org/ns#"
   xmlns:rdf="http://www.w3.org/1999/02/22-rdf-syntax-ns#"
   xmlns:svg="http://www.w3.org/2000/svg"
   xmlns="http://www.w3.org/2000/svg"
   xmlns:sodipodi="http://sodipodi.sourceforge.net/DTD/sodipodi-0.dtd"
   xmlns:inkscape="http://www.inkscape.org/namespaces/inkscape"
   id="svg2"
   version="1.1"
   inkscape:version="0.48.4 r9939"
   width="500"
   height="165"
   sodipodi:docname="sfd_keyring_base.svg">
  <metadata
     id="metadata8">
    <rdf:RDF>
      <cc:Work
         rdf:about="">
        <dc:format>image/svg+xml</dc:format>
        <dc:type
           rdf:resource="http://purl.org/dc/dcmitype/StillImage" />
        <dc:title />
      </cc:Work>
    </rdf:RDF>
  </metadata>
  <defs
     id="defs6" />
  <sodipodi:namedview
     pagecolor="#ffffff"
     bordercolor="#666666"
     borderopacity="1"
     objecttolerance="10"
     gridtolerance="10"
     guidetolerance="10"
     inkscape:pageopacity="0"
     inkscape:pageshadow="2"
     inkscape:window-width="1920"
     inkscape:window-height="1056"
     id="namedview4"
     showgrid="false"
     inkscape:zoom="3.3036029"
     inkscape:cx="223.74173"
     inkscape:cy="70.934859"
     inkscape:window-x="0"
     inkscape:window-y="24"
     inkscape:window-maximized="1"
     inkscape:current-layer="svg2"
     inkscape:snap-bbox="true"
     inkscape:snap-page="true" />
  <path
     style="fill:#000000"
     d="M 88.22655,163.36272 C 48.9286,158.39838 14.9642,134.87835 4.1766302,105.15893 0.40430018,94.766244 -0.85919978,83.78014 0.57616018,73.852704 2.9539102,57.407403 8.5583102,46.162711 20.92972,33.015306 35.71948,17.29785 55.67187,6.837107 80.51675,1.774712 88.64427,0.118646 99.956534,0 249.72655,0 c 149.77002,0 161.08228,0.118646 169.20981,1.774712 24.84487,5.062395 44.79726,15.523138 59.58702,31.240594 12.3714,13.147405 17.9758,24.392097 20.3536,40.837398 4.2392,29.320006 -13.641,59.303856 -45.40719,76.144766 -13.62711,7.22444 -27.49405,11.49756 -43.71701,13.47149 -10.54788,1.28341 -311.3124,1.18404 -321.52623,-0.10624 z"
     id="path3029"
     inkscape:connector-curvature="0" />
</svg>
