  0
SECTION
  2
HEADER
  9
$ACADVER
  1
AC1014
  9
$HANDSEED
  5
FFFF
  9
$MEASUREMENT
 70
     1
  0
ENDSEC
  0
SECTION
  2
TABLES
  0
TABLE
  2
VPORT
  5
8
330
0
100
AcDbSymbolTable
 70
     4
  0
VPORT
  5
2E
330
8
100
AcDbSymbolTableRecord
100
AcDbViewportTableRecord
  2
*ACTIVE
 70
     0
 10
0.0
 20
0.0
 11
1.0
 21
1.0
 12
210.0
 22
148.5
 13
0.0
 23
0.0
 14
10.0
 24
10.0
 15
10.0
 25
10.0
 16
0.0
 26
0.0
 36
1.0
 17
0.0
 27
0.0
 37
0.0
 40
341.0
 41
1.24
 42
50.0
 43
0.0
 44
0.0
 50
0.0
 51
0.0
 71
     0
 72
   100
 73
     1
 74
     3
 75
     0
 76
     0
 77
     0
 78
     0
  0
ENDTAB
  0
TABLE
  2
LTYPE
  5
5
330
0
100
AcDbSymbolTable
 70
     1
  0
LTYPE
  5
14
330
5
100
AcDbSymbolTableRecord
100
AcDbLinetypeTableRecord
  2
BYBLOCK
 70
     0
  3

 72
    65
 73
     0
 40
0.0
  0
LTYPE
  5
15
330
5
100
AcDbSymbolTableRecord
100
AcDbLinetypeTableRecord
  2
BYLAYER
 70
     0
  3

 72
    65
 73
     0
 40
0.0
  0
LTYPE
  5
16
330
5
100
AcDbSymbolTableRecord
100
AcDbLinetypeTableRecord
  2
CONTINUOUS
 70
     0
  3
Solid line
 72
    65
 73
     0
 40
0.0
  0
ENDTAB
  0
TABLE
  2
LAYER
  5
2
100
AcDbSymbolTable
 70
1
  0
LAYER
  5
50
100
AcDbSymbolTableRecord
100
AcDbLayerTableRecord
  2
0
 70
0
  6
CONTINUOUS
  0
ENDTAB
  0
TABLE
  2
STYLE
  5
3
330
0
100
AcDbSymbolTable
 70
     1
  0
STYLE
  5
11
330
3
100
AcDbSymbolTableRecord
100
AcDbTextStyleTableRecord
  2
STANDARD
 70
     0
 40
0.0
 41
1.0
 50
0.0
 71
     0
 42
2.5
  3
txt
  4

  0
ENDTAB
  0
TABLE
  2
VIEW
  5
6
330
0
100
AcDbSymbolTable
 70
     0
  0
ENDTAB
  0
TABLE
  2
UCS
  5
7
330
0
100
AcDbSymbolTable
 70
     0
  0
ENDTAB
  0
TABLE
  2
APPID
  5
9
330
0
100
AcDbSymbolTable
 70
     2
  0
APPID
  5
12
330
9
100
AcDbSymbolTableRecord
100
AcDbRegAppTableRecord
  2
ACAD
 70
     0
  0
ENDTAB
  0
TABLE
  2
DIMSTYLE
  5
A
330
0
100
AcDbSymbolTable
 70
     1
  0
DIMSTYLE
105
27
330
A
100
AcDbSymbolTableRecord
100
AcDbDimStyleTableRecord
  2
ISO-25
 70
     0
  3

  4

  5

  6

  7

 40
1.0
 41
2.5
 42
0.625
 43
3.75
 44
1.25
 45
0.0
 46
0.0
 47
0.0
 48
0.0
140
2.5
141
2.5
142
0.0
143
0.03937007874016
144
1.0
145
0.0
146
1.0
147
0.625
 71
     0
 72
     0
 73
     0
 74
     0
 75
     0
 76
     0
 77
     1
 78
     8
170
     0
171
     3
172
     1
173
     0
174
     0
175
     0
176
     0
177
     0
178
     0
270
     2
271
     2
272
     2
273
     2
274
     3
340
11
275
     0
280
     0
281
     0
282
     0
283
     0
284
     8
285
     0
286
     0
287
     3
288
     0
  0
ENDTAB
  0
TABLE
  2
BLOCK_RECORD
  5
1
330
0
100
AcDbSymbolTable
 70
     1
  0
BLOCK_RECORD
  5
1F
330
1
100
AcDbSymbolTableRecord
100
AcDbBlockTableRecord
  2
*MODEL_SPACE
  0
BLOCK_RECORD
  5
1B
330
1
100
AcDbSymbolTableRecord
100
AcDbBlockTableRecord
  2
*PAPER_SPACE
  0
ENDTAB
  0
ENDSEC
  0
SECTION
  2
BLOCKS
  0
BLOCK
  5
20
330
1F
100
AcDbEntity
  8
0
100
AcDbBlockBegin
  2
*MODEL_SPACE
 70
     0
 10
0.0
 20
0.0
 30
0.0
  3
*MODEL_SPACE
  1

  0
ENDBLK
  5
21
330
1F
100
AcDbEntity
  8
0
100
AcDbBlockEnd
  0
BLOCK
  5
1C
330
1B
100
AcDbEntity
 67
     1
  8
0
100
AcDbBlockBegin
  2
*PAPER_SPACE
  1

  0
ENDBLK
  5
1D
330
1B
100
AcDbEntity
 67
     1
  8
0
100
AcDbBlockEnd
  0
ENDSEC
  0
SECTION
  2
ENTITIES
  0
LWPOLYLINE
  5
100
100
AcDbEntity
  8
0
 62
7
100
AcDbPolyline
 90
70
 70
0
 10
24.899493
 20
0.462077
 30
0.0
 10
20.820854
 20
1.226135
 30
0.0
 10
16.942345
 20
2.440280
 30
0.0
 10
13.322978
 20
4.063645
 30
0.0
 10
10.021767
 20
6.055366
 30
0.0
 10
7.097724
 20
8.374575
 30
0.0
 10
5.795583
 20
9.644218
 30
0.0
 10
4.609863
 20
10.980408
 30
0.0
 10
3.547943
 20
12.378038
 30
0.0
 10
2.617197
 20
13.831998
 30
0.0
 10
1.825003
 20
15.337182
 30
0.0
 10
1.178738
 20
16.888480
 30
0.0
 10
0.513858
 20
19.112381
 30
0.0
 10
0.119524
 20
21.355375
 30
0.0
 10
0.000764
 20
23.573749
 30
0.0
 10
0.162605
 20
25.723792
 30
0.0
 10
0.852251
 20
28.960839
 30
0.0
 10
1.354404
 20
30.431695
 30
0.0
 10
1.977056
 20
31.835430
 30
0.0
 10
2.731916
 20
33.195537
 30
0.0
 10
3.630693
 20
34.535508
 30
0.0
 10
5.906832
 20
37.249014
 30
0.0
 10
7.540230
 20
38.842824
 30
0.0
 10
9.309329
 20
40.297083
 30
0.0
 10
11.213236
 20
41.611321
 30
0.0
 10
13.251057
 20
42.785069
 30
0.0
 10
15.421899
 20
43.817860
 30
0.0
 10
17.724869
 20
44.709225
 30
0.0
 10
20.159072
 20
45.458696
 30
0.0
 10
22.723616
 20
46.065804
 30
0.0
 10
25.208984
 20
46.341239
 30
0.0
 10
31.610502
 20
46.491502
 30
0.0
 10
70.478382
 20
46.566667
 30
0.0
 10
109.346263
 20
46.491502
 30
0.0
 10
115.747782
 20
46.341239
 30
0.0
 10
118.233150
 20
46.065804
 30
0.0
 10
120.797694
 20
45.458696
 30
0.0
 10
123.231896
 20
44.709225
 30
0.0
 10
125.534865
 20
43.817860
 30
0.0
 10
127.705707
 20
42.785069
 30
0.0
 10
129.743528
 20
41.611321
 30
0.0
 10
131.647435
 20
40.297083
 30
0.0
 10
133.416534
 20
38.842824
 30
0.0
 10
135.049932
 20
37.249014
 30
0.0
 10
137.326070
 20
34.535508
 30
0.0
 10
138.224846
 20
33.195537
 30
0.0
 10
138.979707
 20
31.835430
 30
0.0
 10
139.602360
 20
30.431695
 30
0.0
 10
140.104516
 20
28.960839
 30
0.0
 10
140.794170
 20
25.723792
 30
0.0
 10
140.945906
 20
24.171031
 30
0.0
 10
140.954736
 20
22.619587
 30
0.0
 10
140.824062
 20
21.075167
 30
0.0
 10
140.557289
 20
19.543480
 30
0.0
 10
140.157821
 20
18.030234
 30
0.0
 10
139.629061
 20
16.541135
 30
0.0
 10
138.197281
 20
13.658216
 30
0.0
 10
136.289180
 20
10.940384
 30
0.0
 10
133.931988
 20
8.433303
 30
0.0
 10
131.152935
 20
6.182637
 30
0.0
 10
127.979252
 20
4.234047
 30
0.0
 10
125.072824
 20
2.858173
 30
0.0
 10
122.085023
 20
1.777391
 30
0.0
 10
118.959859
 20
0.974450
 30
0.0
 10
115.641340
 20
0.432094
 30
0.0
 10
100.612431
 20
0.232764
 30
0.0
 10
70.235063
 20
0.174703
 30
0.0
 10
39.875372
 20
0.252833
 30
0.0
 10
24.899493
 20
0.462077
 30
0.0
 10
24.899493
 20
0.462077
 30
0.0
  0
ENDSEC
  0
SECTION
  2
OBJECTS
  0
DICTIONARY
  5
C
330
0
100
AcDbDictionary
  3
ACAD_GROUP
350
D
  3
ACAD_MLINESTYLE
350
17
  0
DICTIONARY
  5
D
330
C
100
AcDbDictionary
  0
DICTIONARY
  5
1A
330
C
100
AcDbDictionary
  0
DICTIONARY
  5
17
330
C
100
AcDbDictionary
  3
STANDARD
350
18
  0
DICTIONARY
  5
19
330
C
100
AcDbDictionary
  0
ENDSEC
  0
EOF
