  0
SECTION
  2
HEADER
  9
$ACADVER
  1
AC1014
  9
$HANDSEED
  5
FFFF
  9
$MEASUREMENT
 70
     1
  0
ENDSEC
  0
SECTION
  2
TABLES
  0
TABLE
  2
VPORT
  5
8
330
0
100
AcDbSymbolTable
 70
     4
  0
VPORT
  5
2E
330
8
100
AcDbSymbolTableRecord
100
AcDbViewportTableRecord
  2
*ACTIVE
 70
     0
 10
0.0
 20
0.0
 11
1.0
 21
1.0
 12
210.0
 22
148.5
 13
0.0
 23
0.0
 14
10.0
 24
10.0
 15
10.0
 25
10.0
 16
0.0
 26
0.0
 36
1.0
 17
0.0
 27
0.0
 37
0.0
 40
341.0
 41
1.24
 42
50.0
 43
0.0
 44
0.0
 50
0.0
 51
0.0
 71
     0
 72
   100
 73
     1
 74
     3
 75
     0
 76
     0
 77
     0
 78
     0
  0
ENDTAB
  0
TABLE
  2
LTYPE
  5
5
330
0
100
AcDbSymbolTable
 70
     1
  0
LTYPE
  5
14
330
5
100
AcDbSymbolTableRecord
100
AcDbLinetypeTableRecord
  2
BYBLOCK
 70
     0
  3

 72
    65
 73
     0
 40
0.0
  0
LTYPE
  5
15
330
5
100
AcDbSymbolTableRecord
100
AcDbLinetypeTableRecord
  2
BYLAYER
 70
     0
  3

 72
    65
 73
     0
 40
0.0
  0
LTYPE
  5
16
330
5
100
AcDbSymbolTableRecord
100
AcDbLinetypeTableRecord
  2
CONTINUOUS
 70
     0
  3
Solid line
 72
    65
 73
     0
 40
0.0
  0
ENDTAB
  0
TABLE
  2
LAYER
  5
2
100
AcDbSymbolTable
 70
1
  0
LAYER
  5
50
100
AcDbSymbolTableRecord
100
AcDbLayerTableRecord
  2
0
 70
0
  6
CONTINUOUS
  0
ENDTAB
  0
TABLE
  2
STYLE
  5
3
330
0
100
AcDbSymbolTable
 70
     1
  0
STYLE
  5
11
330
3
100
AcDbSymbolTableRecord
100
AcDbTextStyleTableRecord
  2
STANDARD
 70
     0
 40
0.0
 41
1.0
 50
0.0
 71
     0
 42
2.5
  3
txt
  4

  0
ENDTAB
  0
TABLE
  2
VIEW
  5
6
330
0
100
AcDbSymbolTable
 70
     0
  0
ENDTAB
  0
TABLE
  2
UCS
  5
7
330
0
100
AcDbSymbolTable
 70
     0
  0
ENDTAB
  0
TABLE
  2
APPID
  5
9
330
0
100
AcDbSymbolTable
 70
     2
  0
APPID
  5
12
330
9
100
AcDbSymbolTableRecord
100
AcDbRegAppTableRecord
  2
ACAD
 70
     0
  0
ENDTAB
  0
TABLE
  2
DIMSTYLE
  5
A
330
0
100
AcDbSymbolTable
 70
     1
  0
DIMSTYLE
105
27
330
A
100
AcDbSymbolTableRecord
100
AcDbDimStyleTableRecord
  2
ISO-25
 70
     0
  3

  4

  5

  6

  7

 40
1.0
 41
2.5
 42
0.625
 43
3.75
 44
1.25
 45
0.0
 46
0.0
 47
0.0
 48
0.0
140
2.5
141
2.5
142
0.0
143
0.03937007874016
144
1.0
145
0.0
146
1.0
147
0.625
 71
     0
 72
     0
 73
     0
 74
     0
 75
     0
 76
     0
 77
     1
 78
     8
170
     0
171
     3
172
     1
173
     0
174
     0
175
     0
176
     0
177
     0
178
     0
270
     2
271
     2
272
     2
273
     2
274
     3
340
11
275
     0
280
     0
281
     0
282
     0
283
     0
284
     8
285
     0
286
     0
287
     3
288
     0
  0
ENDTAB
  0
TABLE
  2
BLOCK_RECORD
  5
1
330
0
100
AcDbSymbolTable
 70
     1
  0
BLOCK_RECORD
  5
1F
330
1
100
AcDbSymbolTableRecord
100
AcDbBlockTableRecord
  2
*MODEL_SPACE
  0
BLOCK_RECORD
  5
1B
330
1
100
AcDbSymbolTableRecord
100
AcDbBlockTableRecord
  2
*PAPER_SPACE
  0
ENDTAB
  0
ENDSEC
  0
SECTION
  2
BLOCKS
  0
BLOCK
  5
20
330
1F
100
AcDbEntity
  8
0
100
AcDbBlockBegin
  2
*MODEL_SPACE
 70
     0
 10
0.0
 20
0.0
 30
0.0
  3
*MODEL_SPACE
  1

  0
ENDBLK
  5
21
330
1F
100
AcDbEntity
  8
0
100
AcDbBlockEnd
  0
BLOCK
  5
1C
330
1B
100
AcDbEntity
 67
     1
  8
0
100
AcDbBlockBegin
  2
*PAPER_SPACE
  1

  0
ENDBLK
  5
1D
330
1B
100
AcDbEntity
 67
     1
  8
0
100
AcDbBlockEnd
  0
ENDSEC
  0
SECTION
  2
ENTITIES
  0
LINE
  5
100
100
AcDbEntity
  8
0
 62
7
100
AcDbLine
 10
25.655076
 20
0.328447
 30
0.0
 11
21.320995
 21
1.180305
 31
0.0
  0
LINE
  5
101
100
AcDbEntity
  8
0
 62
7
100
AcDbLine
 10
21.320995
 20
1.180305
 30
0.0
 11
17.211332
 21
2.316277
 31
0.0
  0
LINE
  5
102
100
AcDbEntity
  8
0
 62
7
100
AcDbLine
 10
17.211332
 20
2.316277
 30
0.0
 11
14.280161
 21
3.529024
 31
0.0
  0
LINE
  5
103
100
AcDbEntity
  8
0
 62
7
100
AcDbLine
 10
14.280161
 20
3.529024
 30
0.0
 11
11.567574
 21
4.977680
 31
0.0
  0
LINE
  5
104
100
AcDbEntity
  8
0
 62
7
100
AcDbLine
 10
11.567574
 20
4.977680
 30
0.0
 11
9.089579
 21
6.647178
 31
0.0
  0
LINE
  5
105
100
AcDbEntity
  8
0
 62
7
100
AcDbLine
 10
9.089579
 20
6.647178
 30
0.0
 11
6.862187
 21
8.522452
 31
0.0
  0
LINE
  5
106
100
AcDbEntity
  8
0
 62
7
100
AcDbLine
 10
6.862187
 20
8.522452
 30
0.0
 11
4.901407
 21
10.588437
 31
0.0
  0
LINE
  5
107
100
AcDbEntity
  8
0
 62
7
100
AcDbLine
 10
4.901407
 20
10.588437
 30
0.0
 11
3.223250
 21
12.830067
 31
0.0
  0
LINE
  5
108
100
AcDbEntity
  8
0
 62
7
100
AcDbLine
 10
3.223250
 20
12.830067
 30
0.0
 11
1.843725
 21
15.232276
 31
0.0
  0
LINE
  5
109
100
AcDbEntity
  8
0
 62
7
100
AcDbLine
 10
1.843725
 20
15.232276
 30
0.0
 11
0.778841
 21
17.779997
 31
0.0
  0
LINE
  5
10a
100
AcDbEntity
  8
0
 62
7
100
AcDbLine
 10
0.778841
 20
17.779997
 30
0.0
 11
0.369595
 21
19.078735
 31
0.0
  0
LINE
  5
10b
100
AcDbEntity
  8
0
 62
7
100
AcDbLine
 10
0.369595
 20
19.078735
 30
0.0
 11
0.133818
 21
20.231740
 31
0.0
  0
LINE
  5
10c
100
AcDbEntity
  8
0
 62
7
100
AcDbLine
 10
0.133818
 20
20.231740
 30
0.0
 11
0.000000
 21
23.424444
 31
0.0
  0
LINE
  5
10d
100
AcDbEntity
  8
0
 62
7
100
AcDbLine
 10
0.000000
 20
23.424444
 30
0.0
 11
0.133818
 21
26.617148
 31
0.0
  0
LINE
  5
10e
100
AcDbEntity
  8
0
 62
7
100
AcDbLine
 10
0.133818
 20
26.617148
 30
0.0
 11
0.369595
 21
27.770152
 31
0.0
  0
LINE
  5
10f
100
AcDbEntity
  8
0
 62
7
100
AcDbLine
 10
0.369595
 20
27.770152
 30
0.0
 11
0.778841
 21
29.068889
 31
0.0
  0
LINE
  5
110
100
AcDbEntity
  8
0
 62
7
100
AcDbLine
 10
0.778841
 20
29.068889
 30
0.0
 11
1.843725
 21
31.616610
 31
0.0
  0
LINE
  5
111
100
AcDbEntity
  8
0
 62
7
100
AcDbLine
 10
1.843725
 20
31.616610
 30
0.0
 11
3.223250
 21
34.018819
 31
0.0
  0
LINE
  5
112
100
AcDbEntity
  8
0
 62
7
100
AcDbLine
 10
3.223250
 20
34.018819
 30
0.0
 11
4.901407
 21
36.260449
 31
0.0
  0
LINE
  5
113
100
AcDbEntity
  8
0
 62
7
100
AcDbLine
 10
4.901407
 20
36.260449
 30
0.0
 11
6.862187
 21
38.326434
 31
0.0
  0
LINE
  5
114
100
AcDbEntity
  8
0
 62
7
100
AcDbLine
 10
6.862187
 20
38.326434
 30
0.0
 11
9.089579
 21
40.201708
 31
0.0
  0
LINE
  5
115
100
AcDbEntity
  8
0
 62
7
100
AcDbLine
 10
9.089579
 20
40.201708
 30
0.0
 11
11.567574
 21
41.871206
 31
0.0
  0
LINE
  5
116
100
AcDbEntity
  8
0
 62
7
100
AcDbLine
 10
11.567574
 20
41.871206
 30
0.0
 11
14.280161
 21
43.319862
 31
0.0
  0
LINE
  5
117
100
AcDbEntity
  8
0
 62
7
100
AcDbLine
 10
14.280161
 20
43.319862
 30
0.0
 11
17.211332
 21
44.532609
 31
0.0
  0
LINE
  5
118
100
AcDbEntity
  8
0
 62
7
100
AcDbLine
 10
17.211332
 20
44.532609
 30
0.0
 11
19.486502
 21
45.232745
 31
0.0
  0
LINE
  5
119
100
AcDbEntity
  8
0
 62
7
100
AcDbLine
 10
19.486502
 20
45.232745
 30
0.0
 11
22.150221
 21
45.908417
 31
0.0
  0
LINE
  5
11a
100
AcDbEntity
  8
0
 62
7
100
AcDbLine
 10
22.150221
 20
45.908417
 30
0.0
 11
25.090632
 21
46.566667
 31
0.0
  0
LINE
  5
11b
100
AcDbEntity
  8
0
 62
7
100
AcDbLine
 10
25.090632
 20
46.566667
 30
0.0
 11
70.387300
 21
46.566667
 31
0.0
  0
LINE
  5
11c
100
AcDbEntity
  8
0
 62
7
100
AcDbLine
 10
70.387300
 20
46.566667
 30
0.0
 11
115.683967
 21
46.566667
 31
0.0
  0
LINE
  5
11d
100
AcDbEntity
  8
0
 62
7
100
AcDbLine
 10
115.683967
 20
46.566667
 30
0.0
 11
118.624378
 21
45.908417
 31
0.0
  0
LINE
  5
11e
100
AcDbEntity
  8
0
 62
7
100
AcDbLine
 10
118.624378
 20
45.908417
 30
0.0
 11
122.554435
 21
44.830380
 31
0.0
  0
LINE
  5
11f
100
AcDbEntity
  8
0
 62
7
100
AcDbLine
 10
122.554435
 20
44.830380
 30
0.0
 11
126.154903
 21
43.435287
 31
0.0
  0
LINE
  5
120
100
AcDbEntity
  8
0
 62
7
100
AcDbLine
 10
126.154903
 20
43.435287
 30
0.0
 11
129.410772
 21
41.734965
 31
0.0
  0
LINE
  5
121
100
AcDbEntity
  8
0
 62
7
100
AcDbLine
 10
129.410772
 20
41.734965
 30
0.0
 11
132.307031
 21
39.741242
 31
0.0
  0
LINE
  5
122
100
AcDbEntity
  8
0
 62
7
100
AcDbLine
 10
132.307031
 20
39.741242
 30
0.0
 11
134.828669
 21
37.465946
 31
0.0
  0
LINE
  5
123
100
AcDbEntity
  8
0
 62
7
100
AcDbLine
 10
134.828669
 20
37.465946
 30
0.0
 11
136.960677
 21
34.920903
 31
0.0
  0
LINE
  5
124
100
AcDbEntity
  8
0
 62
7
100
AcDbLine
 10
136.960677
 20
34.920903
 30
0.0
 11
138.688043
 21
32.117941
 31
0.0
  0
LINE
  5
125
100
AcDbEntity
  8
0
 62
7
100
AcDbLine
 10
138.688043
 20
32.117941
 30
0.0
 11
139.995758
 21
29.068889
 31
0.0
  0
LINE
  5
126
100
AcDbEntity
  8
0
 62
7
100
AcDbLine
 10
139.995758
 20
29.068889
 30
0.0
 11
140.405004
 21
27.770152
 31
0.0
  0
LINE
  5
127
100
AcDbEntity
  8
0
 62
7
100
AcDbLine
 10
140.405004
 20
27.770152
 30
0.0
 11
140.640781
 21
26.617148
 31
0.0
  0
LINE
  5
128
100
AcDbEntity
  8
0
 62
7
100
AcDbLine
 10
140.640781
 20
26.617148
 30
0.0
 11
140.774601
 21
23.424444
 31
0.0
  0
LINE
  5
129
100
AcDbEntity
  8
0
 62
7
100
AcDbLine
 10
140.774601
 20
23.424444
 30
0.0
 11
140.640781
 21
20.231740
 31
0.0
  0
LINE
  5
12a
100
AcDbEntity
  8
0
 62
7
100
AcDbLine
 10
140.640781
 20
20.231740
 30
0.0
 11
140.405004
 21
19.078735
 31
0.0
  0
LINE
  5
12b
100
AcDbEntity
  8
0
 62
7
100
AcDbLine
 10
140.405004
 20
19.078735
 30
0.0
 11
139.995758
 21
17.779997
 31
0.0
  0
LINE
  5
12c
100
AcDbEntity
  8
0
 62
7
100
AcDbLine
 10
139.995758
 20
17.779997
 30
0.0
 11
138.955955
 21
15.281308
 31
0.0
  0
LINE
  5
12d
100
AcDbEntity
  8
0
 62
7
100
AcDbLine
 10
138.955955
 20
15.281308
 30
0.0
 11
137.615236
 21
12.923727
 31
0.0
  0
LINE
  5
12e
100
AcDbEntity
  8
0
 62
7
100
AcDbLine
 10
137.615236
 20
12.923727
 30
0.0
 11
135.987312
 21
10.720387
 31
0.0
  0
LINE
  5
12f
100
AcDbEntity
  8
0
 62
7
100
AcDbLine
 10
135.987312
 20
10.720387
 30
0.0
 11
134.085895
 21
8.684423
 31
0.0
  0
LINE
  5
130
100
AcDbEntity
  8
0
 62
7
100
AcDbLine
 10
134.085895
 20
8.684423
 30
0.0
 11
131.924695
 21
6.828967
 31
0.0
  0
LINE
  5
131
100
AcDbEntity
  8
0
 62
7
100
AcDbLine
 10
131.924695
 20
6.828967
 30
0.0
 11
129.517425
 21
5.167154
 31
0.0
  0
LINE
  5
132
100
AcDbEntity
  8
0
 62
7
100
AcDbLine
 10
129.517425
 20
5.167154
 30
0.0
 11
126.877796
 21
3.712118
 31
0.0
  0
LINE
  5
133
100
AcDbEntity
  8
0
 62
7
100
AcDbLine
 10
126.877796
 20
3.712118
 30
0.0
 11
124.019519
 21
2.476991
 31
0.0
  0
LINE
  5
134
100
AcDbEntity
  8
0
 62
7
100
AcDbLine
 10
124.019519
 20
2.476991
 30
0.0
 11
119.211745
 21
1.038550
 31
0.0
  0
LINE
  5
135
100
AcDbEntity
  8
0
 62
7
100
AcDbLine
 10
119.211745
 20
1.038550
 30
0.0
 11
116.248411
 21
0.297784
 31
0.0
  0
LINE
  5
136
100
AcDbEntity
  8
0
 62
7
100
AcDbLine
 10
116.248411
 20
0.297784
 30
0.0
 11
71.375078
 21
0.258391
 31
0.0
  0
LINE
  5
137
100
AcDbEntity
  8
0
 62
7
100
AcDbLine
 10
71.375078
 20
0.258391
 30
0.0
 11
25.655076
 21
0.328447
 31
0.0
  0
LINE
  5
138
100
AcDbEntity
  8
0
 62
7
100
AcDbLine
 10
25.655076
 20
0.328447
 30
0.0
 11
25.655076
 21
0.328447
 31
0.0
  0
LINE
  5
139
100
AcDbEntity
  8
0
 62
7
100
AcDbLine
 10
118.074796
 20
2.483324
 30
0.0
 11
121.343980
 21
3.361921
 31
0.0
  0
LINE
  5
13a
100
AcDbEntity
  8
0
 62
7
100
AcDbLine
 10
121.343980
 20
3.361921
 30
0.0
 11
124.384691
 21
4.467612
 31
0.0
  0
LINE
  5
13b
100
AcDbEntity
  8
0
 62
7
100
AcDbLine
 10
124.384691
 20
4.467612
 30
0.0
 11
127.184028
 21
5.791652
 31
0.0
  0
LINE
  5
13c
100
AcDbEntity
  8
0
 62
7
100
AcDbLine
 10
127.184028
 20
5.791652
 30
0.0
 11
129.729088
 21
7.325300
 31
0.0
  0
LINE
  5
13d
100
AcDbEntity
  8
0
 62
7
100
AcDbLine
 10
129.729088
 20
7.325300
 30
0.0
 11
132.006969
 21
9.059812
 31
0.0
  0
LINE
  5
13e
100
AcDbEntity
  8
0
 62
7
100
AcDbLine
 10
132.006969
 20
9.059812
 30
0.0
 11
134.004770
 21
10.986446
 31
0.0
  0
LINE
  5
13f
100
AcDbEntity
  8
0
 62
7
100
AcDbLine
 10
134.004770
 20
10.986446
 30
0.0
 11
135.709587
 21
13.096459
 31
0.0
  0
LINE
  5
140
100
AcDbEntity
  8
0
 62
7
100
AcDbLine
 10
135.709587
 20
13.096459
 30
0.0
 11
137.108520
 21
15.381108
 31
0.0
  0
LINE
  5
141
100
AcDbEntity
  8
0
 62
7
100
AcDbLine
 10
137.108520
 20
15.381108
 30
0.0
 11
138.042936
 21
17.379377
 31
0.0
  0
LINE
  5
142
100
AcDbEntity
  8
0
 62
7
100
AcDbLine
 10
138.042936
 20
17.379377
 30
0.0
 11
138.650895
 21
19.255326
 31
0.0
  0
LINE
  5
143
100
AcDbEntity
  8
0
 62
7
100
AcDbLine
 10
138.650895
 20
19.255326
 30
0.0
 11
138.980439
 21
21.205000
 31
0.0
  0
LINE
  5
144
100
AcDbEntity
  8
0
 62
7
100
AcDbLine
 10
138.980439
 20
21.205000
 30
0.0
 11
139.079611
 21
23.424444
 31
0.0
  0
LINE
  5
145
100
AcDbEntity
  8
0
 62
7
100
AcDbLine
 10
139.079611
 20
23.424444
 30
0.0
 11
138.980439
 21
25.643888
 31
0.0
  0
LINE
  5
146
100
AcDbEntity
  8
0
 62
7
100
AcDbLine
 10
138.980439
 20
25.643888
 30
0.0
 11
138.650895
 21
27.593561
 31
0.0
  0
LINE
  5
147
100
AcDbEntity
  8
0
 62
7
100
AcDbLine
 10
138.650895
 20
27.593561
 30
0.0
 11
138.042936
 21
29.469509
 31
0.0
  0
LINE
  5
148
100
AcDbEntity
  8
0
 62
7
100
AcDbLine
 10
138.042936
 20
29.469509
 30
0.0
 11
137.108520
 21
31.467777
 31
0.0
  0
LINE
  5
149
100
AcDbEntity
  8
0
 62
7
100
AcDbLine
 10
137.108520
 20
31.467777
 30
0.0
 11
135.682138
 21
33.789138
 31
0.0
  0
LINE
  5
14a
100
AcDbEntity
  8
0
 62
7
100
AcDbLine
 10
135.682138
 20
33.789138
 30
0.0
 11
133.937178
 21
35.934390
 31
0.0
  0
LINE
  5
14b
100
AcDbEntity
  8
0
 62
7
100
AcDbLine
 10
133.937178
 20
35.934390
 30
0.0
 11
131.893300
 21
37.890344
 31
0.0
  0
LINE
  5
14c
100
AcDbEntity
  8
0
 62
7
100
AcDbLine
 10
131.893300
 20
37.890344
 30
0.0
 11
129.570164
 21
39.643811
 31
0.0
  0
LINE
  5
14d
100
AcDbEntity
  8
0
 62
7
100
AcDbLine
 10
129.570164
 20
39.643811
 30
0.0
 11
126.987427
 21
41.181601
 31
0.0
  0
LINE
  5
14e
100
AcDbEntity
  8
0
 62
7
100
AcDbLine
 10
126.987427
 20
41.181601
 30
0.0
 11
124.164750
 21
42.490527
 31
0.0
  0
LINE
  5
14f
100
AcDbEntity
  8
0
 62
7
100
AcDbLine
 10
124.164750
 20
42.490527
 30
0.0
 11
121.121792
 21
43.557399
 31
0.0
  0
LINE
  5
150
100
AcDbEntity
  8
0
 62
7
100
AcDbLine
 10
121.121792
 20
43.557399
 30
0.0
 11
117.878211
 21
44.369028
 31
0.0
  0
LINE
  5
151
100
AcDbEntity
  8
0
 62
7
100
AcDbLine
 10
117.878211
 20
44.369028
 30
0.0
 11
115.402477
 21
44.646866
 31
0.0
  0
LINE
  5
152
100
AcDbEntity
  8
0
 62
7
100
AcDbLine
 10
115.402477
 20
44.646866
 30
0.0
 11
109.056312
 21
44.798105
 31
0.0
  0
LINE
  5
153
100
AcDbEntity
  8
0
 62
7
100
AcDbLine
 10
109.056312
 20
44.798105
 30
0.0
 11
70.387300
 21
44.873333
 31
0.0
  0
LINE
  5
154
100
AcDbEntity
  8
0
 62
7
100
AcDbLine
 10
70.387300
 20
44.873333
 30
0.0
 11
31.718288
 21
44.798105
 31
0.0
  0
LINE
  5
155
100
AcDbEntity
  8
0
 62
7
100
AcDbLine
 10
31.718288
 20
44.798105
 30
0.0
 11
25.372122
 21
44.646866
 31
0.0
  0
LINE
  5
156
100
AcDbEntity
  8
0
 62
7
100
AcDbLine
 10
25.372122
 20
44.646866
 30
0.0
 11
22.896388
 21
44.369028
 31
0.0
  0
LINE
  5
157
100
AcDbEntity
  8
0
 62
7
100
AcDbLine
 10
22.896388
 20
44.369028
 30
0.0
 11
19.088876
 21
43.381876
 31
0.0
  0
LINE
  5
158
100
AcDbEntity
  8
0
 62
7
100
AcDbLine
 10
19.088876
 20
43.381876
 30
0.0
 11
15.569220
 21
42.041722
 31
0.0
  0
LINE
  5
159
100
AcDbEntity
  8
0
 62
7
100
AcDbLine
 10
15.569220
 20
42.041722
 30
0.0
 11
12.367841
 21
40.372712
 31
0.0
  0
LINE
  5
15a
100
AcDbEntity
  8
0
 62
7
100
AcDbLine
 10
12.367841
 20
40.372712
 30
0.0
 11
9.515158
 21
38.398995
 31
0.0
  0
LINE
  5
15b
100
AcDbEntity
  8
0
 62
7
100
AcDbLine
 10
9.515158
 20
38.398995
 30
0.0
 11
7.041591
 21
36.144718
 31
0.0
  0
LINE
  5
15c
100
AcDbEntity
  8
0
 62
7
100
AcDbLine
 10
7.041591
 20
36.144718
 30
0.0
 11
4.977561
 21
33.634028
 31
0.0
  0
LINE
  5
15d
100
AcDbEntity
  8
0
 62
7
100
AcDbLine
 10
4.977561
 20
33.634028
 30
0.0
 11
3.353488
 21
30.891073
 31
0.0
  0
LINE
  5
15e
100
AcDbEntity
  8
0
 62
7
100
AcDbLine
 10
3.353488
 20
30.891073
 30
0.0
 11
2.715941
 21
29.440042
 31
0.0
  0
LINE
  5
15f
100
AcDbEntity
  8
0
 62
7
100
AcDbLine
 10
2.715941
 20
29.440042
 30
0.0
 11
2.199790
 21
27.940000
 31
0.0
  0
LINE
  5
160
100
AcDbEntity
  8
0
 62
7
100
AcDbLine
 10
2.199790
 20
27.940000
 30
0.0
 11
1.815446
 21
25.884404
 31
0.0
  0
LINE
  5
161
100
AcDbEntity
  8
0
 62
7
100
AcDbLine
 10
1.815446
 20
25.884404
 30
0.0
 11
1.687093
 21
23.425611
 31
0.0
  0
LINE
  5
162
100
AcDbEntity
  8
0
 62
7
100
AcDbLine
 10
1.687093
 20
23.425611
 30
0.0
 11
1.814785
 21
20.969923
 31
0.0
  0
LINE
  5
163
100
AcDbEntity
  8
0
 62
7
100
AcDbLine
 10
1.814785
 20
20.969923
 30
0.0
 11
2.198577
 21
18.923641
 31
0.0
  0
LINE
  5
164
100
AcDbEntity
  8
0
 62
7
100
AcDbLine
 10
2.198577
 20
18.923641
 30
0.0
 11
2.765344
 21
17.304237
 31
0.0
  0
LINE
  5
165
100
AcDbEntity
  8
0
 62
7
100
AcDbLine
 10
2.765344
 20
17.304237
 30
0.0
 11
3.474012
 21
15.741414
 31
0.0
  0
LINE
  5
166
100
AcDbEntity
  8
0
 62
7
100
AcDbLine
 10
3.474012
 20
15.741414
 30
0.0
 11
4.318859
 21
14.239366
 31
0.0
  0
LINE
  5
167
100
AcDbEntity
  8
0
 62
7
100
AcDbLine
 10
4.318859
 20
14.239366
 30
0.0
 11
5.294162
 21
12.802285
 31
0.0
  0
LINE
  5
168
100
AcDbEntity
  8
0
 62
7
100
AcDbLine
 10
5.294162
 20
12.802285
 30
0.0
 11
6.394201
 21
11.434363
 31
0.0
  0
LINE
  5
169
100
AcDbEntity
  8
0
 62
7
100
AcDbLine
 10
6.394201
 20
11.434363
 30
0.0
 11
7.613252
 21
10.139794
 31
0.0
  0
LINE
  5
16a
100
AcDbEntity
  8
0
 62
7
100
AcDbLine
 10
7.613252
 20
10.139794
 30
0.0
 11
8.945594
 21
8.922769
 31
0.0
  0
LINE
  5
16b
100
AcDbEntity
  8
0
 62
7
100
AcDbLine
 10
8.945594
 20
8.922769
 30
0.0
 11
10.385505
 21
7.787481
 31
0.0
  0
LINE
  5
16c
100
AcDbEntity
  8
0
 62
7
100
AcDbLine
 10
10.385505
 20
7.787481
 30
0.0
 11
11.927262
 21
6.738123
 31
0.0
  0
LINE
  5
16d
100
AcDbEntity
  8
0
 62
7
100
AcDbLine
 10
11.927262
 20
6.738123
 30
0.0
 11
13.565145
 21
5.778887
 31
0.0
  0
LINE
  5
16e
100
AcDbEntity
  8
0
 62
7
100
AcDbLine
 10
13.565145
 20
5.778887
 30
0.0
 11
17.106396
 21
4.147549
 31
0.0
  0
LINE
  5
16f
100
AcDbEntity
  8
0
 62
7
100
AcDbLine
 10
17.106396
 20
4.147549
 30
0.0
 11
20.963481
 21
2.927010
 31
0.0
  0
LINE
  5
170
100
AcDbEntity
  8
0
 62
7
100
AcDbLine
 10
20.963481
 20
2.927010
 30
0.0
 11
25.090626
 21
2.150807
 31
0.0
  0
LINE
  5
171
100
AcDbEntity
  8
0
 62
7
100
AcDbLine
 10
25.090626
 20
2.150807
 30
0.0
 11
39.395209
 21
1.987470
 31
0.0
  0
LINE
  5
172
100
AcDbEntity
  8
0
 62
7
100
AcDbLine
 10
39.395209
 20
1.987470
 30
0.0
 11
71.516184
 21
1.953014
 31
0.0
  0
LINE
  5
173
100
AcDbEntity
  8
0
 62
7
100
AcDbLine
 10
71.516184
 20
1.953014
 30
0.0
 11
109.275111
 21
2.074249
 31
0.0
  0
LINE
  5
174
100
AcDbEntity
  8
0
 62
7
100
AcDbLine
 10
109.275111
 20
2.074249
 30
0.0
 11
115.689052
 21
2.224516
 31
0.0
  0
LINE
  5
175
100
AcDbEntity
  8
0
 62
7
100
AcDbLine
 10
115.689052
 20
2.224516
 30
0.0
 11
118.074790
 21
2.483324
 31
0.0
  0
LINE
  5
176
100
AcDbEntity
  8
0
 62
7
100
AcDbLine
 10
118.074790
 20
2.483324
 30
0.0
 11
118.074796
 21
2.483324
 31
0.0
  0
LINE
  5
177
100
AcDbEntity
  8
0
 62
7
100
AcDbLine
 10
126.831745
 20
9.183463
 30
0.0
 11
127.425597
 21
10.640974
 31
0.0
  0
LINE
  5
178
100
AcDbEntity
  8
0
 62
7
100
AcDbLine
 10
127.425597
 20
10.640974
 30
0.0
 11
127.755496
 21
11.354201
 31
0.0
  0
LINE
  5
179
100
AcDbEntity
  8
0
 62
7
100
AcDbLine
 10
127.755496
 20
11.354201
 30
0.0
 11
127.880696
 21
12.010984
 31
0.0
  0
LINE
  5
17a
100
AcDbEntity
  8
0
 62
7
100
AcDbLine
 10
127.880696
 20
12.010984
 30
0.0
 11
127.566708
 21
14.522608
 31
0.0
  0
LINE
  5
17b
100
AcDbEntity
  8
0
 62
7
100
AcDbLine
 10
127.566708
 20
14.522608
 30
0.0
 11
127.113967
 21
18.444354
 31
0.0
  0
LINE
  5
17c
100
AcDbEntity
  8
0
 62
7
100
AcDbLine
 10
127.113967
 20
18.444354
 30
0.0
 11
127.113967
 21
19.648518
 31
0.0
  0
LINE
  5
17d
100
AcDbEntity
  8
0
 62
7
100
AcDbLine
 10
127.113967
 20
19.648518
 30
0.0
 11
128.172300
 21
19.560924
 31
0.0
  0
LINE
  5
17e
100
AcDbEntity
  8
0
 62
7
100
AcDbLine
 10
128.172300
 20
19.560924
 30
0.0
 11
129.230634
 21
19.473334
 31
0.0
  0
LINE
  5
17f
100
AcDbEntity
  8
0
 62
7
100
AcDbLine
 10
129.230634
 20
19.473334
 30
0.0
 11
129.371745
 21
17.449803
 31
0.0
  0
LINE
  5
180
100
AcDbEntity
  8
0
 62
7
100
AcDbLine
 10
129.371745
 20
17.449803
 30
0.0
 11
129.527469
 21
15.964899
 31
0.0
  0
LINE
  5
181
100
AcDbEntity
  8
0
 62
7
100
AcDbLine
 10
129.527469
 20
15.964899
 30
0.0
 11
129.703711
 21
15.236354
 31
0.0
  0
LINE
  5
182
100
AcDbEntity
  8
0
 62
7
100
AcDbLine
 10
129.703711
 20
15.236354
 30
0.0
 11
129.947891
 21
15.316794
 31
0.0
  0
LINE
  5
183
100
AcDbEntity
  8
0
 62
7
100
AcDbLine
 10
129.947891
 20
15.316794
 30
0.0
 11
130.299720
 21
15.870397
 31
0.0
  0
LINE
  5
184
100
AcDbEntity
  8
0
 62
7
100
AcDbLine
 10
130.299720
 20
15.870397
 30
0.0
 11
131.190636
 21
18.132775
 31
0.0
  0
LINE
  5
185
100
AcDbEntity
  8
0
 62
7
100
AcDbLine
 10
131.190636
 20
18.132775
 30
0.0
 11
131.487766
 21
18.981083
 31
0.0
  0
LINE
  5
186
100
AcDbEntity
  8
0
 62
7
100
AcDbLine
 10
131.487766
 20
18.981083
 30
0.0
 11
131.759696
 21
19.421874
 31
0.0
  0
LINE
  5
187
100
AcDbEntity
  8
0
 62
7
100
AcDbLine
 10
131.759696
 20
19.421874
 30
0.0
 11
132.152359
 21
19.588533
 31
0.0
  0
LINE
  5
188
100
AcDbEntity
  8
0
 62
7
100
AcDbLine
 10
132.152359
 20
19.588533
 30
0.0
 11
132.811687
 21
19.614445
 31
0.0
  0
LINE
  5
189
100
AcDbEntity
  8
0
 62
7
100
AcDbLine
 10
132.811687
 20
19.614445
 30
0.0
 11
133.448294
 21
19.598496
 31
0.0
  0
LINE
  5
18a
100
AcDbEntity
  8
0
 62
7
100
AcDbLine
 10
133.448294
 20
19.598496
 30
0.0
 11
133.765825
 21
19.507239
 31
0.0
  0
LINE
  5
18b
100
AcDbEntity
  8
0
 62
7
100
AcDbLine
 10
133.765825
 20
19.507239
 30
0.0
 11
133.844087
 21
19.275556
 31
0.0
  0
LINE
  5
18c
100
AcDbEntity
  8
0
 62
7
100
AcDbLine
 10
133.844087
 20
19.275556
 30
0.0
 11
133.762885
 21
18.838331
 31
0.0
  0
LINE
  5
18d
100
AcDbEntity
  8
0
 62
7
100
AcDbLine
 10
133.762885
 20
18.838331
 30
0.0
 11
133.195451
 21
17.371435
 31
0.0
  0
LINE
  5
18e
100
AcDbEntity
  8
0
 62
7
100
AcDbLine
 10
133.195451
 20
17.371435
 30
0.0
 11
132.111519
 21
15.091547
 31
0.0
  0
LINE
  5
18f
100
AcDbEntity
  8
0
 62
7
100
AcDbLine
 10
132.111519
 20
15.091547
 30
0.0
 11
129.673745
 21
10.653886
 31
0.0
  0
LINE
  5
190
100
AcDbEntity
  8
0
 62
7
100
AcDbLine
 10
129.673745
 20
10.653886
 30
0.0
 11
128.588724
 21
9.200042
 31
0.0
  0
LINE
  5
191
100
AcDbEntity
  8
0
 62
7
100
AcDbLine
 10
128.588724
 20
9.200042
 30
0.0
 11
128.169759
 21
8.951142
 31
0.0
  0
LINE
  5
192
100
AcDbEntity
  8
0
 62
7
100
AcDbLine
 10
128.169759
 20
8.951142
 30
0.0
 11
127.685583
 21
8.889997
 31
0.0
  0
LINE
  5
193
100
AcDbEntity
  8
0
 62
7
100
AcDbLine
 10
127.685583
 20
8.889997
 30
0.0
 11
127.082560
 21
8.976203
 31
0.0
  0
LINE
  5
194
100
AcDbEntity
  8
0
 62
7
100
AcDbLine
 10
127.082560
 20
8.976203
 30
0.0
 11
126.831745
 21
9.183463
 31
0.0
  0
LINE
  5
195
100
AcDbEntity
  8
0
 62
7
100
AcDbLine
 10
126.831745
 20
9.183463
 30
0.0
 11
126.831745
 21
9.183463
 31
0.0
  0
LINE
  5
196
100
AcDbEntity
  8
0
 62
7
100
AcDbLine
 10
33.416189
 20
11.718250
 30
0.0
 11
27.462077
 21
11.915743
 31
0.0
  0
LINE
  5
197
100
AcDbEntity
  8
0
 62
7
100
AcDbLine
 10
27.462077
 20
11.915743
 30
0.0
 11
24.441766
 21
12.119458
 31
0.0
  0
LINE
  5
198
100
AcDbEntity
  8
0
 62
7
100
AcDbLine
 10
24.441766
 20
12.119458
 30
0.0
 11
23.909144
 21
12.263787
 31
0.0
  0
LINE
  5
199
100
AcDbEntity
  8
0
 62
7
100
AcDbLine
 10
23.909144
 20
12.263787
 30
0.0
 11
23.641704
 21
12.488531
 31
0.0
  0
LINE
  5
19a
100
AcDbEntity
  8
0
 62
7
100
AcDbLine
 10
23.641704
 20
12.488531
 30
0.0
 11
23.562630
 21
12.944628
 31
0.0
  0
LINE
  5
19b
100
AcDbEntity
  8
0
 62
7
100
AcDbLine
 10
23.562630
 20
12.944628
 30
0.0
 11
23.595100
 21
13.783016
 31
0.0
  0
LINE
  5
19c
100
AcDbEntity
  8
0
 62
7
100
AcDbLine
 10
23.595100
 20
13.783016
 30
0.0
 11
23.732251
 21
14.773679
 31
0.0
  0
LINE
  5
19d
100
AcDbEntity
  8
0
 62
7
100
AcDbLine
 10
23.732251
 20
14.773679
 30
0.0
 11
23.911308
 21
15.131459
 31
0.0
  0
LINE
  5
19e
100
AcDbEntity
  8
0
 62
7
100
AcDbLine
 10
23.911308
 20
15.131459
 30
0.0
 11
24.218599
 21
15.439053
 31
0.0
  0
LINE
  5
19f
100
AcDbEntity
  8
0
 62
7
100
AcDbLine
 10
24.218599
 20
15.439053
 30
0.0
 11
25.381627
 21
16.028231
 31
0.0
  0
LINE
  5
1a0
100
AcDbEntity
  8
0
 62
7
100
AcDbLine
 10
25.381627
 20
16.028231
 30
0.0
 11
27.548821
 21
16.790303
 31
0.0
  0
LINE
  5
1a1
100
AcDbEntity
  8
0
 62
7
100
AcDbLine
 10
27.548821
 20
16.790303
 30
0.0
 11
29.442571
 21
17.425235
 31
0.0
  0
LINE
  5
1a2
100
AcDbEntity
  8
0
 62
7
100
AcDbLine
 10
29.442571
 20
17.425235
 30
0.0
 11
29.524379
 21
19.578174
 31
0.0
  0
LINE
  5
1a3
100
AcDbEntity
  8
0
 62
7
100
AcDbLine
 10
29.524379
 20
19.578174
 30
0.0
 11
29.606189
 21
21.731111
 31
0.0
  0
LINE
  5
1a4
100
AcDbEntity
  8
0
 62
7
100
AcDbLine
 10
29.606189
 20
21.731111
 30
0.0
 11
31.581745
 21
22.240491
 31
0.0
  0
LINE
  5
1a5
100
AcDbEntity
  8
0
 62
7
100
AcDbLine
 10
31.581745
 20
22.240491
 30
0.0
 11
33.376225
 21
22.574926
 31
0.0
  0
LINE
  5
1a6
100
AcDbEntity
  8
0
 62
7
100
AcDbLine
 10
33.376225
 20
22.574926
 30
0.0
 11
35.000418
 21
22.568262
 31
0.0
  0
LINE
  5
1a7
100
AcDbEntity
  8
0
 62
7
100
AcDbLine
 10
35.000418
 20
22.568262
 30
0.0
 11
36.617906
 21
22.201664
 31
0.0
  0
LINE
  5
1a8
100
AcDbEntity
  8
0
 62
7
100
AcDbLine
 10
36.617906
 20
22.201664
 30
0.0
 11
38.392272
 21
21.456294
 31
0.0
  0
LINE
  5
1a9
100
AcDbEntity
  8
0
 62
7
100
AcDbLine
 10
38.392272
 20
21.456294
 30
0.0
 11
40.269240
 21
20.291477
 31
0.0
  0
LINE
  5
1aa
100
AcDbEntity
  8
0
 62
7
100
AcDbLine
 10
40.269240
 20
20.291477
 30
0.0
 11
42.014872
 21
18.730859
 31
0.0
  0
LINE
  5
1ab
100
AcDbEntity
  8
0
 62
7
100
AcDbLine
 10
42.014872
 20
18.730859
 30
0.0
 11
43.583273
 21
16.822480
 31
0.0
  0
LINE
  5
1ac
100
AcDbEntity
  8
0
 62
7
100
AcDbLine
 10
43.583273
 20
16.822480
 30
0.0
 11
44.928547
 21
14.614384
 31
0.0
  0
LINE
  5
1ad
100
AcDbEntity
  8
0
 62
7
100
AcDbLine
 10
44.928547
 20
14.614384
 30
0.0
 11
45.767319
 21
12.869737
 31
0.0
  0
LINE
  5
1ae
100
AcDbEntity
  8
0
 62
7
100
AcDbLine
 10
45.767319
 20
12.869737
 30
0.0
 11
46.116189
 21
11.880791
 31
0.0
  0
LINE
  5
1af
100
AcDbEntity
  8
0
 62
7
100
AcDbLine
 10
46.116189
 20
11.880791
 30
0.0
 11
46.133537
 21
11.715246
 31
0.0
  0
LINE
  5
1b0
100
AcDbEntity
  8
0
 62
7
100
AcDbLine
 10
46.133537
 20
11.715246
 30
0.0
 11
46.062276
 21
11.595928
 31
0.0
  0
LINE
  5
1b1
100
AcDbEntity
  8
0
 62
7
100
AcDbLine
 10
46.062276
 20
11.595928
 30
0.0
 11
44.914087
 21
11.486509
 31
0.0
  0
LINE
  5
1b2
100
AcDbEntity
  8
0
 62
7
100
AcDbLine
 10
44.914087
 20
11.486509
 30
0.0
 11
33.416189
 21
11.718250
 31
0.0
  0
LINE
  5
1b3
100
AcDbEntity
  8
0
 62
7
100
AcDbLine
 10
33.416189
 20
11.718250
 30
0.0
 11
33.416189
 21
11.718250
 31
0.0
  0
LINE
  5
1b4
100
AcDbEntity
  8
0
 62
7
100
AcDbLine
 10
53.821378
 20
11.897295
 30
0.0
 11
54.008205
 21
13.734967
 31
0.0
  0
LINE
  5
1b5
100
AcDbEntity
  8
0
 62
7
100
AcDbLine
 10
54.008205
 20
13.734967
 30
0.0
 11
54.688455
 21
17.183396
 31
0.0
  0
LINE
  5
1b6
100
AcDbEntity
  8
0
 62
7
100
AcDbLine
 10
54.688455
 20
17.183396
 30
0.0
 11
55.496768
 21
20.565961
 31
0.0
  0
LINE
  5
1b7
100
AcDbEntity
  8
0
 62
7
100
AcDbLine
 10
55.496768
 20
20.565961
 30
0.0
 11
56.067788
 21
22.206040
 31
0.0
  0
LINE
  5
1b8
100
AcDbEntity
  8
0
 62
7
100
AcDbLine
 10
56.067788
 20
22.206040
 30
0.0
 11
57.116595
 21
22.375708
 31
0.0
  0
LINE
  5
1b9
100
AcDbEntity
  8
0
 62
7
100
AcDbLine
 10
57.116595
 20
22.375708
 30
0.0
 11
58.984377
 21
22.422052
 31
0.0
  0
LINE
  5
1ba
100
AcDbEntity
  8
0
 62
7
100
AcDbLine
 10
58.984377
 20
22.422052
 30
0.0
 11
60.854519
 21
22.350564
 31
0.0
  0
LINE
  5
1bb
100
AcDbEntity
  8
0
 62
7
100
AcDbLine
 10
60.854519
 20
22.350564
 30
0.0
 11
61.910403
 21
22.166738
 31
0.0
  0
LINE
  5
1bc
100
AcDbEntity
  8
0
 62
7
100
AcDbLine
 10
61.910403
 20
22.166738
 30
0.0
 11
62.178588
 21
21.793964
 31
0.0
  0
LINE
  5
1bd
100
AcDbEntity
  8
0
 62
7
100
AcDbLine
 10
62.178588
 20
21.793964
 30
0.0
 11
62.045836
 21
21.112728
 31
0.0
  0
LINE
  5
1be
100
AcDbEntity
  8
0
 62
7
100
AcDbLine
 10
62.045836
 20
21.112728
 30
0.0
 11
61.848394
 21
20.672901
 31
0.0
  0
LINE
  5
1bf
100
AcDbEntity
  8
0
 62
7
100
AcDbLine
 10
61.848394
 20
20.672901
 30
0.0
 11
61.540147
 21
20.424685
 31
0.0
  0
LINE
  5
1c0
100
AcDbEntity
  8
0
 62
7
100
AcDbLine
 10
61.540147
 20
20.424685
 30
0.0
 11
59.950223
 21
20.234427
 31
0.0
  0
LINE
  5
1c1
100
AcDbEntity
  8
0
 62
7
100
AcDbLine
 10
59.950223
 20
20.234427
 30
0.0
 11
58.704514
 21
20.121112
 31
0.0
  0
LINE
  5
1c2
100
AcDbEntity
  8
0
 62
7
100
AcDbLine
 10
58.704514
 20
20.121112
 30
0.0
 11
57.923846
 21
19.892393
 31
0.0
  0
LINE
  5
1c3
100
AcDbEntity
  8
0
 62
7
100
AcDbLine
 10
57.923846
 20
19.892393
 30
0.0
 11
57.520080
 21
19.502215
 31
0.0
  0
LINE
  5
1c4
100
AcDbEntity
  8
0
 62
7
100
AcDbLine
 10
57.520080
 20
19.502215
 30
0.0
 11
57.405078
 21
18.904524
 31
0.0
  0
LINE
  5
1c5
100
AcDbEntity
  8
0
 62
7
100
AcDbLine
 10
57.405078
 20
18.904524
 30
0.0
 11
57.502981
 21
18.435621
 31
0.0
  0
LINE
  5
1c6
100
AcDbEntity
  8
0
 62
7
100
AcDbLine
 10
57.502981
 20
18.435621
 30
0.0
 11
57.831318
 21
18.132599
 31
0.0
  0
LINE
  5
1c7
100
AcDbEntity
  8
0
 62
7
100
AcDbLine
 10
57.831318
 20
18.132599
 30
0.0
 11
58.442030
 21
17.969685
 31
0.0
  0
LINE
  5
1c8
100
AcDbEntity
  8
0
 62
7
100
AcDbLine
 10
58.442030
 20
17.969685
 30
0.0
 11
59.387060
 21
17.921108
 31
0.0
  0
LINE
  5
1c9
100
AcDbEntity
  8
0
 62
7
100
AcDbLine
 10
59.387060
 20
17.921108
 30
0.0
 11
60.154660
 21
17.866130
 31
0.0
  0
LINE
  5
1ca
100
AcDbEntity
  8
0
 62
7
100
AcDbLine
 10
60.154660
 20
17.866130
 30
0.0
 11
60.572857
 21
17.671789
 31
0.0
  0
LINE
  5
1cb
100
AcDbEntity
  8
0
 62
7
100
AcDbLine
 10
60.572857
 20
17.671789
 30
0.0
 11
60.682333
 21
17.293974
 31
0.0
  0
LINE
  5
1cc
100
AcDbEntity
  8
0
 62
7
100
AcDbLine
 10
60.682333
 20
17.293974
 30
0.0
 11
60.523766
 21
16.688576
 31
0.0
  0
LINE
  5
1cd
100
AcDbEntity
  8
0
 62
7
100
AcDbLine
 10
60.523766
 20
16.688576
 30
0.0
 11
60.326060
 21
16.301973
 31
0.0
  0
LINE
  5
1ce
100
AcDbEntity
  8
0
 62
7
100
AcDbLine
 10
60.326060
 20
16.301973
 30
0.0
 11
60.011355
 21
16.075139
 31
0.0
  0
LINE
  5
1cf
100
AcDbEntity
  8
0
 62
7
100
AcDbLine
 10
60.011355
 20
16.075139
 30
0.0
 11
58.492554
 21
15.888781
 31
0.0
  0
LINE
  5
1d0
100
AcDbEntity
  8
0
 62
7
100
AcDbLine
 10
58.492554
 20
15.888781
 30
0.0
 11
56.733353
 21
15.804442
 31
0.0
  0
LINE
  5
1d1
100
AcDbEntity
  8
0
 62
7
100
AcDbLine
 10
56.733353
 20
15.804442
 30
0.0
 11
56.243288
 21
13.858359
 31
0.0
  0
LINE
  5
1d2
100
AcDbEntity
  8
0
 62
7
100
AcDbLine
 10
56.243288
 20
13.858359
 30
0.0
 11
55.787459
 21
12.414373
 31
0.0
  0
LINE
  5
1d3
100
AcDbEntity
  8
0
 62
7
100
AcDbLine
 10
55.787459
 20
12.414373
 30
0.0
 11
55.379707
 21
11.675460
 31
0.0
  0
LINE
  5
1d4
100
AcDbEntity
  8
0
 62
7
100
AcDbLine
 10
55.379707
 20
11.675460
 30
0.0
 11
54.906061
 21
11.476668
 31
0.0
  0
LINE
  5
1d5
100
AcDbEntity
  8
0
 62
7
100
AcDbLine
 10
54.906061
 20
11.476668
 30
0.0
 11
54.443985
 21
11.453707
 31
0.0
  0
LINE
  5
1d6
100
AcDbEntity
  8
0
 62
7
100
AcDbLine
 10
54.443985
 20
11.453707
 30
0.0
 11
54.060187
 21
11.597082
 31
0.0
  0
LINE
  5
1d7
100
AcDbEntity
  8
0
 62
7
100
AcDbLine
 10
54.060187
 20
11.597082
 30
0.0
 11
53.821378
 21
11.897295
 31
0.0
  0
LINE
  5
1d8
100
AcDbEntity
  8
0
 62
7
100
AcDbLine
 10
53.821378
 20
11.897295
 30
0.0
 11
53.821378
 21
11.897295
 31
0.0
  0
LINE
  5
1d9
100
AcDbEntity
  8
0
 62
7
100
AcDbLine
 10
61.113549
 20
11.681785
 30
0.0
 11
60.944491
 21
11.926265
 31
0.0
  0
LINE
  5
1da
100
AcDbEntity
  8
0
 62
7
100
AcDbLine
 10
60.944491
 20
11.926265
 30
0.0
 11
60.922809
 21
12.458381
 31
0.0
  0
LINE
  5
1db
100
AcDbEntity
  8
0
 62
7
100
AcDbLine
 10
60.922809
 20
12.458381
 30
0.0
 11
61.368361
 21
14.993575
 31
0.0
  0
LINE
  5
1dc
100
AcDbEntity
  8
0
 62
7
100
AcDbLine
 10
61.368361
 20
14.993575
 30
0.0
 11
62.232563
 21
18.680241
 31
0.0
  0
LINE
  5
1dd
100
AcDbEntity
  8
0
 62
7
100
AcDbLine
 10
62.232563
 20
18.680241
 30
0.0
 11
62.506966
 21
19.054226
 31
0.0
  0
LINE
  5
1de
100
AcDbEntity
  8
0
 62
7
100
AcDbLine
 10
62.506966
 20
19.054226
 30
0.0
 11
62.995692
 21
19.373217
 31
0.0
  0
LINE
  5
1df
100
AcDbEntity
  8
0
 62
7
100
AcDbLine
 10
62.995692
 20
19.373217
 30
0.0
 11
64.350998
 21
19.799249
 31
0.0
  0
LINE
  5
1e0
100
AcDbEntity
  8
0
 62
7
100
AcDbLine
 10
64.350998
 20
19.799249
 30
0.0
 11
65.768256
 21
19.864403
 31
0.0
  0
LINE
  5
1e1
100
AcDbEntity
  8
0
 62
7
100
AcDbLine
 10
65.768256
 20
19.864403
 30
0.0
 11
66.334421
 21
19.732296
 31
0.0
  0
LINE
  5
1e2
100
AcDbEntity
  8
0
 62
7
100
AcDbLine
 10
66.334421
 20
19.732296
 30
0.0
 11
66.717240
 21
19.474745
 31
0.0
  0
LINE
  5
1e3
100
AcDbEntity
  8
0
 62
7
100
AcDbLine
 10
66.717240
 20
19.474745
 30
0.0
 11
66.855980
 21
18.924915
 31
0.0
  0
LINE
  5
1e4
100
AcDbEntity
  8
0
 62
7
100
AcDbLine
 10
66.855980
 20
18.924915
 30
0.0
 11
66.624551
 21
18.313325
 31
0.0
  0
LINE
  5
1e5
100
AcDbEntity
  8
0
 62
7
100
AcDbLine
 10
66.624551
 20
18.313325
 30
0.0
 11
66.163550
 21
17.856849
 31
0.0
  0
LINE
  5
1e6
100
AcDbEntity
  8
0
 62
7
100
AcDbLine
 10
66.163550
 20
17.856849
 30
0.0
 11
65.890899
 21
17.754553
 31
0.0
  0
LINE
  5
1e7
100
AcDbEntity
  8
0
 62
7
100
AcDbLine
 10
65.890899
 20
17.754553
 30
0.0
 11
65.613579
 21
17.772363
 31
0.0
  0
LINE
  5
1e8
100
AcDbEntity
  8
0
 62
7
100
AcDbLine
 10
65.613579
 20
17.772363
 30
0.0
 11
64.935002
 21
17.852092
 31
0.0
  0
LINE
  5
1e9
100
AcDbEntity
  8
0
 62
7
100
AcDbLine
 10
64.935002
 20
17.852092
 30
0.0
 11
64.437470
 21
17.488002
 31
0.0
  0
LINE
  5
1ea
100
AcDbEntity
  8
0
 62
7
100
AcDbLine
 10
64.437470
 20
17.488002
 30
0.0
 11
64.022751
 21
16.538661
 31
0.0
  0
LINE
  5
1eb
100
AcDbEntity
  8
0
 62
7
100
AcDbLine
 10
64.022751
 20
16.538661
 30
0.0
 11
63.592614
 21
14.862641
 31
0.0
  0
LINE
  5
1ec
100
AcDbEntity
  8
0
 62
7
100
AcDbLine
 10
63.592614
 20
14.862641
 30
0.0
 11
63.071032
 21
12.945997
 31
0.0
  0
LINE
  5
1ed
100
AcDbEntity
  8
0
 62
7
100
AcDbLine
 10
63.071032
 20
12.945997
 30
0.0
 11
62.523019
 21
11.827046
 31
0.0
  0
LINE
  5
1ee
100
AcDbEntity
  8
0
 62
7
100
AcDbLine
 10
62.523019
 20
11.827046
 30
0.0
 11
62.220808
 21
11.543234
 31
0.0
  0
LINE
  5
1ef
100
AcDbEntity
  8
0
 62
7
100
AcDbLine
 10
62.220808
 20
11.543234
 30
0.0
 11
61.890037
 21
11.430678
 31
0.0
  0
LINE
  5
1f0
100
AcDbEntity
  8
0
 62
7
100
AcDbLine
 10
61.890037
 20
11.430678
 30
0.0
 11
61.523390
 21
11.479992
 31
0.0
  0
LINE
  5
1f1
100
AcDbEntity
  8
0
 62
7
100
AcDbLine
 10
61.523390
 20
11.479992
 30
0.0
 11
61.113549
 21
11.681785
 31
0.0
  0
LINE
  5
1f2
100
AcDbEntity
  8
0
 62
7
100
AcDbLine
 10
61.113549
 20
11.681785
 30
0.0
 11
61.113549
 21
11.681785
 31
0.0
  0
LINE
  5
1f3
100
AcDbEntity
  8
0
 62
7
100
AcDbLine
 10
67.304821
 20
12.211279
 30
0.0
 11
66.825093
 21
12.803031
 31
0.0
  0
LINE
  5
1f4
100
AcDbEntity
  8
0
 62
7
100
AcDbLine
 10
66.825093
 20
12.803031
 30
0.0
 11
66.494853
 21
13.451948
 31
0.0
  0
LINE
  5
1f5
100
AcDbEntity
  8
0
 62
7
100
AcDbLine
 10
66.494853
 20
13.451948
 30
0.0
 11
66.304031
 21
14.142012
 31
0.0
  0
LINE
  5
1f6
100
AcDbEntity
  8
0
 62
7
100
AcDbLine
 10
66.304031
 20
14.142012
 30
0.0
 11
66.242558
 21
14.857201
 31
0.0
  0
LINE
  5
1f7
100
AcDbEntity
  8
0
 62
7
100
AcDbLine
 10
66.242558
 20
14.857201
 30
0.0
 11
66.467381
 21
16.298876
 31
0.0
  0
LINE
  5
1f8
100
AcDbEntity
  8
0
 62
7
100
AcDbLine
 10
66.467381
 20
16.298876
 30
0.0
 11
67.088767
 21
17.648812
 31
0.0
  0
LINE
  5
1f9
100
AcDbEntity
  8
0
 62
7
100
AcDbLine
 10
67.088767
 20
17.648812
 30
0.0
 11
68.026161
 21
18.778850
 31
0.0
  0
LINE
  5
1fa
100
AcDbEntity
  8
0
 62
7
100
AcDbLine
 10
68.026161
 20
18.778850
 30
0.0
 11
69.199008
 21
19.560827
 31
0.0
  0
LINE
  5
1fb
100
AcDbEntity
  8
0
 62
7
100
AcDbLine
 10
69.199008
 20
19.560827
 30
0.0
 11
69.848553
 21
19.781244
 31
0.0
  0
LINE
  5
1fc
100
AcDbEntity
  8
0
 62
7
100
AcDbLine
 10
69.848553
 20
19.781244
 30
0.0
 11
70.526753
 21
19.866584
 31
0.0
  0
LINE
  5
1fd
100
AcDbEntity
  8
0
 62
7
100
AcDbLine
 10
70.526753
 20
19.866584
 30
0.0
 11
71.223538
 21
19.800830
 31
0.0
  0
LINE
  5
1fe
100
AcDbEntity
  8
0
 62
7
100
AcDbLine
 10
71.223538
 20
19.800830
 30
0.0
 11
71.928840
 21
19.567960
 31
0.0
  0
LINE
  5
1ff
100
AcDbEntity
  8
0
 62
7
100
AcDbLine
 10
71.928840
 20
19.567960
 30
0.0
 11
72.549046
 21
19.044155
 31
0.0
  0
LINE
  5
200
100
AcDbEntity
  8
0
 62
7
100
AcDbLine
 10
72.549046
 20
19.044155
 30
0.0
 11
72.976791
 21
18.149432
 31
0.0
  0
LINE
  5
201
100
AcDbEntity
  8
0
 62
7
100
AcDbLine
 10
72.976791
 20
18.149432
 30
0.0
 11
73.303308
 21
17.059616
 31
0.0
  0
LINE
  5
202
100
AcDbEntity
  8
0
 62
7
100
AcDbLine
 10
73.303308
 20
17.059616
 30
0.0
 11
74.128483
 21
18.060693
 31
0.0
  0
LINE
  5
203
100
AcDbEntity
  8
0
 62
7
100
AcDbLine
 10
74.128483
 20
18.060693
 30
0.0
 11
74.942650
 21
18.874277
 31
0.0
  0
LINE
  5
204
100
AcDbEntity
  8
0
 62
7
100
AcDbLine
 10
74.942650
 20
18.874277
 30
0.0
 11
75.821230
 21
19.455067
 31
0.0
  0
LINE
  5
205
100
AcDbEntity
  8
0
 62
7
100
AcDbLine
 10
75.821230
 20
19.455067
 30
0.0
 11
76.718090
 21
19.803117
 31
0.0
  0
LINE
  5
206
100
AcDbEntity
  8
0
 62
7
100
AcDbLine
 10
76.718090
 20
19.803117
 30
0.0
 11
77.587095
 21
19.918479
 31
0.0
  0
LINE
  5
207
100
AcDbEntity
  8
0
 62
7
100
AcDbLine
 10
77.587095
 20
19.918479
 30
0.0
 11
78.382112
 21
19.801207
 31
0.0
  0
LINE
  5
208
100
AcDbEntity
  8
0
 62
7
100
AcDbLine
 10
78.382112
 20
19.801207
 30
0.0
 11
79.057005
 21
19.451354
 31
0.0
  0
LINE
  5
209
100
AcDbEntity
  8
0
 62
7
100
AcDbLine
 10
79.057005
 20
19.451354
 30
0.0
 11
79.565642
 21
18.868973
 31
0.0
  0
LINE
  5
20a
100
AcDbEntity
  8
0
 62
7
100
AcDbLine
 10
79.565642
 20
18.868973
 30
0.0
 11
79.861887
 21
18.054117
 31
0.0
  0
LINE
  5
20b
100
AcDbEntity
  8
0
 62
7
100
AcDbLine
 10
79.861887
 20
18.054117
 30
0.0
 11
80.031810
 21
17.375920
 31
0.0
  0
LINE
  5
20c
100
AcDbEntity
  8
0
 62
7
100
AcDbLine
 10
80.031810
 20
17.375920
 30
0.0
 11
80.234475
 21
17.127948
 31
0.0
  0
LINE
  5
20d
100
AcDbEntity
  8
0
 62
7
100
AcDbLine
 10
80.234475
 20
17.127948
 30
0.0
 11
80.513200
 21
17.303700
 31
0.0
  0
LINE
  5
20e
100
AcDbEntity
  8
0
 62
7
100
AcDbLine
 10
80.513200
 20
17.303700
 30
0.0
 11
80.911302
 21
17.896676
 31
0.0
  0
LINE
  5
20f
100
AcDbEntity
  8
0
 62
7
100
AcDbLine
 10
80.911302
 20
17.896676
 30
0.0
 11
81.553328
 21
18.597859
 31
0.0
  0
LINE
  5
210
100
AcDbEntity
  8
0
 62
7
100
AcDbLine
 10
81.553328
 20
18.597859
 30
0.0
 11
82.521196
 21
19.242169
 31
0.0
  0
LINE
  5
211
100
AcDbEntity
  8
0
 62
7
100
AcDbLine
 10
82.521196
 20
19.242169
 30
0.0
 11
83.602155
 21
19.713729
 31
0.0
  0
LINE
  5
212
100
AcDbEntity
  8
0
 62
7
100
AcDbLine
 10
83.602155
 20
19.713729
 30
0.0
 11
84.583453
 21
19.896666
 31
0.0
  0
LINE
  5
213
100
AcDbEntity
  8
0
 62
7
100
AcDbLine
 10
84.583453
 20
19.896666
 30
0.0
 11
84.988954
 21
19.939153
 31
0.0
  0
LINE
  5
214
100
AcDbEntity
  8
0
 62
7
100
AcDbLine
 10
84.988954
 20
19.939153
 30
0.0
 11
85.261484
 21
20.115085
 31
0.0
  0
LINE
  5
215
100
AcDbEntity
  8
0
 62
7
100
AcDbLine
 10
85.261484
 20
20.115085
 30
0.0
 11
85.654591
 21
21.158132
 31
0.0
  0
LINE
  5
216
100
AcDbEntity
  8
0
 62
7
100
AcDbLine
 10
85.654591
 20
21.158132
 30
0.0
 11
85.992993
 21
22.143710
 31
0.0
  0
LINE
  5
217
100
AcDbEntity
  8
0
 62
7
100
AcDbLine
 10
85.992993
 20
22.143710
 30
0.0
 11
86.360545
 21
22.741870
 31
0.0
  0
LINE
  5
218
100
AcDbEntity
  8
0
 62
7
100
AcDbLine
 10
86.360545
 20
22.741870
 30
0.0
 11
86.843597
 21
22.916790
 31
0.0
  0
LINE
  5
219
100
AcDbEntity
  8
0
 62
7
100
AcDbLine
 10
86.843597
 20
22.916790
 30
0.0
 11
87.442364
 21
22.879131
 31
0.0
  0
LINE
  5
21a
100
AcDbEntity
  8
0
 62
7
100
AcDbLine
 10
87.442364
 20
22.879131
 30
0.0
 11
87.951910
 21
22.673819
 31
0.0
  0
LINE
  5
21b
100
AcDbEntity
  8
0
 62
7
100
AcDbLine
 10
87.951910
 20
22.673819
 30
0.0
 11
88.167300
 21
22.345782
 31
0.0
  0
LINE
  5
21c
100
AcDbEntity
  8
0
 62
7
100
AcDbLine
 10
88.167300
 20
22.345782
 30
0.0
 11
87.293986
 21
18.188381
 31
0.0
  0
LINE
  5
21d
100
AcDbEntity
  8
0
 62
7
100
AcDbLine
 10
87.293986
 20
18.188381
 30
0.0
 11
86.682284
 21
15.066555
 31
0.0
  0
LINE
  5
21e
100
AcDbEntity
  8
0
 62
7
100
AcDbLine
 10
86.682284
 20
15.066555
 30
0.0
 11
86.554265
 21
13.189427
 31
0.0
  0
LINE
  5
21f
100
AcDbEntity
  8
0
 62
7
100
AcDbLine
 10
86.554265
 20
13.189427
 30
0.0
 11
86.564518
 21
12.286260
 31
0.0
  0
LINE
  5
220
100
AcDbEntity
  8
0
 62
7
100
AcDbLine
 10
86.564518
 20
12.286260
 30
0.0
 11
86.400516
 21
11.807935
 31
0.0
  0
LINE
  5
221
100
AcDbEntity
  8
0
 62
7
100
AcDbLine
 10
86.400516
 20
11.807935
 30
0.0
 11
83.778570
 21
11.530274
 31
0.0
  0
LINE
  5
222
100
AcDbEntity
  8
0
 62
7
100
AcDbLine
 10
83.778570
 20
11.530274
 30
0.0
 11
82.426375
 21
11.487644
 31
0.0
  0
LINE
  5
223
100
AcDbEntity
  8
0
 62
7
100
AcDbLine
 10
82.426375
 20
11.487644
 30
0.0
 11
81.650551
 21
11.554905
 31
0.0
  0
LINE
  5
224
100
AcDbEntity
  8
0
 62
7
100
AcDbLine
 10
81.650551
 20
11.554905
 30
0.0
 11
81.172448
 21
11.801887
 31
0.0
  0
LINE
  5
225
100
AcDbEntity
  8
0
 62
7
100
AcDbLine
 10
81.172448
 20
11.801887
 30
0.0
 11
80.713413
 21
12.298420
 31
0.0
  0
LINE
  5
226
100
AcDbEntity
  8
0
 62
7
100
AcDbLine
 10
80.713413
 20
12.298420
 30
0.0
 11
80.348309
 21
12.798044
 31
0.0
  0
LINE
  5
227
100
AcDbEntity
  8
0
 62
7
100
AcDbLine
 10
80.348309
 20
12.798044
 30
0.0
 11
80.125063
 21
13.304083
 31
0.0
  0
LINE
  5
228
100
AcDbEntity
  8
0
 62
7
100
AcDbLine
 10
80.125063
 20
13.304083
 30
0.0
 11
79.982856
 21
14.740946
 31
0.0
  0
LINE
  5
229
100
AcDbEntity
  8
0
 62
7
100
AcDbLine
 10
79.982856
 20
14.740946
 30
0.0
 11
79.909473
 21
16.017334
 31
0.0
  0
LINE
  5
22a
100
AcDbEntity
  8
0
 62
7
100
AcDbLine
 10
79.909473
 20
16.017334
 30
0.0
 11
79.761394
 21
16.083560
 31
0.0
  0
LINE
  5
22b
100
AcDbEntity
  8
0
 62
7
100
AcDbLine
 10
79.761394
 20
16.083560
 30
0.0
 11
79.488967
 21
15.884449
 31
0.0
  0
LINE
  5
22c
100
AcDbEntity
  8
0
 62
7
100
AcDbLine
 10
79.488967
 20
15.884449
 30
0.0
 11
78.155029
 21
15.029783
 31
0.0
  0
LINE
  5
22d
100
AcDbEntity
  8
0
 62
7
100
AcDbLine
 10
78.155029
 20
15.029783
 30
0.0
 11
76.596189
 21
14.547957
 31
0.0
  0
LINE
  5
22e
100
AcDbEntity
  8
0
 62
7
100
AcDbLine
 10
76.596189
 20
14.547957
 30
0.0
 11
75.744377
 21
14.279696
 31
0.0
  0
LINE
  5
22f
100
AcDbEntity
  8
0
 62
7
100
AcDbLine
 10
75.744377
 20
14.279696
 30
0.0
 11
75.576454
 21
14.113560
 31
0.0
  0
LINE
  5
230
100
AcDbEntity
  8
0
 62
7
100
AcDbLine
 10
75.576454
 20
14.113560
 30
0.0
 11
75.572966
 21
13.942706
 31
0.0
  0
LINE
  5
231
100
AcDbEntity
  8
0
 62
7
100
AcDbLine
 10
75.572966
 20
13.942706
 30
0.0
 11
76.036640
 21
13.636692
 31
0.0
  0
LINE
  5
232
100
AcDbEntity
  8
0
 62
7
100
AcDbLine
 10
76.036640
 20
13.636692
 30
0.0
 11
77.090078
 21
13.461359
 31
0.0
  0
LINE
  5
233
100
AcDbEntity
  8
0
 62
7
100
AcDbLine
 10
77.090078
 20
13.461359
 30
0.0
 11
78.326907
 21
13.285326
 31
0.0
  0
LINE
  5
234
100
AcDbEntity
  8
0
 62
7
100
AcDbLine
 10
78.326907
 20
13.285326
 30
0.0
 11
78.526233
 21
13.082332
 31
0.0
  0
LINE
  5
235
100
AcDbEntity
  8
0
 62
7
100
AcDbLine
 10
78.526233
 20
13.082332
 30
0.0
 11
78.571745
 21
12.741693
 31
0.0
  0
LINE
  5
236
100
AcDbEntity
  8
0
 62
7
100
AcDbLine
 10
78.571745
 20
12.741693
 30
0.0
 11
78.460435
 21
12.121450
 31
0.0
  0
LINE
  5
237
100
AcDbEntity
  8
0
 62
7
100
AcDbLine
 10
78.460435
 20
12.121450
 30
0.0
 11
78.092017
 21
11.716698
 31
0.0
  0
LINE
  5
238
100
AcDbEntity
  8
0
 62
7
100
AcDbLine
 10
78.092017
 20
11.716698
 30
0.0
 11
77.414758
 21
11.496520
 31
0.0
  0
LINE
  5
239
100
AcDbEntity
  8
0
 62
7
100
AcDbLine
 10
77.414758
 20
11.496520
 30
0.0
 11
76.376925
 21
11.429997
 31
0.0
  0
LINE
  5
23a
100
AcDbEntity
  8
0
 62
7
100
AcDbLine
 10
76.376925
 20
11.429997
 30
0.0
 11
74.983066
 21
11.577265
 31
0.0
  0
LINE
  5
23b
100
AcDbEntity
  8
0
 62
7
100
AcDbLine
 10
74.983066
 20
11.577265
 30
0.0
 11
74.515906
 21
11.827693
 31
0.0
  0
LINE
  5
23c
100
AcDbEntity
  8
0
 62
7
100
AcDbLine
 10
74.515906
 20
11.827693
 30
0.0
 11
74.034481
 21
12.254955
 31
0.0
  0
LINE
  5
23d
100
AcDbEntity
  8
0
 62
7
100
AcDbLine
 10
74.034481
 20
12.254955
 30
0.0
 11
73.603680
 21
12.739973
 31
0.0
  0
LINE
  5
23e
100
AcDbEntity
  8
0
 62
7
100
AcDbLine
 10
73.603680
 20
12.739973
 30
0.0
 11
73.353645
 21
13.212236
 31
0.0
  0
LINE
  5
23f
100
AcDbEntity
  8
0
 62
7
100
AcDbLine
 10
73.353645
 20
13.212236
 30
0.0
 11
73.209523
 21
14.662291
 31
0.0
  0
LINE
  5
240
100
AcDbEntity
  8
0
 62
7
100
AcDbLine
 10
73.209523
 20
14.662291
 30
0.0
 11
73.209523
 21
16.244672
 31
0.0
  0
LINE
  5
241
100
AcDbEntity
  8
0
 62
7
100
AcDbLine
 10
73.209523
 20
16.244672
 30
0.0
 11
72.382315
 21
15.633093
 31
0.0
  0
LINE
  5
242
100
AcDbEntity
  8
0
 62
7
100
AcDbLine
 10
72.382315
 20
15.633093
 30
0.0
 11
71.398595
 21
15.099726
 31
0.0
  0
LINE
  5
243
100
AcDbEntity
  8
0
 62
7
100
AcDbLine
 10
71.398595
 20
15.099726
 30
0.0
 11
70.195093
 21
14.676191
 31
0.0
  0
LINE
  5
244
100
AcDbEntity
  8
0
 62
7
100
AcDbLine
 10
70.195093
 20
14.676191
 30
0.0
 11
69.169343
 21
14.307679
 31
0.0
  0
LINE
  5
245
100
AcDbEntity
  8
0
 62
7
100
AcDbLine
 10
69.169343
 20
14.307679
 30
0.0
 11
68.836943
 21
13.936258
 31
0.0
  0
LINE
  5
246
100
AcDbEntity
  8
0
 62
7
100
AcDbLine
 10
68.836943
 20
13.936258
 30
0.0
 11
68.930089
 21
13.766711
 31
0.0
  0
LINE
  5
247
100
AcDbEntity
  8
0
 62
7
100
AcDbLine
 10
68.930089
 20
13.766711
 30
0.0
 11
69.195780
 21
13.617143
 31
0.0
  0
LINE
  5
248
100
AcDbEntity
  8
0
 62
7
100
AcDbLine
 10
69.195780
 20
13.617143
 30
0.0
 11
70.243740
 21
13.405553
 31
0.0
  0
LINE
  5
249
100
AcDbEntity
  8
0
 62
7
100
AcDbLine
 10
70.243740
 20
13.405553
 30
0.0
 11
71.368038
 21
13.185063
 31
0.0
  0
LINE
  5
24a
100
AcDbEntity
  8
0
 62
7
100
AcDbLine
 10
71.368038
 20
13.185063
 30
0.0
 11
71.632523
 21
13.005080
 31
0.0
  0
LINE
  5
24b
100
AcDbEntity
  8
0
 62
7
100
AcDbLine
 10
71.632523
 20
13.005080
 30
0.0
 11
71.748709
 21
12.756995
 31
0.0
  0
LINE
  5
24c
100
AcDbEntity
  8
0
 62
7
100
AcDbLine
 10
71.748709
 20
12.756995
 30
0.0
 11
71.720292
 21
12.163923
 31
0.0
  0
LINE
  5
24d
100
AcDbEntity
  8
0
 62
7
100
AcDbLine
 10
71.720292
 20
12.163923
 30
0.0
 11
71.365843
 21
11.750627
 31
0.0
  0
LINE
  5
24e
100
AcDbEntity
  8
0
 62
7
100
AcDbLine
 10
71.365843
 20
11.750627
 30
0.0
 11
70.672020
 21
11.508765
 31
0.0
  0
LINE
  5
24f
100
AcDbEntity
  8
0
 62
7
100
AcDbLine
 10
70.672020
 20
11.508765
 30
0.0
 11
69.625478
 21
11.429997
 31
0.0
  0
LINE
  5
250
100
AcDbEntity
  8
0
 62
7
100
AcDbLine
 10
69.625478
 20
11.429997
 30
0.0
 11
68.224057
 21
11.572171
 31
0.0
  0
LINE
  5
251
100
AcDbEntity
  8
0
 62
7
100
AcDbLine
 10
68.224057
 20
11.572171
 30
0.0
 11
67.763364
 21
11.809678
 31
0.0
  0
LINE
  5
252
100
AcDbEntity
  8
0
 62
7
100
AcDbLine
 10
67.763364
 20
11.809678
 30
0.0
 11
67.304821
 21
12.211279
 31
0.0
  0
LINE
  5
253
100
AcDbEntity
  8
0
 62
7
100
AcDbLine
 10
67.304821
 20
12.211279
 30
0.0
 11
67.304821
 21
12.211279
 31
0.0
  0
LINE
  5
254
100
AcDbEntity
  8
0
 62
7
100
AcDbLine
 10
83.866445
 20
13.758331
 30
0.0
 11
84.418531
 21
15.425251
 31
0.0
  0
LINE
  5
255
100
AcDbEntity
  8
0
 62
7
100
AcDbLine
 10
84.418531
 20
15.425251
 30
0.0
 11
84.780634
 21
17.370555
 31
0.0
  0
LINE
  5
256
100
AcDbEntity
  8
0
 62
7
100
AcDbLine
 10
84.780634
 20
17.370555
 30
0.0
 11
84.719755
 21
17.546002
 31
0.0
  0
LINE
  5
257
100
AcDbEntity
  8
0
 62
7
100
AcDbLine
 10
84.719755
 20
17.546002
 30
0.0
 11
84.554452
 21
17.641707
 31
0.0
  0
LINE
  5
258
100
AcDbEntity
  8
0
 62
7
100
AcDbLine
 10
84.554452
 20
17.641707
 30
0.0
 11
84.014561
 21
17.619170
 31
0.0
  0
LINE
  5
259
100
AcDbEntity
  8
0
 62
7
100
AcDbLine
 10
84.014561
 20
17.619170
 30
0.0
 11
83.368938
 21
17.353504
 31
0.0
  0
LINE
  5
25a
100
AcDbEntity
  8
0
 62
7
100
AcDbLine
 10
83.368938
 20
17.353504
 30
0.0
 11
82.825562
 21
16.895270
 31
0.0
  0
LINE
  5
25b
100
AcDbEntity
  8
0
 62
7
100
AcDbLine
 10
82.825562
 20
16.895270
 30
0.0
 11
82.462394
 21
16.134254
 31
0.0
  0
LINE
  5
25c
100
AcDbEntity
  8
0
 62
7
100
AcDbLine
 10
82.462394
 20
16.134254
 30
0.0
 11
82.251661
 21
15.134382
 31
0.0
  0
LINE
  5
25d
100
AcDbEntity
  8
0
 62
7
100
AcDbLine
 10
82.251661
 20
15.134382
 30
0.0
 11
82.228683
 21
14.189562
 31
0.0
  0
LINE
  5
25e
100
AcDbEntity
  8
0
 62
7
100
AcDbLine
 10
82.228683
 20
14.189562
 30
0.0
 11
82.428783
 21
13.593702
 31
0.0
  0
LINE
  5
25f
100
AcDbEntity
  8
0
 62
7
100
AcDbLine
 10
82.428783
 20
13.593702
 30
0.0
 11
82.740667
 21
13.436129
 31
0.0
  0
LINE
  5
260
100
AcDbEntity
  8
0
 62
7
100
AcDbLine
 10
82.740667
 20
13.436129
 30
0.0
 11
83.149045
 21
13.418464
 31
0.0
  0
LINE
  5
261
100
AcDbEntity
  8
0
 62
7
100
AcDbLine
 10
83.149045
 20
13.418464
 30
0.0
 11
83.556707
 21
13.529576
 31
0.0
  0
LINE
  5
262
100
AcDbEntity
  8
0
 62
7
100
AcDbLine
 10
83.556707
 20
13.529576
 30
0.0
 11
83.866445
 21
13.758331
 31
0.0
  0
LINE
  5
263
100
AcDbEntity
  8
0
 62
7
100
AcDbLine
 10
83.866445
 20
13.758331
 30
0.0
 11
83.866445
 21
13.758331
 31
0.0
  0
LINE
  5
264
100
AcDbEntity
  8
0
 62
7
100
AcDbLine
 10
70.520326
 20
16.610296
 30
0.0
 11
70.825661
 21
16.998507
 31
0.0
  0
LINE
  5
265
100
AcDbEntity
  8
0
 62
7
100
AcDbLine
 10
70.825661
 20
16.998507
 30
0.0
 11
70.866561
 21
17.428722
 31
0.0
  0
LINE
  5
266
100
AcDbEntity
  8
0
 62
7
100
AcDbLine
 10
70.866561
 20
17.428722
 30
0.0
 11
70.668024
 21
17.777426
 31
0.0
  0
LINE
  5
267
100
AcDbEntity
  8
0
 62
7
100
AcDbLine
 10
70.668024
 20
17.777426
 30
0.0
 11
70.255045
 21
17.921108
 31
0.0
  0
LINE
  5
268
100
AcDbEntity
  8
0
 62
7
100
AcDbLine
 10
70.255045
 20
17.921108
 30
0.0
 11
69.807317
 21
17.762033
 31
0.0
  0
LINE
  5
269
100
AcDbEntity
  8
0
 62
7
100
AcDbLine
 10
69.807317
 20
17.762033
 30
0.0
 11
69.293342
 21
17.379314
 31
0.0
  0
LINE
  5
26a
100
AcDbEntity
  8
0
 62
7
100
AcDbLine
 10
69.293342
 20
17.379314
 30
0.0
 11
68.869949
 21
16.914715
 31
0.0
  0
LINE
  5
26b
100
AcDbEntity
  8
0
 62
7
100
AcDbLine
 10
68.869949
 20
16.914715
 30
0.0
 11
68.693967
 21
16.509997
 31
0.0
  0
LINE
  5
26c
100
AcDbEntity
  8
0
 62
7
100
AcDbLine
 10
68.693967
 20
16.509997
 30
0.0
 11
68.893699
 21
16.289304
 31
0.0
  0
LINE
  5
26d
100
AcDbEntity
  8
0
 62
7
100
AcDbLine
 10
68.893699
 20
16.289304
 30
0.0
 11
69.378783
 21
16.238722
 31
0.0
  0
LINE
  5
26e
100
AcDbEntity
  8
0
 62
7
100
AcDbLine
 10
69.378783
 20
16.238722
 30
0.0
 11
69.978049
 21
16.348853
 31
0.0
  0
LINE
  5
26f
100
AcDbEntity
  8
0
 62
7
100
AcDbLine
 10
69.978049
 20
16.348853
 30
0.0
 11
70.520326
 21
16.610296
 31
0.0
  0
LINE
  5
270
100
AcDbEntity
  8
0
 62
7
100
AcDbLine
 10
70.520326
 20
16.610296
 30
0.0
 11
70.520326
 21
16.610296
 31
0.0
  0
LINE
  5
271
100
AcDbEntity
  8
0
 62
7
100
AcDbLine
 10
77.293659
 20
16.610296
 30
0.0
 11
77.598994
 21
16.998507
 31
0.0
  0
LINE
  5
272
100
AcDbEntity
  8
0
 62
7
100
AcDbLine
 10
77.598994
 20
16.998507
 30
0.0
 11
77.639895
 21
17.428722
 31
0.0
  0
LINE
  5
273
100
AcDbEntity
  8
0
 62
7
100
AcDbLine
 10
77.639895
 20
17.428722
 30
0.0
 11
77.441357
 21
17.777426
 31
0.0
  0
LINE
  5
274
100
AcDbEntity
  8
0
 62
7
100
AcDbLine
 10
77.441357
 20
17.777426
 30
0.0
 11
77.028379
 21
17.921108
 31
0.0
  0
LINE
  5
275
100
AcDbEntity
  8
0
 62
7
100
AcDbLine
 10
77.028379
 20
17.921108
 30
0.0
 11
76.538747
 21
17.748276
 31
0.0
  0
LINE
  5
276
100
AcDbEntity
  8
0
 62
7
100
AcDbLine
 10
76.538747
 20
17.748276
 30
0.0
 11
76.028556
 21
17.341771
 31
0.0
  0
LINE
  5
277
100
AcDbEntity
  8
0
 62
7
100
AcDbLine
 10
76.028556
 20
17.341771
 30
0.0
 11
75.664875
 21
16.869584
 31
0.0
  0
LINE
  5
278
100
AcDbEntity
  8
0
 62
7
100
AcDbLine
 10
75.664875
 20
16.869584
 30
0.0
 11
75.614773
 21
16.499705
 31
0.0
  0
LINE
  5
279
100
AcDbEntity
  8
0
 62
7
100
AcDbLine
 10
75.614773
 20
16.499705
 30
0.0
 11
75.892991
 21
16.289859
 31
0.0
  0
LINE
  5
27a
100
AcDbEntity
  8
0
 62
7
100
AcDbLine
 10
75.892991
 20
16.289859
 30
0.0
 11
76.315926
 21
16.241662
 31
0.0
  0
LINE
  5
27b
100
AcDbEntity
  8
0
 62
7
100
AcDbLine
 10
76.315926
 20
16.241662
 30
0.0
 11
76.808005
 21
16.350133
 31
0.0
  0
LINE
  5
27c
100
AcDbEntity
  8
0
 62
7
100
AcDbLine
 10
76.808005
 20
16.350133
 30
0.0
 11
77.293659
 21
16.610296
 31
0.0
  0
LINE
  5
27d
100
AcDbEntity
  8
0
 62
7
100
AcDbLine
 10
77.293659
 20
16.610296
 30
0.0
 11
77.293659
 21
16.610296
 31
0.0
  0
LINE
  5
27e
100
AcDbEntity
  8
0
 62
7
100
AcDbLine
 10
88.982372
 20
11.853229
 30
0.0
 11
88.317421
 21
12.403487
 31
0.0
  0
LINE
  5
27f
100
AcDbEntity
  8
0
 62
7
100
AcDbLine
 10
88.317421
 20
12.403487
 30
0.0
 11
87.875472
 21
13.197234
 31
0.0
  0
LINE
  5
280
100
AcDbEntity
  8
0
 62
7
100
AcDbLine
 10
87.875472
 20
13.197234
 30
0.0
 11
87.665309
 21
14.210138
 31
0.0
  0
LINE
  5
281
100
AcDbEntity
  8
0
 62
7
100
AcDbLine
 10
87.665309
 20
14.210138
 30
0.0
 11
87.695713
 21
15.417868
 31
0.0
  0
LINE
  5
282
100
AcDbEntity
  8
0
 62
7
100
AcDbLine
 10
87.695713
 20
15.417868
 30
0.0
 11
87.888862
 21
16.427940
 31
0.0
  0
LINE
  5
283
100
AcDbEntity
  8
0
 62
7
100
AcDbLine
 10
87.888862
 20
16.427940
 30
0.0
 11
88.209101
 21
17.330744
 31
0.0
  0
LINE
  5
284
100
AcDbEntity
  8
0
 62
7
100
AcDbLine
 10
88.209101
 20
17.330744
 30
0.0
 11
88.644101
 21
18.114018
 31
0.0
  0
LINE
  5
285
100
AcDbEntity
  8
0
 62
7
100
AcDbLine
 10
88.644101
 20
18.114018
 30
0.0
 11
89.181537
 21
18.765499
 31
0.0
  0
LINE
  5
286
100
AcDbEntity
  8
0
 62
7
100
AcDbLine
 10
89.181537
 20
18.765499
 30
0.0
 11
89.809082
 21
19.272924
 31
0.0
  0
LINE
  5
287
100
AcDbEntity
  8
0
 62
7
100
AcDbLine
 10
89.809082
 20
19.272924
 30
0.0
 11
90.514408
 21
19.624032
 31
0.0
  0
LINE
  5
288
100
AcDbEntity
  8
0
 62
7
100
AcDbLine
 10
90.514408
 20
19.624032
 30
0.0
 11
91.285189
 21
19.806558
 31
0.0
  0
LINE
  5
289
100
AcDbEntity
  8
0
 62
7
100
AcDbLine
 10
91.285189
 20
19.806558
 30
0.0
 11
92.109098
 21
19.808241
 31
0.0
  0
LINE
  5
28a
100
AcDbEntity
  8
0
 62
7
100
AcDbLine
 10
92.109098
 20
19.808241
 30
0.0
 11
93.271021
 21
19.514671
 31
0.0
  0
LINE
  5
28b
100
AcDbEntity
  8
0
 62
7
100
AcDbLine
 10
93.271021
 20
19.514671
 30
0.0
 11
94.062504
 21
18.905533
 31
0.0
  0
LINE
  5
28c
100
AcDbEntity
  8
0
 62
7
100
AcDbLine
 10
94.062504
 20
18.905533
 30
0.0
 11
94.514612
 21
17.941530
 31
0.0
  0
LINE
  5
28d
100
AcDbEntity
  8
0
 62
7
100
AcDbLine
 10
94.514612
 20
17.941530
 30
0.0
 11
94.658411
 21
16.583364
 31
0.0
  0
LINE
  5
28e
100
AcDbEntity
  8
0
 62
7
100
AcDbLine
 10
94.658411
 20
16.583364
 30
0.0
 11
94.526729
 21
15.237666
 31
0.0
  0
LINE
  5
28f
100
AcDbEntity
  8
0
 62
7
100
AcDbLine
 10
94.526729
 20
15.237666
 30
0.0
 11
94.156249
 21
14.046098
 31
0.0
  0
LINE
  5
290
100
AcDbEntity
  8
0
 62
7
100
AcDbLine
 10
94.156249
 20
14.046098
 30
0.0
 11
93.583825
 21
13.039371
 31
0.0
  0
LINE
  5
291
100
AcDbEntity
  8
0
 62
7
100
AcDbLine
 10
93.583825
 20
13.039371
 30
0.0
 11
92.846309
 21
12.248195
 31
0.0
  0
LINE
  5
292
100
AcDbEntity
  8
0
 62
7
100
AcDbLine
 10
92.846309
 20
12.248195
 30
0.0
 11
91.980554
 21
11.703282
 31
0.0
  0
LINE
  5
293
100
AcDbEntity
  8
0
 62
7
100
AcDbLine
 10
91.980554
 20
11.703282
 30
0.0
 11
91.023411
 21
11.435343
 31
0.0
  0
LINE
  5
294
100
AcDbEntity
  8
0
 62
7
100
AcDbLine
 10
91.023411
 20
11.435343
 30
0.0
 11
90.011733
 21
11.475088
 31
0.0
  0
LINE
  5
295
100
AcDbEntity
  8
0
 62
7
100
AcDbLine
 10
90.011733
 20
11.475088
 30
0.0
 11
88.982372
 21
11.853229
 31
0.0
  0
LINE
  5
296
100
AcDbEntity
  8
0
 62
7
100
AcDbLine
 10
88.982372
 20
11.853229
 30
0.0
 11
88.982372
 21
11.853229
 31
0.0
  0
LINE
  5
297
100
AcDbEntity
  8
0
 62
7
100
AcDbLine
 10
91.855146
 20
14.252219
 30
0.0
 11
92.328075
 21
15.102661
 31
0.0
  0
LINE
  5
298
100
AcDbEntity
  8
0
 62
7
100
AcDbLine
 10
92.328075
 20
15.102661
 30
0.0
 11
92.547198
 21
15.936431
 31
0.0
  0
LINE
  5
299
100
AcDbEntity
  8
0
 62
7
100
AcDbLine
 10
92.547198
 20
15.936431
 30
0.0
 11
92.506191
 21
16.696928
 31
0.0
  0
LINE
  5
29a
100
AcDbEntity
  8
0
 62
7
100
AcDbLine
 10
92.506191
 20
16.696928
 30
0.0
 11
92.198732
 21
17.327555
 31
0.0
  0
LINE
  5
29b
100
AcDbEntity
  8
0
 62
7
100
AcDbLine
 10
92.198732
 20
17.327555
 30
0.0
 11
91.831375
 21
17.642935
 31
0.0
  0
LINE
  5
29c
100
AcDbEntity
  8
0
 62
7
100
AcDbLine
 10
91.831375
 20
17.642935
 30
0.0
 11
91.441236
 21
17.742584
 31
0.0
  0
LINE
  5
29d
100
AcDbEntity
  8
0
 62
7
100
AcDbLine
 10
91.441236
 20
17.742584
 30
0.0
 11
91.050435
 21
17.648255
 31
0.0
  0
LINE
  5
29e
100
AcDbEntity
  8
0
 62
7
100
AcDbLine
 10
91.050435
 20
17.648255
 30
0.0
 11
90.681089
 21
17.381698
 31
0.0
  0
LINE
  5
29f
100
AcDbEntity
  8
0
 62
7
100
AcDbLine
 10
90.681089
 20
17.381698
 30
0.0
 11
90.095239
 21
16.418911
 31
0.0
  0
LINE
  5
2a0
100
AcDbEntity
  8
0
 62
7
100
AcDbLine
 10
90.095239
 20
16.418911
 30
0.0
 11
89.922971
 21
15.766183
 31
0.0
  0
LINE
  5
2a1
100
AcDbEntity
  8
0
 62
7
100
AcDbLine
 10
89.922971
 20
15.766183
 30
0.0
 11
89.860634
 21
15.028235
 31
0.0
  0
LINE
  5
2a2
100
AcDbEntity
  8
0
 62
7
100
AcDbLine
 10
89.860634
 20
15.028235
 30
0.0
 11
90.040389
 21
14.011735
 31
0.0
  0
LINE
  5
2a3
100
AcDbEntity
  8
0
 62
7
100
AcDbLine
 10
90.040389
 20
14.011735
 30
0.0
 11
90.244421
 21
13.695711
 31
0.0
  0
LINE
  5
2a4
100
AcDbEntity
  8
0
 62
7
100
AcDbLine
 10
90.244421
 20
13.695711
 30
0.0
 11
90.506190
 21
13.514983
 31
0.0
  0
LINE
  5
2a5
100
AcDbEntity
  8
0
 62
7
100
AcDbLine
 10
90.506190
 20
13.514983
 30
0.0
 11
90.811921
 21
13.474910
 31
0.0
  0
LINE
  5
2a6
100
AcDbEntity
  8
0
 62
7
100
AcDbLine
 10
90.811921
 20
13.474910
 30
0.0
 11
91.147841
 21
13.580852
 31
0.0
  0
LINE
  5
2a7
100
AcDbEntity
  8
0
 62
7
100
AcDbLine
 10
91.147841
 20
13.580852
 30
0.0
 11
91.855146
 21
14.252219
 31
0.0
  0
LINE
  5
2a8
100
AcDbEntity
  8
0
 62
7
100
AcDbLine
 10
91.855146
 20
14.252219
 30
0.0
 11
91.855146
 21
14.252219
 31
0.0
  0
LINE
  5
2a9
100
AcDbEntity
  8
0
 62
7
100
AcDbLine
 10
94.999342
 20
11.782775
 30
0.0
 11
94.949282
 21
12.205384
 31
0.0
  0
LINE
  5
2aa
100
AcDbEntity
  8
0
 62
7
100
AcDbLine
 10
94.949282
 20
12.205384
 30
0.0
 11
95.031796
 21
13.071016
 31
0.0
  0
LINE
  5
2ab
100
AcDbEntity
  8
0
 62
7
100
AcDbLine
 10
95.031796
 20
13.071016
 30
0.0
 11
95.472305
 21
15.548665
 31
0.0
  0
LINE
  5
2ac
100
AcDbEntity
  8
0
 62
7
100
AcDbLine
 10
95.472305
 20
15.548665
 30
0.0
 11
96.076390
 21
18.050353
 31
0.0
  0
LINE
  5
2ad
100
AcDbEntity
  8
0
 62
7
100
AcDbLine
 10
96.076390
 20
18.050353
 30
0.0
 11
96.599573
 21
19.410714
 31
0.0
  0
LINE
  5
2ae
100
AcDbEntity
  8
0
 62
7
100
AcDbLine
 10
96.599573
 20
19.410714
 30
0.0
 11
96.940471
 21
19.577049
 31
0.0
  0
LINE
  5
2af
100
AcDbEntity
  8
0
 62
7
100
AcDbLine
 10
96.940471
 20
19.577049
 30
0.0
 11
97.684028
 21
19.663692
 31
0.0
  0
LINE
  5
2b0
100
AcDbEntity
  8
0
 62
7
100
AcDbLine
 10
97.684028
 20
19.663692
 30
0.0
 11
101.220078
 21
19.639549
 31
0.0
  0
LINE
  5
2b1
100
AcDbEntity
  8
0
 62
7
100
AcDbLine
 10
101.220078
 20
19.639549
 30
0.0
 11
103.432235
 21
19.687713
 31
0.0
  0
LINE
  5
2b2
100
AcDbEntity
  8
0
 62
7
100
AcDbLine
 10
103.432235
 20
19.687713
 30
0.0
 11
104.704379
 21
19.621348
 31
0.0
  0
LINE
  5
2b3
100
AcDbEntity
  8
0
 62
7
100
AcDbLine
 10
104.704379
 20
19.621348
 30
0.0
 11
105.077405
 21
19.428606
 31
0.0
  0
LINE
  5
2b4
100
AcDbEntity
  8
0
 62
7
100
AcDbLine
 10
105.077405
 20
19.428606
 30
0.0
 11
105.407790
 21
19.089289
 31
0.0
  0
LINE
  5
2b5
100
AcDbEntity
  8
0
 62
7
100
AcDbLine
 10
105.407790
 20
19.089289
 30
0.0
 11
105.793877
 21
18.325051
 31
0.0
  0
LINE
  5
2b6
100
AcDbEntity
  8
0
 62
7
100
AcDbLine
 10
105.793877
 20
18.325051
 30
0.0
 11
105.932727
 21
17.258620
 31
0.0
  0
LINE
  5
2b7
100
AcDbEntity
  8
0
 62
7
100
AcDbLine
 10
105.932727
 20
17.258620
 30
0.0
 11
105.824965
 21
15.840279
 31
0.0
  0
LINE
  5
2b8
100
AcDbEntity
  8
0
 62
7
100
AcDbLine
 10
105.824965
 20
15.840279
 30
0.0
 11
105.471211
 21
14.020312
 31
0.0
  0
LINE
  5
2b9
100
AcDbEntity
  8
0
 62
7
100
AcDbLine
 10
105.471211
 20
14.020312
 30
0.0
 11
105.078906
 21
12.671362
 31
0.0
  0
LINE
  5
2ba
100
AcDbEntity
  8
0
 62
7
100
AcDbLine
 10
105.078906
 20
12.671362
 30
0.0
 11
104.632494
 21
11.855782
 31
0.0
  0
LINE
  5
2bb
100
AcDbEntity
  8
0
 62
7
100
AcDbLine
 10
104.632494
 20
11.855782
 30
0.0
 11
104.079899
 21
11.513201
 31
0.0
  0
LINE
  5
2bc
100
AcDbEntity
  8
0
 62
7
100
AcDbLine
 10
104.079899
 20
11.513201
 30
0.0
 11
103.369048
 21
11.583249
 31
0.0
  0
LINE
  5
2bd
100
AcDbEntity
  8
0
 62
7
100
AcDbLine
 10
103.369048
 20
11.583249
 30
0.0
 11
102.940226
 21
11.883404
 31
0.0
  0
LINE
  5
2be
100
AcDbEntity
  8
0
 62
7
100
AcDbLine
 10
102.940226
 20
11.883404
 30
0.0
 11
102.950117
 21
12.516107
 31
0.0
  0
LINE
  5
2bf
100
AcDbEntity
  8
0
 62
7
100
AcDbLine
 10
102.950117
 20
12.516107
 30
0.0
 11
103.615342
 21
16.222535
 31
0.0
  0
LINE
  5
2c0
100
AcDbEntity
  8
0
 62
7
100
AcDbLine
 10
103.615342
 20
16.222535
 30
0.0
 11
103.581310
 21
17.080301
 31
0.0
  0
LINE
  5
2c1
100
AcDbEntity
  8
0
 62
7
100
AcDbLine
 10
103.581310
 20
17.080301
 30
0.0
 11
103.324079
 21
17.560838
 31
0.0
  0
LINE
  5
2c2
100
AcDbEntity
  8
0
 62
7
100
AcDbLine
 10
103.324079
 20
17.560838
 30
0.0
 11
102.817891
 21
17.836957
 31
0.0
  0
LINE
  5
2c3
100
AcDbEntity
  8
0
 62
7
100
AcDbLine
 10
102.817891
 20
17.836957
 30
0.0
 11
102.594930
 21
17.750563
 31
0.0
  0
LINE
  5
2c4
100
AcDbEntity
  8
0
 62
7
100
AcDbLine
 10
102.594930
 20
17.750563
 30
0.0
 11
102.384649
 21
17.502592
 31
0.0
  0
LINE
  5
2c5
100
AcDbEntity
  8
0
 62
7
100
AcDbLine
 10
102.384649
 20
17.502592
 30
0.0
 11
101.979905
 21
16.486090
 31
0.0
  0
LINE
  5
2c6
100
AcDbEntity
  8
0
 62
7
100
AcDbLine
 10
101.979905
 20
16.486090
 30
0.0
 11
101.559210
 21
14.715798
 31
0.0
  0
LINE
  5
2c7
100
AcDbEntity
  8
0
 62
7
100
AcDbLine
 10
101.559210
 20
14.715798
 30
0.0
 11
101.094063
 21
12.864137
 31
0.0
  0
LINE
  5
2c8
100
AcDbEntity
  8
0
 62
7
100
AcDbLine
 10
101.094063
 20
12.864137
 30
0.0
 11
100.585592
 21
11.792544
 31
0.0
  0
LINE
  5
2c9
100
AcDbEntity
  8
0
 62
7
100
AcDbLine
 10
100.585592
 20
11.792544
 30
0.0
 11
100.296770
 21
11.525693
 31
0.0
  0
LINE
  5
2ca
100
AcDbEntity
  8
0
 62
7
100
AcDbLine
 10
100.296770
 20
11.525693
 30
0.0
 11
99.975107
 21
11.425563
 31
0.0
  0
LINE
  5
2cb
100
AcDbEntity
  8
0
 62
7
100
AcDbLine
 10
99.975107
 20
11.425563
 30
0.0
 11
99.613268
 21
11.482721
 31
0.0
  0
LINE
  5
2cc
100
AcDbEntity
  8
0
 62
7
100
AcDbLine
 10
99.613268
 20
11.482721
 30
0.0
 11
99.203916
 21
11.687737
 31
0.0
  0
LINE
  5
2cd
100
AcDbEntity
  8
0
 62
7
100
AcDbLine
 10
99.203916
 20
11.687737
 30
0.0
 11
99.020228
 21
11.911495
 31
0.0
  0
LINE
  5
2ce
100
AcDbEntity
  8
0
 62
7
100
AcDbLine
 10
99.020228
 20
11.911495
 30
0.0
 11
98.973544
 21
12.362520
 31
0.0
  0
LINE
  5
2cf
100
AcDbEntity
  8
0
 62
7
100
AcDbLine
 10
98.973544
 20
12.362520
 30
0.0
 11
99.313625
 21
14.526960
 31
0.0
  0
LINE
  5
2d0
100
AcDbEntity
  8
0
 62
7
100
AcDbLine
 10
99.313625
 20
14.526960
 30
0.0
 11
99.666987
 21
16.780017
 31
0.0
  0
LINE
  5
2d1
100
AcDbEntity
  8
0
 62
7
100
AcDbLine
 10
99.666987
 20
16.780017
 30
0.0
 11
99.597283
 21
17.250635
 31
0.0
  0
LINE
  5
2d2
100
AcDbEntity
  8
0
 62
7
100
AcDbLine
 10
99.597283
 20
17.250635
 30
0.0
 11
99.368396
 21
17.565410
 31
0.0
  0
LINE
  5
2d3
100
AcDbEntity
  8
0
 62
7
100
AcDbLine
 10
99.368396
 20
17.565410
 30
0.0
 11
98.855957
 21
17.833943
 31
0.0
  0
LINE
  5
2d4
100
AcDbEntity
  8
0
 62
7
100
AcDbLine
 10
98.855957
 20
17.833943
 30
0.0
 11
98.623051
 21
17.743561
 31
0.0
  0
LINE
  5
2d5
100
AcDbEntity
  8
0
 62
7
100
AcDbLine
 10
98.623051
 20
17.743561
 30
0.0
 11
98.399152
 21
17.493590
 31
0.0
  0
LINE
  5
2d6
100
AcDbEntity
  8
0
 62
7
100
AcDbLine
 10
98.399152
 20
17.493590
 30
0.0
 11
97.958763
 21
16.485405
 31
0.0
  0
LINE
  5
2d7
100
AcDbEntity
  8
0
 62
7
100
AcDbLine
 10
97.958763
 20
16.485405
 30
0.0
 11
97.495577
 21
14.750443
 31
0.0
  0
LINE
  5
2d8
100
AcDbEntity
  8
0
 62
7
100
AcDbLine
 10
97.495577
 20
14.750443
 30
0.0
 11
96.986087
 21
12.823671
 31
0.0
  0
LINE
  5
2d9
100
AcDbEntity
  8
0
 62
7
100
AcDbLine
 10
96.986087
 20
12.823671
 30
0.0
 11
96.592935
 21
11.803891
 31
0.0
  0
LINE
  5
2da
100
AcDbEntity
  8
0
 62
7
100
AcDbLine
 10
96.592935
 20
11.803891
 30
0.0
 11
96.232614
 21
11.536718
 31
0.0
  0
LINE
  5
2db
100
AcDbEntity
  8
0
 62
7
100
AcDbLine
 10
96.232614
 20
11.536718
 30
0.0
 11
95.792871
 21
11.443426
 31
0.0
  0
LINE
  5
2dc
100
AcDbEntity
  8
0
 62
7
100
AcDbLine
 10
95.792871
 20
11.443426
 30
0.0
 11
95.354761
 21
11.525089
 31
0.0
  0
LINE
  5
2dd
100
AcDbEntity
  8
0
 62
7
100
AcDbLine
 10
95.354761
 20
11.525089
 30
0.0
 11
94.999342
 21
11.782781
 31
0.0
  0
LINE
  5
2de
100
AcDbEntity
  8
0
 62
7
100
AcDbLine
 10
94.999342
 20
11.782781
 30
0.0
 11
94.999342
 21
11.782775
 31
0.0
  0
LINE
  5
2df
100
AcDbEntity
  8
0
 62
7
100
AcDbLine
 10
109.827856
 20
11.608051
 30
0.0
 11
109.465744
 21
11.912201
 31
0.0
  0
LINE
  5
2e0
100
AcDbEntity
  8
0
 62
7
100
AcDbLine
 10
109.465744
 20
11.912201
 30
0.0
 11
109.346811
 21
12.509023
 31
0.0
  0
LINE
  5
2e1
100
AcDbEntity
  8
0
 62
7
100
AcDbLine
 10
109.346811
 20
12.509023
 30
0.0
 11
109.649582
 21
14.449950
 31
0.0
  0
LINE
  5
2e2
100
AcDbEntity
  8
0
 62
7
100
AcDbLine
 10
109.649582
 20
14.449950
 30
0.0
 11
110.321191
 21
17.550792
 31
0.0
  0
LINE
  5
2e3
100
AcDbEntity
  8
0
 62
7
100
AcDbLine
 10
110.321191
 20
17.550792
 30
0.0
 11
111.053447
 21
20.486373
 31
0.0
  0
LINE
  5
2e4
100
AcDbEntity
  8
0
 62
7
100
AcDbLine
 10
111.053447
 20
20.486373
 30
0.0
 11
111.538156
 21
21.931520
 31
0.0
  0
LINE
  5
2e5
100
AcDbEntity
  8
0
 62
7
100
AcDbLine
 10
111.538156
 20
21.931520
 30
0.0
 11
112.258451
 21
22.219993
 31
0.0
  0
LINE
  5
2e6
100
AcDbEntity
  8
0
 62
7
100
AcDbLine
 10
112.258451
 20
22.219993
 30
0.0
 11
113.472571
 21
22.369053
 31
0.0
  0
LINE
  5
2e7
100
AcDbEntity
  8
0
 62
7
100
AcDbLine
 10
113.472571
 20
22.369053
 30
0.0
 11
114.815058
 21
22.358851
 31
0.0
  0
LINE
  5
2e8
100
AcDbEntity
  8
0
 62
7
100
AcDbLine
 10
114.815058
 20
22.358851
 30
0.0
 11
115.920455
 21
22.169537
 31
0.0
  0
LINE
  5
2e9
100
AcDbEntity
  8
0
 62
7
100
AcDbLine
 10
115.920455
 20
22.169537
 30
0.0
 11
116.883299
 21
21.647235
 31
0.0
  0
LINE
  5
2ea
100
AcDbEntity
  8
0
 62
7
100
AcDbLine
 10
116.883299
 20
21.647235
 30
0.0
 11
117.786528
 21
20.857393
 31
0.0
  0
LINE
  5
2eb
100
AcDbEntity
  8
0
 62
7
100
AcDbLine
 10
117.786528
 20
20.857393
 30
0.0
 11
118.246136
 21
20.278274
 31
0.0
  0
LINE
  5
2ec
100
AcDbEntity
  8
0
 62
7
100
AcDbLine
 10
118.246136
 20
20.278274
 30
0.0
 11
118.505903
 21
19.736851
 31
0.0
  0
LINE
  5
2ed
100
AcDbEntity
  8
0
 62
7
100
AcDbLine
 10
118.505903
 20
19.736851
 30
0.0
 11
118.621175
 21
19.052185
 31
0.0
  0
LINE
  5
2ee
100
AcDbEntity
  8
0
 62
7
100
AcDbLine
 10
118.621175
 20
19.052185
 30
0.0
 11
118.647300
 21
18.043336
 31
0.0
  0
LINE
  5
2ef
100
AcDbEntity
  8
0
 62
7
100
AcDbLine
 10
118.647300
 20
18.043336
 30
0.0
 11
118.544885
 21
16.598047
 31
0.0
  0
LINE
  5
2f0
100
AcDbEntity
  8
0
 62
7
100
AcDbLine
 10
118.544885
 20
16.598047
 30
0.0
 11
118.239467
 21
15.327924
 31
0.0
  0
LINE
  5
2f1
100
AcDbEntity
  8
0
 62
7
100
AcDbLine
 10
118.239467
 20
15.327924
 30
0.0
 11
117.733784
 21
14.235773
 31
0.0
  0
LINE
  5
2f2
100
AcDbEntity
  8
0
 62
7
100
AcDbLine
 10
117.733784
 20
14.235773
 30
0.0
 11
117.030578
 21
13.324397
 31
0.0
  0
LINE
  5
2f3
100
AcDbEntity
  8
0
 62
7
100
AcDbLine
 10
117.030578
 20
13.324397
 30
0.0
 11
116.132586
 21
12.596602
 31
0.0
  0
LINE
  5
2f4
100
AcDbEntity
  8
0
 62
7
100
AcDbLine
 10
116.132586
 20
12.596602
 30
0.0
 11
115.042550
 21
12.055191
 31
0.0
  0
LINE
  5
2f5
100
AcDbEntity
  8
0
 62
7
100
AcDbLine
 10
115.042550
 20
12.055191
 30
0.0
 11
113.763208
 21
11.702970
 31
0.0
  0
LINE
  5
2f6
100
AcDbEntity
  8
0
 62
7
100
AcDbLine
 10
113.763208
 20
11.702970
 30
0.0
 11
112.297300
 21
11.542742
 31
0.0
  0
LINE
  5
2f7
100
AcDbEntity
  8
0
 62
7
100
AcDbLine
 10
112.297300
 20
11.542742
 30
0.0
 11
109.827856
 21
11.608051
 31
0.0
  0
LINE
  5
2f8
100
AcDbEntity
  8
0
 62
7
100
AcDbLine
 10
109.827856
 20
11.608051
 30
0.0
 11
109.827856
 21
11.608051
 31
0.0
  0
LINE
  5
2f9
100
AcDbEntity
  8
0
 62
7
100
AcDbLine
 10
115.037997
 20
14.438819
 30
0.0
 11
115.709558
 21
15.226552
 31
0.0
  0
LINE
  5
2fa
100
AcDbEntity
  8
0
 62
7
100
AcDbLine
 10
115.709558
 20
15.226552
 30
0.0
 11
116.143145
 21
16.130775
 31
0.0
  0
LINE
  5
2fb
100
AcDbEntity
  8
0
 62
7
100
AcDbLine
 10
116.143145
 20
16.130775
 30
0.0
 11
116.347971
 21
17.083210
 31
0.0
  0
LINE
  5
2fc
100
AcDbEntity
  8
0
 62
7
100
AcDbLine
 10
116.347971
 20
17.083210
 30
0.0
 11
116.333253
 21
18.015582
 31
0.0
  0
LINE
  5
2fd
100
AcDbEntity
  8
0
 62
7
100
AcDbLine
 10
116.333253
 20
18.015582
 30
0.0
 11
116.108207
 21
18.859613
 31
0.0
  0
LINE
  5
2fe
100
AcDbEntity
  8
0
 62
7
100
AcDbLine
 10
116.108207
 20
18.859613
 30
0.0
 11
115.682047
 21
19.547026
 31
0.0
  0
LINE
  5
2ff
100
AcDbEntity
  8
0
 62
7
100
AcDbLine
 10
115.682047
 20
19.547026
 30
0.0
 11
115.063989
 21
20.009543
 31
0.0
  0
LINE
  5
300
100
AcDbEntity
  8
0
 62
7
100
AcDbLine
 10
115.063989
 20
20.009543
 30
0.0
 11
114.263249
 21
20.178889
 31
0.0
  0
LINE
  5
301
100
AcDbEntity
  8
0
 62
7
100
AcDbLine
 10
114.263249
 20
20.178889
 30
0.0
 11
113.640199
 21
20.127789
 31
0.0
  0
LINE
  5
302
100
AcDbEntity
  8
0
 62
7
100
AcDbLine
 10
113.640199
 20
20.127789
 30
0.0
 11
113.422882
 21
19.984691
 31
0.0
  0
LINE
  5
303
100
AcDbEntity
  8
0
 62
7
100
AcDbLine
 10
113.422882
 20
19.984691
 30
0.0
 11
113.235109
 21
19.692807
 31
0.0
  0
LINE
  5
304
100
AcDbEntity
  8
0
 62
7
100
AcDbLine
 10
113.235109
 20
19.692807
 30
0.0
 11
112.848413
 21
18.451422
 31
0.0
  0
LINE
  5
305
100
AcDbEntity
  8
0
 62
7
100
AcDbLine
 10
112.848413
 20
18.451422
 30
0.0
 11
112.280545
 21
15.981110
 31
0.0
  0
LINE
  5
306
100
AcDbEntity
  8
0
 62
7
100
AcDbLine
 10
112.280545
 20
15.981110
 30
0.0
 11
111.983410
 21
14.294266
 31
0.0
  0
LINE
  5
307
100
AcDbEntity
  8
0
 62
7
100
AcDbLine
 10
111.983410
 20
14.294266
 30
0.0
 11
112.012195
 21
13.890089
 31
0.0
  0
LINE
  5
308
100
AcDbEntity
  8
0
 62
7
100
AcDbLine
 10
112.012195
 20
13.890089
 30
0.0
 11
112.154270
 21
13.688960
 31
0.0
  0
LINE
  5
309
100
AcDbEntity
  8
0
 62
7
100
AcDbLine
 10
112.154270
 20
13.688960
 30
0.0
 11
112.715729
 21
13.592671
 31
0.0
  0
LINE
  5
30a
100
AcDbEntity
  8
0
 62
7
100
AcDbLine
 10
112.715729
 20
13.592671
 30
0.0
 11
113.523896
 21
13.722058
 31
0.0
  0
LINE
  5
30b
100
AcDbEntity
  8
0
 62
7
100
AcDbLine
 10
113.523896
 20
13.722058
 30
0.0
 11
114.368182
 21
14.022360
 31
0.0
  0
LINE
  5
30c
100
AcDbEntity
  8
0
 62
7
100
AcDbLine
 10
114.368182
 20
14.022360
 30
0.0
 11
115.037997
 21
14.438819
 31
0.0
  0
LINE
  5
30d
100
AcDbEntity
  8
0
 62
7
100
AcDbLine
 10
115.037997
 20
14.438819
 30
0.0
 11
115.037997
 21
14.438819
 31
0.0
  0
LINE
  5
30e
100
AcDbEntity
  8
0
 62
7
100
AcDbLine
 10
119.919044
 20
12.108155
 30
0.0
 11
119.366334
 21
12.859627
 31
0.0
  0
LINE
  5
30f
100
AcDbEntity
  8
0
 62
7
100
AcDbLine
 10
119.366334
 20
12.859627
 30
0.0
 11
119.046229
 21
13.740379
 31
0.0
  0
LINE
  5
310
100
AcDbEntity
  8
0
 62
7
100
AcDbLine
 10
119.046229
 20
13.740379
 30
0.0
 11
118.949194
 21
14.706483
 31
0.0
  0
LINE
  5
311
100
AcDbEntity
  8
0
 62
7
100
AcDbLine
 10
118.949194
 20
14.706483
 30
0.0
 11
119.065690
 21
15.714016
 31
0.0
  0
LINE
  5
312
100
AcDbEntity
  8
0
 62
7
100
AcDbLine
 10
119.065690
 20
15.714016
 30
0.0
 11
119.386180
 21
16.719051
 31
0.0
  0
LINE
  5
313
100
AcDbEntity
  8
0
 62
7
100
AcDbLine
 10
119.386180
 20
16.719051
 30
0.0
 11
119.901126
 21
17.677665
 31
0.0
  0
LINE
  5
314
100
AcDbEntity
  8
0
 62
7
100
AcDbLine
 10
119.901126
 20
17.677665
 30
0.0
 11
120.600992
 21
18.545932
 31
0.0
  0
LINE
  5
315
100
AcDbEntity
  8
0
 62
7
100
AcDbLine
 10
120.600992
 20
18.545932
 30
0.0
 11
121.476239
 21
19.279927
 31
0.0
  0
LINE
  5
316
100
AcDbEntity
  8
0
 62
7
100
AcDbLine
 10
121.476239
 20
19.279927
 30
0.0
 11
122.038822
 21
19.615093
 31
0.0
  0
LINE
  5
317
100
AcDbEntity
  8
0
 62
7
100
AcDbLine
 10
122.038822
 20
19.615093
 30
0.0
 11
122.578346
 21
19.801264
 31
0.0
  0
LINE
  5
318
100
AcDbEntity
  8
0
 62
7
100
AcDbLine
 10
122.578346
 20
19.801264
 30
0.0
 11
124.088627
 21
19.832461
 31
0.0
  0
LINE
  5
319
100
AcDbEntity
  8
0
 62
7
100
AcDbLine
 10
124.088627
 20
19.832461
 30
0.0
 11
125.482124
 21
19.651813
 31
0.0
  0
LINE
  5
31a
100
AcDbEntity
  8
0
 62
7
100
AcDbLine
 10
125.482124
 20
19.651813
 30
0.0
 11
125.904912
 21
19.474689
 31
0.0
  0
LINE
  5
31b
100
AcDbEntity
  8
0
 62
7
100
AcDbLine
 10
125.904912
 20
19.474689
 30
0.0
 11
126.167823
 21
19.199328
 31
0.0
  0
LINE
  5
31c
100
AcDbEntity
  8
0
 62
7
100
AcDbLine
 10
126.167823
 20
19.199328
 30
0.0
 11
126.287932
 21
18.795456
 31
0.0
  0
LINE
  5
31d
100
AcDbEntity
  8
0
 62
7
100
AcDbLine
 10
126.287932
 20
18.795456
 30
0.0
 11
126.282310
 21
18.232794
 31
0.0
  0
LINE
  5
31e
100
AcDbEntity
  8
0
 62
7
100
AcDbLine
 10
126.282310
 20
18.232794
 30
0.0
 11
125.962167
 21
16.509997
 31
0.0
  0
LINE
  5
31f
100
AcDbEntity
  8
0
 62
7
100
AcDbLine
 10
125.962167
 20
16.509997
 30
0.0
 11
125.621328
 21
14.501632
 31
0.0
  0
LINE
  5
320
100
AcDbEntity
  8
0
 62
7
100
AcDbLine
 10
125.621328
 20
14.501632
 30
0.0
 11
125.581972
 21
13.081739
 31
0.0
  0
LINE
  5
321
100
AcDbEntity
  8
0
 62
7
100
AcDbLine
 10
125.581972
 20
13.081739
 30
0.0
 11
125.612039
 21
12.265382
 31
0.0
  0
LINE
  5
322
100
AcDbEntity
  8
0
 62
7
100
AcDbLine
 10
125.612039
 20
12.265382
 30
0.0
 11
125.401423
 21
11.841457
 31
0.0
  0
LINE
  5
323
100
AcDbEntity
  8
0
 62
7
100
AcDbLine
 10
125.401423
 20
11.841457
 30
0.0
 11
124.503698
 21
11.664262
 31
0.0
  0
LINE
  5
324
100
AcDbEntity
  8
0
 62
7
100
AcDbLine
 10
124.503698
 20
11.664262
 30
0.0
 11
122.824550
 21
11.534405
 31
0.0
  0
LINE
  5
325
100
AcDbEntity
  8
0
 62
7
100
AcDbLine
 10
122.824550
 20
11.534405
 30
0.0
 11
120.834997
 21
11.558649
 31
0.0
  0
LINE
  5
326
100
AcDbEntity
  8
0
 62
7
100
AcDbLine
 10
120.834997
 20
11.558649
 30
0.0
 11
120.343980
 21
11.747768
 31
0.0
  0
LINE
  5
327
100
AcDbEntity
  8
0
 62
7
100
AcDbLine
 10
120.343980
 20
11.747768
 30
0.0
 11
119.919044
 21
12.108155
 31
0.0
  0
LINE
  5
328
100
AcDbEntity
  8
0
 62
7
100
AcDbLine
 10
119.919044
 20
12.108155
 30
0.0
 11
119.919044
 21
12.108155
 31
0.0
  0
LINE
  5
329
100
AcDbEntity
  8
0
 62
7
100
AcDbLine
 10
122.827776
 20
13.649136
 30
0.0
 11
123.189100
 21
14.327014
 31
0.0
  0
LINE
  5
32a
100
AcDbEntity
  8
0
 62
7
100
AcDbLine
 10
123.189100
 20
14.327014
 30
0.0
 11
123.541106
 21
15.583502
 31
0.0
  0
LINE
  5
32b
100
AcDbEntity
  8
0
 62
7
100
AcDbLine
 10
123.541106
 20
15.583502
 30
0.0
 11
123.760778
 21
16.871137
 31
0.0
  0
LINE
  5
32c
100
AcDbEntity
  8
0
 62
7
100
AcDbLine
 10
123.760778
 20
16.871137
 30
0.0
 11
123.725096
 21
17.642453
 31
0.0
  0
LINE
  5
32d
100
AcDbEntity
  8
0
 62
7
100
AcDbLine
 10
123.725096
 20
17.642453
 30
0.0
 11
123.564339
 21
17.778631
 31
0.0
  0
LINE
  5
32e
100
AcDbEntity
  8
0
 62
7
100
AcDbLine
 10
123.564339
 20
17.778631
 30
0.0
 11
123.331689
 21
17.813857
 31
0.0
  0
LINE
  5
32f
100
AcDbEntity
  8
0
 62
7
100
AcDbLine
 10
123.331689
 20
17.813857
 30
0.0
 11
122.736290
 21
17.626520
 31
0.0
  0
LINE
  5
330
100
AcDbEntity
  8
0
 62
7
100
AcDbLine
 10
122.736290
 20
17.626520
 30
0.0
 11
122.110058
 21
17.170570
 31
0.0
  0
LINE
  5
331
100
AcDbEntity
  8
0
 62
7
100
AcDbLine
 10
122.110058
 20
17.170570
 30
0.0
 11
121.624152
 21
16.536137
 31
0.0
  0
LINE
  5
332
100
AcDbEntity
  8
0
 62
7
100
AcDbLine
 10
121.624152
 20
16.536137
 30
0.0
 11
121.341706
 21
15.839490
 31
0.0
  0
LINE
  5
333
100
AcDbEntity
  8
0
 62
7
100
AcDbLine
 10
121.341706
 20
15.839490
 30
0.0
 11
121.210239
 21
15.173310
 31
0.0
  0
LINE
  5
334
100
AcDbEntity
  8
0
 62
7
100
AcDbLine
 10
121.210239
 20
15.173310
 30
0.0
 11
121.216105
 21
14.570331
 31
0.0
  0
LINE
  5
335
100
AcDbEntity
  8
0
 62
7
100
AcDbLine
 10
121.216105
 20
14.570331
 30
0.0
 11
121.345656
 21
14.063287
 31
0.0
  0
LINE
  5
336
100
AcDbEntity
  8
0
 62
7
100
AcDbLine
 10
121.345656
 20
14.063287
 30
0.0
 11
121.585246
 21
13.684912
 31
0.0
  0
LINE
  5
337
100
AcDbEntity
  8
0
 62
7
100
AcDbLine
 10
121.585246
 20
13.684912
 30
0.0
 11
121.921228
 21
13.467939
 31
0.0
  0
LINE
  5
338
100
AcDbEntity
  8
0
 62
7
100
AcDbLine
 10
121.921228
 20
13.467939
 30
0.0
 11
122.339953
 21
13.445103
 31
0.0
  0
LINE
  5
339
100
AcDbEntity
  8
0
 62
7
100
AcDbLine
 10
122.339953
 20
13.445103
 30
0.0
 11
122.827776
 21
13.649136
 31
0.0
  0
LINE
  5
33a
100
AcDbEntity
  8
0
 62
7
100
AcDbLine
 10
122.827776
 20
13.649136
 30
0.0
 11
122.827776
 21
13.649136
 31
0.0
  0
LINE
  5
33b
100
AcDbEntity
  8
0
 62
7
100
AcDbLine
 10
9.427299
 20
14.655069
 30
0.0
 11
9.619742
 21
15.242490
 31
0.0
  0
LINE
  5
33c
100
AcDbEntity
  8
0
 62
7
100
AcDbLine
 10
9.619742
 20
15.242490
 30
0.0
 11
10.096522
 21
15.847056
 31
0.0
  0
LINE
  5
33d
100
AcDbEntity
  8
0
 62
7
100
AcDbLine
 10
10.096522
 20
15.847056
 30
0.0
 11
10.706817
 21
16.319361
 31
0.0
  0
LINE
  5
33e
100
AcDbEntity
  8
0
 62
7
100
AcDbLine
 10
10.706817
 20
16.319361
 30
0.0
 11
11.299804
 21
16.509997
 31
0.0
  0
LINE
  5
33f
100
AcDbEntity
  8
0
 62
7
100
AcDbLine
 10
11.299804
 20
16.509997
 30
0.0
 11
11.586413
 21
16.469820
 31
0.0
  0
LINE
  5
340
100
AcDbEntity
  8
0
 62
7
100
AcDbLine
 10
11.586413
 20
16.469820
 30
0.0
 11
11.638610
 21
16.284762
 31
0.0
  0
LINE
  5
341
100
AcDbEntity
  8
0
 62
7
100
AcDbLine
 10
11.638610
 20
16.284762
 30
0.0
 11
10.942016
 21
15.092835
 31
0.0
  0
LINE
  5
342
100
AcDbEntity
  8
0
 62
7
100
AcDbLine
 10
10.942016
 20
15.092835
 30
0.0
 11
10.350644
 21
14.343956
 31
0.0
  0
LINE
  5
343
100
AcDbEntity
  8
0
 62
7
100
AcDbLine
 10
10.350644
 20
14.343956
 30
0.0
 11
9.869370
 21
14.012208
 31
0.0
  0
LINE
  5
344
100
AcDbEntity
  8
0
 62
7
100
AcDbLine
 10
9.869370
 20
14.012208
 30
0.0
 11
9.545741
 21
14.111332
 31
0.0
  0
LINE
  5
345
100
AcDbEntity
  8
0
 62
7
100
AcDbLine
 10
9.545741
 20
14.111332
 30
0.0
 11
9.427299
 21
14.655069
 31
0.0
  0
LINE
  5
346
100
AcDbEntity
  8
0
 62
7
100
AcDbLine
 10
9.427299
 20
14.655069
 30
0.0
 11
9.427299
 21
14.655069
 31
0.0
  0
LINE
  5
347
100
AcDbEntity
  8
0
 62
7
100
AcDbLine
 10
14.569450
 20
16.298331
 30
0.0
 11
14.189616
 21
17.058942
 31
0.0
  0
LINE
  5
348
100
AcDbEntity
  8
0
 62
7
100
AcDbLine
 10
14.189616
 20
17.058942
 30
0.0
 11
13.882555
 21
18.240259
 31
0.0
  0
LINE
  5
349
100
AcDbEntity
  8
0
 62
7
100
AcDbLine
 10
13.882555
 20
18.240259
 30
0.0
 11
13.680788
 21
19.675069
 31
0.0
  0
LINE
  5
34a
100
AcDbEntity
  8
0
 62
7
100
AcDbLine
 10
13.680788
 20
19.675069
 30
0.0
 11
13.616837
 21
21.196165
 31
0.0
  0
LINE
  5
34b
100
AcDbEntity
  8
0
 62
7
100
AcDbLine
 10
13.616837
 20
21.196165
 30
0.0
 11
13.766988
 21
22.932957
 31
0.0
  0
LINE
  5
34c
100
AcDbEntity
  8
0
 62
7
100
AcDbLine
 10
13.766988
 20
22.932957
 30
0.0
 11
14.164157
 21
24.551315
 31
0.0
  0
LINE
  5
34d
100
AcDbEntity
  8
0
 62
7
100
AcDbLine
 10
14.164157
 20
24.551315
 30
0.0
 11
14.784732
 21
26.041235
 31
0.0
  0
LINE
  5
34e
100
AcDbEntity
  8
0
 62
7
100
AcDbLine
 10
14.784732
 20
26.041235
 30
0.0
 11
15.605100
 21
27.392712
 31
0.0
  0
LINE
  5
34f
100
AcDbEntity
  8
0
 62
7
100
AcDbLine
 10
15.605100
 20
27.392712
 30
0.0
 11
16.601650
 21
28.595743
 31
0.0
  0
LINE
  5
350
100
AcDbEntity
  8
0
 62
7
100
AcDbLine
 10
16.601650
 20
28.595743
 30
0.0
 11
17.750769
 21
29.640323
 31
0.0
  0
LINE
  5
351
100
AcDbEntity
  8
0
 62
7
100
AcDbLine
 10
17.750769
 20
29.640323
 30
0.0
 11
19.028845
 21
30.516449
 31
0.0
  0
LINE
  5
352
100
AcDbEntity
  8
0
 62
7
100
AcDbLine
 10
19.028845
 20
30.516449
 30
0.0
 11
20.412265
 21
31.214117
 31
0.0
  0
LINE
  5
353
100
AcDbEntity
  8
0
 62
7
100
AcDbLine
 10
20.412265
 20
31.214117
 30
0.0
 11
21.877419
 21
31.723323
 31
0.0
  0
LINE
  5
354
100
AcDbEntity
  8
0
 62
7
100
AcDbLine
 10
21.877419
 20
31.723323
 30
0.0
 11
23.400692
 21
32.034063
 31
0.0
  0
LINE
  5
355
100
AcDbEntity
  8
0
 62
7
100
AcDbLine
 10
23.400692
 20
32.034063
 30
0.0
 11
24.958474
 21
32.136333
 31
0.0
  0
LINE
  5
356
100
AcDbEntity
  8
0
 62
7
100
AcDbLine
 10
24.958474
 20
32.136333
 30
0.0
 11
26.527152
 21
32.020128
 31
0.0
  0
LINE
  5
357
100
AcDbEntity
  8
0
 62
7
100
AcDbLine
 10
26.527152
 20
32.020128
 30
0.0
 11
28.083113
 21
31.675447
 31
0.0
  0
LINE
  5
358
100
AcDbEntity
  8
0
 62
7
100
AcDbLine
 10
28.083113
 20
31.675447
 30
0.0
 11
29.602747
 21
31.092283
 31
0.0
  0
LINE
  5
359
100
AcDbEntity
  8
0
 62
7
100
AcDbLine
 10
29.602747
 20
31.092283
 30
0.0
 11
31.062440
 21
30.260634
 31
0.0
  0
LINE
  5
35a
100
AcDbEntity
  8
0
 62
7
100
AcDbLine
 10
31.062440
 20
30.260634
 30
0.0
 11
32.438580
 21
29.170495
 31
0.0
  0
LINE
  5
35b
100
AcDbEntity
  8
0
 62
7
100
AcDbLine
 10
32.438580
 20
29.170495
 30
0.0
 11
33.419369
 21
28.107157
 31
0.0
  0
LINE
  5
35c
100
AcDbEntity
  8
0
 62
7
100
AcDbLine
 10
33.419369
 20
28.107157
 30
0.0
 11
34.374357
 21
26.824790
 31
0.0
  0
LINE
  5
35d
100
AcDbEntity
  8
0
 62
7
100
AcDbLine
 10
34.374357
 20
26.824790
 30
0.0
 11
35.099085
 21
25.625468
 31
0.0
  0
LINE
  5
35e
100
AcDbEntity
  8
0
 62
7
100
AcDbLine
 10
35.099085
 20
25.625468
 30
0.0
 11
35.389098
 21
24.811265
 31
0.0
  0
LINE
  5
35f
100
AcDbEntity
  8
0
 62
7
100
AcDbLine
 10
35.389098
 20
24.811265
 30
0.0
 11
34.583530
 21
24.502449
 31
0.0
  0
LINE
  5
360
100
AcDbEntity
  8
0
 62
7
100
AcDbLine
 10
34.583530
 20
24.502449
 30
0.0
 11
32.498967
 21
24.189986
 31
0.0
  0
LINE
  5
361
100
AcDbEntity
  8
0
 62
7
100
AcDbLine
 10
32.498967
 20
24.189986
 30
0.0
 11
29.606189
 21
23.875221
 31
0.0
  0
LINE
  5
362
100
AcDbEntity
  8
0
 62
7
100
AcDbLine
 10
29.606189
 20
23.875221
 30
0.0
 11
28.759523
 21
24.693863
 31
0.0
  0
LINE
  5
363
100
AcDbEntity
  8
0
 62
7
100
AcDbLine
 10
28.759523
 20
24.693863
 30
0.0
 11
27.743562
 21
25.490359
 31
0.0
  0
LINE
  5
364
100
AcDbEntity
  8
0
 62
7
100
AcDbLine
 10
27.743562
 20
25.490359
 30
0.0
 11
26.641757
 21
26.024425
 31
0.0
  0
LINE
  5
365
100
AcDbEntity
  8
0
 62
7
100
AcDbLine
 10
26.641757
 20
26.024425
 30
0.0
 11
25.491252
 21
26.299505
 31
0.0
  0
LINE
  5
366
100
AcDbEntity
  8
0
 62
7
100
AcDbLine
 10
25.491252
 20
26.299505
 30
0.0
 11
24.329191
 21
26.319040
 31
0.0
  0
LINE
  5
367
100
AcDbEntity
  8
0
 62
7
100
AcDbLine
 10
24.329191
 20
26.319040
 30
0.0
 11
23.192718
 21
26.086474
 31
0.0
  0
LINE
  5
368
100
AcDbEntity
  8
0
 62
7
100
AcDbLine
 10
23.192718
 20
26.086474
 30
0.0
 11
22.118978
 21
25.605248
 31
0.0
  0
LINE
  5
369
100
AcDbEntity
  8
0
 62
7
100
AcDbLine
 10
22.118978
 20
25.605248
 30
0.0
 11
21.145114
 21
24.878806
 31
0.0
  0
LINE
  5
36a
100
AcDbEntity
  8
0
 62
7
100
AcDbLine
 10
21.145114
 20
24.878806
 30
0.0
 11
20.308272
 21
23.910589
 31
0.0
  0
LINE
  5
36b
100
AcDbEntity
  8
0
 62
7
100
AcDbLine
 10
20.308272
 20
23.910589
 30
0.0
 11
19.629290
 21
22.623654
 31
0.0
  0
LINE
  5
36c
100
AcDbEntity
  8
0
 62
7
100
AcDbLine
 10
19.629290
 20
22.623654
 30
0.0
 11
19.448030
 21
21.088367
 31
0.0
  0
LINE
  5
36d
100
AcDbEntity
  8
0
 62
7
100
AcDbLine
 10
19.448030
 20
21.088367
 30
0.0
 11
19.383750
 21
19.898722
 31
0.0
  0
LINE
  5
36e
100
AcDbEntity
  8
0
 62
7
100
AcDbLine
 10
19.383750
 20
19.898722
 30
0.0
 11
19.222821
 21
19.180019
 31
0.0
  0
LINE
  5
36f
100
AcDbEntity
  8
0
 62
7
100
AcDbLine
 10
19.222821
 20
19.180019
 30
0.0
 11
18.956088
 21
18.911111
 31
0.0
  0
LINE
  5
370
100
AcDbEntity
  8
0
 62
7
100
AcDbLine
 10
18.956088
 20
18.911111
 30
0.0
 11
18.574395
 21
19.070851
 31
0.0
  0
LINE
  5
371
100
AcDbEntity
  8
0
 62
7
100
AcDbLine
 10
18.574395
 20
19.070851
 30
0.0
 11
18.272071
 21
19.809642
 31
0.0
  0
LINE
  5
372
100
AcDbEntity
  8
0
 62
7
100
AcDbLine
 10
18.272071
 20
19.809642
 30
0.0
 11
18.179984
 21
21.094890
 31
0.0
  0
LINE
  5
373
100
AcDbEntity
  8
0
 62
7
100
AcDbLine
 10
18.179984
 20
21.094890
 30
0.0
 11
18.294960
 21
22.546976
 31
0.0
  0
LINE
  5
374
100
AcDbEntity
  8
0
 62
7
100
AcDbLine
 10
18.294960
 20
22.546976
 30
0.0
 11
18.613824
 21
23.786287
 31
0.0
  0
LINE
  5
375
100
AcDbEntity
  8
0
 62
7
100
AcDbLine
 10
18.613824
 20
23.786287
 30
0.0
 11
19.208939
 21
24.859168
 31
0.0
  0
LINE
  5
376
100
AcDbEntity
  8
0
 62
7
100
AcDbLine
 10
19.208939
 20
24.859168
 30
0.0
 11
20.047340
 21
25.850954
 31
0.0
  0
LINE
  5
377
100
AcDbEntity
  8
0
 62
7
100
AcDbLine
 10
20.047340
 20
25.850954
 30
0.0
 11
21.082629
 21
26.715676
 31
0.0
  0
LINE
  5
378
100
AcDbEntity
  8
0
 62
7
100
AcDbLine
 10
21.082629
 20
26.715676
 30
0.0
 11
22.268410
 21
27.407359
 31
0.0
  0
LINE
  5
379
100
AcDbEntity
  8
0
 62
7
100
AcDbLine
 10
22.268410
 20
27.407359
 30
0.0
 11
23.240940
 21
27.936422
 31
0.0
  0
LINE
  5
37a
100
AcDbEntity
  8
0
 62
7
100
AcDbLine
 10
23.240940
 20
27.936422
 30
0.0
 11
23.251068
 21
28.042787
 31
0.0
  0
LINE
  5
37b
100
AcDbEntity
  8
0
 62
7
100
AcDbLine
 10
23.251068
 20
28.042787
 30
0.0
 11
22.973965
 21
28.072156
 31
0.0
  0
LINE
  5
37c
100
AcDbEntity
  8
0
 62
7
100
AcDbLine
 10
22.973965
 20
28.072156
 30
0.0
 11
22.036462
 21
27.903676
 31
0.0
  0
LINE
  5
37d
100
AcDbEntity
  8
0
 62
7
100
AcDbLine
 10
22.036462
 20
27.903676
 30
0.0
 11
20.965009
 21
27.451683
 31
0.0
  0
LINE
  5
37e
100
AcDbEntity
  8
0
 62
7
100
AcDbLine
 10
20.965009
 20
27.451683
 30
0.0
 11
19.890070
 21
26.784217
 31
0.0
  0
LINE
  5
37f
100
AcDbEntity
  8
0
 62
7
100
AcDbLine
 10
19.890070
 20
26.784217
 30
0.0
 11
18.942108
 21
25.969318
 31
0.0
  0
LINE
  5
380
100
AcDbEntity
  8
0
 62
7
100
AcDbLine
 10
18.942108
 20
25.969318
 30
0.0
 11
18.019055
 21
24.770699
 31
0.0
  0
LINE
  5
381
100
AcDbEntity
  8
0
 62
7
100
AcDbLine
 10
18.019055
 20
24.770699
 30
0.0
 11
17.417948
 21
23.384854
 31
0.0
  0
LINE
  5
382
100
AcDbEntity
  8
0
 62
7
100
AcDbLine
 10
17.417948
 20
23.384854
 30
0.0
 11
17.124403
 21
21.763437
 31
0.0
  0
LINE
  5
383
100
AcDbEntity
  8
0
 62
7
100
AcDbLine
 10
17.124403
 20
21.763437
 30
0.0
 11
17.124038
 21
19.858101
 31
0.0
  0
LINE
  5
384
100
AcDbEntity
  8
0
 62
7
100
AcDbLine
 10
17.124038
 20
19.858101
 30
0.0
 11
17.275396
 21
17.649836
 31
0.0
  0
LINE
  5
385
100
AcDbEntity
  8
0
 62
7
100
AcDbLine
 10
17.275396
 20
17.649836
 30
0.0
 11
16.304859
 21
16.797695
 31
0.0
  0
LINE
  5
386
100
AcDbEntity
  8
0
 62
7
100
AcDbLine
 10
16.304859
 20
16.797695
 30
0.0
 11
15.638386
 21
16.248100
 31
0.0
  0
LINE
  5
387
100
AcDbEntity
  8
0
 62
7
100
AcDbLine
 10
15.638386
 20
16.248100
 30
0.0
 11
15.191244
 21
16.000163
 31
0.0
  0
LINE
  5
388
100
AcDbEntity
  8
0
 62
7
100
AcDbLine
 10
15.191244
 20
16.000163
 30
0.0
 11
14.867058
 21
16.026151
 31
0.0
  0
LINE
  5
389
100
AcDbEntity
  8
0
 62
7
100
AcDbLine
 10
14.867058
 20
16.026151
 30
0.0
 11
14.569450
 21
16.298331
 31
0.0
  0
LINE
  5
38a
100
AcDbEntity
  8
0
 62
7
100
AcDbLine
 10
14.569450
 20
16.298331
 30
0.0
 11
14.569450
 21
16.298331
 31
0.0
  0
LINE
  5
38b
100
AcDbEntity
  8
0
 62
7
100
AcDbLine
 10
6.688840
 20
20.772227
 30
0.0
 11
6.487790
 21
21.148273
 31
0.0
  0
LINE
  5
38c
100
AcDbEntity
  8
0
 62
7
100
AcDbLine
 10
6.487790
 20
21.148273
 30
0.0
 11
6.589499
 21
21.515039
 31
0.0
  0
LINE
  5
38d
100
AcDbEntity
  8
0
 62
7
100
AcDbLine
 10
6.589499
 20
21.515039
 30
0.0
 11
6.933968
 21
21.848516
 31
0.0
  0
LINE
  5
38e
100
AcDbEntity
  8
0
 62
7
100
AcDbLine
 10
6.933968
 20
21.848516
 30
0.0
 11
7.461194
 21
22.124695
 31
0.0
  0
LINE
  5
38f
100
AcDbEntity
  8
0
 62
7
100
AcDbLine
 10
7.461194
 20
22.124695
 30
0.0
 11
8.823921
 21
22.409125
 31
0.0
  0
LINE
  5
390
100
AcDbEntity
  8
0
 62
7
100
AcDbLine
 10
8.823921
 20
22.409125
 30
0.0
 11
9.539421
 21
22.369359
 31
0.0
  0
LINE
  5
391
100
AcDbEntity
  8
0
 62
7
100
AcDbLine
 10
9.539421
 20
22.369359
 30
0.0
 11
10.197678
 21
22.176260
 31
0.0
  0
LINE
  5
392
100
AcDbEntity
  8
0
 62
7
100
AcDbLine
 10
10.197678
 20
22.176260
 30
0.0
 11
10.635793
 21
21.897135
 31
0.0
  0
LINE
  5
393
100
AcDbEntity
  8
0
 62
7
100
AcDbLine
 10
10.635793
 20
21.897135
 30
0.0
 11
10.641756
 21
21.636327
 31
0.0
  0
LINE
  5
394
100
AcDbEntity
  8
0
 62
7
100
AcDbLine
 10
10.641756
 20
21.636327
 30
0.0
 11
10.197808
 21
21.372563
 31
0.0
  0
LINE
  5
395
100
AcDbEntity
  8
0
 62
7
100
AcDbLine
 10
10.197808
 20
21.372563
 30
0.0
 11
9.286188
 21
21.084574
 31
0.0
  0
LINE
  5
396
100
AcDbEntity
  8
0
 62
7
100
AcDbLine
 10
9.286188
 20
21.084574
 30
0.0
 11
7.592854
 21
20.607906
 31
0.0
  0
LINE
  5
397
100
AcDbEntity
  8
0
 62
7
100
AcDbLine
 10
7.592854
 20
20.607906
 30
0.0
 11
7.094467
 21
20.583787
 31
0.0
  0
LINE
  5
398
100
AcDbEntity
  8
0
 62
7
100
AcDbLine
 10
7.094467
 20
20.583787
 30
0.0
 11
6.688840
 21
20.772227
 31
0.0
  0
LINE
  5
399
100
AcDbEntity
  8
0
 62
7
100
AcDbLine
 10
6.688840
 20
20.772227
 30
0.0
 11
6.688840
 21
20.772227
 31
0.0
  0
LINE
  5
39a
100
AcDbEntity
  8
0
 62
7
100
AcDbLine
 10
47.527300
 20
24.788342
 30
0.0
 11
46.682805
 21
25.115783
 31
0.0
  0
LINE
  5
39b
100
AcDbEntity
  8
0
 62
7
100
AcDbLine
 10
46.682805
 20
25.115783
 30
0.0
 11
46.222544
 21
25.557125
 31
0.0
  0
LINE
  5
39c
100
AcDbEntity
  8
0
 62
7
100
AcDbLine
 10
46.222544
 20
25.557125
 30
0.0
 11
46.149513
 21
26.106803
 31
0.0
  0
LINE
  5
39d
100
AcDbEntity
  8
0
 62
7
100
AcDbLine
 10
46.149513
 20
26.106803
 30
0.0
 11
46.466704
 21
26.759252
 31
0.0
  0
LINE
  5
39e
100
AcDbEntity
  8
0
 62
7
100
AcDbLine
 10
46.466704
 20
26.759252
 30
0.0
 11
46.916770
 21
27.115253
 31
0.0
  0
LINE
  5
39f
100
AcDbEntity
  8
0
 62
7
100
AcDbLine
 10
46.916770
 20
27.115253
 30
0.0
 11
47.624616
 21
26.968873
 31
0.0
  0
LINE
  5
3a0
100
AcDbEntity
  8
0
 62
7
100
AcDbLine
 10
47.624616
 20
26.968873
 30
0.0
 11
48.423028
 21
26.748803
 31
0.0
  0
LINE
  5
3a1
100
AcDbEntity
  8
0
 62
7
100
AcDbLine
 10
48.423028
 20
26.748803
 30
0.0
 11
49.193266
 21
26.682963
 31
0.0
  0
LINE
  5
3a2
100
AcDbEntity
  8
0
 62
7
100
AcDbLine
 10
49.193266
 20
26.682963
 30
0.0
 11
49.846294
 21
26.770027
 31
0.0
  0
LINE
  5
3a3
100
AcDbEntity
  8
0
 62
7
100
AcDbLine
 10
49.846294
 20
26.770027
 30
0.0
 11
50.293078
 21
27.008667
 31
0.0
  0
LINE
  5
3a4
100
AcDbEntity
  8
0
 62
7
100
AcDbLine
 10
50.293078
 20
27.008667
 30
0.0
 11
50.598488
 21
27.510886
 31
0.0
  0
LINE
  5
3a5
100
AcDbEntity
  8
0
 62
7
100
AcDbLine
 10
50.598488
 20
27.510886
 30
0.0
 11
50.532078
 21
28.055801
 31
0.0
  0
LINE
  5
3a6
100
AcDbEntity
  8
0
 62
7
100
AcDbLine
 10
50.532078
 20
28.055801
 30
0.0
 11
50.084187
 21
28.665092
 31
0.0
  0
LINE
  5
3a7
100
AcDbEntity
  8
0
 62
7
100
AcDbLine
 10
50.084187
 20
28.665092
 30
0.0
 11
49.245153
 21
29.360439
 31
0.0
  0
LINE
  5
3a8
100
AcDbEntity
  8
0
 62
7
100
AcDbLine
 10
49.245153
 20
29.360439
 30
0.0
 11
48.153028
 21
30.327304
 31
0.0
  0
LINE
  5
3a9
100
AcDbEntity
  8
0
 62
7
100
AcDbLine
 10
48.153028
 20
30.327304
 30
0.0
 11
47.548642
 21
31.245641
 31
0.0
  0
LINE
  5
3aa
100
AcDbEntity
  8
0
 62
7
100
AcDbLine
 10
47.548642
 20
31.245641
 30
0.0
 11
47.352189
 21
32.217589
 31
0.0
  0
LINE
  5
3ab
100
AcDbEntity
  8
0
 62
7
100
AcDbLine
 10
47.352189
 20
32.217589
 30
0.0
 11
47.438310
 21
33.121720
 31
0.0
  0
LINE
  5
3ac
100
AcDbEntity
  8
0
 62
7
100
AcDbLine
 10
47.438310
 20
33.121720
 30
0.0
 11
47.777749
 21
33.930917
 31
0.0
  0
LINE
  5
3ad
100
AcDbEntity
  8
0
 62
7
100
AcDbLine
 10
47.777749
 20
33.930917
 30
0.0
 11
48.341250
 21
34.618065
 31
0.0
  0
LINE
  5
3ae
100
AcDbEntity
  8
0
 62
7
100
AcDbLine
 10
48.341250
 20
34.618065
 30
0.0
 11
49.099557
 21
35.156047
 31
0.0
  0
LINE
  5
3af
100
AcDbEntity
  8
0
 62
7
100
AcDbLine
 10
49.099557
 20
35.156047
 30
0.0
 11
50.023413
 21
35.517746
 31
0.0
  0
LINE
  5
3b0
100
AcDbEntity
  8
0
 62
7
100
AcDbLine
 10
50.023413
 20
35.517746
 30
0.0
 11
51.083562
 21
35.676047
 31
0.0
  0
LINE
  5
3b1
100
AcDbEntity
  8
0
 62
7
100
AcDbLine
 10
51.083562
 20
35.676047
 30
0.0
 11
52.250749
 21
35.603832
 31
0.0
  0
LINE
  5
3b2
100
AcDbEntity
  8
0
 62
7
100
AcDbLine
 10
52.250749
 20
35.603832
 30
0.0
 11
53.154912
 21
35.364918
 31
0.0
  0
LINE
  5
3b3
100
AcDbEntity
  8
0
 62
7
100
AcDbLine
 10
53.154912
 20
35.364918
 30
0.0
 11
53.716317
 21
34.998807
 31
0.0
  0
LINE
  5
3b4
100
AcDbEntity
  8
0
 62
7
100
AcDbLine
 10
53.716317
 20
34.998807
 30
0.0
 11
53.932474
 21
34.508243
 31
0.0
  0
LINE
  5
3b5
100
AcDbEntity
  8
0
 62
7
100
AcDbLine
 10
53.932474
 20
34.508243
 30
0.0
 11
53.800891
 21
33.895970
 31
0.0
  0
LINE
  5
3b6
100
AcDbEntity
  8
0
 62
7
100
AcDbLine
 10
53.800891
 20
33.895970
 30
0.0
 11
53.588191
 21
33.518025
 31
0.0
  0
LINE
  5
3b7
100
AcDbEntity
  8
0
 62
7
100
AcDbLine
 10
53.588191
 20
33.518025
 30
0.0
 11
53.302963
 21
33.328327
 31
0.0
  0
LINE
  5
3b8
100
AcDbEntity
  8
0
 62
7
100
AcDbLine
 10
53.302963
 20
33.328327
 30
0.0
 11
51.978410
 21
33.354185
 31
0.0
  0
LINE
  5
3b9
100
AcDbEntity
  8
0
 62
7
100
AcDbLine
 10
51.978410
 20
33.354185
 30
0.0
 11
51.139281
 21
33.377934
 31
0.0
  0
LINE
  5
3ba
100
AcDbEntity
  8
0
 62
7
100
AcDbLine
 10
51.139281
 20
33.377934
 30
0.0
 11
50.497484
 21
33.269086
 31
0.0
  0
LINE
  5
3bb
100
AcDbEntity
  8
0
 62
7
100
AcDbLine
 10
50.497484
 20
33.269086
 30
0.0
 11
50.059609
 21
33.047184
 31
0.0
  0
LINE
  5
3bc
100
AcDbEntity
  8
0
 62
7
100
AcDbLine
 10
50.059609
 20
33.047184
 30
0.0
 11
49.832246
 21
32.731771
 31
0.0
  0
LINE
  5
3bd
100
AcDbEntity
  8
0
 62
7
100
AcDbLine
 10
49.832246
 20
32.731771
 30
0.0
 11
49.821982
 21
32.342392
 31
0.0
  0
LINE
  5
3be
100
AcDbEntity
  8
0
 62
7
100
AcDbLine
 10
49.821982
 20
32.342392
 30
0.0
 11
50.035409
 21
31.898590
 31
0.0
  0
LINE
  5
3bf
100
AcDbEntity
  8
0
 62
7
100
AcDbLine
 10
50.035409
 20
31.898590
 30
0.0
 11
50.479115
 21
31.419909
 31
0.0
  0
LINE
  5
3c0
100
AcDbEntity
  8
0
 62
7
100
AcDbLine
 10
50.479115
 20
31.419909
 30
0.0
 11
51.159689
 21
30.925891
 31
0.0
  0
LINE
  5
3c1
100
AcDbEntity
  8
0
 62
7
100
AcDbLine
 10
51.159689
 20
30.925891
 30
0.0
 11
52.373170
 21
29.913481
 31
0.0
  0
LINE
  5
3c2
100
AcDbEntity
  8
0
 62
7
100
AcDbLine
 10
52.373170
 20
29.913481
 30
0.0
 11
52.771858
 21
29.346910
 31
0.0
  0
LINE
  5
3c3
100
AcDbEntity
  8
0
 62
7
100
AcDbLine
 10
52.771858
 20
29.346910
 30
0.0
 11
53.029222
 21
28.748717
 31
0.0
  0
LINE
  5
3c4
100
AcDbEntity
  8
0
 62
7
100
AcDbLine
 10
53.029222
 20
28.748717
 30
0.0
 11
53.143297
 21
28.125370
 31
0.0
  0
LINE
  5
3c5
100
AcDbEntity
  8
0
 62
7
100
AcDbLine
 10
53.143297
 20
28.125370
 30
0.0
 11
53.112115
 21
27.483336
 31
0.0
  0
LINE
  5
3c6
100
AcDbEntity
  8
0
 62
7
100
AcDbLine
 10
53.112115
 20
27.483336
 30
0.0
 11
52.933710
 21
26.829082
 31
0.0
  0
LINE
  5
3c7
100
AcDbEntity
  8
0
 62
7
100
AcDbLine
 10
52.933710
 20
26.829082
 30
0.0
 11
52.606115
 21
26.169075
 31
0.0
  0
LINE
  5
3c8
100
AcDbEntity
  8
0
 62
7
100
AcDbLine
 10
52.606115
 20
26.169075
 30
0.0
 11
52.233378
 21
25.685483
 31
0.0
  0
LINE
  5
3c9
100
AcDbEntity
  8
0
 62
7
100
AcDbLine
 10
52.233378
 20
25.685483
 30
0.0
 11
51.761732
 21
25.284218
 31
0.0
  0
LINE
  5
3ca
100
AcDbEntity
  8
0
 62
7
100
AcDbLine
 10
51.761732
 20
25.284218
 30
0.0
 11
50.569753
 21
24.741731
 31
0.0
  0
LINE
  5
3cb
100
AcDbEntity
  8
0
 62
7
100
AcDbLine
 10
50.569753
 20
24.741731
 30
0.0
 11
49.126251
 21
24.567733
 31
0.0
  0
LINE
  5
3cc
100
AcDbEntity
  8
0
 62
7
100
AcDbLine
 10
49.126251
 20
24.567733
 30
0.0
 11
47.527300
 21
24.788343
 31
0.0
  0
LINE
  5
3cd
100
AcDbEntity
  8
0
 62
7
100
AcDbLine
 10
47.527300
 20
24.788343
 30
0.0
 11
47.527300
 21
24.788342
 31
0.0
  0
LINE
  5
3ce
100
AcDbEntity
  8
0
 62
7
100
AcDbLine
 10
55.711745
 20
24.783432
 30
0.0
 11
54.791191
 21
25.337933
 31
0.0
  0
LINE
  5
3cf
100
AcDbEntity
  8
0
 62
7
100
AcDbLine
 10
54.791191
 20
25.337933
 30
0.0
 11
54.179799
 21
26.207120
 31
0.0
  0
LINE
  5
3d0
100
AcDbEntity
  8
0
 62
7
100
AcDbLine
 10
54.179799
 20
26.207120
 30
0.0
 11
53.868155
 21
27.294470
 31
0.0
  0
LINE
  5
3d1
100
AcDbEntity
  8
0
 62
7
100
AcDbLine
 10
53.868155
 20
27.294470
 30
0.0
 11
53.846842
 21
28.503461
 31
0.0
  0
LINE
  5
3d2
100
AcDbEntity
  8
0
 62
7
100
AcDbLine
 10
53.846842
 20
28.503461
 30
0.0
 11
54.106448
 21
29.737570
 31
0.0
  0
LINE
  5
3d3
100
AcDbEntity
  8
0
 62
7
100
AcDbLine
 10
54.106448
 20
29.737570
 30
0.0
 11
54.637557
 21
30.900277
 31
0.0
  0
LINE
  5
3d4
100
AcDbEntity
  8
0
 62
7
100
AcDbLine
 10
54.637557
 20
30.900277
 30
0.0
 11
55.430754
 21
31.895059
 31
0.0
  0
LINE
  5
3d5
100
AcDbEntity
  8
0
 62
7
100
AcDbLine
 10
55.430754
 20
31.895059
 30
0.0
 11
56.476626
 21
32.625394
 31
0.0
  0
LINE
  5
3d6
100
AcDbEntity
  8
0
 62
7
100
AcDbLine
 10
56.476626
 20
32.625394
 30
0.0
 11
57.199406
 21
32.901467
 31
0.0
  0
LINE
  5
3d7
100
AcDbEntity
  8
0
 62
7
100
AcDbLine
 10
57.199406
 20
32.901467
 30
0.0
 11
57.898415
 21
33.026848
 31
0.0
  0
LINE
  5
3d8
100
AcDbEntity
  8
0
 62
7
100
AcDbLine
 10
57.898415
 20
33.026848
 30
0.0
 11
58.559201
 21
33.007220
 31
0.0
  0
LINE
  5
3d9
100
AcDbEntity
  8
0
 62
7
100
AcDbLine
 10
58.559201
 20
33.007220
 30
0.0
 11
59.167306
 21
32.848261
 31
0.0
  0
LINE
  5
3da
100
AcDbEntity
  8
0
 62
7
100
AcDbLine
 10
59.167306
 20
32.848261
 30
0.0
 11
59.708277
 21
32.555653
 31
0.0
  0
LINE
  5
3db
100
AcDbEntity
  8
0
 62
7
100
AcDbLine
 10
59.708277
 20
32.555653
 30
0.0
 11
60.167657
 21
32.135077
 31
0.0
  0
LINE
  5
3dc
100
AcDbEntity
  8
0
 62
7
100
AcDbLine
 10
60.167657
 20
32.135077
 30
0.0
 11
60.530993
 21
31.592212
 31
0.0
  0
LINE
  5
3dd
100
AcDbEntity
  8
0
 62
7
100
AcDbLine
 10
60.530993
 20
31.592212
 30
0.0
 11
60.783828
 21
30.932741
 31
0.0
  0
LINE
  5
3de
100
AcDbEntity
  8
0
 62
7
100
AcDbLine
 10
60.783828
 20
30.932741
 30
0.0
 11
60.918078
 21
30.046960
 31
0.0
  0
LINE
  5
3df
100
AcDbEntity
  8
0
 62
7
100
AcDbLine
 10
60.918078
 20
30.046960
 30
0.0
 11
60.880756
 21
29.103796
 31
0.0
  0
LINE
  5
3e0
100
AcDbEntity
  8
0
 62
7
100
AcDbLine
 10
60.880756
 20
29.103796
 30
0.0
 11
60.691683
 21
28.149443
 31
0.0
  0
LINE
  5
3e1
100
AcDbEntity
  8
0
 62
7
100
AcDbLine
 10
60.691683
 20
28.149443
 30
0.0
 11
60.370680
 21
27.230097
 31
0.0
  0
LINE
  5
3e2
100
AcDbEntity
  8
0
 62
7
100
AcDbLine
 10
60.370680
 20
27.230097
 30
0.0
 11
59.937570
 21
26.391951
 31
0.0
  0
LINE
  5
3e3
100
AcDbEntity
  8
0
 62
7
100
AcDbLine
 10
59.937570
 20
26.391951
 30
0.0
 11
59.412173
 21
25.681202
 31
0.0
  0
LINE
  5
3e4
100
AcDbEntity
  8
0
 62
7
100
AcDbLine
 10
59.412173
 20
25.681202
 30
0.0
 11
58.814312
 21
25.144043
 31
0.0
  0
LINE
  5
3e5
100
AcDbEntity
  8
0
 62
7
100
AcDbLine
 10
58.814312
 20
25.144043
 30
0.0
 11
58.163807
 21
24.826671
 31
0.0
  0
LINE
  5
3e6
100
AcDbEntity
  8
0
 62
7
100
AcDbLine
 10
58.163807
 20
24.826671
 30
0.0
 11
56.820645
 21
24.545560
 31
0.0
  0
LINE
  5
3e7
100
AcDbEntity
  8
0
 62
7
100
AcDbLine
 10
56.820645
 20
24.545560
 30
0.0
 11
55.711745
 21
24.783432
 31
0.0
  0
LINE
  5
3e8
100
AcDbEntity
  8
0
 62
7
100
AcDbLine
 10
55.711745
 20
24.783432
 30
0.0
 11
55.711745
 21
24.783432
 31
0.0
  0
LINE
  5
3e9
100
AcDbEntity
  8
0
 62
7
100
AcDbLine
 10
58.117026
 20
27.345713
 30
0.0
 11
58.507688
 21
28.166220
 31
0.0
  0
LINE
  5
3ea
100
AcDbEntity
  8
0
 62
7
100
AcDbLine
 10
58.507688
 20
28.166220
 30
0.0
 11
58.723078
 21
29.076465
 31
0.0
  0
LINE
  5
3eb
100
AcDbEntity
  8
0
 62
7
100
AcDbLine
 10
58.723078
 20
29.076465
 30
0.0
 11
58.740174
 21
29.904310
 31
0.0
  0
LINE
  5
3ec
100
AcDbEntity
  8
0
 62
7
100
AcDbLine
 10
58.740174
 20
29.904310
 30
0.0
 11
58.535948
 21
30.477618
 31
0.0
  0
LINE
  5
3ed
100
AcDbEntity
  8
0
 62
7
100
AcDbLine
 10
58.535948
 20
30.477618
 30
0.0
 11
58.062324
 21
30.825502
 31
0.0
  0
LINE
  5
3ee
100
AcDbEntity
  8
0
 62
7
100
AcDbLine
 10
58.062324
 20
30.825502
 30
0.0
 11
57.557229
 21
30.837508
 31
0.0
  0
LINE
  5
3ef
100
AcDbEntity
  8
0
 62
7
100
AcDbLine
 10
57.557229
 20
30.837508
 30
0.0
 11
57.061725
 21
30.571856
 31
0.0
  0
LINE
  5
3f0
100
AcDbEntity
  8
0
 62
7
100
AcDbLine
 10
57.061725
 20
30.571856
 30
0.0
 11
56.616874
 21
30.086766
 31
0.0
  0
LINE
  5
3f1
100
AcDbEntity
  8
0
 62
7
100
AcDbLine
 10
56.616874
 20
30.086766
 30
0.0
 11
56.263741
 21
29.440458
 31
0.0
  0
LINE
  5
3f2
100
AcDbEntity
  8
0
 62
7
100
AcDbLine
 10
56.263741
 20
29.440458
 30
0.0
 11
56.043388
 21
28.691152
 31
0.0
  0
LINE
  5
3f3
100
AcDbEntity
  8
0
 62
7
100
AcDbLine
 10
56.043388
 20
28.691152
 30
0.0
 11
55.996878
 21
27.897067
 31
0.0
  0
LINE
  5
3f4
100
AcDbEntity
  8
0
 62
7
100
AcDbLine
 10
55.996878
 20
27.897067
 30
0.0
 11
56.165273
 21
27.116422
 31
0.0
  0
LINE
  5
3f5
100
AcDbEntity
  8
0
 62
7
100
AcDbLine
 10
56.165273
 20
27.116422
 30
0.0
 11
56.509529
 21
26.755579
 31
0.0
  0
LINE
  5
3f6
100
AcDbEntity
  8
0
 62
7
100
AcDbLine
 10
56.509529
 20
26.755579
 30
0.0
 11
57.049474
 21
26.685249
 31
0.0
  0
LINE
  5
3f7
100
AcDbEntity
  8
0
 62
7
100
AcDbLine
 10
57.049474
 20
26.685249
 30
0.0
 11
57.635256
 21
26.887829
 31
0.0
  0
LINE
  5
3f8
100
AcDbEntity
  8
0
 62
7
100
AcDbLine
 10
57.635256
 20
26.887829
 30
0.0
 11
58.117026
 21
27.345713
 31
0.0
  0
LINE
  5
3f9
100
AcDbEntity
  8
0
 62
7
100
AcDbLine
 10
58.117026
 20
27.345713
 30
0.0
 11
58.117026
 21
27.345713
 31
0.0
  0
LINE
  5
3fa
100
AcDbEntity
  8
0
 62
7
100
AcDbLine
 10
61.178262
 20
24.703046
 30
0.0
 11
61.256364
 21
26.100574
 31
0.0
  0
LINE
  5
3fb
100
AcDbEntity
  8
0
 62
7
100
AcDbLine
 10
61.256364
 20
26.100574
 30
0.0
 11
61.765953
 21
29.014686
 31
0.0
  0
LINE
  5
3fc
100
AcDbEntity
  8
0
 62
7
100
AcDbLine
 10
61.765953
 20
29.014686
 30
0.0
 11
62.458839
 21
32.188786
 31
0.0
  0
LINE
  5
3fd
100
AcDbEntity
  8
0
 62
7
100
AcDbLine
 10
62.458839
 20
32.188786
 30
0.0
 11
63.086835
 21
34.366279
 31
0.0
  0
LINE
  5
3fe
100
AcDbEntity
  8
0
 62
7
100
AcDbLine
 10
63.086835
 20
34.366279
 30
0.0
 11
63.418474
 21
34.976157
 31
0.0
  0
LINE
  5
3ff
100
AcDbEntity
  8
0
 62
7
100
AcDbLine
 10
63.418474
 20
34.976157
 30
0.0
 11
63.873793
 21
35.515155
 31
0.0
  0
LINE
  5
400
100
AcDbEntity
  8
0
 62
7
100
AcDbLine
 10
63.873793
 20
35.515155
 30
0.0
 11
65.048179
 21
36.329734
 31
0.0
  0
LINE
  5
401
100
AcDbEntity
  8
0
 62
7
100
AcDbLine
 10
65.048179
 20
36.329734
 30
0.0
 11
66.395409
 21
36.708465
 31
0.0
  0
LINE
  5
402
100
AcDbEntity
  8
0
 62
7
100
AcDbLine
 10
66.395409
 20
36.708465
 30
0.0
 11
67.066781
 21
36.702653
 31
0.0
  0
LINE
  5
403
100
AcDbEntity
  8
0
 62
7
100
AcDbLine
 10
67.066781
 20
36.702653
 30
0.0
 11
67.700895
 21
36.549798
 31
0.0
  0
LINE
  5
404
100
AcDbEntity
  8
0
 62
7
100
AcDbLine
 10
67.700895
 20
36.549798
 30
0.0
 11
68.292164
 21
36.179179
 31
0.0
  0
LINE
  5
405
100
AcDbEntity
  8
0
 62
7
100
AcDbLine
 10
68.292164
 20
36.179179
 30
0.0
 11
68.353004
 21
35.920408
 31
0.0
  0
LINE
  5
406
100
AcDbEntity
  8
0
 62
7
100
AcDbLine
 10
68.353004
 20
35.920408
 30
0.0
 11
68.293691
 21
35.551395
 31
0.0
  0
LINE
  5
407
100
AcDbEntity
  8
0
 62
7
100
AcDbLine
 10
68.293691
 20
35.551395
 30
0.0
 11
68.215911
 21
35.155740
 31
0.0
  0
LINE
  5
408
100
AcDbEntity
  8
0
 62
7
100
AcDbLine
 10
68.215911
 20
35.155740
 30
0.0
 11
68.295071
 21
34.966374
 31
0.0
  0
LINE
  5
409
100
AcDbEntity
  8
0
 62
7
100
AcDbLine
 10
68.295071
 20
34.966374
 30
0.0
 11
69.251937
 21
35.027263
 31
0.0
  0
LINE
  5
40a
100
AcDbEntity
  8
0
 62
7
100
AcDbLine
 10
69.251937
 20
35.027263
 30
0.0
 11
70.387300
 21
35.208814
 31
0.0
  0
LINE
  5
40b
100
AcDbEntity
  8
0
 62
7
100
AcDbLine
 10
70.387300
 20
35.208814
 30
0.0
 11
70.387300
 21
34.043857
 31
0.0
  0
LINE
  5
40c
100
AcDbEntity
  8
0
 62
7
100
AcDbLine
 10
70.387300
 20
34.043857
 30
0.0
 11
70.387300
 21
32.878897
 31
0.0
  0
LINE
  5
40d
100
AcDbEntity
  8
0
 62
7
100
AcDbLine
 10
70.387300
 20
32.878897
 30
0.0
 11
72.184819
 21
32.878897
 31
0.0
  0
LINE
  5
40e
100
AcDbEntity
  8
0
 62
7
100
AcDbLine
 10
72.184819
 20
32.878897
 30
0.0
 11
73.982337
 21
32.878897
 31
0.0
  0
LINE
  5
40f
100
AcDbEntity
  8
0
 62
7
100
AcDbLine
 10
73.982337
 20
32.878897
 30
0.0
 11
74.157267
 21
31.820564
 31
0.0
  0
LINE
  5
410
100
AcDbEntity
  8
0
 62
7
100
AcDbLine
 10
74.157267
 20
31.820564
 30
0.0
 11
74.335304
 21
29.528228
 31
0.0
  0
LINE
  5
411
100
AcDbEntity
  8
0
 62
7
100
AcDbLine
 10
74.335304
 20
29.528228
 30
0.0
 11
74.412229
 21
28.588447
 31
0.0
  0
LINE
  5
412
100
AcDbEntity
  8
0
 62
7
100
AcDbLine
 10
74.412229
 20
28.588447
 30
0.0
 11
74.533113
 21
28.504532
 31
0.0
  0
LINE
  5
413
100
AcDbEntity
  8
0
 62
7
100
AcDbLine
 10
74.533113
 20
28.504532
 30
0.0
 11
74.733466
 21
28.622094
 31
0.0
  0
LINE
  5
414
100
AcDbEntity
  8
0
 62
7
100
AcDbLine
 10
74.733466
 20
28.622094
 30
0.0
 11
75.200141
 21
29.327083
 31
0.0
  0
LINE
  5
415
100
AcDbEntity
  8
0
 62
7
100
AcDbLine
 10
75.200141
 20
29.327083
 30
0.0
 11
75.767387
 21
30.561652
 31
0.0
  0
LINE
  5
416
100
AcDbEntity
  8
0
 62
7
100
AcDbLine
 10
75.767387
 20
30.561652
 30
0.0
 11
76.297158
 21
31.814048
 31
0.0
  0
LINE
  5
417
100
AcDbEntity
  8
0
 62
7
100
AcDbLine
 10
76.297158
 20
31.814048
 30
0.0
 11
76.717708
 21
32.516785
 31
0.0
  0
LINE
  5
418
100
AcDbEntity
  8
0
 62
7
100
AcDbLine
 10
76.717708
 20
32.516785
 30
0.0
 11
77.146481
 21
32.807195
 31
0.0
  0
LINE
  5
419
100
AcDbEntity
  8
0
 62
7
100
AcDbLine
 10
77.146481
 20
32.807195
 30
0.0
 11
77.700920
 21
32.822611
 31
0.0
  0
LINE
  5
41a
100
AcDbEntity
  8
0
 62
7
100
AcDbLine
 10
77.700920
 20
32.822611
 30
0.0
 11
78.097350
 21
32.736984
 31
0.0
  0
LINE
  5
41b
100
AcDbEntity
  8
0
 62
7
100
AcDbLine
 10
78.097350
 20
32.736984
 30
0.0
 11
78.326652
 21
32.527545
 31
0.0
  0
LINE
  5
41c
100
AcDbEntity
  8
0
 62
7
100
AcDbLine
 10
78.326652
 20
32.527545
 30
0.0
 11
78.504381
 21
31.326675
 31
0.0
  0
LINE
  5
41d
100
AcDbEntity
  8
0
 62
7
100
AcDbLine
 10
78.504381
 20
31.326675
 30
0.0
 11
78.725069
 21
29.315276
 31
0.0
  0
LINE
  5
41e
100
AcDbEntity
  8
0
 62
7
100
AcDbLine
 10
78.725069
 20
29.315276
 30
0.0
 11
78.895890
 21
28.812921
 31
0.0
  0
LINE
  5
41f
100
AcDbEntity
  8
0
 62
7
100
AcDbLine
 10
78.895890
 20
28.812921
 30
0.0
 11
79.107157
 21
28.645564
 31
0.0
  0
LINE
  5
420
100
AcDbEntity
  8
0
 62
7
100
AcDbLine
 10
79.107157
 20
28.645564
 30
0.0
 11
79.467793
 21
29.163706
 31
0.0
  0
LINE
  5
421
100
AcDbEntity
  8
0
 62
7
100
AcDbLine
 10
79.467793
 20
29.163706
 30
0.0
 11
79.994413
 21
30.409453
 31
0.0
  0
LINE
  5
422
100
AcDbEntity
  8
0
 62
7
100
AcDbLine
 10
79.994413
 20
30.409453
 30
0.0
 11
80.910046
 21
32.526120
 31
0.0
  0
LINE
  5
423
100
AcDbEntity
  8
0
 62
7
100
AcDbLine
 10
80.910046
 20
32.526120
 30
0.0
 11
81.335934
 21
32.776650
 31
0.0
  0
LINE
  5
424
100
AcDbEntity
  8
0
 62
7
100
AcDbLine
 10
81.335934
 20
32.776650
 30
0.0
 11
81.965186
 21
32.869271
 31
0.0
  0
LINE
  5
425
100
AcDbEntity
  8
0
 62
7
100
AcDbLine
 10
81.965186
 20
32.869271
 30
0.0
 11
82.580865
 21
32.799928
 31
0.0
  0
LINE
  5
426
100
AcDbEntity
  8
0
 62
7
100
AcDbLine
 10
82.580865
 20
32.799928
 30
0.0
 11
82.966035
 21
32.564564
 31
0.0
  0
LINE
  5
427
100
AcDbEntity
  8
0
 62
7
100
AcDbLine
 10
82.966035
 20
32.564564
 30
0.0
 11
82.631524
 21
31.405470
 31
0.0
  0
LINE
  5
428
100
AcDbEntity
  8
0
 62
7
100
AcDbLine
 10
82.631524
 20
31.405470
 30
0.0
 11
81.606401
 21
29.150372
 31
0.0
  0
LINE
  5
429
100
AcDbEntity
  8
0
 62
7
100
AcDbLine
 10
81.606401
 20
29.150372
 30
0.0
 11
80.376790
 21
26.793593
 31
0.0
  0
LINE
  5
42a
100
AcDbEntity
  8
0
 62
7
100
AcDbLine
 10
80.376790
 20
26.793593
 30
0.0
 11
79.428811
 21
25.329453
 31
0.0
  0
LINE
  5
42b
100
AcDbEntity
  8
0
 62
7
100
AcDbLine
 10
79.428811
 20
25.329453
 30
0.0
 11
78.983021
 21
24.939289
 31
0.0
  0
LINE
  5
42c
100
AcDbEntity
  8
0
 62
7
100
AcDbLine
 10
78.983021
 20
24.939289
 30
0.0
 11
78.562577
 21
24.732009
 31
0.0
  0
LINE
  5
42d
100
AcDbEntity
  8
0
 62
7
100
AcDbLine
 10
78.562577
 20
24.732009
 30
0.0
 11
78.177988
 21
24.700258
 31
0.0
  0
LINE
  5
42e
100
AcDbEntity
  8
0
 62
7
100
AcDbLine
 10
78.177988
 20
24.700258
 30
0.0
 11
77.839761
 21
24.836681
 31
0.0
  0
LINE
  5
42f
100
AcDbEntity
  8
0
 62
7
100
AcDbLine
 10
77.839761
 20
24.836681
 30
0.0
 11
77.558404
 21
25.133924
 31
0.0
  0
LINE
  5
430
100
AcDbEntity
  8
0
 62
7
100
AcDbLine
 10
77.558404
 20
25.133924
 30
0.0
 11
77.344426
 21
25.584631
 31
0.0
  0
LINE
  5
431
100
AcDbEntity
  8
0
 62
7
100
AcDbLine
 10
77.344426
 20
25.584631
 30
0.0
 11
77.160634
 21
26.917021
 31
0.0
  0
LINE
  5
432
100
AcDbEntity
  8
0
 62
7
100
AcDbLine
 10
77.160634
 20
26.917021
 30
0.0
 11
77.086659
 21
27.761358
 31
0.0
  0
LINE
  5
433
100
AcDbEntity
  8
0
 62
7
100
AcDbLine
 10
77.086659
 20
27.761358
 30
0.0
 11
76.908804
 21
28.203446
 31
0.0
  0
LINE
  5
434
100
AcDbEntity
  8
0
 62
7
100
AcDbLine
 10
76.908804
 20
28.203446
 30
0.0
 11
76.452587
 21
27.845761
 31
0.0
  0
LINE
  5
435
100
AcDbEntity
  8
0
 62
7
100
AcDbLine
 10
76.452587
 20
27.845761
 30
0.0
 11
75.709359
 21
26.767240
 31
0.0
  0
LINE
  5
436
100
AcDbEntity
  8
0
 62
7
100
AcDbLine
 10
75.709359
 20
26.767240
 30
0.0
 11
74.562421
 21
25.183287
 31
0.0
  0
LINE
  5
437
100
AcDbEntity
  8
0
 62
7
100
AcDbLine
 10
74.562421
 20
25.183287
 30
0.0
 11
74.076232
 21
24.791944
 31
0.0
  0
LINE
  5
438
100
AcDbEntity
  8
0
 62
7
100
AcDbLine
 10
74.076232
 20
24.791944
 30
0.0
 11
73.649810
 21
24.667652
 31
0.0
  0
LINE
  5
439
100
AcDbEntity
  8
0
 62
7
100
AcDbLine
 10
73.649810
 20
24.667652
 30
0.0
 11
73.284341
 21
24.810383
 31
0.0
  0
LINE
  5
43a
100
AcDbEntity
  8
0
 62
7
100
AcDbLine
 10
73.284341
 20
24.810383
 30
0.0
 11
72.981010
 21
25.220111
 31
0.0
  0
LINE
  5
43b
100
AcDbEntity
  8
0
 62
7
100
AcDbLine
 10
72.981010
 20
25.220111
 30
0.0
 11
72.741003
 21
25.896808
 31
0.0
  0
LINE
  5
43c
100
AcDbEntity
  8
0
 62
7
100
AcDbLine
 10
72.741003
 20
25.896808
 30
0.0
 11
72.565506
 21
26.840445
 31
0.0
  0
LINE
  5
43d
100
AcDbEntity
  8
0
 62
7
100
AcDbLine
 10
72.565506
 20
26.840445
 30
0.0
 11
72.245058
 21
29.132781
 31
0.0
  0
LINE
  5
43e
100
AcDbEntity
  8
0
 62
7
100
AcDbLine
 10
72.245058
 20
29.132781
 30
0.0
 11
71.962166
 21
30.294277
 31
0.0
  0
LINE
  5
43f
100
AcDbEntity
  8
0
 62
7
100
AcDbLine
 10
71.962166
 20
30.294277
 30
0.0
 11
71.781582
 21
30.571076
 31
0.0
  0
LINE
  5
440
100
AcDbEntity
  8
0
 62
7
100
AcDbLine
 10
71.781582
 20
30.571076
 30
0.0
 11
71.546521
 21
30.709304
 31
0.0
  0
LINE
  5
441
100
AcDbEntity
  8
0
 62
7
100
AcDbLine
 10
71.546521
 20
30.709304
 30
0.0
 11
70.827813
 21
30.762231
 31
0.0
  0
LINE
  5
442
100
AcDbEntity
  8
0
 62
7
100
AcDbLine
 10
70.827813
 20
30.762231
 30
0.0
 11
70.186685
 21
30.737360
 31
0.0
  0
LINE
  5
443
100
AcDbEntity
  8
0
 62
7
100
AcDbLine
 10
70.186685
 20
30.737360
 30
0.0
 11
69.814836
 21
30.578317
 31
0.0
  0
LINE
  5
444
100
AcDbEntity
  8
0
 62
7
100
AcDbLine
 10
69.814836
 20
30.578317
 30
0.0
 11
69.579420
 21
30.158453
 31
0.0
  0
LINE
  5
445
100
AcDbEntity
  8
0
 62
7
100
AcDbLine
 10
69.579420
 20
30.158453
 30
0.0
 11
69.347591
 21
29.351120
 31
0.0
  0
LINE
  5
446
100
AcDbEntity
  8
0
 62
7
100
AcDbLine
 10
69.347591
 20
29.351120
 30
0.0
 11
69.071845
 21
28.084657
 31
0.0
  0
LINE
  5
447
100
AcDbEntity
  8
0
 62
7
100
AcDbLine
 10
69.071845
 20
28.084657
 30
0.0
 11
69.082597
 21
27.299114
 31
0.0
  0
LINE
  5
448
100
AcDbEntity
  8
0
 62
7
100
AcDbLine
 10
69.082597
 20
27.299114
 30
0.0
 11
69.415218
 21
26.869296
 31
0.0
  0
LINE
  5
449
100
AcDbEntity
  8
0
 62
7
100
AcDbLine
 10
69.415218
 20
26.869296
 30
0.0
 11
70.105078
 21
26.670008
 31
0.0
  0
LINE
  5
44a
100
AcDbEntity
  8
0
 62
7
100
AcDbLine
 10
70.105078
 20
26.670008
 30
0.0
 11
70.629835
 21
26.568584
 31
0.0
  0
LINE
  5
44b
100
AcDbEntity
  8
0
 62
7
100
AcDbLine
 10
70.629835
 20
26.568584
 30
0.0
 11
70.928226
 21
26.411303
 31
0.0
  0
LINE
  5
44c
100
AcDbEntity
  8
0
 62
7
100
AcDbLine
 10
70.928226
 20
26.411303
 30
0.0
 11
71.061988
 21
26.136431
 31
0.0
  0
LINE
  5
44d
100
AcDbEntity
  8
0
 62
7
100
AcDbLine
 10
71.061988
 20
26.136431
 30
0.0
 11
71.092856
 21
25.682231
 31
0.0
  0
LINE
  5
44e
100
AcDbEntity
  8
0
 62
7
100
AcDbLine
 10
71.092856
 20
25.682231
 30
0.0
 11
71.063698
 21
25.200364
 31
0.0
  0
LINE
  5
44f
100
AcDbEntity
  8
0
 62
7
100
AcDbLine
 10
71.063698
 20
25.200364
 30
0.0
 11
70.889059
 21
24.938006
 31
0.0
  0
LINE
  5
450
100
AcDbEntity
  8
0
 62
7
100
AcDbLine
 10
70.889059
 20
24.938006
 30
0.0
 11
70.438188
 21
24.814500
 31
0.0
  0
LINE
  5
451
100
AcDbEntity
  8
0
 62
7
100
AcDbLine
 10
70.438188
 20
24.814500
 30
0.0
 11
69.580337
 21
24.749190
 31
0.0
  0
LINE
  5
452
100
AcDbEntity
  8
0
 62
7
100
AcDbLine
 10
69.580337
 20
24.749190
 30
0.0
 11
68.641086
 21
24.751315
 31
0.0
  0
LINE
  5
453
100
AcDbEntity
  8
0
 62
7
100
AcDbLine
 10
68.641086
 20
24.751315
 30
0.0
 11
67.915528
 21
24.897739
 31
0.0
  0
LINE
  5
454
100
AcDbEntity
  8
0
 62
7
100
AcDbLine
 10
67.915528
 20
24.897739
 30
0.0
 11
67.392269
 21
25.218667
 31
0.0
  0
LINE
  5
455
100
AcDbEntity
  8
0
 62
7
100
AcDbLine
 10
67.392269
 20
25.218667
 30
0.0
 11
67.059912
 21
25.744305
 31
0.0
  0
LINE
  5
456
100
AcDbEntity
  8
0
 62
7
100
AcDbLine
 10
67.059912
 20
25.744305
 30
0.0
 11
66.907064
 21
26.504860
 31
0.0
  0
LINE
  5
457
100
AcDbEntity
  8
0
 62
7
100
AcDbLine
 10
66.907064
 20
26.504860
 30
0.0
 11
66.922329
 21
27.530537
 31
0.0
  0
LINE
  5
458
100
AcDbEntity
  8
0
 62
7
100
AcDbLine
 10
66.922329
 20
27.530537
 30
0.0
 11
67.411620
 21
30.498079
 31
0.0
  0
LINE
  5
459
100
AcDbEntity
  8
0
 62
7
100
AcDbLine
 10
67.411620
 20
30.498079
 30
0.0
 11
68.128072
 21
34.219453
 31
0.0
  0
LINE
  5
45a
100
AcDbEntity
  8
0
 62
7
100
AcDbLine
 10
68.128072
 20
34.219453
 30
0.0
 11
67.822972
 21
34.460945
 31
0.0
  0
LINE
  5
45b
100
AcDbEntity
  8
0
 62
7
100
AcDbLine
 10
67.822972
 20
34.460945
 30
0.0
 11
67.104623
 21
34.565718
 31
0.0
  0
LINE
  5
45c
100
AcDbEntity
  8
0
 62
7
100
AcDbLine
 10
67.104623
 20
34.565718
 30
0.0
 11
66.272261
 21
34.521990
 31
0.0
  0
LINE
  5
45d
100
AcDbEntity
  8
0
 62
7
100
AcDbLine
 10
66.272261
 20
34.521990
 30
0.0
 11
65.625125
 21
34.317982
 31
0.0
  0
LINE
  5
45e
100
AcDbEntity
  8
0
 62
7
100
AcDbLine
 10
65.625125
 20
34.317982
 30
0.0
 11
65.039853
 21
32.849753
 31
0.0
  0
LINE
  5
45f
100
AcDbEntity
  8
0
 62
7
100
AcDbLine
 10
65.039853
 20
32.849753
 30
0.0
 11
64.177187
 21
29.664640
 31
0.0
  0
LINE
  5
460
100
AcDbEntity
  8
0
 62
7
100
AcDbLine
 10
64.177187
 20
29.664640
 30
0.0
 11
63.325454
 21
26.427614
 31
0.0
  0
LINE
  5
461
100
AcDbEntity
  8
0
 62
7
100
AcDbLine
 10
63.325454
 20
26.427614
 30
0.0
 11
62.766473
 21
24.834565
 31
0.0
  0
LINE
  5
462
100
AcDbEntity
  8
0
 62
7
100
AcDbLine
 10
62.766473
 20
24.834565
 30
0.0
 11
62.406319
 21
24.548749
 31
0.0
  0
LINE
  5
463
100
AcDbEntity
  8
0
 62
7
100
AcDbLine
 10
62.406319
 20
24.548749
 30
0.0
 11
61.977888
 21
24.427941
 31
0.0
  0
LINE
  5
464
100
AcDbEntity
  8
0
 62
7
100
AcDbLine
 10
61.977888
 20
24.427941
 30
0.0
 11
61.546697
 21
24.477565
 31
0.0
  0
LINE
  5
465
100
AcDbEntity
  8
0
 62
7
100
AcDbLine
 10
61.546697
 20
24.477565
 30
0.0
 11
61.178262
 21
24.703047
 31
0.0
  0
LINE
  5
466
100
AcDbEntity
  8
0
 62
7
100
AcDbLine
 10
61.178262
 20
24.703047
 30
0.0
 11
61.178262
 21
24.703046
 31
0.0
  0
LINE
  5
467
100
AcDbEntity
  8
0
 62
7
100
AcDbLine
 10
84.241632
 20
24.675078
 30
0.0
 11
83.714163
 21
24.901274
 31
0.0
  0
LINE
  5
468
100
AcDbEntity
  8
0
 62
7
100
AcDbLine
 10
83.714163
 20
24.901274
 30
0.0
 11
83.258586
 21
25.277910
 31
0.0
  0
LINE
  5
469
100
AcDbEntity
  8
0
 62
7
100
AcDbLine
 10
83.258586
 20
25.277910
 30
0.0
 11
82.883264
 21
25.782165
 31
0.0
  0
LINE
  5
46a
100
AcDbEntity
  8
0
 62
7
100
AcDbLine
 10
82.883264
 20
25.782165
 30
0.0
 11
82.596557
 21
26.391219
 31
0.0
  0
LINE
  5
46b
100
AcDbEntity
  8
0
 62
7
100
AcDbLine
 10
82.596557
 20
26.391219
 30
0.0
 11
82.322445
 21
27.832449
 31
0.0
  0
LINE
  5
46c
100
AcDbEntity
  8
0
 62
7
100
AcDbLine
 10
82.322445
 20
27.832449
 30
0.0
 11
82.503148
 21
29.419042
 31
0.0
  0
LINE
  5
46d
100
AcDbEntity
  8
0
 62
7
100
AcDbLine
 10
82.503148
 20
29.419042
 30
0.0
 11
82.823198
 21
30.297564
 31
0.0
  0
LINE
  5
46e
100
AcDbEntity
  8
0
 62
7
100
AcDbLine
 10
82.823198
 20
30.297564
 30
0.0
 11
83.274451
 21
31.072746
 31
0.0
  0
LINE
  5
46f
100
AcDbEntity
  8
0
 62
7
100
AcDbLine
 10
83.274451
 20
31.072746
 30
0.0
 11
83.842391
 21
31.734962
 31
0.0
  0
LINE
  5
470
100
AcDbEntity
  8
0
 62
7
100
AcDbLine
 10
83.842391
 20
31.734962
 30
0.0
 11
84.512505
 21
32.274585
 31
0.0
  0
LINE
  5
471
100
AcDbEntity
  8
0
 62
7
100
AcDbLine
 10
84.512505
 20
32.274585
 30
0.0
 11
85.270276
 21
32.681988
 31
0.0
  0
LINE
  5
472
100
AcDbEntity
  8
0
 62
7
100
AcDbLine
 10
85.270276
 20
32.681988
 30
0.0
 11
86.101190
 21
32.947543
 31
0.0
  0
LINE
  5
473
100
AcDbEntity
  8
0
 62
7
100
AcDbLine
 10
86.101190
 20
32.947543
 30
0.0
 11
86.990732
 21
33.061625
 31
0.0
  0
LINE
  5
474
100
AcDbEntity
  8
0
 62
7
100
AcDbLine
 10
86.990732
 20
33.061625
 30
0.0
 11
87.924386
 21
33.014606
 31
0.0
  0
LINE
  5
475
100
AcDbEntity
  8
0
 62
7
100
AcDbLine
 10
87.924386
 20
33.014606
 30
0.0
 11
89.012043
 21
32.792089
 31
0.0
  0
LINE
  5
476
100
AcDbEntity
  8
0
 62
7
100
AcDbLine
 10
89.012043
 20
32.792089
 30
0.0
 11
89.345016
 21
32.624146
 31
0.0
  0
LINE
  5
477
100
AcDbEntity
  8
0
 62
7
100
AcDbLine
 10
89.345016
 20
32.624146
 30
0.0
 11
89.553605
 21
32.388639
 31
0.0
  0
LINE
  5
478
100
AcDbEntity
  8
0
 62
7
100
AcDbLine
 10
89.553605
 20
32.388639
 30
0.0
 11
89.646188
 21
31.625619
 31
0.0
  0
LINE
  5
479
100
AcDbEntity
  8
0
 62
7
100
AcDbLine
 10
89.646188
 20
31.625619
 30
0.0
 11
89.386907
 21
30.324391
 31
0.0
  0
LINE
  5
47a
100
AcDbEntity
  8
0
 62
7
100
AcDbLine
 10
89.386907
 20
30.324391
 30
0.0
 11
89.059788
 21
28.500195
 31
0.0
  0
LINE
  5
47b
100
AcDbEntity
  8
0
 62
7
100
AcDbLine
 10
89.059788
 20
28.500195
 30
0.0
 11
88.904973
 21
26.670014
 31
0.0
  0
LINE
  5
47c
100
AcDbEntity
  8
0
 62
7
100
AcDbLine
 10
88.904973
 20
26.670014
 30
0.0
 11
88.872856
 21
24.835569
 31
0.0
  0
LINE
  5
47d
100
AcDbEntity
  8
0
 62
7
100
AcDbLine
 10
88.872856
 20
24.835569
 30
0.0
 11
87.158968
 21
24.812568
 31
0.0
  0
LINE
  5
47e
100
AcDbEntity
  8
0
 62
7
100
AcDbLine
 10
87.158968
 20
24.812568
 30
0.0
 11
85.183413
 21
24.645357
 31
0.0
  0
LINE
  5
47f
100
AcDbEntity
  8
0
 62
7
100
AcDbLine
 10
85.183413
 20
24.645357
 30
0.0
 11
84.241632
 21
24.675075
 31
0.0
  0
LINE
  5
480
100
AcDbEntity
  8
0
 62
7
100
AcDbLine
 10
84.241632
 20
24.675075
 30
0.0
 11
84.241632
 21
24.675078
 31
0.0
  0
LINE
  5
481
100
AcDbEntity
  8
0
 62
7
100
AcDbLine
 10
86.360528
 20
26.997008
 30
0.0
 11
86.906922
 21
28.993803
 31
0.0
  0
LINE
  5
482
100
AcDbEntity
  8
0
 62
7
100
AcDbLine
 10
86.906922
 20
28.993803
 30
0.0
 11
87.096507
 21
30.161383
 31
0.0
  0
LINE
  5
483
100
AcDbEntity
  8
0
 62
7
100
AcDbLine
 10
87.096507
 20
30.161383
 30
0.0
 11
87.095420
 21
30.752262
 31
0.0
  0
LINE
  5
484
100
AcDbEntity
  8
0
 62
7
100
AcDbLine
 10
87.095420
 20
30.752262
 30
0.0
 11
86.765021
 21
30.904747
 31
0.0
  0
LINE
  5
485
100
AcDbEntity
  8
0
 62
7
100
AcDbLine
 10
86.765021
 20
30.904747
 30
0.0
 11
86.329742
 21
30.857974
 31
0.0
  0
LINE
  5
486
100
AcDbEntity
  8
0
 62
7
100
AcDbLine
 10
86.329742
 20
30.857974
 30
0.0
 11
85.849221
 21
30.629845
 31
0.0
  0
LINE
  5
487
100
AcDbEntity
  8
0
 62
7
100
AcDbLine
 10
85.849221
 20
30.629845
 30
0.0
 11
85.383096
 21
30.238262
 31
0.0
  0
LINE
  5
488
100
AcDbEntity
  8
0
 62
7
100
AcDbLine
 10
85.383096
 20
30.238262
 30
0.0
 11
84.895896
 21
29.487020
 31
0.0
  0
LINE
  5
489
100
AcDbEntity
  8
0
 62
7
100
AcDbLine
 10
84.895896
 20
29.487020
 30
0.0
 11
84.608103
 21
28.584685
 31
0.0
  0
LINE
  5
48a
100
AcDbEntity
  8
0
 62
7
100
AcDbLine
 10
84.608103
 20
28.584685
 30
0.0
 11
84.556696
 21
27.723507
 31
0.0
  0
LINE
  5
48b
100
AcDbEntity
  8
0
 62
7
100
AcDbLine
 10
84.556696
 20
27.723507
 30
0.0
 11
84.778652
 21
27.095735
 31
0.0
  0
LINE
  5
48c
100
AcDbEntity
  8
0
 62
7
100
AcDbLine
 10
84.778652
 20
27.095735
 30
0.0
 11
85.162557
 21
26.802435
 31
0.0
  0
LINE
  5
48d
100
AcDbEntity
  8
0
 62
7
100
AcDbLine
 10
85.162557
 20
26.802435
 30
0.0
 11
85.619899
 21
26.684113
 31
0.0
  0
LINE
  5
48e
100
AcDbEntity
  8
0
 62
7
100
AcDbLine
 10
85.619899
 20
26.684113
 30
0.0
 11
86.052086
 21
26.746919
 31
0.0
  0
LINE
  5
48f
100
AcDbEntity
  8
0
 62
7
100
AcDbLine
 10
86.052086
 20
26.746919
 30
0.0
 11
86.360528
 21
26.997008
 31
0.0
  0
LINE
  5
490
100
AcDbEntity
  8
0
 62
7
100
AcDbLine
 10
86.360528
 20
26.997008
 30
0.0
 11
86.360528
 21
26.997008
 31
0.0
  0
LINE
  5
491
100
AcDbEntity
  8
0
 62
7
100
AcDbLine
 10
97.258217
 20
24.731449
 30
0.0
 11
96.598183
 21
25.039177
 31
0.0
  0
LINE
  5
492
100
AcDbEntity
  8
0
 62
7
100
AcDbLine
 10
96.598183
 20
25.039177
 30
0.0
 11
96.059212
 21
25.528423
 31
0.0
  0
LINE
  5
493
100
AcDbEntity
  8
0
 62
7
100
AcDbLine
 10
96.059212
 20
25.528423
 30
0.0
 11
95.649153
 21
26.167860
 31
0.0
  0
LINE
  5
494
100
AcDbEntity
  8
0
 62
7
100
AcDbLine
 10
95.649153
 20
26.167860
 30
0.0
 11
95.375858
 21
26.926157
 31
0.0
  0
LINE
  5
495
100
AcDbEntity
  8
0
 62
7
100
AcDbLine
 10
95.375858
 20
26.926157
 30
0.0
 11
95.247176
 21
27.771987
 31
0.0
  0
LINE
  5
496
100
AcDbEntity
  8
0
 62
7
100
AcDbLine
 10
95.247176
 20
27.771987
 30
0.0
 11
95.270960
 21
28.674020
 31
0.0
  0
LINE
  5
497
100
AcDbEntity
  8
0
 62
7
100
AcDbLine
 10
95.270960
 20
28.674020
 30
0.0
 11
95.455059
 21
29.600927
 31
0.0
  0
LINE
  5
498
100
AcDbEntity
  8
0
 62
7
100
AcDbLine
 10
95.455059
 20
29.600927
 30
0.0
 11
95.807324
 21
30.521379
 31
0.0
  0
LINE
  5
499
100
AcDbEntity
  8
0
 62
7
100
AcDbLine
 10
95.807324
 20
30.521379
 30
0.0
 11
96.213071
 21
31.199093
 31
0.0
  0
LINE
  5
49a
100
AcDbEntity
  8
0
 62
7
100
AcDbLine
 10
96.213071
 20
31.199093
 30
0.0
 11
96.720292
 21
31.789778
 31
0.0
  0
LINE
  5
49b
100
AcDbEntity
  8
0
 62
7
100
AcDbLine
 10
96.720292
 20
31.789778
 30
0.0
 11
97.946780
 21
32.664769
 31
0.0
  0
LINE
  5
49c
100
AcDbEntity
  8
0
 62
7
100
AcDbLine
 10
97.946780
 20
32.664769
 30
0.0
 11
98.619862
 21
32.926427
 31
0.0
  0
LINE
  5
49d
100
AcDbEntity
  8
0
 62
7
100
AcDbLine
 10
98.619862
 20
32.926427
 30
0.0
 11
99.302045
 21
33.055762
 31
0.0
  0
LINE
  5
49e
100
AcDbEntity
  8
0
 62
7
100
AcDbLine
 10
99.302045
 20
33.055762
 30
0.0
 11
99.970236
 21
33.041450
 31
0.0
  0
LINE
  5
49f
100
AcDbEntity
  8
0
 62
7
100
AcDbLine
 10
99.970236
 20
33.041450
 30
0.0
 11
100.601343
 21
32.872166
 31
0.0
  0
LINE
  5
4a0
100
AcDbEntity
  8
0
 62
7
100
AcDbLine
 10
100.601343
 20
32.872166
 30
0.0
 11
101.236112
 21
32.519070
 31
0.0
  0
LINE
  5
4a1
100
AcDbEntity
  8
0
 62
7
100
AcDbLine
 10
101.236112
 20
32.519070
 30
0.0
 11
101.669277
 21
32.056710
 31
0.0
  0
LINE
  5
4a2
100
AcDbEntity
  8
0
 62
7
100
AcDbLine
 10
101.669277
 20
32.056710
 30
0.0
 11
101.917186
 21
31.459656
 31
0.0
  0
LINE
  5
4a3
100
AcDbEntity
  8
0
 62
7
100
AcDbLine
 10
101.917186
 20
31.459656
 30
0.0
 11
101.996189
 21
30.702476
 31
0.0
  0
LINE
  5
4a4
100
AcDbEntity
  8
0
 62
7
100
AcDbLine
 10
101.996189
 20
30.702476
 30
0.0
 11
101.925148
 21
30.163807
 31
0.0
  0
LINE
  5
4a5
100
AcDbEntity
  8
0
 62
7
100
AcDbLine
 10
101.925148
 20
30.163807
 30
0.0
 11
101.724398
 21
29.641046
 31
0.0
  0
LINE
  5
4a6
100
AcDbEntity
  8
0
 62
7
100
AcDbLine
 10
101.724398
 20
29.641046
 30
0.0
 11
101.007997
 21
28.711539
 31
0.0
  0
LINE
  5
4a7
100
AcDbEntity
  8
0
 62
7
100
AcDbLine
 10
101.007997
 20
28.711539
 30
0.0
 11
99.995446
 21
28.050527
 31
0.0
  0
LINE
  5
4a8
100
AcDbEntity
  8
0
 62
7
100
AcDbLine
 10
99.995446
 20
28.050527
 30
0.0
 11
98.835204
 21
27.794582
 31
0.0
  0
LINE
  5
4a9
100
AcDbEntity
  8
0
 62
7
100
AcDbLine
 10
98.835204
 20
27.794582
 30
0.0
 11
98.253176
 21
27.713393
 31
0.0
  0
LINE
  5
4aa
100
AcDbEntity
  8
0
 62
7
100
AcDbLine
 10
98.253176
 20
27.713393
 30
0.0
 11
97.765215
 21
27.524112
 31
0.0
  0
LINE
  5
4ab
100
AcDbEntity
  8
0
 62
7
100
AcDbLine
 10
97.765215
 20
27.524112
 30
0.0
 11
97.510278
 21
27.201246
 31
0.0
  0
LINE
  5
4ac
100
AcDbEntity
  8
0
 62
7
100
AcDbLine
 10
97.510278
 20
27.201246
 30
0.0
 11
97.713555
 21
26.904247
 31
0.0
  0
LINE
  5
4ad
100
AcDbEntity
  8
0
 62
7
100
AcDbLine
 10
97.713555
 20
26.904247
 30
0.0
 11
98.305761
 21
26.678635
 31
0.0
  0
LINE
  5
4ae
100
AcDbEntity
  8
0
 62
7
100
AcDbLine
 10
98.305761
 20
26.678635
 30
0.0
 11
99.217607
 21
26.569930
 31
0.0
  0
LINE
  5
4af
100
AcDbEntity
  8
0
 62
7
100
AcDbLine
 10
99.217607
 20
26.569930
 30
0.0
 11
100.245053
 21
26.418801
 31
0.0
  0
LINE
  5
4b0
100
AcDbEntity
  8
0
 62
7
100
AcDbLine
 10
100.245053
 20
26.418801
 30
0.0
 11
100.446710
 21
26.210600
 31
0.0
  0
LINE
  5
4b1
100
AcDbEntity
  8
0
 62
7
100
AcDbLine
 10
100.446710
 20
26.210600
 30
0.0
 11
100.538415
 21
25.861351
 31
0.0
  0
LINE
  5
4b2
100
AcDbEntity
  8
0
 62
7
100
AcDbLine
 10
100.538415
 20
25.861351
 30
0.0
 11
100.535929
 21
25.326610
 31
0.0
  0
LINE
  5
4b3
100
AcDbEntity
  8
0
 62
7
100
AcDbLine
 10
100.535929
 20
25.326610
 30
0.0
 11
100.397304
 21
24.978363
 31
0.0
  0
LINE
  5
4b4
100
AcDbEntity
  8
0
 62
7
100
AcDbLine
 10
100.397304
 20
24.978363
 30
0.0
 11
99.864607
 21
24.739869
 31
0.0
  0
LINE
  5
4b5
100
AcDbEntity
  8
0
 62
7
100
AcDbLine
 10
99.864607
 20
24.739869
 30
0.0
 11
99.028756
 21
24.608592
 31
0.0
  0
LINE
  5
4b6
100
AcDbEntity
  8
0
 62
7
100
AcDbLine
 10
99.028756
 20
24.608592
 30
0.0
 11
98.092408
 21
24.600472
 31
0.0
  0
LINE
  5
4b7
100
AcDbEntity
  8
0
 62
7
100
AcDbLine
 10
98.092408
 20
24.600472
 30
0.0
 11
97.258217
 21
24.731449
 31
0.0
  0
LINE
  5
4b8
100
AcDbEntity
  8
0
 62
7
100
AcDbLine
 10
97.258217
 20
24.731449
 30
0.0
 11
97.258217
 21
24.731449
 31
0.0
  0
LINE
  5
4b9
100
AcDbEntity
  8
0
 62
7
100
AcDbLine
 10
99.597300
 20
29.955885
 30
0.0
 11
99.913706
 21
30.413402
 31
0.0
  0
LINE
  5
4ba
100
AcDbEntity
  8
0
 62
7
100
AcDbLine
 10
99.913706
 20
30.413402
 30
0.0
 11
99.634387
 21
30.846101
 31
0.0
  0
LINE
  5
4bb
100
AcDbEntity
  8
0
 62
7
100
AcDbLine
 10
99.634387
 20
30.846101
 30
0.0
 11
99.384932
 21
31.058751
 31
0.0
  0
LINE
  5
4bc
100
AcDbEntity
  8
0
 62
7
100
AcDbLine
 10
99.384932
 20
31.058751
 30
0.0
 11
99.158874
 21
31.123811
 31
0.0
  0
LINE
  5
4bd
100
AcDbEntity
  8
0
 62
7
100
AcDbLine
 10
99.158874
 20
31.123811
 30
0.0
 11
98.485339
 21
30.799278
 31
0.0
  0
LINE
  5
4be
100
AcDbEntity
  8
0
 62
7
100
AcDbLine
 10
98.485339
 20
30.799278
 30
0.0
 11
97.975085
 21
30.342505
 31
0.0
  0
LINE
  5
4bf
100
AcDbEntity
  8
0
 62
7
100
AcDbLine
 10
97.975085
 20
30.342505
 30
0.0
 11
97.762856
 21
29.909062
 31
0.0
  0
LINE
  5
4c0
100
AcDbEntity
  8
0
 62
7
100
AcDbLine
 10
97.762856
 20
29.909062
 30
0.0
 11
97.967269
 21
29.593799
 31
0.0
  0
LINE
  5
4c1
100
AcDbEntity
  8
0
 62
7
100
AcDbLine
 10
97.967269
 20
29.593799
 30
0.0
 11
98.460827
 21
29.499570
 31
0.0
  0
LINE
  5
4c2
100
AcDbEntity
  8
0
 62
7
100
AcDbLine
 10
98.460827
 20
29.499570
 30
0.0
 11
99.064011
 21
29.621793
 31
0.0
  0
LINE
  5
4c3
100
AcDbEntity
  8
0
 62
7
100
AcDbLine
 10
99.064011
 20
29.621793
 30
0.0
 11
99.597300
 21
29.955885
 31
0.0
  0
LINE
  5
4c4
100
AcDbEntity
  8
0
 62
7
100
AcDbLine
 10
99.597300
 20
29.955885
 30
0.0
 11
99.597300
 21
29.955885
 31
0.0
  0
LINE
  5
4c5
100
AcDbEntity
  8
0
 62
7
100
AcDbLine
 10
89.804260
 20
25.004688
 30
0.0
 11
89.938682
 21
26.240820
 31
0.0
  0
LINE
  5
4c6
100
AcDbEntity
  8
0
 62
7
100
AcDbLine
 10
89.938682
 20
26.240820
 30
0.0
 11
90.421813
 21
28.732959
 31
0.0
  0
LINE
  5
4c7
100
AcDbEntity
  8
0
 62
7
100
AcDbLine
 10
90.421813
 20
28.732959
 30
0.0
 11
90.948081
 21
30.942326
 31
0.0
  0
LINE
  5
4c8
100
AcDbEntity
  8
0
 62
7
100
AcDbLine
 10
90.948081
 20
30.942326
 30
0.0
 11
91.475912
 21
32.161422
 31
0.0
  0
LINE
  5
4c9
100
AcDbEntity
  8
0
 62
7
100
AcDbLine
 10
91.475912
 20
32.161422
 30
0.0
 11
91.818494
 21
32.506552
 31
0.0
  0
LINE
  5
4ca
100
AcDbEntity
  8
0
 62
7
100
AcDbLine
 10
91.818494
 20
32.506552
 30
0.0
 11
92.255163
 21
32.732436
 31
0.0
  0
LINE
  5
4cb
100
AcDbEntity
  8
0
 62
7
100
AcDbLine
 10
92.255163
 20
32.732436
 30
0.0
 11
93.535692
 21
32.997560
 31
0.0
  0
LINE
  5
4cc
100
AcDbEntity
  8
0
 62
7
100
AcDbLine
 10
93.535692
 20
32.997560
 30
0.0
 11
94.643989
 21
33.036840
 31
0.0
  0
LINE
  5
4cd
100
AcDbEntity
  8
0
 62
7
100
AcDbLine
 10
94.643989
 20
33.036840
 30
0.0
 11
95.378036
 21
32.810806
 31
0.0
  0
LINE
  5
4ce
100
AcDbEntity
  8
0
 62
7
100
AcDbLine
 10
95.378036
 20
32.810806
 30
0.0
 11
95.701655
 21
32.343184
 31
0.0
  0
LINE
  5
4cf
100
AcDbEntity
  8
0
 62
7
100
AcDbLine
 10
95.701655
 20
32.343184
 30
0.0
 11
95.578665
 21
31.657702
 31
0.0
  0
LINE
  5
4d0
100
AcDbEntity
  8
0
 62
7
100
AcDbLine
 10
95.578665
 20
31.657702
 30
0.0
 11
95.370234
 21
31.307660
 31
0.0
  0
LINE
  5
4d1
100
AcDbEntity
  8
0
 62
7
100
AcDbLine
 10
95.370234
 20
31.307660
 30
0.0
 11
95.096262
 21
31.072158
 31
0.0
  0
LINE
  5
4d2
100
AcDbEntity
  8
0
 62
7
100
AcDbLine
 10
95.096262
 20
31.072158
 30
0.0
 11
94.189750
 21
30.850673
 31
0.0
  0
LINE
  5
4d3
100
AcDbEntity
  8
0
 62
7
100
AcDbLine
 10
94.189750
 20
30.850673
 30
0.0
 11
93.128251
 21
30.762236
 31
0.0
  0
LINE
  5
4d4
100
AcDbEntity
  8
0
 62
7
100
AcDbLine
 10
93.128251
 20
30.762236
 30
0.0
 11
92.411663
 21
27.798903
 31
0.0
  0
LINE
  5
4d5
100
AcDbEntity
  8
0
 62
7
100
AcDbLine
 10
92.411663
 20
27.798903
 30
0.0
 11
91.984801
 21
26.093419
 31
0.0
  0
LINE
  5
4d6
100
AcDbEntity
  8
0
 62
7
100
AcDbLine
 10
91.984801
 20
26.093419
 30
0.0
 11
91.673123
 21
25.203079
 31
0.0
  0
LINE
  5
4d7
100
AcDbEntity
  8
0
 62
7
100
AcDbLine
 10
91.673123
 20
25.203079
 30
0.0
 11
91.329454
 21
24.848244
 31
0.0
  0
LINE
  5
4d8
100
AcDbEntity
  8
0
 62
7
100
AcDbLine
 10
91.329454
 20
24.848244
 30
0.0
 11
90.806620
 21
24.749277
 31
0.0
  0
LINE
  5
4d9
100
AcDbEntity
  8
0
 62
7
100
AcDbLine
 10
90.806620
 20
24.749277
 30
0.0
 11
90.137474
 21
24.784171
 31
0.0
  0
LINE
  5
4da
100
AcDbEntity
  8
0
 62
7
100
AcDbLine
 10
90.137474
 20
24.784171
 30
0.0
 11
89.804260
 21
25.004688
 31
0.0
  0
LINE
  5
4db
100
AcDbEntity
  8
0
 62
7
100
AcDbLine
 10
89.804260
 20
25.004688
 30
0.0
 11
89.804260
 21
25.004688
 31
0.0
  0
LINE
  5
4dc
100
AcDbEntity
  8
0
 62
7
100
AcDbLine
 10
9.493567
 20
27.505911
 30
0.0
 11
8.091799
 21
27.696031
 31
0.0
  0
LINE
  5
4dd
100
AcDbEntity
  8
0
 62
7
100
AcDbLine
 10
8.091799
 20
27.696031
 30
0.0
 11
7.247551
 21
27.970225
 31
0.0
  0
LINE
  5
4de
100
AcDbEntity
  8
0
 62
7
100
AcDbLine
 10
7.247551
 20
27.970225
 30
0.0
 11
6.918724
 21
28.352035
 31
0.0
  0
LINE
  5
4df
100
AcDbEntity
  8
0
 62
7
100
AcDbLine
 10
6.918724
 20
28.352035
 30
0.0
 11
7.063219
 21
28.865003
 31
0.0
  0
LINE
  5
4e0
100
AcDbEntity
  8
0
 62
7
100
AcDbLine
 10
7.063219
 20
28.865003
 30
0.0
 11
7.499993
 21
29.237227
 31
0.0
  0
LINE
  5
4e1
100
AcDbEntity
  8
0
 62
7
100
AcDbLine
 10
7.499993
 20
29.237227
 30
0.0
 11
8.186658
 21
29.429069
 31
0.0
  0
LINE
  5
4e2
100
AcDbEntity
  8
0
 62
7
100
AcDbLine
 10
8.186658
 20
29.429069
 30
0.0
 11
9.050545
 21
29.431425
 31
0.0
  0
LINE
  5
4e3
100
AcDbEntity
  8
0
 62
7
100
AcDbLine
 10
9.050545
 20
29.431425
 30
0.0
 11
10.018983
 21
29.235194
 31
0.0
  0
LINE
  5
4e4
100
AcDbEntity
  8
0
 62
7
100
AcDbLine
 10
10.018983
 20
29.235194
 30
0.0
 11
11.240158
 21
28.697052
 31
0.0
  0
LINE
  5
4e5
100
AcDbEntity
  8
0
 62
7
100
AcDbLine
 10
11.240158
 20
28.697052
 30
0.0
 11
12.157815
 21
28.022126
 31
0.0
  0
LINE
  5
4e6
100
AcDbEntity
  8
0
 62
7
100
AcDbLine
 10
12.157815
 20
28.022126
 30
0.0
 11
12.510774
 21
27.463897
 31
0.0
  0
LINE
  5
4e7
100
AcDbEntity
  8
0
 62
7
100
AcDbLine
 10
12.510774
 20
27.463897
 30
0.0
 11
12.393873
 21
27.307757
 31
0.0
  0
LINE
  5
4e8
100
AcDbEntity
  8
0
 62
7
100
AcDbLine
 10
12.393873
 20
27.307757
 30
0.0
 11
12.037854
 21
27.275846
 31
0.0
  0
LINE
  5
4e9
100
AcDbEntity
  8
0
 62
7
100
AcDbLine
 10
12.037854
 20
27.275846
 30
0.0
 11
9.493567
 21
27.505911
 31
0.0
  0
LINE
  5
4ea
100
AcDbEntity
  8
0
 62
7
100
AcDbLine
 10
9.493567
 20
27.505911
 30
0.0
 11
9.493567
 21
27.505911
 31
0.0
  0
LINE
  5
4eb
100
AcDbEntity
  8
0
 62
7
100
AcDbLine
 10
36.026745
 20
27.685754
 30
0.0
 11
35.684599
 21
27.988138
 31
0.0
  0
LINE
  5
4ec
100
AcDbEntity
  8
0
 62
7
100
AcDbLine
 10
35.684599
 20
27.988138
 30
0.0
 11
35.785713
 21
28.357766
 31
0.0
  0
LINE
  5
4ed
100
AcDbEntity
  8
0
 62
7
100
AcDbLine
 10
35.785713
 20
28.357766
 30
0.0
 11
36.307600
 21
28.766541
 31
0.0
  0
LINE
  5
4ee
100
AcDbEntity
  8
0
 62
7
100
AcDbLine
 10
36.307600
 20
28.766541
 30
0.0
 11
37.227772
 21
29.186367
 31
0.0
  0
LINE
  5
4ef
100
AcDbEntity
  8
0
 62
7
100
AcDbLine
 10
37.227772
 20
29.186367
 30
0.0
 11
38.851785
 21
29.929550
 31
0.0
  0
LINE
  5
4f0
100
AcDbEntity
  8
0
 62
7
100
AcDbLine
 10
38.851785
 20
29.929550
 30
0.0
 11
40.574381
 21
30.899978
 31
0.0
  0
LINE
  5
4f1
100
AcDbEntity
  8
0
 62
7
100
AcDbLine
 10
40.574381
 20
30.899978
 30
0.0
 11
41.838112
 21
31.643121
 31
0.0
  0
LINE
  5
4f2
100
AcDbEntity
  8
0
 62
7
100
AcDbLine
 10
41.838112
 20
31.643121
 30
0.0
 11
42.673875
 21
31.967036
 31
0.0
  0
LINE
  5
4f3
100
AcDbEntity
  8
0
 62
7
100
AcDbLine
 10
42.673875
 20
31.967036
 30
0.0
 11
43.212291
 21
31.895735
 31
0.0
  0
LINE
  5
4f4
100
AcDbEntity
  8
0
 62
7
100
AcDbLine
 10
43.212291
 20
31.895735
 30
0.0
 11
43.583981
 21
31.453232
 31
0.0
  0
LINE
  5
4f5
100
AcDbEntity
  8
0
 62
7
100
AcDbLine
 10
43.583981
 20
31.453232
 30
0.0
 11
43.803125
 21
30.769317
 31
0.0
  0
LINE
  5
4f6
100
AcDbEntity
  8
0
 62
7
100
AcDbLine
 10
43.803125
 20
30.769317
 30
0.0
 11
43.726507
 21
30.120120
 31
0.0
  0
LINE
  5
4f7
100
AcDbEntity
  8
0
 62
7
100
AcDbLine
 10
43.726507
 20
30.120120
 30
0.0
 11
43.372290
 21
29.518156
 31
0.0
  0
LINE
  5
4f8
100
AcDbEntity
  8
0
 62
7
100
AcDbLine
 10
43.372290
 20
29.518156
 30
0.0
 11
42.758634
 21
28.975943
 31
0.0
  0
LINE
  5
4f9
100
AcDbEntity
  8
0
 62
7
100
AcDbLine
 10
42.758634
 20
28.975943
 30
0.0
 11
41.903702
 21
28.505997
 31
0.0
  0
LINE
  5
4fa
100
AcDbEntity
  8
0
 62
7
100
AcDbLine
 10
41.903702
 20
28.505997
 30
0.0
 11
40.825654
 21
28.120836
 31
0.0
  0
LINE
  5
4fb
100
AcDbEntity
  8
0
 62
7
100
AcDbLine
 10
40.825654
 20
28.120836
 30
0.0
 11
39.542652
 21
27.832977
 31
0.0
  0
LINE
  5
4fc
100
AcDbEntity
  8
0
 62
7
100
AcDbLine
 10
39.542652
 20
27.832977
 30
0.0
 11
38.072856
 21
27.654936
 31
0.0
  0
LINE
  5
4fd
100
AcDbEntity
  8
0
 62
7
100
AcDbLine
 10
38.072856
 20
27.654936
 30
0.0
 11
36.773311
 21
27.610625
 31
0.0
  0
LINE
  5
4fe
100
AcDbEntity
  8
0
 62
7
100
AcDbLine
 10
36.773311
 20
27.610625
 30
0.0
 11
36.026745
 21
27.685754
 31
0.0
  0
LINE
  5
4ff
100
AcDbEntity
  8
0
 62
7
100
AcDbLine
 10
36.026745
 20
27.685754
 30
0.0
 11
36.026745
 21
27.685754
 31
0.0
  0
LINE
  5
500
100
AcDbEntity
  8
0
 62
7
100
AcDbLine
 10
65.414545
 20
31.595387
 30
0.0
 11
65.347023
 21
32.008167
 31
0.0
  0
LINE
  5
501
100
AcDbEntity
  8
0
 62
7
100
AcDbLine
 10
65.347023
 20
32.008167
 30
0.0
 11
65.484118
 21
32.323881
 31
0.0
  0
LINE
  5
502
100
AcDbEntity
  8
0
 62
7
100
AcDbLine
 10
65.484118
 20
32.323881
 30
0.0
 11
65.810723
 21
32.525671
 31
0.0
  0
LINE
  5
503
100
AcDbEntity
  8
0
 62
7
100
AcDbLine
 10
65.810723
 20
32.525671
 30
0.0
 11
66.311735
 21
32.596681
 31
0.0
  0
LINE
  5
504
100
AcDbEntity
  8
0
 62
7
100
AcDbLine
 10
66.311735
 20
32.596681
 30
0.0
 11
66.733603
 21
32.554387
 31
0.0
  0
LINE
  5
505
100
AcDbEntity
  8
0
 62
7
100
AcDbLine
 10
66.733603
 20
32.554387
 30
0.0
 11
66.947614
 21
32.403505
 31
0.0
  0
LINE
  5
506
100
AcDbEntity
  8
0
 62
7
100
AcDbLine
 10
66.947614
 20
32.403505
 30
0.0
 11
66.973085
 21
32.108036
 31
0.0
  0
LINE
  5
507
100
AcDbEntity
  8
0
 62
7
100
AcDbLine
 10
66.973085
 20
32.108036
 30
0.0
 11
66.829328
 21
31.631983
 31
0.0
  0
LINE
  5
508
100
AcDbEntity
  8
0
 62
7
100
AcDbLine
 10
66.829328
 20
31.631983
 30
0.0
 11
66.547263
 21
31.312955
 31
0.0
  0
LINE
  5
509
100
AcDbEntity
  8
0
 62
7
100
AcDbLine
 10
66.547263
 20
31.312955
 30
0.0
 11
66.120353
 21
31.198002
 31
0.0
  0
LINE
  5
50a
100
AcDbEntity
  8
0
 62
7
100
AcDbLine
 10
66.120353
 20
31.198002
 30
0.0
 11
65.694235
 21
31.290890
 31
0.0
  0
LINE
  5
50b
100
AcDbEntity
  8
0
 62
7
100
AcDbLine
 10
65.694235
 20
31.290890
 30
0.0
 11
65.414545
 21
31.595387
 31
0.0
  0
LINE
  5
50c
100
AcDbEntity
  8
0
 62
7
100
AcDbLine
 10
65.414545
 20
31.595387
 30
0.0
 11
65.414545
 21
31.595387
 31
0.0
  0
LINE
  5
50d
100
AcDbEntity
  8
0
 62
7
100
AcDbLine
 10
15.880781
 20
32.934783
 30
0.0
 11
13.590076
 21
34.806306
 31
0.0
  0
LINE
  5
50e
100
AcDbEntity
  8
0
 62
7
100
AcDbLine
 10
13.590076
 20
34.806306
 30
0.0
 11
12.779103
 21
35.455520
 31
0.0
  0
LINE
  5
50f
100
AcDbEntity
  8
0
 62
7
100
AcDbLine
 10
12.779103
 20
35.455520
 30
0.0
 11
12.346963
 21
36.035239
 31
0.0
  0
LINE
  5
510
100
AcDbEntity
  8
0
 62
7
100
AcDbLine
 10
12.346963
 20
36.035239
 30
0.0
 11
12.285907
 21
36.562859
 31
0.0
  0
LINE
  5
511
100
AcDbEntity
  8
0
 62
7
100
AcDbLine
 10
12.285907
 20
36.562859
 30
0.0
 11
12.588188
 21
37.055777
 31
0.0
  0
LINE
  5
512
100
AcDbEntity
  8
0
 62
7
100
AcDbLine
 10
12.588188
 20
37.055777
 30
0.0
 11
12.978629
 21
37.295707
 31
0.0
  0
LINE
  5
513
100
AcDbEntity
  8
0
 62
7
100
AcDbLine
 10
12.978629
 20
37.295707
 30
0.0
 11
13.443508
 21
37.332490
 31
0.0
  0
LINE
  5
514
100
AcDbEntity
  8
0
 62
7
100
AcDbLine
 10
13.443508
 20
37.332490
 30
0.0
 11
13.962420
 21
37.180892
 31
0.0
  0
LINE
  5
515
100
AcDbEntity
  8
0
 62
7
100
AcDbLine
 10
13.962420
 20
37.180892
 30
0.0
 11
14.514965
 21
36.855677
 31
0.0
  0
LINE
  5
516
100
AcDbEntity
  8
0
 62
7
100
AcDbLine
 10
14.514965
 20
36.855677
 30
0.0
 11
15.639346
 21
35.743450
 31
0.0
  0
LINE
  5
517
100
AcDbEntity
  8
0
 62
7
100
AcDbLine
 10
15.639346
 20
35.743450
 30
0.0
 11
16.653435
 21
34.113921
 31
0.0
  0
LINE
  5
518
100
AcDbEntity
  8
0
 62
7
100
AcDbLine
 10
16.653435
 20
34.113921
 30
0.0
 11
17.136994
 21
32.896718
 31
0.0
  0
LINE
  5
519
100
AcDbEntity
  8
0
 62
7
100
AcDbLine
 10
17.136994
 20
32.896718
 30
0.0
 11
17.148324
 21
32.262289
 31
0.0
  0
LINE
  5
51a
100
AcDbEntity
  8
0
 62
7
100
AcDbLine
 10
17.148324
 20
32.262289
 30
0.0
 11
16.986785
 21
32.178696
 31
0.0
  0
LINE
  5
51b
100
AcDbEntity
  8
0
 62
7
100
AcDbLine
 10
16.986785
 20
32.178696
 30
0.0
 11
16.719046
 21
32.258892
 31
0.0
  0
LINE
  5
51c
100
AcDbEntity
  8
0
 62
7
100
AcDbLine
 10
16.719046
 20
32.258892
 30
0.0
 11
15.880781
 21
32.934783
 31
0.0
  0
LINE
  5
51d
100
AcDbEntity
  8
0
 62
7
100
AcDbLine
 10
15.880781
 20
32.934783
 30
0.0
 11
15.880781
 21
32.934783
 31
0.0
  0
LINE
  5
51e
100
AcDbEntity
  8
0
 62
7
100
AcDbLine
 10
30.593967
 20
33.489180
 30
0.0
 11
31.443747
 21
35.141518
 31
0.0
  0
LINE
  5
51f
100
AcDbEntity
  8
0
 62
7
100
AcDbLine
 10
31.443747
 20
35.141518
 30
0.0
 11
32.257517
 21
36.606965
 31
0.0
  0
LINE
  5
520
100
AcDbEntity
  8
0
 62
7
100
AcDbLine
 10
32.257517
 20
36.606965
 30
0.0
 11
33.020720
 21
38.270668
 31
0.0
  0
LINE
  5
521
100
AcDbEntity
  8
0
 62
7
100
AcDbLine
 10
33.020720
 20
38.270668
 30
0.0
 11
33.568565
 21
39.564607
 31
0.0
  0
LINE
  5
522
100
AcDbEntity
  8
0
 62
7
100
AcDbLine
 10
33.568565
 20
39.564607
 30
0.0
 11
33.974788
 21
40.242913
 31
0.0
  0
LINE
  5
523
100
AcDbEntity
  8
0
 62
7
100
AcDbLine
 10
33.974788
 20
40.242913
 30
0.0
 11
34.383698
 21
40.464985
 31
0.0
  0
LINE
  5
524
100
AcDbEntity
  8
0
 62
7
100
AcDbLine
 10
34.383698
 20
40.464985
 30
0.0
 11
34.939602
 21
40.390225
 31
0.0
  0
LINE
  5
525
100
AcDbEntity
  8
0
 62
7
100
AcDbLine
 10
34.939602
 20
40.390225
 30
0.0
 11
35.501924
 21
40.153969
 31
0.0
  0
LINE
  5
526
100
AcDbEntity
  8
0
 62
7
100
AcDbLine
 10
35.501924
 20
40.153969
 30
0.0
 11
35.873416
 21
39.784941
 31
0.0
  0
LINE
  5
527
100
AcDbEntity
  8
0
 62
7
100
AcDbLine
 10
35.873416
 20
39.784941
 30
0.0
 11
36.056164
 21
39.296984
 31
0.0
  0
LINE
  5
528
100
AcDbEntity
  8
0
 62
7
100
AcDbLine
 10
36.056164
 20
39.296984
 30
0.0
 11
36.052252
 21
38.703941
 31
0.0
  0
LINE
  5
529
100
AcDbEntity
  8
0
 62
7
100
AcDbLine
 10
36.052252
 20
38.703941
 30
0.0
 11
35.863765
 21
38.019654
 31
0.0
  0
LINE
  5
52a
100
AcDbEntity
  8
0
 62
7
100
AcDbLine
 10
35.863765
 20
38.019654
 30
0.0
 11
35.492789
 21
37.257968
 31
0.0
  0
LINE
  5
52b
100
AcDbEntity
  8
0
 62
7
100
AcDbLine
 10
35.492789
 20
37.257968
 30
0.0
 11
34.211709
 21
35.557765
 31
0.0
  0
LINE
  5
52c
100
AcDbEntity
  8
0
 62
7
100
AcDbLine
 10
34.211709
 20
35.557765
 30
0.0
 11
32.893934
 21
34.280162
 31
0.0
  0
LINE
  5
52d
100
AcDbEntity
  8
0
 62
7
100
AcDbLine
 10
32.893934
 20
34.280162
 30
0.0
 11
31.733947
 21
33.442190
 31
0.0
  0
LINE
  5
52e
100
AcDbEntity
  8
0
 62
7
100
AcDbLine
 10
31.733947
 20
33.442190
 30
0.0
 11
30.908405
 21
33.144859
 31
0.0
  0
LINE
  5
52f
100
AcDbEntity
  8
0
 62
7
100
AcDbLine
 10
30.908405
 20
33.144859
 30
0.0
 11
30.676257
 21
33.230500
 31
0.0
  0
LINE
  5
530
100
AcDbEntity
  8
0
 62
7
100
AcDbLine
 10
30.676257
 20
33.230500
 30
0.0
 11
30.593967
 21
33.489180
 31
0.0
  0
LINE
  5
531
100
AcDbEntity
  8
0
 62
7
100
AcDbLine
 10
30.593967
 20
33.489180
 30
0.0
 11
30.593967
 21
33.489180
 31
0.0
  0
LINE
  5
532
100
AcDbEntity
  8
0
 62
7
100
AcDbLine
 10
23.418795
 20
34.624890
 30
0.0
 11
23.115486
 21
37.023539
 31
0.0
  0
LINE
  5
533
100
AcDbEntity
  8
0
 62
7
100
AcDbLine
 10
23.115486
 20
37.023539
 30
0.0
 11
22.869650
 21
40.216666
 31
0.0
  0
LINE
  5
534
100
AcDbEntity
  8
0
 62
7
100
AcDbLine
 10
22.869650
 20
40.216666
 30
0.0
 11
22.966864
 21
41.052749
 31
0.0
  0
LINE
  5
535
100
AcDbEntity
  8
0
 62
7
100
AcDbLine
 10
22.966864
 20
41.052749
 30
0.0
 11
23.191125
 21
41.214134
 31
0.0
  0
LINE
  5
536
100
AcDbEntity
  8
0
 62
7
100
AcDbLine
 10
23.191125
 20
41.214134
 30
0.0
 11
23.591293
 21
41.292040
 31
0.0
  0
LINE
  5
537
100
AcDbEntity
  8
0
 62
7
100
AcDbLine
 10
23.591293
 20
41.292040
 30
0.0
 11
24.288031
 21
41.197118
 31
0.0
  0
LINE
  5
538
100
AcDbEntity
  8
0
 62
7
100
AcDbLine
 10
24.288031
 20
41.197118
 30
0.0
 11
24.830508
 21
40.645881
 31
0.0
  0
LINE
  5
539
100
AcDbEntity
  8
0
 62
7
100
AcDbLine
 10
24.830508
 20
40.645881
 30
0.0
 11
25.068911
 21
40.048711
 31
0.0
  0
LINE
  5
53a
100
AcDbEntity
  8
0
 62
7
100
AcDbLine
 10
25.068911
 20
40.048711
 30
0.0
 11
25.178103
 21
39.246175
 31
0.0
  0
LINE
  5
53b
100
AcDbEntity
  8
0
 62
7
100
AcDbLine
 10
25.178103
 20
39.246175
 30
0.0
 11
25.058914
 21
37.333064
 31
0.0
  0
LINE
  5
53c
100
AcDbEntity
  8
0
 62
7
100
AcDbLine
 10
25.058914
 20
37.333064
 30
0.0
 11
24.573056
 21
35.522671
 31
0.0
  0
LINE
  5
53d
100
AcDbEntity
  8
0
 62
7
100
AcDbLine
 10
24.573056
 20
35.522671
 30
0.0
 11
24.223913
 21
34.848533
 31
0.0
  0
LINE
  5
53e
100
AcDbEntity
  8
0
 62
7
100
AcDbLine
 10
24.223913
 20
34.848533
 30
0.0
 11
23.820646
 21
34.431119
 31
0.0
  0
LINE
  5
53f
100
AcDbEntity
  8
0
 62
7
100
AcDbLine
 10
23.820646
 20
34.431119
 30
0.0
 11
23.584535
 21
34.415067
 31
0.0
  0
LINE
  5
540
100
AcDbEntity
  8
0
 62
7
100
AcDbLine
 10
23.584535
 20
34.415067
 30
0.0
 11
23.418795
 21
34.624890
 31
0.0
  0
LINE
  5
541
100
AcDbEntity
  8
0
 62
7
100
AcDbLine
 10
23.418795
 20
34.624890
 30
0.0
 11
23.418795
 21
34.624890
 31
0.0
  0
ENDSEC
  0
SECTION
  2
OBJECTS
  0
DICTIONARY
  5
C
330
0
100
AcDbDictionary
  3
ACAD_GROUP
350
D
  3
ACAD_MLINESTYLE
350
17
  0
DICTIONARY
  5
D
330
C
100
AcDbDictionary
  0
DICTIONARY
  5
1A
330
C
100
AcDbDictionary
  0
DICTIONARY
  5
17
330
C
100
AcDbDictionary
  3
STANDARD
350
18
  0
DICTIONARY
  5
19
330
C
100
AcDbDictionary
  0
ENDSEC
  0
EOF
